%TF.GenerationSoftware,KiCad,Pcbnew,7.0.1-0*%
%TF.CreationDate,2023-04-17T19:08:21-07:00*%
%TF.ProjectId,msp-debugger,6d73702d-6465-4627-9567-6765722e6b69,rev?*%
%TF.SameCoordinates,Original*%
%TF.FileFunction,Paste,Top*%
%TF.FilePolarity,Positive*%
%FSLAX46Y46*%
G04 Gerber Fmt 4.6, Leading zero omitted, Abs format (unit mm)*
G04 Created by KiCad (PCBNEW 7.0.1-0) date 2023-04-17 19:08:21*
%MOMM*%
%LPD*%
G01*
G04 APERTURE LIST*
%ADD10O,0.890000X1.550000*%
%ADD11O,1.250000X0.950000*%
%ADD12R,0.400000X1.350000*%
%ADD13R,1.200000X1.550000*%
%ADD14R,1.500000X1.550000*%
%ADD15R,1.500000X0.900000*%
%ADD16R,0.900000X1.500000*%
%ADD17R,0.900000X0.900000*%
%ADD18R,3.000000X1.600000*%
%ADD19R,6.200000X5.800000*%
G04 APERTURE END LIST*
%TO.C,R1*%
G36*
G01*
X155320000Y-136045000D02*
X154420000Y-136045000D01*
G75*
G02*
X154170000Y-135795000I0J250000D01*
G01*
X154170000Y-135270000D01*
G75*
G02*
X154420000Y-135020000I250000J0D01*
G01*
X155320000Y-135020000D01*
G75*
G02*
X155570000Y-135270000I0J-250000D01*
G01*
X155570000Y-135795000D01*
G75*
G02*
X155320000Y-136045000I-250000J0D01*
G01*
G37*
G36*
G01*
X155320000Y-134220000D02*
X154420000Y-134220000D01*
G75*
G02*
X154170000Y-133970000I0J250000D01*
G01*
X154170000Y-133445000D01*
G75*
G02*
X154420000Y-133195000I250000J0D01*
G01*
X155320000Y-133195000D01*
G75*
G02*
X155570000Y-133445000I0J-250000D01*
G01*
X155570000Y-133970000D01*
G75*
G02*
X155320000Y-134220000I-250000J0D01*
G01*
G37*
%TD*%
D10*
%TO.C,J1*%
X143500000Y-59750000D03*
D11*
X142500000Y-62450000D03*
X137500000Y-62450000D03*
D10*
X136500000Y-59750000D03*
D12*
X141300000Y-62450000D03*
X140650000Y-62450000D03*
X140000000Y-62450000D03*
X139350000Y-62450000D03*
X138700000Y-62450000D03*
D13*
X142900000Y-59750000D03*
D14*
X141000000Y-59750000D03*
X139000000Y-59750000D03*
D13*
X137100000Y-59750000D03*
%TD*%
%TO.C,C4*%
G36*
G01*
X151200000Y-59525000D02*
X151200000Y-60475000D01*
G75*
G02*
X150950000Y-60725000I-250000J0D01*
G01*
X150450000Y-60725000D01*
G75*
G02*
X150200000Y-60475000I0J250000D01*
G01*
X150200000Y-59525000D01*
G75*
G02*
X150450000Y-59275000I250000J0D01*
G01*
X150950000Y-59275000D01*
G75*
G02*
X151200000Y-59525000I0J-250000D01*
G01*
G37*
G36*
G01*
X149300000Y-59525000D02*
X149300000Y-60475000D01*
G75*
G02*
X149050000Y-60725000I-250000J0D01*
G01*
X148550000Y-60725000D01*
G75*
G02*
X148300000Y-60475000I0J250000D01*
G01*
X148300000Y-59525000D01*
G75*
G02*
X148550000Y-59275000I250000J0D01*
G01*
X149050000Y-59275000D01*
G75*
G02*
X149300000Y-59525000I0J-250000D01*
G01*
G37*
%TD*%
D15*
%TO.C,U1*%
X148520000Y-130360000D03*
X148520000Y-129090000D03*
X148520000Y-127820000D03*
X148520000Y-126550000D03*
X148520000Y-125280000D03*
X148520000Y-124010000D03*
X148520000Y-122740000D03*
X148520000Y-121470000D03*
X148520000Y-120200000D03*
X148520000Y-118930000D03*
X148520000Y-117660000D03*
X148520000Y-116390000D03*
X148520000Y-115120000D03*
X148520000Y-113850000D03*
D16*
X146755000Y-112600000D03*
X145485000Y-112600000D03*
X144215000Y-112600000D03*
X142945000Y-112600000D03*
X141675000Y-112600000D03*
X140405000Y-112600000D03*
X139135000Y-112600000D03*
X137865000Y-112600000D03*
X136595000Y-112600000D03*
X135325000Y-112600000D03*
X134055000Y-112600000D03*
X132785000Y-112600000D03*
D15*
X131020000Y-113850000D03*
X131020000Y-115120000D03*
X131020000Y-116390000D03*
X131020000Y-117660000D03*
X131020000Y-118930000D03*
X131020000Y-120200000D03*
X131020000Y-121470000D03*
X131020000Y-122740000D03*
X131020000Y-124010000D03*
X131020000Y-125280000D03*
X131020000Y-126550000D03*
X131020000Y-127820000D03*
X131020000Y-129090000D03*
X131020000Y-130360000D03*
D17*
X142670000Y-124040000D03*
X142670000Y-122640000D03*
X142670000Y-121240000D03*
X141270000Y-124040000D03*
X141270000Y-122640000D03*
X141270000Y-121240000D03*
X139870000Y-124040000D03*
X139870000Y-122640000D03*
X139870000Y-121240000D03*
%TD*%
%TO.C,C5*%
G36*
G01*
X155345000Y-129720000D02*
X154395000Y-129720000D01*
G75*
G02*
X154145000Y-129470000I0J250000D01*
G01*
X154145000Y-128970000D01*
G75*
G02*
X154395000Y-128720000I250000J0D01*
G01*
X155345000Y-128720000D01*
G75*
G02*
X155595000Y-128970000I0J-250000D01*
G01*
X155595000Y-129470000D01*
G75*
G02*
X155345000Y-129720000I-250000J0D01*
G01*
G37*
G36*
G01*
X155345000Y-127820000D02*
X154395000Y-127820000D01*
G75*
G02*
X154145000Y-127570000I0J250000D01*
G01*
X154145000Y-127070000D01*
G75*
G02*
X154395000Y-126820000I250000J0D01*
G01*
X155345000Y-126820000D01*
G75*
G02*
X155595000Y-127070000I0J-250000D01*
G01*
X155595000Y-127570000D01*
G75*
G02*
X155345000Y-127820000I-250000J0D01*
G01*
G37*
%TD*%
%TO.C,C2*%
G36*
G01*
X119000000Y-67225000D02*
X119000000Y-66275000D01*
G75*
G02*
X119250000Y-66025000I250000J0D01*
G01*
X119750000Y-66025000D01*
G75*
G02*
X120000000Y-66275000I0J-250000D01*
G01*
X120000000Y-67225000D01*
G75*
G02*
X119750000Y-67475000I-250000J0D01*
G01*
X119250000Y-67475000D01*
G75*
G02*
X119000000Y-67225000I0J250000D01*
G01*
G37*
G36*
G01*
X120900000Y-67225000D02*
X120900000Y-66275000D01*
G75*
G02*
X121150000Y-66025000I250000J0D01*
G01*
X121650000Y-66025000D01*
G75*
G02*
X121900000Y-66275000I0J-250000D01*
G01*
X121900000Y-67225000D01*
G75*
G02*
X121650000Y-67475000I-250000J0D01*
G01*
X121150000Y-67475000D01*
G75*
G02*
X120900000Y-67225000I0J250000D01*
G01*
G37*
%TD*%
%TO.C,C1*%
G36*
G01*
X119000000Y-61725000D02*
X119000000Y-60775000D01*
G75*
G02*
X119250000Y-60525000I250000J0D01*
G01*
X119750000Y-60525000D01*
G75*
G02*
X120000000Y-60775000I0J-250000D01*
G01*
X120000000Y-61725000D01*
G75*
G02*
X119750000Y-61975000I-250000J0D01*
G01*
X119250000Y-61975000D01*
G75*
G02*
X119000000Y-61725000I0J250000D01*
G01*
G37*
G36*
G01*
X120900000Y-61725000D02*
X120900000Y-60775000D01*
G75*
G02*
X121150000Y-60525000I250000J0D01*
G01*
X121650000Y-60525000D01*
G75*
G02*
X121900000Y-60775000I0J-250000D01*
G01*
X121900000Y-61725000D01*
G75*
G02*
X121650000Y-61975000I-250000J0D01*
G01*
X121150000Y-61975000D01*
G75*
G02*
X120900000Y-61725000I0J250000D01*
G01*
G37*
%TD*%
%TO.C,C3*%
G36*
G01*
X124300000Y-64475000D02*
X124300000Y-63525000D01*
G75*
G02*
X124550000Y-63275000I250000J0D01*
G01*
X125050000Y-63275000D01*
G75*
G02*
X125300000Y-63525000I0J-250000D01*
G01*
X125300000Y-64475000D01*
G75*
G02*
X125050000Y-64725000I-250000J0D01*
G01*
X124550000Y-64725000D01*
G75*
G02*
X124300000Y-64475000I0J250000D01*
G01*
G37*
G36*
G01*
X126200000Y-64475000D02*
X126200000Y-63525000D01*
G75*
G02*
X126450000Y-63275000I250000J0D01*
G01*
X126950000Y-63275000D01*
G75*
G02*
X127200000Y-63525000I0J-250000D01*
G01*
X127200000Y-64475000D01*
G75*
G02*
X126950000Y-64725000I-250000J0D01*
G01*
X126450000Y-64725000D01*
G75*
G02*
X126200000Y-64475000I0J250000D01*
G01*
G37*
%TD*%
%TO.C,D1*%
G36*
G01*
X158481000Y-60750000D02*
X159781000Y-60750000D01*
G75*
G02*
X160031000Y-61000000I0J-250000D01*
G01*
X160031000Y-63000000D01*
G75*
G02*
X159781000Y-63250000I-250000J0D01*
G01*
X158481000Y-63250000D01*
G75*
G02*
X158231000Y-63000000I0J250000D01*
G01*
X158231000Y-61000000D01*
G75*
G02*
X158481000Y-60750000I250000J0D01*
G01*
G37*
G36*
G01*
X158481000Y-64750000D02*
X159781000Y-64750000D01*
G75*
G02*
X160031000Y-65000000I0J-250000D01*
G01*
X160031000Y-67000000D01*
G75*
G02*
X159781000Y-67250000I-250000J0D01*
G01*
X158481000Y-67250000D01*
G75*
G02*
X158231000Y-67000000I0J250000D01*
G01*
X158231000Y-65000000D01*
G75*
G02*
X158481000Y-64750000I250000J0D01*
G01*
G37*
%TD*%
D18*
%TO.C,U3*%
X165670000Y-61965000D03*
X165670000Y-66535000D03*
D19*
X172840000Y-64250000D03*
%TD*%
%TO.C,C6*%
G36*
G01*
X90250000Y-124525000D02*
X90250000Y-125475000D01*
G75*
G02*
X90000000Y-125725000I-250000J0D01*
G01*
X89500000Y-125725000D01*
G75*
G02*
X89250000Y-125475000I0J250000D01*
G01*
X89250000Y-124525000D01*
G75*
G02*
X89500000Y-124275000I250000J0D01*
G01*
X90000000Y-124275000D01*
G75*
G02*
X90250000Y-124525000I0J-250000D01*
G01*
G37*
G36*
G01*
X88350000Y-124525000D02*
X88350000Y-125475000D01*
G75*
G02*
X88100000Y-125725000I-250000J0D01*
G01*
X87600000Y-125725000D01*
G75*
G02*
X87350000Y-125475000I0J250000D01*
G01*
X87350000Y-124525000D01*
G75*
G02*
X87600000Y-124275000I250000J0D01*
G01*
X88100000Y-124275000D01*
G75*
G02*
X88350000Y-124525000I0J-250000D01*
G01*
G37*
%TD*%
%TO.C,F1*%
G36*
G01*
X147050000Y-67450000D02*
X147050000Y-64550000D01*
G75*
G02*
X147300000Y-64300000I250000J0D01*
G01*
X147925000Y-64300000D01*
G75*
G02*
X148175000Y-64550000I0J-250000D01*
G01*
X148175000Y-67450000D01*
G75*
G02*
X147925000Y-67700000I-250000J0D01*
G01*
X147300000Y-67700000D01*
G75*
G02*
X147050000Y-67450000I0J250000D01*
G01*
G37*
G36*
G01*
X151325000Y-67450000D02*
X151325000Y-64550000D01*
G75*
G02*
X151575000Y-64300000I250000J0D01*
G01*
X152200000Y-64300000D01*
G75*
G02*
X152450000Y-64550000I0J-250000D01*
G01*
X152450000Y-67450000D01*
G75*
G02*
X152200000Y-67700000I-250000J0D01*
G01*
X151575000Y-67700000D01*
G75*
G02*
X151325000Y-67450000I0J250000D01*
G01*
G37*
%TD*%
M02*
