G04 #@! TF.GenerationSoftware,KiCad,Pcbnew,7.0.1-0*
G04 #@! TF.CreationDate,2023-04-17T19:11:43-07:00*
G04 #@! TF.ProjectId,msp-debugger,6d73702d-6465-4627-9567-6765722e6b69,rev?*
G04 #@! TF.SameCoordinates,Original*
G04 #@! TF.FileFunction,Soldermask,Top*
G04 #@! TF.FilePolarity,Negative*
%FSLAX46Y46*%
G04 Gerber Fmt 4.6, Leading zero omitted, Abs format (unit mm)*
G04 Created by KiCad (PCBNEW 7.0.1-0) date 2023-04-17 19:11:43*
%MOMM*%
%LPD*%
G01*
G04 APERTURE LIST*
G04 Aperture macros list*
%AMRoundRect*
0 Rectangle with rounded corners*
0 $1 Rounding radius*
0 $2 $3 $4 $5 $6 $7 $8 $9 X,Y pos of 4 corners*
0 Add a 4 corners polygon primitive as box body*
4,1,4,$2,$3,$4,$5,$6,$7,$8,$9,$2,$3,0*
0 Add four circle primitives for the rounded corners*
1,1,$1+$1,$2,$3*
1,1,$1+$1,$4,$5*
1,1,$1+$1,$6,$7*
1,1,$1+$1,$8,$9*
0 Add four rect primitives between the rounded corners*
20,1,$1+$1,$2,$3,$4,$5,0*
20,1,$1+$1,$4,$5,$6,$7,0*
20,1,$1+$1,$6,$7,$8,$9,0*
20,1,$1+$1,$8,$9,$2,$3,0*%
G04 Aperture macros list end*
%ADD10RoundRect,0.250000X0.450000X-0.262500X0.450000X0.262500X-0.450000X0.262500X-0.450000X-0.262500X0*%
%ADD11R,1.508000X1.508000*%
%ADD12C,1.508000*%
%ADD13R,1.500000X1.500000*%
%ADD14R,0.400000X1.350000*%
%ADD15O,0.890000X1.550000*%
%ADD16R,1.200000X1.550000*%
%ADD17O,1.250000X0.950000*%
%ADD18R,1.500000X1.550000*%
%ADD19RoundRect,0.250000X0.250000X0.475000X-0.250000X0.475000X-0.250000X-0.475000X0.250000X-0.475000X0*%
%ADD20R,1.500000X0.900000*%
%ADD21R,0.900000X1.500000*%
%ADD22R,0.900000X0.900000*%
%ADD23RoundRect,0.250000X0.475000X-0.250000X0.475000X0.250000X-0.475000X0.250000X-0.475000X-0.250000X0*%
%ADD24RoundRect,0.250000X-0.250000X-0.475000X0.250000X-0.475000X0.250000X0.475000X-0.250000X0.475000X0*%
%ADD25C,2.600000*%
%ADD26RoundRect,0.250000X-0.650000X1.000000X-0.650000X-1.000000X0.650000X-1.000000X0.650000X1.000000X0*%
%ADD27R,3.000000X1.600000*%
%ADD28R,6.200000X5.800000*%
%ADD29C,2.000000*%
%ADD30C,1.500000*%
%ADD31R,1.200000X1.200000*%
%ADD32C,1.200000*%
%ADD33RoundRect,0.250000X-0.312500X-1.450000X0.312500X-1.450000X0.312500X1.450000X-0.312500X1.450000X0*%
G04 APERTURE END LIST*
D10*
X154870000Y-135532500D03*
X154870000Y-133707500D03*
D11*
X187250000Y-80750000D03*
D12*
X187250000Y-85250000D03*
X193750000Y-80750000D03*
X193750000Y-85250000D03*
D13*
X168656000Y-125349000D03*
D11*
X114000000Y-116000000D03*
D12*
X114000000Y-120500000D03*
X120500000Y-116000000D03*
X120500000Y-120500000D03*
D11*
X102110000Y-116000000D03*
D12*
X102110000Y-120500000D03*
X108610000Y-116000000D03*
X108610000Y-120500000D03*
D14*
X141300000Y-62450000D03*
X140650000Y-62450000D03*
X140000000Y-62450000D03*
X139350000Y-62450000D03*
X138700000Y-62450000D03*
D15*
X143500000Y-59750000D03*
D16*
X142900000Y-59750000D03*
D17*
X142500000Y-62450000D03*
D18*
X141000000Y-59750000D03*
X139000000Y-59750000D03*
D17*
X137500000Y-62450000D03*
D16*
X137100000Y-59750000D03*
D15*
X136500000Y-59750000D03*
D19*
X150700000Y-60000000D03*
X148800000Y-60000000D03*
D20*
X148520000Y-130360000D03*
X148520000Y-129090000D03*
X148520000Y-127820000D03*
X148520000Y-126550000D03*
X148520000Y-125280000D03*
X148520000Y-124010000D03*
X148520000Y-122740000D03*
X148520000Y-121470000D03*
X148520000Y-120200000D03*
X148520000Y-118930000D03*
X148520000Y-117660000D03*
X148520000Y-116390000D03*
X148520000Y-115120000D03*
X148520000Y-113850000D03*
D21*
X146755000Y-112600000D03*
X145485000Y-112600000D03*
X144215000Y-112600000D03*
X142945000Y-112600000D03*
X141675000Y-112600000D03*
X140405000Y-112600000D03*
X139135000Y-112600000D03*
X137865000Y-112600000D03*
X136595000Y-112600000D03*
X135325000Y-112600000D03*
X134055000Y-112600000D03*
X132785000Y-112600000D03*
D20*
X131020000Y-113850000D03*
X131020000Y-115120000D03*
X131020000Y-116390000D03*
X131020000Y-117660000D03*
X131020000Y-118930000D03*
X131020000Y-120200000D03*
X131020000Y-121470000D03*
X131020000Y-122740000D03*
X131020000Y-124010000D03*
X131020000Y-125280000D03*
X131020000Y-126550000D03*
X131020000Y-127820000D03*
X131020000Y-129090000D03*
X131020000Y-130360000D03*
D22*
X142670000Y-124040000D03*
X142670000Y-122640000D03*
X142670000Y-121240000D03*
X141270000Y-124040000D03*
X141270000Y-122640000D03*
X141270000Y-121240000D03*
X139870000Y-124040000D03*
X139870000Y-122640000D03*
X139870000Y-121240000D03*
D23*
X154870000Y-129220000D03*
X154870000Y-127320000D03*
D24*
X119500000Y-66750000D03*
X121400000Y-66750000D03*
D13*
X95631000Y-116840000D03*
D11*
X85500000Y-116000000D03*
D12*
X85500000Y-120500000D03*
X92000000Y-116000000D03*
X92000000Y-120500000D03*
D25*
X103250000Y-61040000D03*
X113250000Y-63540000D03*
X103250000Y-66040000D03*
D24*
X119500000Y-61250000D03*
X121400000Y-61250000D03*
X124800000Y-64000000D03*
X126700000Y-64000000D03*
D26*
X159131000Y-62000000D03*
X159131000Y-66000000D03*
D27*
X165670000Y-61965000D03*
X165670000Y-66535000D03*
D28*
X172840000Y-64250000D03*
D29*
X102342500Y-104900000D03*
X177342500Y-72900000D03*
D13*
X102342500Y-80010000D03*
D30*
X102342500Y-82550000D03*
X102342500Y-85090000D03*
X102342500Y-87630000D03*
X102342500Y-90170000D03*
X102342500Y-92710000D03*
X102342500Y-95250000D03*
X102342500Y-97790000D03*
X177342500Y-80010000D03*
X177342500Y-82550000D03*
X177342500Y-85090000D03*
X177342500Y-87630000D03*
X177342500Y-90170000D03*
X177342500Y-92710000D03*
X177342500Y-95250000D03*
X177342500Y-97790000D03*
D31*
X85090000Y-78290000D03*
D32*
X85090000Y-80830000D03*
X85090000Y-83370000D03*
X85090000Y-85910000D03*
X85090000Y-88450000D03*
X85090000Y-90990000D03*
X85090000Y-93530000D03*
X85090000Y-96070000D03*
X85090000Y-98610000D03*
X85090000Y-101150000D03*
X92710000Y-101150000D03*
X92710000Y-98610000D03*
X92710000Y-96070000D03*
X92710000Y-93530000D03*
X92710000Y-90990000D03*
X92710000Y-88450000D03*
X92710000Y-85910000D03*
X92710000Y-83370000D03*
X92710000Y-80830000D03*
X92710000Y-78290000D03*
D19*
X89750000Y-125000000D03*
X87850000Y-125000000D03*
D11*
X167000000Y-116000000D03*
D12*
X167000000Y-120500000D03*
X173500000Y-116000000D03*
X173500000Y-120500000D03*
D33*
X147612500Y-66000000D03*
X151887500Y-66000000D03*
D11*
X187250000Y-91730000D03*
D12*
X187250000Y-96230000D03*
X193750000Y-91730000D03*
X193750000Y-96230000D03*
M02*
