M48
; DRILL file {KiCad (7.0.0)} date Mon Apr 17 23:01:32 2023
; FORMAT={-:-/ absolute / metric / decimal}
; #@! TF.CreationDate,2023-04-17T23:01:32-07:00
; #@! TF.GenerationSoftware,Kicad,Pcbnew,(7.0.0)
; #@! TF.FileFunction,Plated,1,2,PTH
FMAT,2
METRIC
; #@! TA.AperFunction,Plated,PTH,ViaDrill
T1C0.305
; #@! TA.AperFunction,Plated,PTH,ViaDrill
T2C0.400
; #@! TA.AperFunction,Plated,PTH,ComponentDrill
T3C0.500
; #@! TA.AperFunction,Plated,PTH,ComponentDrill
T4C0.550
; #@! TA.AperFunction,Plated,PTH,ComponentDrill
T5C0.700
; #@! TA.AperFunction,Plated,PTH,ComponentDrill
T6C1.000
; #@! TA.AperFunction,Plated,PTH,ComponentDrill
T7C1.300
%
G90
G05
T1
X81.28Y-71.12
X81.28Y-81.28
X81.28Y-91.44
X81.28Y-101.6
X81.28Y-111.76
X81.28Y-121.92
X91.44Y-60.96
X91.44Y-132.08
X96.52Y-71.12
X101.6Y-132.08
X106.68Y-71.12
X111.76Y-132.08
X116.84Y-60.96
X116.84Y-81.28
X121.92Y-132.08
X127.0Y-60.96
X127.0Y-71.12
X127.0Y-81.28
X137.16Y-71.12
X137.16Y-81.28
X137.16Y-91.44
X142.24Y-132.08
X147.32Y-71.12
X147.32Y-91.44
X147.32Y-101.6
X157.48Y-71.12
X157.48Y-81.28
X157.48Y-121.92
X157.48Y-132.08
X167.64Y-101.6
X167.64Y-132.08
X177.8Y-60.96
X177.8Y-101.6
X177.8Y-121.92
X177.8Y-132.08
X187.96Y-60.96
X187.96Y-71.12
X187.96Y-101.6
X187.96Y-111.76
X187.96Y-121.92
X187.96Y-132.08
X198.12Y-71.12
X198.12Y-81.28
X198.12Y-91.44
X198.12Y-101.6
X198.12Y-111.76
X198.12Y-121.92
T2
X119.5Y-69.5
X151.75Y-131.5
X163.75Y-69.5
T5
X85.09Y-78.29
X85.09Y-80.83
X85.09Y-83.37
X85.09Y-85.91
X85.09Y-88.45
X85.09Y-90.99
X85.09Y-93.53
X85.09Y-96.07
X85.09Y-98.61
X85.09Y-101.15
X92.71Y-78.29
X92.71Y-80.83
X92.71Y-83.37
X92.71Y-85.91
X92.71Y-88.45
X92.71Y-90.99
X92.71Y-93.53
X92.71Y-96.07
X92.71Y-98.61
X92.71Y-101.15
T6
X85.5Y-116.0
X85.5Y-120.5
X92.0Y-116.0
X92.0Y-120.5
X102.11Y-116.0
X102.11Y-120.5
X102.343Y-80.01
X102.343Y-82.55
X102.343Y-85.09
X102.343Y-87.63
X102.343Y-90.17
X102.343Y-92.71
X102.343Y-95.25
X102.343Y-97.79
X108.61Y-116.0
X108.61Y-120.5
X114.0Y-116.0
X114.0Y-120.5
X120.5Y-116.0
X120.5Y-120.5
X167.0Y-116.0
X167.0Y-120.5
X173.5Y-116.0
X173.5Y-120.5
X177.343Y-80.01
X177.343Y-82.55
X177.343Y-85.09
X177.343Y-87.63
X177.343Y-90.17
X177.343Y-92.71
X177.343Y-95.25
X177.343Y-97.79
X187.25Y-80.75
X187.25Y-85.25
X187.25Y-91.73
X187.25Y-96.23
X193.75Y-80.75
X193.75Y-85.25
X193.75Y-91.73
X193.75Y-96.23
T7
X103.25Y-61.04
X103.25Y-66.04
X113.25Y-63.54
T3
X136.5Y-60.075G85X136.5Y-59.425
G05
X143.5Y-60.075G85X143.5Y-59.425
G05
T4
X137.65Y-62.45G85X137.35Y-62.45
G05
X142.65Y-62.45G85X142.35Y-62.45
G05
T0
M30
