%TF.GenerationSoftware,KiCad,Pcbnew,7.0.1-0*%
%TF.CreationDate,2023-04-17T19:08:21-07:00*%
%TF.ProjectId,msp-debugger,6d73702d-6465-4627-9567-6765722e6b69,rev?*%
%TF.SameCoordinates,Original*%
%TF.FileFunction,Copper,L2,Bot*%
%TF.FilePolarity,Positive*%
%FSLAX46Y46*%
G04 Gerber Fmt 4.6, Leading zero omitted, Abs format (unit mm)*
G04 Created by KiCad (PCBNEW 7.0.1-0) date 2023-04-17 19:08:21*
%MOMM*%
%LPD*%
G01*
G04 APERTURE LIST*
%TA.AperFunction,ComponentPad*%
%ADD10R,1.508000X1.508000*%
%TD*%
%TA.AperFunction,ComponentPad*%
%ADD11C,1.508000*%
%TD*%
%TA.AperFunction,ComponentPad*%
%ADD12O,0.890000X1.550000*%
%TD*%
%TA.AperFunction,ComponentPad*%
%ADD13O,1.250000X0.950000*%
%TD*%
%TA.AperFunction,ComponentPad*%
%ADD14C,2.600000*%
%TD*%
%TA.AperFunction,ComponentPad*%
%ADD15R,1.500000X1.500000*%
%TD*%
%TA.AperFunction,ComponentPad*%
%ADD16C,1.500000*%
%TD*%
%TA.AperFunction,ComponentPad*%
%ADD17R,1.200000X1.200000*%
%TD*%
%TA.AperFunction,ComponentPad*%
%ADD18C,1.200000*%
%TD*%
%TA.AperFunction,ViaPad*%
%ADD19C,0.800000*%
%TD*%
%TA.AperFunction,ViaPad*%
%ADD20C,0.711200*%
%TD*%
%TA.AperFunction,Conductor*%
%ADD21C,0.400000*%
%TD*%
G04 APERTURE END LIST*
D10*
%TO.P,UP1,1,1*%
%TO.N,+3.3V*%
X187250000Y-80750000D03*
D11*
%TO.P,UP1,2,2*%
%TO.N,unconnected-(UP1-Pad2)*%
X187250000Y-85250000D03*
%TO.P,UP1,3,K*%
%TO.N,unconnected-(UP1-K-Pad3)*%
X193750000Y-80750000D03*
%TO.P,UP1,4,A*%
%TO.N,/UP SW*%
X193750000Y-85250000D03*
%TD*%
D10*
%TO.P,RETURN1,1,1*%
%TO.N,+3.3V*%
X114000000Y-116000000D03*
D11*
%TO.P,RETURN1,2,2*%
%TO.N,unconnected-(RETURN1-Pad2)*%
X114000000Y-120500000D03*
%TO.P,RETURN1,3,K*%
%TO.N,unconnected-(RETURN1-K-Pad3)*%
X120500000Y-116000000D03*
%TO.P,RETURN1,4,A*%
%TO.N,/RET SW*%
X120500000Y-120500000D03*
%TD*%
D10*
%TO.P,SET1,1,1*%
%TO.N,+3.3V*%
X102110000Y-116000000D03*
D11*
%TO.P,SET1,2,2*%
%TO.N,unconnected-(SET1-Pad2)*%
X102110000Y-120500000D03*
%TO.P,SET1,3,K*%
%TO.N,unconnected-(SET1-K-Pad3)*%
X108610000Y-116000000D03*
%TO.P,SET1,4,A*%
%TO.N,/SET SW*%
X108610000Y-120500000D03*
%TD*%
D12*
%TO.P,J1,6,Shield*%
%TO.N,GND*%
X143500000Y-59750000D03*
D13*
X142500000Y-62450000D03*
X137500000Y-62450000D03*
D12*
X136500000Y-59750000D03*
%TD*%
D10*
%TO.P,ESP_PROGRAM1,1,1*%
%TO.N,GND*%
X85500000Y-116000000D03*
D11*
%TO.P,ESP_PROGRAM1,2,2*%
%TO.N,unconnected-(ESP_PROGRAM1-Pad2)*%
X85500000Y-120500000D03*
%TO.P,ESP_PROGRAM1,3,K*%
%TO.N,unconnected-(ESP_PROGRAM1-K-Pad3)*%
X92000000Y-116000000D03*
%TO.P,ESP_PROGRAM1,4,A*%
%TO.N,/ESP PROG SW*%
X92000000Y-120500000D03*
%TD*%
D14*
%TO.P,RV1,1,1*%
%TO.N,GND*%
X103250000Y-61040000D03*
%TO.P,RV1,2,2*%
%TO.N,Net-(U2-VO)*%
X113250000Y-63540000D03*
%TO.P,RV1,3,3*%
%TO.N,+3.3V*%
X103250000Y-66040000D03*
%TD*%
D15*
%TO.P,U2,1,VSS*%
%TO.N,GND*%
X102342500Y-80010000D03*
D16*
%TO.P,U2,2,VDD*%
%TO.N,+3.3V*%
X102342500Y-82550000D03*
%TO.P,U2,3,VO*%
%TO.N,Net-(U2-VO)*%
X102342500Y-85090000D03*
%TO.P,U2,4,RS*%
%TO.N,/LCD RS*%
X102342500Y-87630000D03*
%TO.P,U2,5,R/W*%
%TO.N,/LCD R{slash}W*%
X102342500Y-90170000D03*
%TO.P,U2,6,E*%
%TO.N,+3.3V*%
X102342500Y-92710000D03*
%TO.P,U2,7,DB0*%
%TO.N,/DB0*%
X102342500Y-95250000D03*
%TO.P,U2,8,DB1*%
%TO.N,/DB1*%
X102342500Y-97790000D03*
%TO.P,U2,9,DB2*%
%TO.N,/DB2*%
X177342500Y-80010000D03*
%TO.P,U2,10,DB3*%
%TO.N,/DB3*%
X177342500Y-82550000D03*
%TO.P,U2,11,DB4*%
%TO.N,/DB4*%
X177342500Y-85090000D03*
%TO.P,U2,12,DB5*%
%TO.N,/DB5*%
X177342500Y-87630000D03*
%TO.P,U2,13,DB6*%
%TO.N,/DB6*%
X177342500Y-90170000D03*
%TO.P,U2,14,DB7*%
%TO.N,/DB7*%
X177342500Y-92710000D03*
%TO.P,U2,15,A*%
%TO.N,+3.3V*%
X177342500Y-95250000D03*
%TO.P,U2,16,K*%
%TO.N,GND*%
X177342500Y-97790000D03*
%TD*%
D17*
%TO.P,J2,1,Pin_1*%
%TO.N,+3.3V*%
X85090000Y-78290000D03*
D18*
%TO.P,J2,2,Pin_2*%
%TO.N,unconnected-(J2-Pin_2-Pad2)*%
X85090000Y-80830000D03*
%TO.P,J2,3,Pin_3*%
%TO.N,unconnected-(J2-Pin_3-Pad3)*%
X85090000Y-83370000D03*
%TO.P,J2,4,Pin_4*%
%TO.N,unconnected-(J2-Pin_4-Pad4)*%
X85090000Y-85910000D03*
%TO.P,J2,5,Pin_5*%
%TO.N,unconnected-(J2-Pin_5-Pad5)*%
X85090000Y-88450000D03*
%TO.P,J2,6,Pin_6*%
%TO.N,/TCK*%
X85090000Y-90990000D03*
%TO.P,J2,7,Pin_7*%
%TO.N,/TMS*%
X85090000Y-93530000D03*
%TO.P,J2,8,Pin_8*%
%TO.N,unconnected-(J2-Pin_8-Pad8)*%
X85090000Y-96070000D03*
%TO.P,J2,9,Pin_9*%
%TO.N,unconnected-(J2-Pin_9-Pad9)*%
X85090000Y-98610000D03*
%TO.P,J2,10,Pin_10*%
%TO.N,unconnected-(J2-Pin_10-Pad10)*%
X85090000Y-101150000D03*
%TO.P,J2,11,Pin_11*%
%TO.N,unconnected-(J2-Pin_11-Pad11)*%
X92710000Y-101150000D03*
%TO.P,J2,12,Pin_12*%
%TO.N,unconnected-(J2-Pin_12-Pad12)*%
X92710000Y-98610000D03*
%TO.P,J2,13,Pin_13*%
%TO.N,unconnected-(J2-Pin_13-Pad13)*%
X92710000Y-96070000D03*
%TO.P,J2,14,Pin_14*%
%TO.N,/TDI*%
X92710000Y-93530000D03*
%TO.P,J2,15,Pin_15*%
%TO.N,/TDO*%
X92710000Y-90990000D03*
%TO.P,J2,16,Pin_16*%
%TO.N,/RST*%
X92710000Y-88450000D03*
%TO.P,J2,17,Pin_17*%
%TO.N,/TEST*%
X92710000Y-85910000D03*
%TO.P,J2,18,Pin_18*%
%TO.N,unconnected-(J2-Pin_18-Pad18)*%
X92710000Y-83370000D03*
%TO.P,J2,19,Pin_19*%
%TO.N,unconnected-(J2-Pin_19-Pad19)*%
X92710000Y-80830000D03*
%TO.P,J2,20,Pin_20*%
%TO.N,GND*%
X92710000Y-78290000D03*
%TD*%
D10*
%TO.P,ESP_ENABLE1,1,1*%
%TO.N,GND*%
X167000000Y-116000000D03*
D11*
%TO.P,ESP_ENABLE1,2,2*%
%TO.N,unconnected-(ESP_ENABLE1-Pad2)*%
X167000000Y-120500000D03*
%TO.P,ESP_ENABLE1,3,K*%
%TO.N,unconnected-(ESP_ENABLE1-K-Pad3)*%
X173500000Y-116000000D03*
%TO.P,ESP_ENABLE1,4,A*%
%TO.N,/ESP EN*%
X173500000Y-120500000D03*
%TD*%
D10*
%TO.P,DOWN1,1,1*%
%TO.N,+3.3V*%
X187250000Y-91730000D03*
D11*
%TO.P,DOWN1,2,2*%
%TO.N,unconnected-(DOWN1-Pad2)*%
X187250000Y-96230000D03*
%TO.P,DOWN1,3,K*%
%TO.N,unconnected-(DOWN1-K-Pad3)*%
X193750000Y-91730000D03*
%TO.P,DOWN1,4,A*%
%TO.N,/DOWN SW*%
X193750000Y-96230000D03*
%TD*%
D19*
%TO.N,+3.3V*%
X163750000Y-69500000D03*
X151750000Y-131500000D03*
X119500000Y-69500000D03*
D20*
%TO.N,GND*%
X167640000Y-132080000D03*
X127000000Y-81280000D03*
X127000000Y-60960000D03*
X157480000Y-81280000D03*
X187960000Y-71120000D03*
X121920000Y-132080000D03*
X157480000Y-71120000D03*
X147320000Y-71120000D03*
X198120000Y-91440000D03*
X198120000Y-71120000D03*
X198120000Y-81280000D03*
X157480000Y-132080000D03*
X81280000Y-71120000D03*
X116840000Y-60960000D03*
X106680000Y-71120000D03*
X198120000Y-101600000D03*
X127000000Y-71120000D03*
X177800000Y-60960000D03*
X187960000Y-132080000D03*
X81280000Y-81280000D03*
X81280000Y-101600000D03*
X198120000Y-121920000D03*
X142240000Y-132080000D03*
X198120000Y-111760000D03*
X167640000Y-101600000D03*
X81280000Y-111760000D03*
X91440000Y-60960000D03*
X96520000Y-71120000D03*
X91440000Y-132080000D03*
X187960000Y-111760000D03*
X147320000Y-101600000D03*
X101600000Y-132080000D03*
X147320000Y-91440000D03*
X111760000Y-132080000D03*
X177800000Y-121920000D03*
X81280000Y-121920000D03*
X137160000Y-81280000D03*
X187960000Y-121920000D03*
X157480000Y-121920000D03*
X177800000Y-132080000D03*
X137160000Y-91440000D03*
X116840000Y-81280000D03*
X177800000Y-101600000D03*
X81280000Y-91440000D03*
X137160000Y-71120000D03*
X187960000Y-60960000D03*
X187960000Y-101600000D03*
%TD*%
D21*
%TO.N,+3.3V*%
X98250000Y-71040000D02*
X98250000Y-88617500D01*
X98250000Y-88617500D02*
X102342500Y-92710000D01*
X99250000Y-95802500D02*
X99250000Y-113140000D01*
X151750000Y-131500000D02*
X163750000Y-119500000D01*
X102110000Y-116000000D02*
X104860000Y-113250000D01*
X102342500Y-92710000D02*
X99250000Y-95802500D01*
X111250000Y-113250000D02*
X114000000Y-116000000D01*
X103250000Y-66040000D02*
X98250000Y-71040000D01*
X119500000Y-69500000D02*
X163750000Y-69500000D01*
X99250000Y-113140000D02*
X102110000Y-116000000D01*
X104860000Y-113250000D02*
X111250000Y-113250000D01*
X163750000Y-119500000D02*
X163750000Y-69500000D01*
%TO.N,Net-(U2-VO)*%
X104910000Y-85090000D02*
X113250000Y-76750000D01*
X113250000Y-76750000D02*
X113250000Y-63540000D01*
X102342500Y-85090000D02*
X104910000Y-85090000D01*
%TD*%
%TA.AperFunction,Conductor*%
%TO.N,GND*%
G36*
X196852443Y-57404596D02*
G01*
X197323395Y-57423099D01*
X197333069Y-57423860D01*
X197798713Y-57478974D01*
X197808318Y-57480495D01*
X198268190Y-57571969D01*
X198277650Y-57574240D01*
X198728922Y-57701512D01*
X198738175Y-57704518D01*
X199178076Y-57866805D01*
X199187065Y-57870528D01*
X199612884Y-58066835D01*
X199621548Y-58071250D01*
X200030643Y-58300355D01*
X200038945Y-58305442D01*
X200428794Y-58565930D01*
X200436668Y-58571651D01*
X200555761Y-58665536D01*
X200804880Y-58861925D01*
X200812284Y-58868248D01*
X201156591Y-59186524D01*
X201163475Y-59193408D01*
X201481751Y-59537715D01*
X201488074Y-59545119D01*
X201778346Y-59913328D01*
X201784069Y-59921205D01*
X202044557Y-60311054D01*
X202049644Y-60319356D01*
X202278749Y-60728451D01*
X202283170Y-60737126D01*
X202479469Y-61162931D01*
X202483195Y-61171927D01*
X202645480Y-61611821D01*
X202648488Y-61621080D01*
X202775758Y-62072345D01*
X202778031Y-62081813D01*
X202869503Y-62541676D01*
X202871026Y-62551292D01*
X202926137Y-63016914D01*
X202926901Y-63026621D01*
X202945404Y-63497557D01*
X202945500Y-63502425D01*
X202945500Y-133347575D01*
X202945404Y-133352443D01*
X202926901Y-133823378D01*
X202926137Y-133833085D01*
X202871026Y-134298707D01*
X202869503Y-134308323D01*
X202778031Y-134768186D01*
X202775758Y-134777654D01*
X202648488Y-135228919D01*
X202645480Y-135238178D01*
X202483195Y-135678072D01*
X202479469Y-135687068D01*
X202283170Y-136112873D01*
X202278749Y-136121548D01*
X202049644Y-136530643D01*
X202044557Y-136538945D01*
X201784069Y-136928794D01*
X201778346Y-136936671D01*
X201488074Y-137304880D01*
X201481751Y-137312284D01*
X201163475Y-137656591D01*
X201156591Y-137663475D01*
X200812284Y-137981751D01*
X200804880Y-137988074D01*
X200436671Y-138278346D01*
X200428794Y-138284069D01*
X200038945Y-138544557D01*
X200030643Y-138549644D01*
X199621548Y-138778749D01*
X199612873Y-138783170D01*
X199187068Y-138979469D01*
X199178072Y-138983195D01*
X198738178Y-139145480D01*
X198728919Y-139148488D01*
X198277654Y-139275758D01*
X198268186Y-139278031D01*
X197808323Y-139369503D01*
X197798707Y-139371026D01*
X197333085Y-139426137D01*
X197323378Y-139426901D01*
X196852443Y-139445404D01*
X196847575Y-139445500D01*
X82552425Y-139445500D01*
X82547557Y-139445404D01*
X82076621Y-139426901D01*
X82066914Y-139426137D01*
X81601292Y-139371026D01*
X81591676Y-139369503D01*
X81131813Y-139278031D01*
X81122345Y-139275758D01*
X80671080Y-139148488D01*
X80661821Y-139145480D01*
X80221927Y-138983195D01*
X80212931Y-138979469D01*
X79787126Y-138783170D01*
X79778451Y-138778749D01*
X79369356Y-138549644D01*
X79361054Y-138544557D01*
X78971205Y-138284069D01*
X78963328Y-138278346D01*
X78595119Y-137988074D01*
X78587715Y-137981751D01*
X78243408Y-137663475D01*
X78236524Y-137656591D01*
X77918248Y-137312284D01*
X77911925Y-137304880D01*
X77621653Y-136936671D01*
X77615930Y-136928794D01*
X77355442Y-136538945D01*
X77350355Y-136530643D01*
X77121250Y-136121548D01*
X77116835Y-136112884D01*
X76920528Y-135687065D01*
X76916804Y-135678072D01*
X76899049Y-135629946D01*
X76754518Y-135238175D01*
X76751511Y-135228919D01*
X76748791Y-135219276D01*
X76624240Y-134777650D01*
X76621968Y-134768186D01*
X76584279Y-134578712D01*
X76530495Y-134308318D01*
X76528973Y-134298707D01*
X76473860Y-133833069D01*
X76473099Y-133823395D01*
X76454596Y-133352443D01*
X76454548Y-133350000D01*
X80190448Y-133350000D01*
X80210634Y-133657983D01*
X80211424Y-133661954D01*
X80211425Y-133661962D01*
X80270053Y-133956704D01*
X80270055Y-133956714D01*
X80270848Y-133960697D01*
X80370058Y-134252961D01*
X80371850Y-134256595D01*
X80371853Y-134256602D01*
X80416804Y-134347753D01*
X80506568Y-134529776D01*
X80508819Y-134533145D01*
X80508822Y-134533150D01*
X80539266Y-134578712D01*
X80678042Y-134786404D01*
X80680717Y-134789454D01*
X80680723Y-134789462D01*
X80779884Y-134902533D01*
X80881545Y-135018455D01*
X80884593Y-135021128D01*
X81110537Y-135219276D01*
X81110543Y-135219280D01*
X81113596Y-135221958D01*
X81370224Y-135393432D01*
X81647039Y-135529942D01*
X81939303Y-135629152D01*
X82242017Y-135689366D01*
X82550000Y-135709552D01*
X82857983Y-135689366D01*
X83160697Y-135629152D01*
X83452961Y-135529942D01*
X83729776Y-135393432D01*
X83986404Y-135221958D01*
X84218455Y-135018455D01*
X84421958Y-134786404D01*
X84593432Y-134529776D01*
X84729942Y-134252961D01*
X84829152Y-133960697D01*
X84889366Y-133657983D01*
X84909552Y-133350000D01*
X194490448Y-133350000D01*
X194510634Y-133657983D01*
X194511424Y-133661954D01*
X194511425Y-133661962D01*
X194570053Y-133956704D01*
X194570055Y-133956714D01*
X194570848Y-133960697D01*
X194670058Y-134252961D01*
X194671850Y-134256595D01*
X194671853Y-134256602D01*
X194716804Y-134347753D01*
X194806568Y-134529776D01*
X194808819Y-134533145D01*
X194808822Y-134533150D01*
X194839266Y-134578712D01*
X194978042Y-134786404D01*
X194980717Y-134789454D01*
X194980723Y-134789462D01*
X195079884Y-134902533D01*
X195181545Y-135018455D01*
X195184593Y-135021128D01*
X195410537Y-135219276D01*
X195410543Y-135219280D01*
X195413596Y-135221958D01*
X195670224Y-135393432D01*
X195947039Y-135529942D01*
X196239303Y-135629152D01*
X196542017Y-135689366D01*
X196850000Y-135709552D01*
X197157983Y-135689366D01*
X197460697Y-135629152D01*
X197752961Y-135529942D01*
X198029776Y-135393432D01*
X198286404Y-135221958D01*
X198518455Y-135018455D01*
X198721958Y-134786404D01*
X198893432Y-134529776D01*
X199029942Y-134252961D01*
X199129152Y-133960697D01*
X199189366Y-133657983D01*
X199209552Y-133350000D01*
X199189366Y-133042017D01*
X199129152Y-132739303D01*
X199029942Y-132447039D01*
X198893432Y-132170224D01*
X198721958Y-131913596D01*
X198719280Y-131910543D01*
X198719276Y-131910537D01*
X198521128Y-131684593D01*
X198518455Y-131681545D01*
X198384593Y-131564151D01*
X198289462Y-131480723D01*
X198289454Y-131480717D01*
X198286404Y-131478042D01*
X198283022Y-131475782D01*
X198033150Y-131308822D01*
X198033145Y-131308819D01*
X198029776Y-131306568D01*
X198026140Y-131304775D01*
X198026135Y-131304772D01*
X197756602Y-131171853D01*
X197756595Y-131171850D01*
X197752961Y-131170058D01*
X197617951Y-131124228D01*
X197464551Y-131072156D01*
X197464547Y-131072155D01*
X197460697Y-131070848D01*
X197456714Y-131070055D01*
X197456704Y-131070053D01*
X197161962Y-131011425D01*
X197161954Y-131011424D01*
X197157983Y-131010634D01*
X196850000Y-130990448D01*
X196845957Y-130990713D01*
X196546059Y-131010369D01*
X196546057Y-131010369D01*
X196542017Y-131010634D01*
X196538047Y-131011423D01*
X196538037Y-131011425D01*
X196243295Y-131070053D01*
X196243281Y-131070056D01*
X196239303Y-131070848D01*
X196235456Y-131072153D01*
X196235448Y-131072156D01*
X196041791Y-131137894D01*
X195947039Y-131170058D01*
X195943410Y-131171847D01*
X195943397Y-131171853D01*
X195673864Y-131304772D01*
X195673852Y-131304778D01*
X195670224Y-131306568D01*
X195666861Y-131308814D01*
X195666849Y-131308822D01*
X195416977Y-131475782D01*
X195416968Y-131475788D01*
X195413596Y-131478042D01*
X195410552Y-131480711D01*
X195410537Y-131480723D01*
X195184593Y-131678871D01*
X195184585Y-131678878D01*
X195181545Y-131681545D01*
X195178878Y-131684585D01*
X195178871Y-131684593D01*
X194980723Y-131910537D01*
X194980711Y-131910552D01*
X194978042Y-131913596D01*
X194975788Y-131916968D01*
X194975782Y-131916977D01*
X194808822Y-132166849D01*
X194808814Y-132166861D01*
X194806568Y-132170224D01*
X194804778Y-132173852D01*
X194804772Y-132173864D01*
X194671853Y-132443397D01*
X194671847Y-132443410D01*
X194670058Y-132447039D01*
X194668752Y-132450884D01*
X194668752Y-132450886D01*
X194572156Y-132735448D01*
X194572153Y-132735456D01*
X194570848Y-132739303D01*
X194570056Y-132743281D01*
X194570053Y-132743295D01*
X194511425Y-133038037D01*
X194511423Y-133038047D01*
X194510634Y-133042017D01*
X194490448Y-133350000D01*
X84909552Y-133350000D01*
X84889366Y-133042017D01*
X84829152Y-132739303D01*
X84729942Y-132447039D01*
X84593432Y-132170224D01*
X84421958Y-131913596D01*
X84419280Y-131910543D01*
X84419276Y-131910537D01*
X84221128Y-131684593D01*
X84218455Y-131681545D01*
X84084593Y-131564151D01*
X83989462Y-131480723D01*
X83989454Y-131480717D01*
X83986404Y-131478042D01*
X83983022Y-131475782D01*
X83733150Y-131308822D01*
X83733145Y-131308819D01*
X83729776Y-131306568D01*
X83726140Y-131304775D01*
X83726135Y-131304772D01*
X83456602Y-131171853D01*
X83456595Y-131171850D01*
X83452961Y-131170058D01*
X83317951Y-131124228D01*
X83164551Y-131072156D01*
X83164547Y-131072155D01*
X83160697Y-131070848D01*
X83156714Y-131070055D01*
X83156704Y-131070053D01*
X82861962Y-131011425D01*
X82861954Y-131011424D01*
X82857983Y-131010634D01*
X82550000Y-130990448D01*
X82545957Y-130990713D01*
X82246059Y-131010369D01*
X82246057Y-131010369D01*
X82242017Y-131010634D01*
X82238047Y-131011423D01*
X82238037Y-131011425D01*
X81943295Y-131070053D01*
X81943281Y-131070056D01*
X81939303Y-131070848D01*
X81935456Y-131072153D01*
X81935448Y-131072156D01*
X81741791Y-131137894D01*
X81647039Y-131170058D01*
X81643410Y-131171847D01*
X81643397Y-131171853D01*
X81373864Y-131304772D01*
X81373852Y-131304778D01*
X81370224Y-131306568D01*
X81366861Y-131308814D01*
X81366849Y-131308822D01*
X81116977Y-131475782D01*
X81116968Y-131475788D01*
X81113596Y-131478042D01*
X81110552Y-131480711D01*
X81110537Y-131480723D01*
X80884593Y-131678871D01*
X80884585Y-131678878D01*
X80881545Y-131681545D01*
X80878878Y-131684585D01*
X80878871Y-131684593D01*
X80680723Y-131910537D01*
X80680711Y-131910552D01*
X80678042Y-131913596D01*
X80675788Y-131916968D01*
X80675782Y-131916977D01*
X80508822Y-132166849D01*
X80508814Y-132166861D01*
X80506568Y-132170224D01*
X80504778Y-132173852D01*
X80504772Y-132173864D01*
X80371853Y-132443397D01*
X80371847Y-132443410D01*
X80370058Y-132447039D01*
X80368752Y-132450884D01*
X80368752Y-132450886D01*
X80272156Y-132735448D01*
X80272153Y-132735456D01*
X80270848Y-132739303D01*
X80270056Y-132743281D01*
X80270053Y-132743295D01*
X80211425Y-133038037D01*
X80211423Y-133038047D01*
X80210634Y-133042017D01*
X80190448Y-133350000D01*
X76454548Y-133350000D01*
X76454500Y-133347575D01*
X76454500Y-120500000D01*
X84240708Y-120500000D01*
X84241180Y-120505395D01*
X84259366Y-120713275D01*
X84259367Y-120713282D01*
X84259839Y-120718674D01*
X84261238Y-120723895D01*
X84261240Y-120723906D01*
X84315253Y-120925481D01*
X84315255Y-120925488D01*
X84316653Y-120930703D01*
X84409421Y-121129646D01*
X84412521Y-121134074D01*
X84412525Y-121134080D01*
X84515091Y-121280559D01*
X84535326Y-121309457D01*
X84690543Y-121464674D01*
X84780448Y-121527626D01*
X84865919Y-121587474D01*
X84865922Y-121587475D01*
X84870354Y-121590579D01*
X85069297Y-121683347D01*
X85074517Y-121684745D01*
X85074518Y-121684746D01*
X85276093Y-121738759D01*
X85276095Y-121738759D01*
X85281326Y-121740161D01*
X85500000Y-121759292D01*
X85718674Y-121740161D01*
X85930703Y-121683347D01*
X86129646Y-121590579D01*
X86309457Y-121464674D01*
X86464674Y-121309457D01*
X86590579Y-121129646D01*
X86683347Y-120930703D01*
X86740161Y-120718674D01*
X86759292Y-120500000D01*
X90740708Y-120500000D01*
X90741180Y-120505395D01*
X90759366Y-120713275D01*
X90759367Y-120713282D01*
X90759839Y-120718674D01*
X90761238Y-120723895D01*
X90761240Y-120723906D01*
X90815253Y-120925481D01*
X90815255Y-120925488D01*
X90816653Y-120930703D01*
X90909421Y-121129646D01*
X90912521Y-121134074D01*
X90912525Y-121134080D01*
X91015091Y-121280559D01*
X91035326Y-121309457D01*
X91190543Y-121464674D01*
X91280448Y-121527626D01*
X91365919Y-121587474D01*
X91365922Y-121587475D01*
X91370354Y-121590579D01*
X91569297Y-121683347D01*
X91574517Y-121684745D01*
X91574518Y-121684746D01*
X91776093Y-121738759D01*
X91776095Y-121738759D01*
X91781326Y-121740161D01*
X92000000Y-121759292D01*
X92218674Y-121740161D01*
X92430703Y-121683347D01*
X92629646Y-121590579D01*
X92809457Y-121464674D01*
X92964674Y-121309457D01*
X93090579Y-121129646D01*
X93183347Y-120930703D01*
X93240161Y-120718674D01*
X93259292Y-120500000D01*
X100850708Y-120500000D01*
X100851180Y-120505395D01*
X100869366Y-120713275D01*
X100869367Y-120713282D01*
X100869839Y-120718674D01*
X100871238Y-120723895D01*
X100871240Y-120723906D01*
X100925253Y-120925481D01*
X100925255Y-120925488D01*
X100926653Y-120930703D01*
X101019421Y-121129646D01*
X101022521Y-121134074D01*
X101022525Y-121134080D01*
X101125091Y-121280559D01*
X101145326Y-121309457D01*
X101300543Y-121464674D01*
X101390448Y-121527626D01*
X101475919Y-121587474D01*
X101475922Y-121587475D01*
X101480354Y-121590579D01*
X101679297Y-121683347D01*
X101684517Y-121684745D01*
X101684518Y-121684746D01*
X101886093Y-121738759D01*
X101886095Y-121738759D01*
X101891326Y-121740161D01*
X102110000Y-121759292D01*
X102328674Y-121740161D01*
X102540703Y-121683347D01*
X102739646Y-121590579D01*
X102919457Y-121464674D01*
X103074674Y-121309457D01*
X103200579Y-121129646D01*
X103293347Y-120930703D01*
X103350161Y-120718674D01*
X103369292Y-120500000D01*
X107350708Y-120500000D01*
X107351180Y-120505395D01*
X107369366Y-120713275D01*
X107369367Y-120713282D01*
X107369839Y-120718674D01*
X107371238Y-120723895D01*
X107371240Y-120723906D01*
X107425253Y-120925481D01*
X107425255Y-120925488D01*
X107426653Y-120930703D01*
X107519421Y-121129646D01*
X107522521Y-121134074D01*
X107522525Y-121134080D01*
X107625091Y-121280559D01*
X107645326Y-121309457D01*
X107800543Y-121464674D01*
X107890448Y-121527626D01*
X107975919Y-121587474D01*
X107975922Y-121587475D01*
X107980354Y-121590579D01*
X108179297Y-121683347D01*
X108184517Y-121684745D01*
X108184518Y-121684746D01*
X108386093Y-121738759D01*
X108386095Y-121738759D01*
X108391326Y-121740161D01*
X108610000Y-121759292D01*
X108828674Y-121740161D01*
X109040703Y-121683347D01*
X109239646Y-121590579D01*
X109419457Y-121464674D01*
X109574674Y-121309457D01*
X109700579Y-121129646D01*
X109793347Y-120930703D01*
X109850161Y-120718674D01*
X109869292Y-120500000D01*
X112740708Y-120500000D01*
X112741180Y-120505395D01*
X112759366Y-120713275D01*
X112759367Y-120713282D01*
X112759839Y-120718674D01*
X112761238Y-120723895D01*
X112761240Y-120723906D01*
X112815253Y-120925481D01*
X112815255Y-120925488D01*
X112816653Y-120930703D01*
X112909421Y-121129646D01*
X112912521Y-121134074D01*
X112912525Y-121134080D01*
X113015091Y-121280559D01*
X113035326Y-121309457D01*
X113190543Y-121464674D01*
X113280448Y-121527626D01*
X113365919Y-121587474D01*
X113365922Y-121587475D01*
X113370354Y-121590579D01*
X113569297Y-121683347D01*
X113574517Y-121684745D01*
X113574518Y-121684746D01*
X113776093Y-121738759D01*
X113776095Y-121738759D01*
X113781326Y-121740161D01*
X114000000Y-121759292D01*
X114218674Y-121740161D01*
X114430703Y-121683347D01*
X114629646Y-121590579D01*
X114809457Y-121464674D01*
X114964674Y-121309457D01*
X115090579Y-121129646D01*
X115183347Y-120930703D01*
X115240161Y-120718674D01*
X115259292Y-120500000D01*
X119240708Y-120500000D01*
X119241180Y-120505395D01*
X119259366Y-120713275D01*
X119259367Y-120713282D01*
X119259839Y-120718674D01*
X119261238Y-120723895D01*
X119261240Y-120723906D01*
X119315253Y-120925481D01*
X119315255Y-120925488D01*
X119316653Y-120930703D01*
X119409421Y-121129646D01*
X119412521Y-121134074D01*
X119412525Y-121134080D01*
X119515091Y-121280559D01*
X119535326Y-121309457D01*
X119690543Y-121464674D01*
X119780448Y-121527626D01*
X119865919Y-121587474D01*
X119865922Y-121587475D01*
X119870354Y-121590579D01*
X120069297Y-121683347D01*
X120074517Y-121684745D01*
X120074518Y-121684746D01*
X120276093Y-121738759D01*
X120276095Y-121738759D01*
X120281326Y-121740161D01*
X120500000Y-121759292D01*
X120718674Y-121740161D01*
X120930703Y-121683347D01*
X121129646Y-121590579D01*
X121309457Y-121464674D01*
X121464674Y-121309457D01*
X121590579Y-121129646D01*
X121683347Y-120930703D01*
X121740161Y-120718674D01*
X121759292Y-120500000D01*
X121740161Y-120281326D01*
X121683347Y-120069297D01*
X121590579Y-119870354D01*
X121586869Y-119865056D01*
X121483038Y-119716770D01*
X121464674Y-119690543D01*
X121309457Y-119535326D01*
X121280559Y-119515091D01*
X121134080Y-119412525D01*
X121134074Y-119412521D01*
X121129646Y-119409421D01*
X121124741Y-119407133D01*
X121124738Y-119407132D01*
X120935606Y-119318939D01*
X120935603Y-119318937D01*
X120930703Y-119316653D01*
X120925488Y-119315255D01*
X120925481Y-119315253D01*
X120723906Y-119261240D01*
X120723895Y-119261238D01*
X120718674Y-119259839D01*
X120713282Y-119259367D01*
X120713275Y-119259366D01*
X120505395Y-119241180D01*
X120500000Y-119240708D01*
X120494605Y-119241180D01*
X120286724Y-119259366D01*
X120286715Y-119259367D01*
X120281326Y-119259839D01*
X120276106Y-119261237D01*
X120276093Y-119261240D01*
X120074518Y-119315253D01*
X120074507Y-119315256D01*
X120069297Y-119316653D01*
X120064400Y-119318936D01*
X120064393Y-119318939D01*
X119875261Y-119407132D01*
X119875253Y-119407136D01*
X119870354Y-119409421D01*
X119865930Y-119412518D01*
X119865919Y-119412525D01*
X119694978Y-119532220D01*
X119694973Y-119532223D01*
X119690543Y-119535326D01*
X119686719Y-119539149D01*
X119686713Y-119539155D01*
X119539155Y-119686713D01*
X119539149Y-119686719D01*
X119535326Y-119690543D01*
X119532223Y-119694973D01*
X119532220Y-119694978D01*
X119412525Y-119865919D01*
X119412518Y-119865930D01*
X119409421Y-119870354D01*
X119407136Y-119875253D01*
X119407132Y-119875261D01*
X119318939Y-120064393D01*
X119318936Y-120064400D01*
X119316653Y-120069297D01*
X119315256Y-120074507D01*
X119315253Y-120074518D01*
X119261240Y-120276093D01*
X119261237Y-120276106D01*
X119259839Y-120281326D01*
X119259367Y-120286715D01*
X119259366Y-120286724D01*
X119241440Y-120491621D01*
X119240708Y-120500000D01*
X115259292Y-120500000D01*
X115240161Y-120281326D01*
X115183347Y-120069297D01*
X115090579Y-119870354D01*
X115086869Y-119865056D01*
X114983038Y-119716770D01*
X114964674Y-119690543D01*
X114809457Y-119535326D01*
X114780559Y-119515091D01*
X114634080Y-119412525D01*
X114634074Y-119412521D01*
X114629646Y-119409421D01*
X114624741Y-119407133D01*
X114624738Y-119407132D01*
X114435606Y-119318939D01*
X114435603Y-119318937D01*
X114430703Y-119316653D01*
X114425488Y-119315255D01*
X114425481Y-119315253D01*
X114223906Y-119261240D01*
X114223895Y-119261238D01*
X114218674Y-119259839D01*
X114213282Y-119259367D01*
X114213275Y-119259366D01*
X114005395Y-119241180D01*
X114000000Y-119240708D01*
X113994605Y-119241180D01*
X113786724Y-119259366D01*
X113786715Y-119259367D01*
X113781326Y-119259839D01*
X113776106Y-119261237D01*
X113776093Y-119261240D01*
X113574518Y-119315253D01*
X113574507Y-119315256D01*
X113569297Y-119316653D01*
X113564400Y-119318936D01*
X113564393Y-119318939D01*
X113375261Y-119407132D01*
X113375253Y-119407136D01*
X113370354Y-119409421D01*
X113365930Y-119412518D01*
X113365919Y-119412525D01*
X113194978Y-119532220D01*
X113194973Y-119532223D01*
X113190543Y-119535326D01*
X113186719Y-119539149D01*
X113186713Y-119539155D01*
X113039155Y-119686713D01*
X113039149Y-119686719D01*
X113035326Y-119690543D01*
X113032223Y-119694973D01*
X113032220Y-119694978D01*
X112912525Y-119865919D01*
X112912518Y-119865930D01*
X112909421Y-119870354D01*
X112907136Y-119875253D01*
X112907132Y-119875261D01*
X112818939Y-120064393D01*
X112818936Y-120064400D01*
X112816653Y-120069297D01*
X112815256Y-120074507D01*
X112815253Y-120074518D01*
X112761240Y-120276093D01*
X112761237Y-120276106D01*
X112759839Y-120281326D01*
X112759367Y-120286715D01*
X112759366Y-120286724D01*
X112741440Y-120491621D01*
X112740708Y-120500000D01*
X109869292Y-120500000D01*
X109850161Y-120281326D01*
X109793347Y-120069297D01*
X109700579Y-119870354D01*
X109696869Y-119865056D01*
X109593038Y-119716770D01*
X109574674Y-119690543D01*
X109419457Y-119535326D01*
X109390559Y-119515091D01*
X109244080Y-119412525D01*
X109244074Y-119412521D01*
X109239646Y-119409421D01*
X109234741Y-119407133D01*
X109234738Y-119407132D01*
X109045606Y-119318939D01*
X109045603Y-119318937D01*
X109040703Y-119316653D01*
X109035488Y-119315255D01*
X109035481Y-119315253D01*
X108833906Y-119261240D01*
X108833895Y-119261238D01*
X108828674Y-119259839D01*
X108823282Y-119259367D01*
X108823275Y-119259366D01*
X108615395Y-119241180D01*
X108610000Y-119240708D01*
X108604605Y-119241180D01*
X108396724Y-119259366D01*
X108396715Y-119259367D01*
X108391326Y-119259839D01*
X108386106Y-119261237D01*
X108386093Y-119261240D01*
X108184518Y-119315253D01*
X108184507Y-119315256D01*
X108179297Y-119316653D01*
X108174400Y-119318936D01*
X108174393Y-119318939D01*
X107985261Y-119407132D01*
X107985253Y-119407136D01*
X107980354Y-119409421D01*
X107975930Y-119412518D01*
X107975919Y-119412525D01*
X107804978Y-119532220D01*
X107804973Y-119532223D01*
X107800543Y-119535326D01*
X107796719Y-119539149D01*
X107796713Y-119539155D01*
X107649155Y-119686713D01*
X107649149Y-119686719D01*
X107645326Y-119690543D01*
X107642223Y-119694973D01*
X107642220Y-119694978D01*
X107522525Y-119865919D01*
X107522518Y-119865930D01*
X107519421Y-119870354D01*
X107517136Y-119875253D01*
X107517132Y-119875261D01*
X107428939Y-120064393D01*
X107428936Y-120064400D01*
X107426653Y-120069297D01*
X107425256Y-120074507D01*
X107425253Y-120074518D01*
X107371240Y-120276093D01*
X107371237Y-120276106D01*
X107369839Y-120281326D01*
X107369367Y-120286715D01*
X107369366Y-120286724D01*
X107351440Y-120491621D01*
X107350708Y-120500000D01*
X103369292Y-120500000D01*
X103350161Y-120281326D01*
X103293347Y-120069297D01*
X103200579Y-119870354D01*
X103196869Y-119865056D01*
X103093038Y-119716770D01*
X103074674Y-119690543D01*
X102919457Y-119535326D01*
X102890559Y-119515091D01*
X102744080Y-119412525D01*
X102744074Y-119412521D01*
X102739646Y-119409421D01*
X102734741Y-119407133D01*
X102734738Y-119407132D01*
X102545606Y-119318939D01*
X102545603Y-119318937D01*
X102540703Y-119316653D01*
X102535488Y-119315255D01*
X102535481Y-119315253D01*
X102333906Y-119261240D01*
X102333895Y-119261238D01*
X102328674Y-119259839D01*
X102323282Y-119259367D01*
X102323275Y-119259366D01*
X102115395Y-119241180D01*
X102110000Y-119240708D01*
X102104605Y-119241180D01*
X101896724Y-119259366D01*
X101896715Y-119259367D01*
X101891326Y-119259839D01*
X101886106Y-119261237D01*
X101886093Y-119261240D01*
X101684518Y-119315253D01*
X101684507Y-119315256D01*
X101679297Y-119316653D01*
X101674400Y-119318936D01*
X101674393Y-119318939D01*
X101485261Y-119407132D01*
X101485253Y-119407136D01*
X101480354Y-119409421D01*
X101475930Y-119412518D01*
X101475919Y-119412525D01*
X101304978Y-119532220D01*
X101304973Y-119532223D01*
X101300543Y-119535326D01*
X101296719Y-119539149D01*
X101296713Y-119539155D01*
X101149155Y-119686713D01*
X101149149Y-119686719D01*
X101145326Y-119690543D01*
X101142223Y-119694973D01*
X101142220Y-119694978D01*
X101022525Y-119865919D01*
X101022518Y-119865930D01*
X101019421Y-119870354D01*
X101017136Y-119875253D01*
X101017132Y-119875261D01*
X100928939Y-120064393D01*
X100928936Y-120064400D01*
X100926653Y-120069297D01*
X100925256Y-120074507D01*
X100925253Y-120074518D01*
X100871240Y-120276093D01*
X100871237Y-120276106D01*
X100869839Y-120281326D01*
X100869367Y-120286715D01*
X100869366Y-120286724D01*
X100851440Y-120491621D01*
X100850708Y-120500000D01*
X93259292Y-120500000D01*
X93240161Y-120281326D01*
X93183347Y-120069297D01*
X93090579Y-119870354D01*
X93086869Y-119865056D01*
X92983038Y-119716770D01*
X92964674Y-119690543D01*
X92809457Y-119535326D01*
X92780559Y-119515091D01*
X92634080Y-119412525D01*
X92634074Y-119412521D01*
X92629646Y-119409421D01*
X92624741Y-119407133D01*
X92624738Y-119407132D01*
X92435606Y-119318939D01*
X92435603Y-119318937D01*
X92430703Y-119316653D01*
X92425488Y-119315255D01*
X92425481Y-119315253D01*
X92223906Y-119261240D01*
X92223895Y-119261238D01*
X92218674Y-119259839D01*
X92213282Y-119259367D01*
X92213275Y-119259366D01*
X92005395Y-119241180D01*
X92000000Y-119240708D01*
X91994605Y-119241180D01*
X91786724Y-119259366D01*
X91786715Y-119259367D01*
X91781326Y-119259839D01*
X91776106Y-119261237D01*
X91776093Y-119261240D01*
X91574518Y-119315253D01*
X91574507Y-119315256D01*
X91569297Y-119316653D01*
X91564400Y-119318936D01*
X91564393Y-119318939D01*
X91375261Y-119407132D01*
X91375253Y-119407136D01*
X91370354Y-119409421D01*
X91365930Y-119412518D01*
X91365919Y-119412525D01*
X91194978Y-119532220D01*
X91194973Y-119532223D01*
X91190543Y-119535326D01*
X91186719Y-119539149D01*
X91186713Y-119539155D01*
X91039155Y-119686713D01*
X91039149Y-119686719D01*
X91035326Y-119690543D01*
X91032223Y-119694973D01*
X91032220Y-119694978D01*
X90912525Y-119865919D01*
X90912518Y-119865930D01*
X90909421Y-119870354D01*
X90907136Y-119875253D01*
X90907132Y-119875261D01*
X90818939Y-120064393D01*
X90818936Y-120064400D01*
X90816653Y-120069297D01*
X90815256Y-120074507D01*
X90815253Y-120074518D01*
X90761240Y-120276093D01*
X90761237Y-120276106D01*
X90759839Y-120281326D01*
X90759367Y-120286715D01*
X90759366Y-120286724D01*
X90741440Y-120491621D01*
X90740708Y-120500000D01*
X86759292Y-120500000D01*
X86740161Y-120281326D01*
X86683347Y-120069297D01*
X86590579Y-119870354D01*
X86586869Y-119865056D01*
X86483038Y-119716770D01*
X86464674Y-119690543D01*
X86309457Y-119535326D01*
X86280559Y-119515091D01*
X86134080Y-119412525D01*
X86134074Y-119412521D01*
X86129646Y-119409421D01*
X86124741Y-119407133D01*
X86124738Y-119407132D01*
X85935606Y-119318939D01*
X85935603Y-119318937D01*
X85930703Y-119316653D01*
X85925488Y-119315255D01*
X85925481Y-119315253D01*
X85723906Y-119261240D01*
X85723895Y-119261238D01*
X85718674Y-119259839D01*
X85713282Y-119259367D01*
X85713275Y-119259366D01*
X85505395Y-119241180D01*
X85500000Y-119240708D01*
X85494605Y-119241180D01*
X85286724Y-119259366D01*
X85286715Y-119259367D01*
X85281326Y-119259839D01*
X85276106Y-119261237D01*
X85276093Y-119261240D01*
X85074518Y-119315253D01*
X85074507Y-119315256D01*
X85069297Y-119316653D01*
X85064400Y-119318936D01*
X85064393Y-119318939D01*
X84875261Y-119407132D01*
X84875253Y-119407136D01*
X84870354Y-119409421D01*
X84865930Y-119412518D01*
X84865919Y-119412525D01*
X84694978Y-119532220D01*
X84694973Y-119532223D01*
X84690543Y-119535326D01*
X84686719Y-119539149D01*
X84686713Y-119539155D01*
X84539155Y-119686713D01*
X84539149Y-119686719D01*
X84535326Y-119690543D01*
X84532223Y-119694973D01*
X84532220Y-119694978D01*
X84412525Y-119865919D01*
X84412518Y-119865930D01*
X84409421Y-119870354D01*
X84407136Y-119875253D01*
X84407132Y-119875261D01*
X84318939Y-120064393D01*
X84318936Y-120064400D01*
X84316653Y-120069297D01*
X84315256Y-120074507D01*
X84315253Y-120074518D01*
X84261240Y-120276093D01*
X84261237Y-120276106D01*
X84259839Y-120281326D01*
X84259367Y-120286715D01*
X84259366Y-120286724D01*
X84241440Y-120491621D01*
X84240708Y-120500000D01*
X76454500Y-120500000D01*
X76454500Y-116798518D01*
X84246000Y-116798518D01*
X84246353Y-116805114D01*
X84251573Y-116853667D01*
X84255111Y-116868641D01*
X84299547Y-116987777D01*
X84307962Y-117003189D01*
X84383498Y-117104092D01*
X84395907Y-117116501D01*
X84496810Y-117192037D01*
X84512222Y-117200452D01*
X84631358Y-117244888D01*
X84646332Y-117248426D01*
X84694885Y-117253646D01*
X84701482Y-117254000D01*
X85233674Y-117254000D01*
X85246549Y-117250549D01*
X85250000Y-117237674D01*
X85750000Y-117237674D01*
X85753450Y-117250549D01*
X85766326Y-117254000D01*
X86298518Y-117254000D01*
X86305114Y-117253646D01*
X86353667Y-117248426D01*
X86368641Y-117244888D01*
X86487777Y-117200452D01*
X86503189Y-117192037D01*
X86604092Y-117116501D01*
X86616501Y-117104092D01*
X86692037Y-117003189D01*
X86700452Y-116987777D01*
X86744888Y-116868641D01*
X86748426Y-116853667D01*
X86753646Y-116805114D01*
X86754000Y-116798518D01*
X86754000Y-116266326D01*
X86750549Y-116253450D01*
X86737674Y-116250000D01*
X85766326Y-116250000D01*
X85753450Y-116253450D01*
X85750000Y-116266326D01*
X85750000Y-117237674D01*
X85250000Y-117237674D01*
X85250000Y-116266326D01*
X85246549Y-116253450D01*
X85233674Y-116250000D01*
X84262326Y-116250000D01*
X84249450Y-116253450D01*
X84246000Y-116266326D01*
X84246000Y-116798518D01*
X76454500Y-116798518D01*
X76454500Y-116000000D01*
X90740708Y-116000000D01*
X90741180Y-116005395D01*
X90759366Y-116213275D01*
X90759367Y-116213282D01*
X90759839Y-116218674D01*
X90761238Y-116223895D01*
X90761240Y-116223906D01*
X90815253Y-116425481D01*
X90815255Y-116425488D01*
X90816653Y-116430703D01*
X90909421Y-116629646D01*
X90912521Y-116634074D01*
X90912525Y-116634080D01*
X91015091Y-116780559D01*
X91035326Y-116809457D01*
X91190543Y-116964674D01*
X91235754Y-116996331D01*
X91365919Y-117087474D01*
X91365922Y-117087475D01*
X91370354Y-117090579D01*
X91569297Y-117183347D01*
X91574517Y-117184745D01*
X91574518Y-117184746D01*
X91776093Y-117238759D01*
X91776095Y-117238759D01*
X91781326Y-117240161D01*
X92000000Y-117259292D01*
X92218674Y-117240161D01*
X92430703Y-117183347D01*
X92629646Y-117090579D01*
X92809457Y-116964674D01*
X92964674Y-116809457D01*
X93090579Y-116629646D01*
X93183347Y-116430703D01*
X93240161Y-116218674D01*
X93259292Y-116000000D01*
X93240161Y-115781326D01*
X93230842Y-115746549D01*
X93184746Y-115574518D01*
X93184745Y-115574517D01*
X93183347Y-115569297D01*
X93090579Y-115370354D01*
X92964674Y-115190543D01*
X92809457Y-115035326D01*
X92764246Y-115003669D01*
X92634080Y-114912525D01*
X92634074Y-114912521D01*
X92629646Y-114909421D01*
X92624741Y-114907133D01*
X92624738Y-114907132D01*
X92435606Y-114818939D01*
X92435603Y-114818937D01*
X92430703Y-114816653D01*
X92425488Y-114815255D01*
X92425481Y-114815253D01*
X92223906Y-114761240D01*
X92223895Y-114761238D01*
X92218674Y-114759839D01*
X92213282Y-114759367D01*
X92213275Y-114759366D01*
X92005395Y-114741180D01*
X92000000Y-114740708D01*
X91994605Y-114741180D01*
X91786724Y-114759366D01*
X91786715Y-114759367D01*
X91781326Y-114759839D01*
X91776106Y-114761237D01*
X91776093Y-114761240D01*
X91574518Y-114815253D01*
X91574507Y-114815256D01*
X91569297Y-114816653D01*
X91564400Y-114818936D01*
X91564393Y-114818939D01*
X91375261Y-114907132D01*
X91375253Y-114907136D01*
X91370354Y-114909421D01*
X91365930Y-114912518D01*
X91365919Y-114912525D01*
X91194978Y-115032220D01*
X91194973Y-115032223D01*
X91190543Y-115035326D01*
X91186719Y-115039149D01*
X91186713Y-115039155D01*
X91039155Y-115186713D01*
X91039149Y-115186719D01*
X91035326Y-115190543D01*
X91032223Y-115194973D01*
X91032220Y-115194978D01*
X90912525Y-115365919D01*
X90912518Y-115365930D01*
X90909421Y-115370354D01*
X90907136Y-115375253D01*
X90907132Y-115375261D01*
X90818939Y-115564393D01*
X90818936Y-115564400D01*
X90816653Y-115569297D01*
X90815256Y-115574507D01*
X90815253Y-115574518D01*
X90761240Y-115776093D01*
X90761237Y-115776106D01*
X90759839Y-115781326D01*
X90759367Y-115786715D01*
X90759366Y-115786724D01*
X90741440Y-115991621D01*
X90740708Y-116000000D01*
X76454500Y-116000000D01*
X76454500Y-115733674D01*
X84246000Y-115733674D01*
X84249450Y-115746549D01*
X84262326Y-115750000D01*
X85233674Y-115750000D01*
X85246549Y-115746549D01*
X85250000Y-115733674D01*
X85750000Y-115733674D01*
X85753450Y-115746549D01*
X85766326Y-115750000D01*
X86737674Y-115750000D01*
X86750549Y-115746549D01*
X86754000Y-115733674D01*
X86754000Y-115201482D01*
X86753646Y-115194885D01*
X86748426Y-115146332D01*
X86744888Y-115131358D01*
X86700452Y-115012222D01*
X86692037Y-114996810D01*
X86616501Y-114895907D01*
X86604092Y-114883498D01*
X86503189Y-114807962D01*
X86487777Y-114799547D01*
X86368641Y-114755111D01*
X86353667Y-114751573D01*
X86305114Y-114746353D01*
X86298518Y-114746000D01*
X85766326Y-114746000D01*
X85753450Y-114749450D01*
X85750000Y-114762326D01*
X85750000Y-115733674D01*
X85250000Y-115733674D01*
X85250000Y-114762326D01*
X85246549Y-114749450D01*
X85233674Y-114746000D01*
X84701482Y-114746000D01*
X84694885Y-114746353D01*
X84646332Y-114751573D01*
X84631358Y-114755111D01*
X84512222Y-114799547D01*
X84496810Y-114807962D01*
X84395907Y-114883498D01*
X84383498Y-114895907D01*
X84307962Y-114996810D01*
X84299547Y-115012222D01*
X84255111Y-115131358D01*
X84251573Y-115146332D01*
X84246353Y-115194885D01*
X84246000Y-115201482D01*
X84246000Y-115733674D01*
X76454500Y-115733674D01*
X76454500Y-101150000D01*
X83984785Y-101150000D01*
X84003603Y-101353083D01*
X84005171Y-101358594D01*
X84005173Y-101358604D01*
X84057847Y-101543731D01*
X84057849Y-101543737D01*
X84059418Y-101549250D01*
X84150327Y-101731821D01*
X84153779Y-101736392D01*
X84269778Y-101890001D01*
X84269783Y-101890006D01*
X84273236Y-101894579D01*
X84277472Y-101898440D01*
X84277476Y-101898445D01*
X84379227Y-101991203D01*
X84423959Y-102031981D01*
X84597363Y-102139348D01*
X84787544Y-102213024D01*
X84988024Y-102250500D01*
X85186247Y-102250500D01*
X85191976Y-102250500D01*
X85392456Y-102213024D01*
X85582637Y-102139348D01*
X85756041Y-102031981D01*
X85906764Y-101894579D01*
X86029673Y-101731821D01*
X86120582Y-101549250D01*
X86176397Y-101353083D01*
X86195215Y-101150000D01*
X91604785Y-101150000D01*
X91623603Y-101353083D01*
X91625171Y-101358594D01*
X91625173Y-101358604D01*
X91677847Y-101543731D01*
X91677849Y-101543737D01*
X91679418Y-101549250D01*
X91770327Y-101731821D01*
X91773779Y-101736392D01*
X91889778Y-101890001D01*
X91889783Y-101890006D01*
X91893236Y-101894579D01*
X91897472Y-101898440D01*
X91897476Y-101898445D01*
X91999227Y-101991203D01*
X92043959Y-102031981D01*
X92217363Y-102139348D01*
X92407544Y-102213024D01*
X92608024Y-102250500D01*
X92806247Y-102250500D01*
X92811976Y-102250500D01*
X93012456Y-102213024D01*
X93202637Y-102139348D01*
X93376041Y-102031981D01*
X93526764Y-101894579D01*
X93649673Y-101731821D01*
X93740582Y-101549250D01*
X93796397Y-101353083D01*
X93815215Y-101150000D01*
X93796397Y-100946917D01*
X93740582Y-100750750D01*
X93649673Y-100568179D01*
X93601176Y-100503959D01*
X93530221Y-100409998D01*
X93530217Y-100409994D01*
X93526764Y-100405421D01*
X93522527Y-100401558D01*
X93522523Y-100401554D01*
X93380275Y-100271879D01*
X93380276Y-100271879D01*
X93376041Y-100268019D01*
X93371171Y-100265004D01*
X93371169Y-100265002D01*
X93207511Y-100163670D01*
X93207512Y-100163670D01*
X93202637Y-100160652D01*
X93197294Y-100158582D01*
X93017803Y-100089047D01*
X93017798Y-100089045D01*
X93012456Y-100086976D01*
X93006818Y-100085922D01*
X92817605Y-100050552D01*
X92817602Y-100050551D01*
X92811976Y-100049500D01*
X92608024Y-100049500D01*
X92602398Y-100050551D01*
X92602394Y-100050552D01*
X92413181Y-100085922D01*
X92413178Y-100085922D01*
X92407544Y-100086976D01*
X92402203Y-100089044D01*
X92402196Y-100089047D01*
X92222705Y-100158582D01*
X92222700Y-100158584D01*
X92217363Y-100160652D01*
X92212491Y-100163668D01*
X92212488Y-100163670D01*
X92048830Y-100265002D01*
X92048822Y-100265007D01*
X92043959Y-100268019D01*
X92039728Y-100271875D01*
X92039724Y-100271879D01*
X91897476Y-100401554D01*
X91897466Y-100401564D01*
X91893236Y-100405421D01*
X91889787Y-100409987D01*
X91889778Y-100409998D01*
X91773779Y-100563607D01*
X91773776Y-100563611D01*
X91770327Y-100568179D01*
X91767774Y-100573304D01*
X91767772Y-100573309D01*
X91681976Y-100745612D01*
X91679418Y-100750750D01*
X91677850Y-100756258D01*
X91677847Y-100756268D01*
X91625173Y-100941395D01*
X91625170Y-100941406D01*
X91623603Y-100946917D01*
X91604785Y-101150000D01*
X86195215Y-101150000D01*
X86176397Y-100946917D01*
X86120582Y-100750750D01*
X86029673Y-100568179D01*
X85981176Y-100503959D01*
X85910221Y-100409998D01*
X85910217Y-100409994D01*
X85906764Y-100405421D01*
X85902527Y-100401558D01*
X85902523Y-100401554D01*
X85760275Y-100271879D01*
X85760276Y-100271879D01*
X85756041Y-100268019D01*
X85751171Y-100265004D01*
X85751169Y-100265002D01*
X85587511Y-100163670D01*
X85587512Y-100163670D01*
X85582637Y-100160652D01*
X85577294Y-100158582D01*
X85397803Y-100089047D01*
X85397798Y-100089045D01*
X85392456Y-100086976D01*
X85386818Y-100085922D01*
X85197605Y-100050552D01*
X85197602Y-100050551D01*
X85191976Y-100049500D01*
X84988024Y-100049500D01*
X84982398Y-100050551D01*
X84982394Y-100050552D01*
X84793181Y-100085922D01*
X84793178Y-100085922D01*
X84787544Y-100086976D01*
X84782203Y-100089044D01*
X84782196Y-100089047D01*
X84602705Y-100158582D01*
X84602700Y-100158584D01*
X84597363Y-100160652D01*
X84592491Y-100163668D01*
X84592488Y-100163670D01*
X84428830Y-100265002D01*
X84428822Y-100265007D01*
X84423959Y-100268019D01*
X84419728Y-100271875D01*
X84419724Y-100271879D01*
X84277476Y-100401554D01*
X84277466Y-100401564D01*
X84273236Y-100405421D01*
X84269787Y-100409987D01*
X84269778Y-100409998D01*
X84153779Y-100563607D01*
X84153776Y-100563611D01*
X84150327Y-100568179D01*
X84147774Y-100573304D01*
X84147772Y-100573309D01*
X84061976Y-100745612D01*
X84059418Y-100750750D01*
X84057850Y-100756258D01*
X84057847Y-100756268D01*
X84005173Y-100941395D01*
X84005170Y-100941406D01*
X84003603Y-100946917D01*
X83984785Y-101150000D01*
X76454500Y-101150000D01*
X76454500Y-98610000D01*
X83984785Y-98610000D01*
X83985314Y-98615709D01*
X83997905Y-98751598D01*
X84003603Y-98813083D01*
X84005171Y-98818594D01*
X84005173Y-98818604D01*
X84057847Y-99003731D01*
X84057849Y-99003737D01*
X84059418Y-99009250D01*
X84150327Y-99191821D01*
X84153779Y-99196392D01*
X84269778Y-99350001D01*
X84269783Y-99350006D01*
X84273236Y-99354579D01*
X84277472Y-99358440D01*
X84277476Y-99358445D01*
X84379227Y-99451203D01*
X84423959Y-99491981D01*
X84597363Y-99599348D01*
X84787544Y-99673024D01*
X84988024Y-99710500D01*
X85186247Y-99710500D01*
X85191976Y-99710500D01*
X85392456Y-99673024D01*
X85582637Y-99599348D01*
X85756041Y-99491981D01*
X85906764Y-99354579D01*
X86029673Y-99191821D01*
X86120582Y-99009250D01*
X86176397Y-98813083D01*
X86195215Y-98610000D01*
X91604785Y-98610000D01*
X91605314Y-98615709D01*
X91617905Y-98751598D01*
X91623603Y-98813083D01*
X91625171Y-98818594D01*
X91625173Y-98818604D01*
X91677847Y-99003731D01*
X91677849Y-99003737D01*
X91679418Y-99009250D01*
X91770327Y-99191821D01*
X91773779Y-99196392D01*
X91889778Y-99350001D01*
X91889783Y-99350006D01*
X91893236Y-99354579D01*
X91897472Y-99358440D01*
X91897476Y-99358445D01*
X91999227Y-99451203D01*
X92043959Y-99491981D01*
X92217363Y-99599348D01*
X92407544Y-99673024D01*
X92608024Y-99710500D01*
X92806247Y-99710500D01*
X92811976Y-99710500D01*
X93012456Y-99673024D01*
X93202637Y-99599348D01*
X93376041Y-99491981D01*
X93526764Y-99354579D01*
X93649673Y-99191821D01*
X93740582Y-99009250D01*
X93796397Y-98813083D01*
X93815215Y-98610000D01*
X93796397Y-98406917D01*
X93740582Y-98210750D01*
X93649673Y-98028179D01*
X93601176Y-97963959D01*
X93530221Y-97869998D01*
X93530217Y-97869994D01*
X93526764Y-97865421D01*
X93522527Y-97861558D01*
X93522523Y-97861554D01*
X93380275Y-97731879D01*
X93380276Y-97731879D01*
X93376041Y-97728019D01*
X93371171Y-97725004D01*
X93371169Y-97725002D01*
X93207511Y-97623670D01*
X93207512Y-97623670D01*
X93202637Y-97620652D01*
X93091251Y-97577501D01*
X93017803Y-97549047D01*
X93017798Y-97549045D01*
X93012456Y-97546976D01*
X93006818Y-97545922D01*
X92817605Y-97510552D01*
X92817602Y-97510551D01*
X92811976Y-97509500D01*
X92608024Y-97509500D01*
X92602398Y-97510551D01*
X92602394Y-97510552D01*
X92413181Y-97545922D01*
X92413178Y-97545922D01*
X92407544Y-97546976D01*
X92402203Y-97549044D01*
X92402196Y-97549047D01*
X92222705Y-97618582D01*
X92222700Y-97618584D01*
X92217363Y-97620652D01*
X92212491Y-97623668D01*
X92212488Y-97623670D01*
X92048830Y-97725002D01*
X92048822Y-97725007D01*
X92043959Y-97728019D01*
X92039728Y-97731875D01*
X92039724Y-97731879D01*
X91897476Y-97861554D01*
X91897466Y-97861564D01*
X91893236Y-97865421D01*
X91889787Y-97869987D01*
X91889778Y-97869998D01*
X91773779Y-98023607D01*
X91773776Y-98023611D01*
X91770327Y-98028179D01*
X91767774Y-98033304D01*
X91767772Y-98033309D01*
X91681976Y-98205612D01*
X91679418Y-98210750D01*
X91677850Y-98216258D01*
X91677847Y-98216268D01*
X91625173Y-98401395D01*
X91625170Y-98401406D01*
X91623603Y-98406917D01*
X91623073Y-98412627D01*
X91623073Y-98412632D01*
X91606412Y-98592442D01*
X91604785Y-98610000D01*
X86195215Y-98610000D01*
X86176397Y-98406917D01*
X86120582Y-98210750D01*
X86029673Y-98028179D01*
X85981176Y-97963959D01*
X85910221Y-97869998D01*
X85910217Y-97869994D01*
X85906764Y-97865421D01*
X85902527Y-97861558D01*
X85902523Y-97861554D01*
X85760275Y-97731879D01*
X85760276Y-97731879D01*
X85756041Y-97728019D01*
X85751171Y-97725004D01*
X85751169Y-97725002D01*
X85587511Y-97623670D01*
X85587512Y-97623670D01*
X85582637Y-97620652D01*
X85471251Y-97577501D01*
X85397803Y-97549047D01*
X85397798Y-97549045D01*
X85392456Y-97546976D01*
X85386818Y-97545922D01*
X85197605Y-97510552D01*
X85197602Y-97510551D01*
X85191976Y-97509500D01*
X84988024Y-97509500D01*
X84982398Y-97510551D01*
X84982394Y-97510552D01*
X84793181Y-97545922D01*
X84793178Y-97545922D01*
X84787544Y-97546976D01*
X84782203Y-97549044D01*
X84782196Y-97549047D01*
X84602705Y-97618582D01*
X84602700Y-97618584D01*
X84597363Y-97620652D01*
X84592491Y-97623668D01*
X84592488Y-97623670D01*
X84428830Y-97725002D01*
X84428822Y-97725007D01*
X84423959Y-97728019D01*
X84419728Y-97731875D01*
X84419724Y-97731879D01*
X84277476Y-97861554D01*
X84277466Y-97861564D01*
X84273236Y-97865421D01*
X84269787Y-97869987D01*
X84269778Y-97869998D01*
X84153779Y-98023607D01*
X84153776Y-98023611D01*
X84150327Y-98028179D01*
X84147774Y-98033304D01*
X84147772Y-98033309D01*
X84061976Y-98205612D01*
X84059418Y-98210750D01*
X84057850Y-98216258D01*
X84057847Y-98216268D01*
X84005173Y-98401395D01*
X84005170Y-98401406D01*
X84003603Y-98406917D01*
X84003073Y-98412627D01*
X84003073Y-98412632D01*
X83986412Y-98592442D01*
X83984785Y-98610000D01*
X76454500Y-98610000D01*
X76454500Y-96070000D01*
X83984785Y-96070000D01*
X83985314Y-96075709D01*
X84000110Y-96235395D01*
X84003603Y-96273083D01*
X84005171Y-96278594D01*
X84005173Y-96278604D01*
X84057847Y-96463731D01*
X84057849Y-96463737D01*
X84059418Y-96469250D01*
X84150327Y-96651821D01*
X84153779Y-96656392D01*
X84269778Y-96810001D01*
X84269783Y-96810006D01*
X84273236Y-96814579D01*
X84277472Y-96818440D01*
X84277476Y-96818445D01*
X84317288Y-96854738D01*
X84423959Y-96951981D01*
X84597363Y-97059348D01*
X84787544Y-97133024D01*
X84988024Y-97170500D01*
X85186247Y-97170500D01*
X85191976Y-97170500D01*
X85392456Y-97133024D01*
X85582637Y-97059348D01*
X85756041Y-96951981D01*
X85906764Y-96814579D01*
X86029673Y-96651821D01*
X86120582Y-96469250D01*
X86176397Y-96273083D01*
X86195215Y-96070000D01*
X91604785Y-96070000D01*
X91605314Y-96075709D01*
X91620110Y-96235395D01*
X91623603Y-96273083D01*
X91625171Y-96278594D01*
X91625173Y-96278604D01*
X91677847Y-96463731D01*
X91677849Y-96463737D01*
X91679418Y-96469250D01*
X91770327Y-96651821D01*
X91773779Y-96656392D01*
X91889778Y-96810001D01*
X91889783Y-96810006D01*
X91893236Y-96814579D01*
X91897472Y-96818440D01*
X91897476Y-96818445D01*
X91937288Y-96854738D01*
X92043959Y-96951981D01*
X92217363Y-97059348D01*
X92407544Y-97133024D01*
X92608024Y-97170500D01*
X92806247Y-97170500D01*
X92811976Y-97170500D01*
X93012456Y-97133024D01*
X93202637Y-97059348D01*
X93376041Y-96951981D01*
X93526764Y-96814579D01*
X93649673Y-96651821D01*
X93740582Y-96469250D01*
X93796397Y-96273083D01*
X93815215Y-96070000D01*
X93796397Y-95866917D01*
X93740582Y-95670750D01*
X93649673Y-95488179D01*
X93571052Y-95384068D01*
X93530221Y-95329998D01*
X93530217Y-95329994D01*
X93526764Y-95325421D01*
X93522527Y-95321558D01*
X93522523Y-95321554D01*
X93380275Y-95191879D01*
X93380276Y-95191879D01*
X93376041Y-95188019D01*
X93371171Y-95185004D01*
X93371169Y-95185002D01*
X93207511Y-95083670D01*
X93207512Y-95083670D01*
X93202637Y-95080652D01*
X93120776Y-95048939D01*
X93017803Y-95009047D01*
X93017798Y-95009045D01*
X93012456Y-95006976D01*
X93006818Y-95005922D01*
X92817605Y-94970552D01*
X92817602Y-94970551D01*
X92811976Y-94969500D01*
X92608024Y-94969500D01*
X92602398Y-94970551D01*
X92602394Y-94970552D01*
X92413181Y-95005922D01*
X92413178Y-95005922D01*
X92407544Y-95006976D01*
X92402203Y-95009044D01*
X92402196Y-95009047D01*
X92222705Y-95078582D01*
X92222700Y-95078584D01*
X92217363Y-95080652D01*
X92212491Y-95083668D01*
X92212488Y-95083670D01*
X92048830Y-95185002D01*
X92048822Y-95185007D01*
X92043959Y-95188019D01*
X92039728Y-95191875D01*
X92039724Y-95191879D01*
X91897476Y-95321554D01*
X91897466Y-95321564D01*
X91893236Y-95325421D01*
X91889787Y-95329987D01*
X91889778Y-95329998D01*
X91773779Y-95483607D01*
X91773776Y-95483611D01*
X91770327Y-95488179D01*
X91767774Y-95493304D01*
X91767772Y-95493309D01*
X91702625Y-95624143D01*
X91679418Y-95670750D01*
X91677850Y-95676258D01*
X91677847Y-95676268D01*
X91625173Y-95861395D01*
X91625170Y-95861406D01*
X91623603Y-95866917D01*
X91623073Y-95872627D01*
X91623073Y-95872632D01*
X91622609Y-95877639D01*
X91604785Y-96070000D01*
X86195215Y-96070000D01*
X86176397Y-95866917D01*
X86120582Y-95670750D01*
X86029673Y-95488179D01*
X85951052Y-95384068D01*
X85910221Y-95329998D01*
X85910217Y-95329994D01*
X85906764Y-95325421D01*
X85902527Y-95321558D01*
X85902523Y-95321554D01*
X85760275Y-95191879D01*
X85760276Y-95191879D01*
X85756041Y-95188019D01*
X85751171Y-95185004D01*
X85751169Y-95185002D01*
X85587511Y-95083670D01*
X85587512Y-95083670D01*
X85582637Y-95080652D01*
X85500776Y-95048939D01*
X85397803Y-95009047D01*
X85397798Y-95009045D01*
X85392456Y-95006976D01*
X85386818Y-95005922D01*
X85197605Y-94970552D01*
X85197602Y-94970551D01*
X85191976Y-94969500D01*
X84988024Y-94969500D01*
X84982398Y-94970551D01*
X84982394Y-94970552D01*
X84793181Y-95005922D01*
X84793178Y-95005922D01*
X84787544Y-95006976D01*
X84782203Y-95009044D01*
X84782196Y-95009047D01*
X84602705Y-95078582D01*
X84602700Y-95078584D01*
X84597363Y-95080652D01*
X84592491Y-95083668D01*
X84592488Y-95083670D01*
X84428830Y-95185002D01*
X84428822Y-95185007D01*
X84423959Y-95188019D01*
X84419728Y-95191875D01*
X84419724Y-95191879D01*
X84277476Y-95321554D01*
X84277466Y-95321564D01*
X84273236Y-95325421D01*
X84269787Y-95329987D01*
X84269778Y-95329998D01*
X84153779Y-95483607D01*
X84153776Y-95483611D01*
X84150327Y-95488179D01*
X84147774Y-95493304D01*
X84147772Y-95493309D01*
X84082625Y-95624143D01*
X84059418Y-95670750D01*
X84057850Y-95676258D01*
X84057847Y-95676268D01*
X84005173Y-95861395D01*
X84005170Y-95861406D01*
X84003603Y-95866917D01*
X84003073Y-95872627D01*
X84003073Y-95872632D01*
X84002609Y-95877639D01*
X83984785Y-96070000D01*
X76454500Y-96070000D01*
X76454500Y-93530000D01*
X83984785Y-93530000D01*
X83985314Y-93535709D01*
X83997905Y-93671598D01*
X84003603Y-93733083D01*
X84005171Y-93738594D01*
X84005173Y-93738604D01*
X84057847Y-93923731D01*
X84057849Y-93923737D01*
X84059418Y-93929250D01*
X84150327Y-94111821D01*
X84153779Y-94116392D01*
X84269778Y-94270001D01*
X84269783Y-94270006D01*
X84273236Y-94274579D01*
X84277472Y-94278440D01*
X84277476Y-94278445D01*
X84379227Y-94371203D01*
X84423959Y-94411981D01*
X84597363Y-94519348D01*
X84787544Y-94593024D01*
X84988024Y-94630500D01*
X85186247Y-94630500D01*
X85191976Y-94630500D01*
X85392456Y-94593024D01*
X85582637Y-94519348D01*
X85756041Y-94411981D01*
X85906764Y-94274579D01*
X86029673Y-94111821D01*
X86120582Y-93929250D01*
X86176397Y-93733083D01*
X86195215Y-93530000D01*
X91604785Y-93530000D01*
X91605314Y-93535709D01*
X91617905Y-93671598D01*
X91623603Y-93733083D01*
X91625171Y-93738594D01*
X91625173Y-93738604D01*
X91677847Y-93923731D01*
X91677849Y-93923737D01*
X91679418Y-93929250D01*
X91770327Y-94111821D01*
X91773779Y-94116392D01*
X91889778Y-94270001D01*
X91889783Y-94270006D01*
X91893236Y-94274579D01*
X91897472Y-94278440D01*
X91897476Y-94278445D01*
X91999227Y-94371203D01*
X92043959Y-94411981D01*
X92217363Y-94519348D01*
X92407544Y-94593024D01*
X92608024Y-94630500D01*
X92806247Y-94630500D01*
X92811976Y-94630500D01*
X93012456Y-94593024D01*
X93202637Y-94519348D01*
X93376041Y-94411981D01*
X93526764Y-94274579D01*
X93649673Y-94111821D01*
X93740582Y-93929250D01*
X93796397Y-93733083D01*
X93815215Y-93530000D01*
X93796397Y-93326917D01*
X93740582Y-93130750D01*
X93649673Y-92948179D01*
X93569148Y-92841546D01*
X93530221Y-92789998D01*
X93530217Y-92789994D01*
X93526764Y-92785421D01*
X93522527Y-92781558D01*
X93522523Y-92781554D01*
X93380275Y-92651879D01*
X93380276Y-92651879D01*
X93376041Y-92648019D01*
X93371171Y-92645004D01*
X93371169Y-92645002D01*
X93207511Y-92543670D01*
X93207512Y-92543670D01*
X93202637Y-92540652D01*
X93160345Y-92524268D01*
X93017803Y-92469047D01*
X93017798Y-92469045D01*
X93012456Y-92466976D01*
X93006818Y-92465922D01*
X92817605Y-92430552D01*
X92817602Y-92430551D01*
X92811976Y-92429500D01*
X92608024Y-92429500D01*
X92602398Y-92430551D01*
X92602394Y-92430552D01*
X92413181Y-92465922D01*
X92413178Y-92465922D01*
X92407544Y-92466976D01*
X92402203Y-92469044D01*
X92402196Y-92469047D01*
X92222705Y-92538582D01*
X92222700Y-92538584D01*
X92217363Y-92540652D01*
X92212491Y-92543668D01*
X92212488Y-92543670D01*
X92048830Y-92645002D01*
X92048822Y-92645007D01*
X92043959Y-92648019D01*
X92039728Y-92651875D01*
X92039724Y-92651879D01*
X91897476Y-92781554D01*
X91897466Y-92781564D01*
X91893236Y-92785421D01*
X91889787Y-92789987D01*
X91889778Y-92789998D01*
X91773779Y-92943607D01*
X91773776Y-92943611D01*
X91770327Y-92948179D01*
X91767774Y-92953304D01*
X91767772Y-92953309D01*
X91681976Y-93125612D01*
X91679418Y-93130750D01*
X91677850Y-93136258D01*
X91677847Y-93136268D01*
X91625173Y-93321395D01*
X91625170Y-93321406D01*
X91623603Y-93326917D01*
X91623073Y-93332627D01*
X91623073Y-93332632D01*
X91622609Y-93337639D01*
X91604785Y-93530000D01*
X86195215Y-93530000D01*
X86176397Y-93326917D01*
X86120582Y-93130750D01*
X86029673Y-92948179D01*
X85949148Y-92841546D01*
X85910221Y-92789998D01*
X85910217Y-92789994D01*
X85906764Y-92785421D01*
X85902527Y-92781558D01*
X85902523Y-92781554D01*
X85760275Y-92651879D01*
X85760276Y-92651879D01*
X85756041Y-92648019D01*
X85751171Y-92645004D01*
X85751169Y-92645002D01*
X85587511Y-92543670D01*
X85587512Y-92543670D01*
X85582637Y-92540652D01*
X85540345Y-92524268D01*
X85397803Y-92469047D01*
X85397798Y-92469045D01*
X85392456Y-92466976D01*
X85386818Y-92465922D01*
X85197605Y-92430552D01*
X85197602Y-92430551D01*
X85191976Y-92429500D01*
X84988024Y-92429500D01*
X84982398Y-92430551D01*
X84982394Y-92430552D01*
X84793181Y-92465922D01*
X84793178Y-92465922D01*
X84787544Y-92466976D01*
X84782203Y-92469044D01*
X84782196Y-92469047D01*
X84602705Y-92538582D01*
X84602700Y-92538584D01*
X84597363Y-92540652D01*
X84592491Y-92543668D01*
X84592488Y-92543670D01*
X84428830Y-92645002D01*
X84428822Y-92645007D01*
X84423959Y-92648019D01*
X84419728Y-92651875D01*
X84419724Y-92651879D01*
X84277476Y-92781554D01*
X84277466Y-92781564D01*
X84273236Y-92785421D01*
X84269787Y-92789987D01*
X84269778Y-92789998D01*
X84153779Y-92943607D01*
X84153776Y-92943611D01*
X84150327Y-92948179D01*
X84147774Y-92953304D01*
X84147772Y-92953309D01*
X84061976Y-93125612D01*
X84059418Y-93130750D01*
X84057850Y-93136258D01*
X84057847Y-93136268D01*
X84005173Y-93321395D01*
X84005170Y-93321406D01*
X84003603Y-93326917D01*
X84003073Y-93332627D01*
X84003073Y-93332632D01*
X84002609Y-93337639D01*
X83984785Y-93530000D01*
X76454500Y-93530000D01*
X76454500Y-90990000D01*
X83984785Y-90990000D01*
X83985314Y-90995709D01*
X83997905Y-91131598D01*
X84003603Y-91193083D01*
X84005171Y-91198594D01*
X84005173Y-91198604D01*
X84057847Y-91383731D01*
X84057849Y-91383737D01*
X84059418Y-91389250D01*
X84150327Y-91571821D01*
X84273236Y-91734579D01*
X84277472Y-91738440D01*
X84277476Y-91738445D01*
X84379227Y-91831203D01*
X84423959Y-91871981D01*
X84597363Y-91979348D01*
X84787544Y-92053024D01*
X84988024Y-92090500D01*
X85186247Y-92090500D01*
X85191976Y-92090500D01*
X85392456Y-92053024D01*
X85582637Y-91979348D01*
X85756041Y-91871981D01*
X85906764Y-91734579D01*
X86029673Y-91571821D01*
X86120582Y-91389250D01*
X86176397Y-91193083D01*
X86195215Y-90990000D01*
X91604785Y-90990000D01*
X91605314Y-90995709D01*
X91617905Y-91131598D01*
X91623603Y-91193083D01*
X91625171Y-91198594D01*
X91625173Y-91198604D01*
X91677847Y-91383731D01*
X91677849Y-91383737D01*
X91679418Y-91389250D01*
X91770327Y-91571821D01*
X91893236Y-91734579D01*
X91897472Y-91738440D01*
X91897476Y-91738445D01*
X91999227Y-91831203D01*
X92043959Y-91871981D01*
X92217363Y-91979348D01*
X92407544Y-92053024D01*
X92608024Y-92090500D01*
X92806247Y-92090500D01*
X92811976Y-92090500D01*
X93012456Y-92053024D01*
X93202637Y-91979348D01*
X93376041Y-91871981D01*
X93526764Y-91734579D01*
X93649673Y-91571821D01*
X93740582Y-91389250D01*
X93796397Y-91193083D01*
X93815215Y-90990000D01*
X93796397Y-90786917D01*
X93781246Y-90733669D01*
X93742152Y-90596268D01*
X93740582Y-90590750D01*
X93649673Y-90408179D01*
X93558653Y-90287649D01*
X93530221Y-90249998D01*
X93530217Y-90249994D01*
X93526764Y-90245421D01*
X93522527Y-90241558D01*
X93522523Y-90241554D01*
X93380275Y-90111879D01*
X93380276Y-90111879D01*
X93376041Y-90108019D01*
X93371171Y-90105004D01*
X93371169Y-90105002D01*
X93207511Y-90003670D01*
X93207512Y-90003670D01*
X93202637Y-90000652D01*
X93197294Y-89998582D01*
X93017803Y-89929047D01*
X93017798Y-89929045D01*
X93012456Y-89926976D01*
X93006818Y-89925922D01*
X92817605Y-89890552D01*
X92817602Y-89890551D01*
X92811976Y-89889500D01*
X92608024Y-89889500D01*
X92602398Y-89890551D01*
X92602394Y-89890552D01*
X92413181Y-89925922D01*
X92413178Y-89925922D01*
X92407544Y-89926976D01*
X92402203Y-89929044D01*
X92402196Y-89929047D01*
X92222705Y-89998582D01*
X92222700Y-89998584D01*
X92217363Y-90000652D01*
X92212491Y-90003668D01*
X92212488Y-90003670D01*
X92048830Y-90105002D01*
X92048822Y-90105007D01*
X92043959Y-90108019D01*
X92039728Y-90111875D01*
X92039724Y-90111879D01*
X91897476Y-90241554D01*
X91897466Y-90241564D01*
X91893236Y-90245421D01*
X91889787Y-90249987D01*
X91889778Y-90249998D01*
X91773779Y-90403607D01*
X91773776Y-90403611D01*
X91770327Y-90408179D01*
X91767774Y-90413304D01*
X91767772Y-90413309D01*
X91700237Y-90548939D01*
X91679418Y-90590750D01*
X91677850Y-90596258D01*
X91677847Y-90596268D01*
X91625173Y-90781395D01*
X91625170Y-90781406D01*
X91623603Y-90786917D01*
X91623073Y-90792627D01*
X91623073Y-90792632D01*
X91616715Y-90861247D01*
X91604785Y-90990000D01*
X86195215Y-90990000D01*
X86176397Y-90786917D01*
X86161246Y-90733669D01*
X86122152Y-90596268D01*
X86120582Y-90590750D01*
X86029673Y-90408179D01*
X85938653Y-90287649D01*
X85910221Y-90249998D01*
X85910217Y-90249994D01*
X85906764Y-90245421D01*
X85902527Y-90241558D01*
X85902523Y-90241554D01*
X85760275Y-90111879D01*
X85760276Y-90111879D01*
X85756041Y-90108019D01*
X85751171Y-90105004D01*
X85751169Y-90105002D01*
X85587511Y-90003670D01*
X85587512Y-90003670D01*
X85582637Y-90000652D01*
X85577294Y-89998582D01*
X85397803Y-89929047D01*
X85397798Y-89929045D01*
X85392456Y-89926976D01*
X85386818Y-89925922D01*
X85197605Y-89890552D01*
X85197602Y-89890551D01*
X85191976Y-89889500D01*
X84988024Y-89889500D01*
X84982398Y-89890551D01*
X84982394Y-89890552D01*
X84793181Y-89925922D01*
X84793178Y-89925922D01*
X84787544Y-89926976D01*
X84782203Y-89929044D01*
X84782196Y-89929047D01*
X84602705Y-89998582D01*
X84602700Y-89998584D01*
X84597363Y-90000652D01*
X84592491Y-90003668D01*
X84592488Y-90003670D01*
X84428830Y-90105002D01*
X84428822Y-90105007D01*
X84423959Y-90108019D01*
X84419728Y-90111875D01*
X84419724Y-90111879D01*
X84277476Y-90241554D01*
X84277466Y-90241564D01*
X84273236Y-90245421D01*
X84269787Y-90249987D01*
X84269778Y-90249998D01*
X84153779Y-90403607D01*
X84153776Y-90403611D01*
X84150327Y-90408179D01*
X84147774Y-90413304D01*
X84147772Y-90413309D01*
X84080237Y-90548939D01*
X84059418Y-90590750D01*
X84057850Y-90596258D01*
X84057847Y-90596268D01*
X84005173Y-90781395D01*
X84005170Y-90781406D01*
X84003603Y-90786917D01*
X84003073Y-90792627D01*
X84003073Y-90792632D01*
X83996715Y-90861247D01*
X83984785Y-90990000D01*
X76454500Y-90990000D01*
X76454500Y-88450000D01*
X83984785Y-88450000D01*
X83985314Y-88455709D01*
X83997996Y-88592579D01*
X84003603Y-88653083D01*
X84005171Y-88658594D01*
X84005173Y-88658604D01*
X84057847Y-88843731D01*
X84057849Y-88843737D01*
X84059418Y-88849250D01*
X84150327Y-89031821D01*
X84153779Y-89036392D01*
X84269778Y-89190001D01*
X84269783Y-89190006D01*
X84273236Y-89194579D01*
X84277472Y-89198440D01*
X84277476Y-89198445D01*
X84379227Y-89291203D01*
X84423959Y-89331981D01*
X84597363Y-89439348D01*
X84787544Y-89513024D01*
X84988024Y-89550500D01*
X85186247Y-89550500D01*
X85191976Y-89550500D01*
X85392456Y-89513024D01*
X85582637Y-89439348D01*
X85756041Y-89331981D01*
X85906764Y-89194579D01*
X86029673Y-89031821D01*
X86120582Y-88849250D01*
X86176397Y-88653083D01*
X86195215Y-88450000D01*
X91604785Y-88450000D01*
X91605314Y-88455709D01*
X91617996Y-88592579D01*
X91623603Y-88653083D01*
X91625171Y-88658594D01*
X91625173Y-88658604D01*
X91677847Y-88843731D01*
X91677849Y-88843737D01*
X91679418Y-88849250D01*
X91770327Y-89031821D01*
X91773779Y-89036392D01*
X91889778Y-89190001D01*
X91889783Y-89190006D01*
X91893236Y-89194579D01*
X91897472Y-89198440D01*
X91897476Y-89198445D01*
X91999227Y-89291203D01*
X92043959Y-89331981D01*
X92217363Y-89439348D01*
X92407544Y-89513024D01*
X92608024Y-89550500D01*
X92806247Y-89550500D01*
X92811976Y-89550500D01*
X93012456Y-89513024D01*
X93202637Y-89439348D01*
X93376041Y-89331981D01*
X93526764Y-89194579D01*
X93649673Y-89031821D01*
X93740582Y-88849250D01*
X93794399Y-88660106D01*
X97545642Y-88660106D01*
X97546993Y-88667482D01*
X97546994Y-88667487D01*
X97556483Y-88719271D01*
X97557610Y-88726671D01*
X97563955Y-88778925D01*
X97563956Y-88778930D01*
X97564860Y-88786372D01*
X97567519Y-88793385D01*
X97567521Y-88793391D01*
X97568450Y-88795840D01*
X97574475Y-88817452D01*
X97574951Y-88820051D01*
X97574954Y-88820060D01*
X97576305Y-88827432D01*
X97579382Y-88834269D01*
X97579383Y-88834272D01*
X97600991Y-88882284D01*
X97603857Y-88889202D01*
X97625182Y-88945430D01*
X97629442Y-88951602D01*
X97629445Y-88951607D01*
X97630937Y-88953768D01*
X97641959Y-88973310D01*
X97643039Y-88975710D01*
X97643044Y-88975719D01*
X97646122Y-88982557D01*
X97650745Y-88988458D01*
X97650747Y-88988461D01*
X97683216Y-89029904D01*
X97687636Y-89035910D01*
X97721817Y-89085429D01*
X97766847Y-89125322D01*
X97772282Y-89130439D01*
X101067624Y-92425781D01*
X101096465Y-92471051D01*
X101103471Y-92524268D01*
X101088899Y-92690844D01*
X101087223Y-92710000D01*
X101087695Y-92715395D01*
X101103471Y-92895729D01*
X101096465Y-92948947D01*
X101067624Y-92994217D01*
X98772290Y-95289551D01*
X98766838Y-95294684D01*
X98727431Y-95329596D01*
X98727425Y-95329602D01*
X98721817Y-95334571D01*
X98717560Y-95340736D01*
X98717551Y-95340748D01*
X98687649Y-95384068D01*
X98683213Y-95390097D01*
X98650749Y-95431535D01*
X98650743Y-95431543D01*
X98646122Y-95437443D01*
X98643044Y-95444280D01*
X98643043Y-95444283D01*
X98641962Y-95446685D01*
X98630940Y-95466227D01*
X98629441Y-95468398D01*
X98629437Y-95468404D01*
X98625182Y-95474570D01*
X98622526Y-95481570D01*
X98622522Y-95481580D01*
X98603853Y-95530805D01*
X98600989Y-95537719D01*
X98579382Y-95585729D01*
X98579379Y-95585735D01*
X98576305Y-95592568D01*
X98574953Y-95599939D01*
X98574951Y-95599949D01*
X98574474Y-95602553D01*
X98568456Y-95624143D01*
X98567519Y-95626614D01*
X98567517Y-95626619D01*
X98564860Y-95633628D01*
X98563956Y-95641065D01*
X98563956Y-95641069D01*
X98557610Y-95693327D01*
X98556483Y-95700726D01*
X98546994Y-95752510D01*
X98546993Y-95752518D01*
X98545642Y-95759894D01*
X98546094Y-95767373D01*
X98546094Y-95767381D01*
X98549274Y-95819933D01*
X98549500Y-95827421D01*
X98549500Y-113115079D01*
X98549274Y-113122567D01*
X98546094Y-113175118D01*
X98546094Y-113175126D01*
X98545642Y-113182606D01*
X98546993Y-113189982D01*
X98546994Y-113189987D01*
X98556483Y-113241771D01*
X98557610Y-113249171D01*
X98563955Y-113301425D01*
X98563956Y-113301430D01*
X98564860Y-113308872D01*
X98567519Y-113315885D01*
X98567521Y-113315891D01*
X98568450Y-113318340D01*
X98574475Y-113339952D01*
X98574951Y-113342551D01*
X98574954Y-113342560D01*
X98576305Y-113349932D01*
X98579382Y-113356769D01*
X98579383Y-113356772D01*
X98600991Y-113404784D01*
X98603857Y-113411702D01*
X98625182Y-113467930D01*
X98629442Y-113474102D01*
X98629445Y-113474107D01*
X98630937Y-113476268D01*
X98641959Y-113495810D01*
X98643039Y-113498210D01*
X98643044Y-113498219D01*
X98646122Y-113505057D01*
X98650745Y-113510958D01*
X98650747Y-113510961D01*
X98683216Y-113552404D01*
X98687636Y-113558410D01*
X98721817Y-113607929D01*
X98766847Y-113647822D01*
X98772282Y-113652939D01*
X100819181Y-115699838D01*
X100846061Y-115740066D01*
X100855500Y-115787519D01*
X100855500Y-116798560D01*
X100855500Y-116798578D01*
X100855501Y-116801872D01*
X100855853Y-116805150D01*
X100855854Y-116805161D01*
X100861079Y-116853768D01*
X100861080Y-116853773D01*
X100861909Y-116861483D01*
X100864619Y-116868749D01*
X100864620Y-116868753D01*
X100898217Y-116958831D01*
X100912204Y-116996331D01*
X100998454Y-117111546D01*
X101113669Y-117197796D01*
X101248517Y-117248091D01*
X101308127Y-117254500D01*
X102911872Y-117254499D01*
X102971483Y-117248091D01*
X103106331Y-117197796D01*
X103221546Y-117111546D01*
X103307796Y-116996331D01*
X103358091Y-116861483D01*
X103364500Y-116801873D01*
X103364499Y-116000000D01*
X107350708Y-116000000D01*
X107351180Y-116005395D01*
X107369366Y-116213275D01*
X107369367Y-116213282D01*
X107369839Y-116218674D01*
X107371238Y-116223895D01*
X107371240Y-116223906D01*
X107425253Y-116425481D01*
X107425255Y-116425488D01*
X107426653Y-116430703D01*
X107519421Y-116629646D01*
X107522521Y-116634074D01*
X107522525Y-116634080D01*
X107625091Y-116780559D01*
X107645326Y-116809457D01*
X107800543Y-116964674D01*
X107845754Y-116996331D01*
X107975919Y-117087474D01*
X107975922Y-117087475D01*
X107980354Y-117090579D01*
X108179297Y-117183347D01*
X108184517Y-117184745D01*
X108184518Y-117184746D01*
X108386093Y-117238759D01*
X108386095Y-117238759D01*
X108391326Y-117240161D01*
X108610000Y-117259292D01*
X108828674Y-117240161D01*
X109040703Y-117183347D01*
X109239646Y-117090579D01*
X109419457Y-116964674D01*
X109574674Y-116809457D01*
X109700579Y-116629646D01*
X109793347Y-116430703D01*
X109850161Y-116218674D01*
X109869292Y-116000000D01*
X109850161Y-115781326D01*
X109840842Y-115746549D01*
X109794746Y-115574518D01*
X109794745Y-115574517D01*
X109793347Y-115569297D01*
X109700579Y-115370354D01*
X109574674Y-115190543D01*
X109419457Y-115035326D01*
X109374246Y-115003669D01*
X109244080Y-114912525D01*
X109244074Y-114912521D01*
X109239646Y-114909421D01*
X109234741Y-114907133D01*
X109234738Y-114907132D01*
X109045606Y-114818939D01*
X109045603Y-114818937D01*
X109040703Y-114816653D01*
X109035488Y-114815255D01*
X109035481Y-114815253D01*
X108833906Y-114761240D01*
X108833895Y-114761238D01*
X108828674Y-114759839D01*
X108823282Y-114759367D01*
X108823275Y-114759366D01*
X108615395Y-114741180D01*
X108610000Y-114740708D01*
X108604605Y-114741180D01*
X108396724Y-114759366D01*
X108396715Y-114759367D01*
X108391326Y-114759839D01*
X108386106Y-114761237D01*
X108386093Y-114761240D01*
X108184518Y-114815253D01*
X108184507Y-114815256D01*
X108179297Y-114816653D01*
X108174400Y-114818936D01*
X108174393Y-114818939D01*
X107985261Y-114907132D01*
X107985253Y-114907136D01*
X107980354Y-114909421D01*
X107975930Y-114912518D01*
X107975919Y-114912525D01*
X107804978Y-115032220D01*
X107804973Y-115032223D01*
X107800543Y-115035326D01*
X107796719Y-115039149D01*
X107796713Y-115039155D01*
X107649155Y-115186713D01*
X107649149Y-115186719D01*
X107645326Y-115190543D01*
X107642223Y-115194973D01*
X107642220Y-115194978D01*
X107522525Y-115365919D01*
X107522518Y-115365930D01*
X107519421Y-115370354D01*
X107517136Y-115375253D01*
X107517132Y-115375261D01*
X107428939Y-115564393D01*
X107428936Y-115564400D01*
X107426653Y-115569297D01*
X107425256Y-115574507D01*
X107425253Y-115574518D01*
X107371240Y-115776093D01*
X107371237Y-115776106D01*
X107369839Y-115781326D01*
X107369367Y-115786715D01*
X107369366Y-115786724D01*
X107351440Y-115991621D01*
X107350708Y-116000000D01*
X103364499Y-116000000D01*
X103364499Y-115787517D01*
X103373938Y-115740065D01*
X103400815Y-115699840D01*
X105113837Y-113986819D01*
X105154066Y-113959939D01*
X105201519Y-113950500D01*
X110908481Y-113950500D01*
X110955934Y-113959939D01*
X110996162Y-113986819D01*
X112709181Y-115699838D01*
X112736061Y-115740066D01*
X112745500Y-115787519D01*
X112745500Y-116798560D01*
X112745500Y-116798578D01*
X112745501Y-116801872D01*
X112745853Y-116805150D01*
X112745854Y-116805161D01*
X112751079Y-116853768D01*
X112751080Y-116853773D01*
X112751909Y-116861483D01*
X112754619Y-116868749D01*
X112754620Y-116868753D01*
X112788217Y-116958831D01*
X112802204Y-116996331D01*
X112888454Y-117111546D01*
X113003669Y-117197796D01*
X113138517Y-117248091D01*
X113198127Y-117254500D01*
X114801872Y-117254499D01*
X114861483Y-117248091D01*
X114996331Y-117197796D01*
X115111546Y-117111546D01*
X115197796Y-116996331D01*
X115248091Y-116861483D01*
X115254500Y-116801873D01*
X115254499Y-116000000D01*
X119240708Y-116000000D01*
X119241180Y-116005395D01*
X119259366Y-116213275D01*
X119259367Y-116213282D01*
X119259839Y-116218674D01*
X119261238Y-116223895D01*
X119261240Y-116223906D01*
X119315253Y-116425481D01*
X119315255Y-116425488D01*
X119316653Y-116430703D01*
X119409421Y-116629646D01*
X119412521Y-116634074D01*
X119412525Y-116634080D01*
X119515091Y-116780559D01*
X119535326Y-116809457D01*
X119690543Y-116964674D01*
X119735754Y-116996331D01*
X119865919Y-117087474D01*
X119865922Y-117087475D01*
X119870354Y-117090579D01*
X120069297Y-117183347D01*
X120074517Y-117184745D01*
X120074518Y-117184746D01*
X120276093Y-117238759D01*
X120276095Y-117238759D01*
X120281326Y-117240161D01*
X120500000Y-117259292D01*
X120718674Y-117240161D01*
X120930703Y-117183347D01*
X121129646Y-117090579D01*
X121309457Y-116964674D01*
X121464674Y-116809457D01*
X121590579Y-116629646D01*
X121683347Y-116430703D01*
X121740161Y-116218674D01*
X121759292Y-116000000D01*
X121740161Y-115781326D01*
X121730842Y-115746549D01*
X121684746Y-115574518D01*
X121684745Y-115574517D01*
X121683347Y-115569297D01*
X121590579Y-115370354D01*
X121464674Y-115190543D01*
X121309457Y-115035326D01*
X121264246Y-115003669D01*
X121134080Y-114912525D01*
X121134074Y-114912521D01*
X121129646Y-114909421D01*
X121124741Y-114907133D01*
X121124738Y-114907132D01*
X120935606Y-114818939D01*
X120935603Y-114818937D01*
X120930703Y-114816653D01*
X120925488Y-114815255D01*
X120925481Y-114815253D01*
X120723906Y-114761240D01*
X120723895Y-114761238D01*
X120718674Y-114759839D01*
X120713282Y-114759367D01*
X120713275Y-114759366D01*
X120505395Y-114741180D01*
X120500000Y-114740708D01*
X120494605Y-114741180D01*
X120286724Y-114759366D01*
X120286715Y-114759367D01*
X120281326Y-114759839D01*
X120276106Y-114761237D01*
X120276093Y-114761240D01*
X120074518Y-114815253D01*
X120074507Y-114815256D01*
X120069297Y-114816653D01*
X120064400Y-114818936D01*
X120064393Y-114818939D01*
X119875261Y-114907132D01*
X119875253Y-114907136D01*
X119870354Y-114909421D01*
X119865930Y-114912518D01*
X119865919Y-114912525D01*
X119694978Y-115032220D01*
X119694973Y-115032223D01*
X119690543Y-115035326D01*
X119686719Y-115039149D01*
X119686713Y-115039155D01*
X119539155Y-115186713D01*
X119539149Y-115186719D01*
X119535326Y-115190543D01*
X119532223Y-115194973D01*
X119532220Y-115194978D01*
X119412525Y-115365919D01*
X119412518Y-115365930D01*
X119409421Y-115370354D01*
X119407136Y-115375253D01*
X119407132Y-115375261D01*
X119318939Y-115564393D01*
X119318936Y-115564400D01*
X119316653Y-115569297D01*
X119315256Y-115574507D01*
X119315253Y-115574518D01*
X119261240Y-115776093D01*
X119261237Y-115776106D01*
X119259839Y-115781326D01*
X119259367Y-115786715D01*
X119259366Y-115786724D01*
X119241440Y-115991621D01*
X119240708Y-116000000D01*
X115254499Y-116000000D01*
X115254499Y-115198128D01*
X115248091Y-115138517D01*
X115197796Y-115003669D01*
X115111546Y-114888454D01*
X114996331Y-114802204D01*
X114925965Y-114775959D01*
X114868752Y-114754620D01*
X114868750Y-114754619D01*
X114861483Y-114751909D01*
X114853770Y-114751079D01*
X114853767Y-114751079D01*
X114805180Y-114745855D01*
X114805169Y-114745854D01*
X114801873Y-114745500D01*
X114798551Y-114745500D01*
X113787519Y-114745500D01*
X113740066Y-114736061D01*
X113699838Y-114709181D01*
X111762939Y-112772282D01*
X111757822Y-112766847D01*
X111717929Y-112721817D01*
X111668410Y-112687636D01*
X111662404Y-112683216D01*
X111620961Y-112650747D01*
X111620958Y-112650745D01*
X111615057Y-112646122D01*
X111608219Y-112643044D01*
X111608210Y-112643039D01*
X111605810Y-112641959D01*
X111586268Y-112630937D01*
X111584107Y-112629445D01*
X111584102Y-112629442D01*
X111577930Y-112625182D01*
X111521702Y-112603857D01*
X111514784Y-112600991D01*
X111466772Y-112579383D01*
X111466769Y-112579382D01*
X111459932Y-112576305D01*
X111452560Y-112574954D01*
X111452551Y-112574951D01*
X111449952Y-112574475D01*
X111428340Y-112568450D01*
X111425891Y-112567521D01*
X111425885Y-112567519D01*
X111418872Y-112564860D01*
X111411430Y-112563956D01*
X111411425Y-112563955D01*
X111359171Y-112557610D01*
X111351771Y-112556483D01*
X111299987Y-112546994D01*
X111299982Y-112546993D01*
X111292606Y-112545642D01*
X111285126Y-112546094D01*
X111285118Y-112546094D01*
X111232567Y-112549274D01*
X111225079Y-112549500D01*
X104884910Y-112549500D01*
X104877423Y-112549274D01*
X104824881Y-112546095D01*
X104824873Y-112546095D01*
X104817394Y-112545643D01*
X104810019Y-112546994D01*
X104810009Y-112546995D01*
X104758242Y-112556481D01*
X104750843Y-112557608D01*
X104698567Y-112563956D01*
X104698561Y-112563957D01*
X104691128Y-112564860D01*
X104684123Y-112567516D01*
X104684112Y-112567519D01*
X104681639Y-112568457D01*
X104660041Y-112574478D01*
X104657451Y-112574952D01*
X104657444Y-112574954D01*
X104650068Y-112576306D01*
X104643225Y-112579385D01*
X104643227Y-112579385D01*
X104595234Y-112600984D01*
X104588318Y-112603848D01*
X104539088Y-112622519D01*
X104539078Y-112622523D01*
X104532070Y-112625182D01*
X104525899Y-112629441D01*
X104525894Y-112629444D01*
X104523722Y-112630944D01*
X104504187Y-112641962D01*
X104501784Y-112643043D01*
X104501777Y-112643047D01*
X104494943Y-112646123D01*
X104489043Y-112650745D01*
X104489040Y-112650747D01*
X104447595Y-112683216D01*
X104441566Y-112687651D01*
X104398249Y-112717551D01*
X104398241Y-112717557D01*
X104392071Y-112721817D01*
X104387101Y-112727426D01*
X104387094Y-112727433D01*
X104352184Y-112766838D01*
X104347051Y-112772290D01*
X102410161Y-114709181D01*
X102369933Y-114736061D01*
X102322480Y-114745500D01*
X101897519Y-114745500D01*
X101850066Y-114736061D01*
X101809838Y-114709181D01*
X99986819Y-112886162D01*
X99959939Y-112845934D01*
X99950500Y-112798481D01*
X99950500Y-104900000D01*
X101006918Y-104900000D01*
X101007390Y-104905395D01*
X101026735Y-105126522D01*
X101026736Y-105126529D01*
X101027208Y-105131921D01*
X101087463Y-105356796D01*
X101089747Y-105361695D01*
X101089750Y-105361702D01*
X101177824Y-105550575D01*
X101185852Y-105567791D01*
X101319385Y-105758496D01*
X101484004Y-105923115D01*
X101674709Y-106056648D01*
X101885704Y-106155037D01*
X102110579Y-106215292D01*
X102284411Y-106230500D01*
X102397880Y-106230500D01*
X102400589Y-106230500D01*
X102574421Y-106215292D01*
X102799296Y-106155037D01*
X103010291Y-106056648D01*
X103200996Y-105923115D01*
X103365615Y-105758496D01*
X103499148Y-105567791D01*
X103597537Y-105356796D01*
X103657792Y-105131921D01*
X103678082Y-104900000D01*
X103657792Y-104668079D01*
X103597537Y-104443204D01*
X103499148Y-104232209D01*
X103365615Y-104041504D01*
X103200996Y-103876885D01*
X103010291Y-103743352D01*
X102993075Y-103735324D01*
X102804202Y-103647250D01*
X102804195Y-103647247D01*
X102799296Y-103644963D01*
X102794069Y-103643562D01*
X102794068Y-103643562D01*
X102579653Y-103586110D01*
X102574421Y-103584708D01*
X102569029Y-103584236D01*
X102569022Y-103584235D01*
X102403289Y-103569736D01*
X102403284Y-103569735D01*
X102400589Y-103569500D01*
X102284411Y-103569500D01*
X102281716Y-103569735D01*
X102281710Y-103569736D01*
X102115977Y-103584235D01*
X102115968Y-103584236D01*
X102110579Y-103584708D01*
X102105347Y-103586109D01*
X102105346Y-103586110D01*
X101890931Y-103643562D01*
X101890926Y-103643563D01*
X101885704Y-103644963D01*
X101880808Y-103647245D01*
X101880797Y-103647250D01*
X101679619Y-103741062D01*
X101679615Y-103741064D01*
X101674709Y-103743352D01*
X101670276Y-103746455D01*
X101670269Y-103746460D01*
X101488439Y-103873779D01*
X101488434Y-103873782D01*
X101484004Y-103876885D01*
X101480180Y-103880708D01*
X101480174Y-103880714D01*
X101323214Y-104037674D01*
X101323208Y-104037680D01*
X101319385Y-104041504D01*
X101316282Y-104045934D01*
X101316279Y-104045939D01*
X101188960Y-104227769D01*
X101188955Y-104227776D01*
X101185852Y-104232209D01*
X101183564Y-104237115D01*
X101183562Y-104237119D01*
X101089750Y-104438297D01*
X101089745Y-104438308D01*
X101087463Y-104443204D01*
X101027208Y-104668079D01*
X101026736Y-104673468D01*
X101026735Y-104673477D01*
X101007628Y-104891878D01*
X101006918Y-104900000D01*
X99950500Y-104900000D01*
X99950500Y-96144019D01*
X99959939Y-96096566D01*
X99986819Y-96056338D01*
X100429534Y-95613623D01*
X100876014Y-95167141D01*
X100925377Y-95136892D01*
X100983093Y-95132350D01*
X101036580Y-95154505D01*
X101074180Y-95198528D01*
X101086551Y-95250058D01*
X101087223Y-95250000D01*
X101087695Y-95255395D01*
X101105820Y-95462578D01*
X101105821Y-95462585D01*
X101106293Y-95467977D01*
X101107692Y-95473199D01*
X101107694Y-95473209D01*
X101150679Y-95633628D01*
X101162925Y-95679330D01*
X101165209Y-95684229D01*
X101165212Y-95684236D01*
X101253111Y-95872736D01*
X101253114Y-95872742D01*
X101255398Y-95877639D01*
X101258497Y-95882066D01*
X101258499Y-95882068D01*
X101377796Y-96052442D01*
X101377799Y-96052446D01*
X101380902Y-96056877D01*
X101535623Y-96211598D01*
X101540055Y-96214701D01*
X101540057Y-96214703D01*
X101631317Y-96278604D01*
X101714861Y-96337102D01*
X101719761Y-96339387D01*
X101719763Y-96339388D01*
X101866083Y-96407618D01*
X101918259Y-96453375D01*
X101937678Y-96520000D01*
X101918259Y-96586625D01*
X101866083Y-96632382D01*
X101719772Y-96700608D01*
X101719768Y-96700610D01*
X101714862Y-96702898D01*
X101710429Y-96706001D01*
X101710422Y-96706006D01*
X101540058Y-96825296D01*
X101540053Y-96825299D01*
X101535623Y-96828402D01*
X101531799Y-96832225D01*
X101531793Y-96832231D01*
X101384731Y-96979293D01*
X101384725Y-96979299D01*
X101380902Y-96983123D01*
X101377799Y-96987553D01*
X101377796Y-96987558D01*
X101258506Y-97157922D01*
X101258501Y-97157929D01*
X101255398Y-97162362D01*
X101253110Y-97167268D01*
X101253108Y-97167272D01*
X101165212Y-97355763D01*
X101165207Y-97355774D01*
X101162925Y-97360670D01*
X101161525Y-97365892D01*
X101161524Y-97365897D01*
X101107694Y-97566790D01*
X101107691Y-97566802D01*
X101106293Y-97572023D01*
X101105821Y-97577412D01*
X101105820Y-97577421D01*
X101092909Y-97725002D01*
X101087223Y-97790000D01*
X101087695Y-97795395D01*
X101105820Y-98002578D01*
X101105821Y-98002585D01*
X101106293Y-98007977D01*
X101107692Y-98013199D01*
X101107694Y-98013209D01*
X101145713Y-98155095D01*
X101162925Y-98219330D01*
X101165209Y-98224229D01*
X101165212Y-98224236D01*
X101253111Y-98412736D01*
X101253114Y-98412742D01*
X101255398Y-98417639D01*
X101258497Y-98422066D01*
X101258499Y-98422068D01*
X101377796Y-98592442D01*
X101377799Y-98592446D01*
X101380902Y-98596877D01*
X101535623Y-98751598D01*
X101540055Y-98754701D01*
X101540057Y-98754703D01*
X101631317Y-98818604D01*
X101714861Y-98877102D01*
X101913170Y-98969575D01*
X102040642Y-99003731D01*
X102119290Y-99024805D01*
X102119291Y-99024805D01*
X102124523Y-99026207D01*
X102342500Y-99045277D01*
X102560477Y-99026207D01*
X102771830Y-98969575D01*
X102970139Y-98877102D01*
X103149377Y-98751598D01*
X103304098Y-98596877D01*
X103429602Y-98417639D01*
X103522075Y-98219330D01*
X103578707Y-98007977D01*
X103597777Y-97790000D01*
X103578707Y-97572023D01*
X103522075Y-97360670D01*
X103429602Y-97162362D01*
X103304098Y-96983123D01*
X103149377Y-96828402D01*
X103144946Y-96825299D01*
X103144942Y-96825296D01*
X102974568Y-96705999D01*
X102974566Y-96705997D01*
X102970139Y-96702898D01*
X102965239Y-96700613D01*
X102965232Y-96700609D01*
X102818917Y-96632382D01*
X102766741Y-96586625D01*
X102747321Y-96520000D01*
X102766741Y-96453375D01*
X102818917Y-96407618D01*
X102965232Y-96339390D01*
X102965230Y-96339390D01*
X102970139Y-96337102D01*
X103149377Y-96211598D01*
X103304098Y-96056877D01*
X103429602Y-95877639D01*
X103522075Y-95679330D01*
X103578707Y-95467977D01*
X103597777Y-95250000D01*
X103578707Y-95032023D01*
X103522075Y-94820670D01*
X103429602Y-94622362D01*
X103304098Y-94443123D01*
X103149377Y-94288402D01*
X103144946Y-94285299D01*
X103144942Y-94285296D01*
X102974568Y-94165999D01*
X102974566Y-94165997D01*
X102970139Y-94162898D01*
X102965239Y-94160613D01*
X102965232Y-94160609D01*
X102818917Y-94092382D01*
X102766741Y-94046625D01*
X102747321Y-93980000D01*
X102766741Y-93913375D01*
X102818917Y-93867618D01*
X102965232Y-93799390D01*
X102965230Y-93799390D01*
X102970139Y-93797102D01*
X103149377Y-93671598D01*
X103304098Y-93516877D01*
X103429602Y-93337639D01*
X103522075Y-93139330D01*
X103578707Y-92927977D01*
X103597777Y-92710000D01*
X103578707Y-92492023D01*
X103522075Y-92280670D01*
X103429602Y-92082362D01*
X103304098Y-91903123D01*
X103149377Y-91748402D01*
X103144946Y-91745299D01*
X103144942Y-91745296D01*
X102974568Y-91625999D01*
X102974566Y-91625997D01*
X102970139Y-91622898D01*
X102965239Y-91620613D01*
X102965232Y-91620609D01*
X102818917Y-91552382D01*
X102766741Y-91506625D01*
X102747321Y-91440000D01*
X102766741Y-91373375D01*
X102818917Y-91327618D01*
X102868455Y-91304518D01*
X102970139Y-91257102D01*
X103149377Y-91131598D01*
X103304098Y-90976877D01*
X103429602Y-90797639D01*
X103522075Y-90599330D01*
X103578707Y-90387977D01*
X103597777Y-90170000D01*
X103578707Y-89952023D01*
X103522075Y-89740670D01*
X103429602Y-89542362D01*
X103304098Y-89363123D01*
X103149377Y-89208402D01*
X103144946Y-89205299D01*
X103144942Y-89205296D01*
X102974568Y-89085999D01*
X102974566Y-89085997D01*
X102970139Y-89082898D01*
X102965239Y-89080613D01*
X102965232Y-89080609D01*
X102818917Y-89012382D01*
X102766741Y-88966625D01*
X102747321Y-88900000D01*
X102766741Y-88833375D01*
X102818917Y-88787618D01*
X102965232Y-88719390D01*
X102965230Y-88719390D01*
X102970139Y-88717102D01*
X103149377Y-88591598D01*
X103304098Y-88436877D01*
X103429602Y-88257639D01*
X103522075Y-88059330D01*
X103578707Y-87847977D01*
X103597777Y-87630000D01*
X103578707Y-87412023D01*
X103522075Y-87200670D01*
X103429602Y-87002362D01*
X103304098Y-86823123D01*
X103149377Y-86668402D01*
X103144946Y-86665299D01*
X103144942Y-86665296D01*
X102974568Y-86545999D01*
X102974566Y-86545997D01*
X102970139Y-86542898D01*
X102965239Y-86540613D01*
X102965232Y-86540609D01*
X102818917Y-86472382D01*
X102766741Y-86426625D01*
X102747321Y-86360000D01*
X102766741Y-86293375D01*
X102818917Y-86247618D01*
X102882907Y-86217779D01*
X102970139Y-86177102D01*
X103149377Y-86051598D01*
X103304098Y-85896877D01*
X103341559Y-85843376D01*
X103385877Y-85804511D01*
X103443134Y-85790500D01*
X104885079Y-85790500D01*
X104892566Y-85790725D01*
X104952606Y-85794358D01*
X105011782Y-85783513D01*
X105019181Y-85782387D01*
X105078872Y-85775140D01*
X105088332Y-85771551D01*
X105109959Y-85765522D01*
X105119932Y-85763695D01*
X105174808Y-85738996D01*
X105181673Y-85736152D01*
X105237930Y-85714818D01*
X105246264Y-85709064D01*
X105265821Y-85698034D01*
X105275057Y-85693878D01*
X105322413Y-85656775D01*
X105328420Y-85652355D01*
X105377929Y-85618183D01*
X105417822Y-85573151D01*
X105422924Y-85567731D01*
X113727731Y-77262924D01*
X113733151Y-77257822D01*
X113778183Y-77217929D01*
X113812355Y-77168420D01*
X113816775Y-77162413D01*
X113853878Y-77115057D01*
X113858033Y-77105822D01*
X113869063Y-77086265D01*
X113874818Y-77077930D01*
X113896146Y-77021688D01*
X113899002Y-77014791D01*
X113923694Y-76959932D01*
X113925518Y-76949974D01*
X113931548Y-76928340D01*
X113935140Y-76918872D01*
X113942389Y-76859165D01*
X113943516Y-76851762D01*
X113954357Y-76792606D01*
X113950726Y-76732577D01*
X113950500Y-76725090D01*
X113950500Y-69500000D01*
X118594540Y-69500000D01*
X118595219Y-69506460D01*
X118613646Y-69681795D01*
X118613647Y-69681803D01*
X118614326Y-69688256D01*
X118616331Y-69694428D01*
X118616333Y-69694435D01*
X118670813Y-69862105D01*
X118672821Y-69868284D01*
X118767467Y-70032216D01*
X118894129Y-70172888D01*
X119047270Y-70284151D01*
X119220197Y-70361144D01*
X119405354Y-70400500D01*
X119588143Y-70400500D01*
X119594646Y-70400500D01*
X119779803Y-70361144D01*
X119952730Y-70284151D01*
X120035273Y-70224179D01*
X120069837Y-70206569D01*
X120108155Y-70200500D01*
X162925500Y-70200500D01*
X162987500Y-70217113D01*
X163032887Y-70262500D01*
X163049500Y-70324500D01*
X163049500Y-119158481D01*
X163040061Y-119205934D01*
X163013181Y-119246162D01*
X151687027Y-130572315D01*
X151658514Y-130593607D01*
X151625128Y-130605924D01*
X151476557Y-130637504D01*
X151476555Y-130637504D01*
X151470197Y-130638856D01*
X151464262Y-130641498D01*
X151464254Y-130641501D01*
X151303207Y-130713205D01*
X151303202Y-130713207D01*
X151297270Y-130715849D01*
X151292016Y-130719665D01*
X151292011Y-130719669D01*
X151149388Y-130823290D01*
X151149381Y-130823295D01*
X151144129Y-130827112D01*
X151139784Y-130831937D01*
X151139779Y-130831942D01*
X151021813Y-130962956D01*
X151021808Y-130962962D01*
X151017467Y-130967784D01*
X151014222Y-130973404D01*
X151014218Y-130973410D01*
X150926069Y-131126089D01*
X150926066Y-131126094D01*
X150922821Y-131131716D01*
X150920815Y-131137888D01*
X150920813Y-131137894D01*
X150866333Y-131305564D01*
X150866331Y-131305573D01*
X150864326Y-131311744D01*
X150863648Y-131318194D01*
X150863646Y-131318204D01*
X150847085Y-131475782D01*
X150844540Y-131500000D01*
X150845219Y-131506460D01*
X150863646Y-131681795D01*
X150863647Y-131681803D01*
X150864326Y-131688256D01*
X150866331Y-131694428D01*
X150866333Y-131694435D01*
X150899811Y-131797467D01*
X150922821Y-131868284D01*
X151017467Y-132032216D01*
X151021811Y-132037041D01*
X151021813Y-132037043D01*
X151138691Y-132166849D01*
X151144129Y-132172888D01*
X151297270Y-132284151D01*
X151470197Y-132361144D01*
X151655354Y-132400500D01*
X151838143Y-132400500D01*
X151844646Y-132400500D01*
X152029803Y-132361144D01*
X152202730Y-132284151D01*
X152355871Y-132172888D01*
X152482533Y-132032216D01*
X152577179Y-131868284D01*
X152635674Y-131688256D01*
X152640864Y-131638870D01*
X152652264Y-131598449D01*
X152676501Y-131564154D01*
X163740655Y-120500000D01*
X165740708Y-120500000D01*
X165741180Y-120505395D01*
X165759366Y-120713275D01*
X165759367Y-120713282D01*
X165759839Y-120718674D01*
X165761238Y-120723895D01*
X165761240Y-120723906D01*
X165815253Y-120925481D01*
X165815255Y-120925488D01*
X165816653Y-120930703D01*
X165909421Y-121129646D01*
X165912521Y-121134074D01*
X165912525Y-121134080D01*
X166015091Y-121280559D01*
X166035326Y-121309457D01*
X166190543Y-121464674D01*
X166280448Y-121527626D01*
X166365919Y-121587474D01*
X166365922Y-121587475D01*
X166370354Y-121590579D01*
X166569297Y-121683347D01*
X166574517Y-121684745D01*
X166574518Y-121684746D01*
X166776093Y-121738759D01*
X166776095Y-121738759D01*
X166781326Y-121740161D01*
X167000000Y-121759292D01*
X167218674Y-121740161D01*
X167430703Y-121683347D01*
X167629646Y-121590579D01*
X167809457Y-121464674D01*
X167964674Y-121309457D01*
X168090579Y-121129646D01*
X168183347Y-120930703D01*
X168240161Y-120718674D01*
X168259292Y-120500000D01*
X172240708Y-120500000D01*
X172241180Y-120505395D01*
X172259366Y-120713275D01*
X172259367Y-120713282D01*
X172259839Y-120718674D01*
X172261238Y-120723895D01*
X172261240Y-120723906D01*
X172315253Y-120925481D01*
X172315255Y-120925488D01*
X172316653Y-120930703D01*
X172409421Y-121129646D01*
X172412521Y-121134074D01*
X172412525Y-121134080D01*
X172515091Y-121280559D01*
X172535326Y-121309457D01*
X172690543Y-121464674D01*
X172780448Y-121527626D01*
X172865919Y-121587474D01*
X172865922Y-121587475D01*
X172870354Y-121590579D01*
X173069297Y-121683347D01*
X173074517Y-121684745D01*
X173074518Y-121684746D01*
X173276093Y-121738759D01*
X173276095Y-121738759D01*
X173281326Y-121740161D01*
X173500000Y-121759292D01*
X173718674Y-121740161D01*
X173930703Y-121683347D01*
X174129646Y-121590579D01*
X174309457Y-121464674D01*
X174464674Y-121309457D01*
X174590579Y-121129646D01*
X174683347Y-120930703D01*
X174740161Y-120718674D01*
X174759292Y-120500000D01*
X174740161Y-120281326D01*
X174683347Y-120069297D01*
X174590579Y-119870354D01*
X174586869Y-119865056D01*
X174483038Y-119716770D01*
X174464674Y-119690543D01*
X174309457Y-119535326D01*
X174280559Y-119515091D01*
X174134080Y-119412525D01*
X174134074Y-119412521D01*
X174129646Y-119409421D01*
X174124741Y-119407133D01*
X174124738Y-119407132D01*
X173935606Y-119318939D01*
X173935603Y-119318937D01*
X173930703Y-119316653D01*
X173925488Y-119315255D01*
X173925481Y-119315253D01*
X173723906Y-119261240D01*
X173723895Y-119261238D01*
X173718674Y-119259839D01*
X173713282Y-119259367D01*
X173713275Y-119259366D01*
X173505395Y-119241180D01*
X173500000Y-119240708D01*
X173494605Y-119241180D01*
X173286724Y-119259366D01*
X173286715Y-119259367D01*
X173281326Y-119259839D01*
X173276106Y-119261237D01*
X173276093Y-119261240D01*
X173074518Y-119315253D01*
X173074507Y-119315256D01*
X173069297Y-119316653D01*
X173064400Y-119318936D01*
X173064393Y-119318939D01*
X172875261Y-119407132D01*
X172875253Y-119407136D01*
X172870354Y-119409421D01*
X172865930Y-119412518D01*
X172865919Y-119412525D01*
X172694978Y-119532220D01*
X172694973Y-119532223D01*
X172690543Y-119535326D01*
X172686719Y-119539149D01*
X172686713Y-119539155D01*
X172539155Y-119686713D01*
X172539149Y-119686719D01*
X172535326Y-119690543D01*
X172532223Y-119694973D01*
X172532220Y-119694978D01*
X172412525Y-119865919D01*
X172412518Y-119865930D01*
X172409421Y-119870354D01*
X172407136Y-119875253D01*
X172407132Y-119875261D01*
X172318939Y-120064393D01*
X172318936Y-120064400D01*
X172316653Y-120069297D01*
X172315256Y-120074507D01*
X172315253Y-120074518D01*
X172261240Y-120276093D01*
X172261237Y-120276106D01*
X172259839Y-120281326D01*
X172259367Y-120286715D01*
X172259366Y-120286724D01*
X172241440Y-120491621D01*
X172240708Y-120500000D01*
X168259292Y-120500000D01*
X168240161Y-120281326D01*
X168183347Y-120069297D01*
X168090579Y-119870354D01*
X168086869Y-119865056D01*
X167983038Y-119716770D01*
X167964674Y-119690543D01*
X167809457Y-119535326D01*
X167780559Y-119515091D01*
X167634080Y-119412525D01*
X167634074Y-119412521D01*
X167629646Y-119409421D01*
X167624741Y-119407133D01*
X167624738Y-119407132D01*
X167435606Y-119318939D01*
X167435603Y-119318937D01*
X167430703Y-119316653D01*
X167425488Y-119315255D01*
X167425481Y-119315253D01*
X167223906Y-119261240D01*
X167223895Y-119261238D01*
X167218674Y-119259839D01*
X167213282Y-119259367D01*
X167213275Y-119259366D01*
X167005395Y-119241180D01*
X167000000Y-119240708D01*
X166994605Y-119241180D01*
X166786724Y-119259366D01*
X166786715Y-119259367D01*
X166781326Y-119259839D01*
X166776106Y-119261237D01*
X166776093Y-119261240D01*
X166574518Y-119315253D01*
X166574507Y-119315256D01*
X166569297Y-119316653D01*
X166564400Y-119318936D01*
X166564393Y-119318939D01*
X166375261Y-119407132D01*
X166375253Y-119407136D01*
X166370354Y-119409421D01*
X166365930Y-119412518D01*
X166365919Y-119412525D01*
X166194978Y-119532220D01*
X166194973Y-119532223D01*
X166190543Y-119535326D01*
X166186719Y-119539149D01*
X166186713Y-119539155D01*
X166039155Y-119686713D01*
X166039149Y-119686719D01*
X166035326Y-119690543D01*
X166032223Y-119694973D01*
X166032220Y-119694978D01*
X165912525Y-119865919D01*
X165912518Y-119865930D01*
X165909421Y-119870354D01*
X165907136Y-119875253D01*
X165907132Y-119875261D01*
X165818939Y-120064393D01*
X165818936Y-120064400D01*
X165816653Y-120069297D01*
X165815256Y-120074507D01*
X165815253Y-120074518D01*
X165761240Y-120276093D01*
X165761237Y-120276106D01*
X165759839Y-120281326D01*
X165759367Y-120286715D01*
X165759366Y-120286724D01*
X165741440Y-120491621D01*
X165740708Y-120500000D01*
X163740655Y-120500000D01*
X164227731Y-120012924D01*
X164233151Y-120007822D01*
X164278183Y-119967929D01*
X164312362Y-119918411D01*
X164316789Y-119912396D01*
X164353878Y-119865056D01*
X164358034Y-119855820D01*
X164369061Y-119836269D01*
X164374818Y-119827930D01*
X164396147Y-119771686D01*
X164399001Y-119764795D01*
X164423695Y-119709931D01*
X164425522Y-119699957D01*
X164431548Y-119678340D01*
X164435140Y-119668872D01*
X164442386Y-119609184D01*
X164443514Y-119601776D01*
X164454358Y-119542606D01*
X164450725Y-119482566D01*
X164450500Y-119475079D01*
X164450500Y-116798518D01*
X165746000Y-116798518D01*
X165746353Y-116805114D01*
X165751573Y-116853667D01*
X165755111Y-116868641D01*
X165799547Y-116987777D01*
X165807962Y-117003189D01*
X165883498Y-117104092D01*
X165895907Y-117116501D01*
X165996810Y-117192037D01*
X166012222Y-117200452D01*
X166131358Y-117244888D01*
X166146332Y-117248426D01*
X166194885Y-117253646D01*
X166201482Y-117254000D01*
X166733674Y-117254000D01*
X166746549Y-117250549D01*
X166750000Y-117237674D01*
X167250000Y-117237674D01*
X167253450Y-117250549D01*
X167266326Y-117254000D01*
X167798518Y-117254000D01*
X167805114Y-117253646D01*
X167853667Y-117248426D01*
X167868641Y-117244888D01*
X167987777Y-117200452D01*
X168003189Y-117192037D01*
X168104092Y-117116501D01*
X168116501Y-117104092D01*
X168192037Y-117003189D01*
X168200452Y-116987777D01*
X168244888Y-116868641D01*
X168248426Y-116853667D01*
X168253646Y-116805114D01*
X168254000Y-116798518D01*
X168254000Y-116266326D01*
X168250549Y-116253450D01*
X168237674Y-116250000D01*
X167266326Y-116250000D01*
X167253450Y-116253450D01*
X167250000Y-116266326D01*
X167250000Y-117237674D01*
X166750000Y-117237674D01*
X166750000Y-116266326D01*
X166746549Y-116253450D01*
X166733674Y-116250000D01*
X165762326Y-116250000D01*
X165749450Y-116253450D01*
X165746000Y-116266326D01*
X165746000Y-116798518D01*
X164450500Y-116798518D01*
X164450500Y-116000000D01*
X172240708Y-116000000D01*
X172241180Y-116005395D01*
X172259366Y-116213275D01*
X172259367Y-116213282D01*
X172259839Y-116218674D01*
X172261238Y-116223895D01*
X172261240Y-116223906D01*
X172315253Y-116425481D01*
X172315255Y-116425488D01*
X172316653Y-116430703D01*
X172409421Y-116629646D01*
X172412521Y-116634074D01*
X172412525Y-116634080D01*
X172515091Y-116780559D01*
X172535326Y-116809457D01*
X172690543Y-116964674D01*
X172735754Y-116996331D01*
X172865919Y-117087474D01*
X172865922Y-117087475D01*
X172870354Y-117090579D01*
X173069297Y-117183347D01*
X173074517Y-117184745D01*
X173074518Y-117184746D01*
X173276093Y-117238759D01*
X173276095Y-117238759D01*
X173281326Y-117240161D01*
X173500000Y-117259292D01*
X173718674Y-117240161D01*
X173930703Y-117183347D01*
X174129646Y-117090579D01*
X174309457Y-116964674D01*
X174464674Y-116809457D01*
X174590579Y-116629646D01*
X174683347Y-116430703D01*
X174740161Y-116218674D01*
X174759292Y-116000000D01*
X174740161Y-115781326D01*
X174730842Y-115746549D01*
X174684746Y-115574518D01*
X174684745Y-115574517D01*
X174683347Y-115569297D01*
X174590579Y-115370354D01*
X174464674Y-115190543D01*
X174309457Y-115035326D01*
X174264246Y-115003669D01*
X174134080Y-114912525D01*
X174134074Y-114912521D01*
X174129646Y-114909421D01*
X174124741Y-114907133D01*
X174124738Y-114907132D01*
X173935606Y-114818939D01*
X173935603Y-114818937D01*
X173930703Y-114816653D01*
X173925488Y-114815255D01*
X173925481Y-114815253D01*
X173723906Y-114761240D01*
X173723895Y-114761238D01*
X173718674Y-114759839D01*
X173713282Y-114759367D01*
X173713275Y-114759366D01*
X173505395Y-114741180D01*
X173500000Y-114740708D01*
X173494605Y-114741180D01*
X173286724Y-114759366D01*
X173286715Y-114759367D01*
X173281326Y-114759839D01*
X173276106Y-114761237D01*
X173276093Y-114761240D01*
X173074518Y-114815253D01*
X173074507Y-114815256D01*
X173069297Y-114816653D01*
X173064400Y-114818936D01*
X173064393Y-114818939D01*
X172875261Y-114907132D01*
X172875253Y-114907136D01*
X172870354Y-114909421D01*
X172865930Y-114912518D01*
X172865919Y-114912525D01*
X172694978Y-115032220D01*
X172694973Y-115032223D01*
X172690543Y-115035326D01*
X172686719Y-115039149D01*
X172686713Y-115039155D01*
X172539155Y-115186713D01*
X172539149Y-115186719D01*
X172535326Y-115190543D01*
X172532223Y-115194973D01*
X172532220Y-115194978D01*
X172412525Y-115365919D01*
X172412518Y-115365930D01*
X172409421Y-115370354D01*
X172407136Y-115375253D01*
X172407132Y-115375261D01*
X172318939Y-115564393D01*
X172318936Y-115564400D01*
X172316653Y-115569297D01*
X172315256Y-115574507D01*
X172315253Y-115574518D01*
X172261240Y-115776093D01*
X172261237Y-115776106D01*
X172259839Y-115781326D01*
X172259367Y-115786715D01*
X172259366Y-115786724D01*
X172241440Y-115991621D01*
X172240708Y-116000000D01*
X164450500Y-116000000D01*
X164450500Y-115733674D01*
X165746000Y-115733674D01*
X165749450Y-115746549D01*
X165762326Y-115750000D01*
X166733674Y-115750000D01*
X166746549Y-115746549D01*
X166750000Y-115733674D01*
X167250000Y-115733674D01*
X167253450Y-115746549D01*
X167266326Y-115750000D01*
X168237674Y-115750000D01*
X168250549Y-115746549D01*
X168254000Y-115733674D01*
X168254000Y-115201482D01*
X168253646Y-115194885D01*
X168248426Y-115146332D01*
X168244888Y-115131358D01*
X168200452Y-115012222D01*
X168192037Y-114996810D01*
X168116501Y-114895907D01*
X168104092Y-114883498D01*
X168003189Y-114807962D01*
X167987777Y-114799547D01*
X167868641Y-114755111D01*
X167853667Y-114751573D01*
X167805114Y-114746353D01*
X167798518Y-114746000D01*
X167266326Y-114746000D01*
X167253450Y-114749450D01*
X167250000Y-114762326D01*
X167250000Y-115733674D01*
X166750000Y-115733674D01*
X166750000Y-114762326D01*
X166746549Y-114749450D01*
X166733674Y-114746000D01*
X166201482Y-114746000D01*
X166194885Y-114746353D01*
X166146332Y-114751573D01*
X166131358Y-114755111D01*
X166012222Y-114799547D01*
X165996810Y-114807962D01*
X165895907Y-114883498D01*
X165883498Y-114895907D01*
X165807962Y-114996810D01*
X165799547Y-115012222D01*
X165755111Y-115131358D01*
X165751573Y-115146332D01*
X165746353Y-115194885D01*
X165746000Y-115201482D01*
X165746000Y-115733674D01*
X164450500Y-115733674D01*
X164450500Y-98832802D01*
X176656617Y-98832802D01*
X176664050Y-98840913D01*
X176710672Y-98873558D01*
X176720022Y-98878956D01*
X176908432Y-98966813D01*
X176918574Y-98970505D01*
X177119386Y-99024311D01*
X177130001Y-99026183D01*
X177337105Y-99044303D01*
X177347895Y-99044303D01*
X177554998Y-99026183D01*
X177565613Y-99024311D01*
X177766425Y-98970505D01*
X177776567Y-98966813D01*
X177964985Y-98878953D01*
X177974317Y-98873565D01*
X178020950Y-98840912D01*
X178028381Y-98832803D01*
X178022467Y-98823520D01*
X177354042Y-98155095D01*
X177342500Y-98148431D01*
X177330957Y-98155095D01*
X176662528Y-98823523D01*
X176656617Y-98832802D01*
X164450500Y-98832802D01*
X164450500Y-97795395D01*
X176088197Y-97795395D01*
X176106316Y-98002498D01*
X176108188Y-98013113D01*
X176161994Y-98213925D01*
X176165686Y-98224067D01*
X176253543Y-98412477D01*
X176258941Y-98421827D01*
X176291584Y-98468447D01*
X176299697Y-98475881D01*
X176308975Y-98469970D01*
X176977404Y-97801542D01*
X176984067Y-97790000D01*
X177700931Y-97790000D01*
X177707595Y-97801542D01*
X178376020Y-98469967D01*
X178385303Y-98475881D01*
X178393412Y-98468450D01*
X178426065Y-98421817D01*
X178431453Y-98412485D01*
X178519313Y-98224067D01*
X178523005Y-98213925D01*
X178576811Y-98013113D01*
X178578683Y-98002498D01*
X178596803Y-97795395D01*
X178596803Y-97784605D01*
X178578683Y-97577501D01*
X178576811Y-97566886D01*
X178523005Y-97366074D01*
X178519313Y-97355932D01*
X178431455Y-97167520D01*
X178426059Y-97158175D01*
X178393413Y-97111552D01*
X178385301Y-97104119D01*
X178376019Y-97110032D01*
X177707595Y-97778457D01*
X177700931Y-97790000D01*
X176984067Y-97790000D01*
X176984068Y-97789999D01*
X176977404Y-97778457D01*
X176308976Y-97110029D01*
X176299697Y-97104118D01*
X176291586Y-97111551D01*
X176258941Y-97158173D01*
X176253543Y-97167523D01*
X176165686Y-97355932D01*
X176161994Y-97366074D01*
X176108188Y-97566886D01*
X176106316Y-97577501D01*
X176088197Y-97784605D01*
X176088197Y-97795395D01*
X164450500Y-97795395D01*
X164450500Y-95250000D01*
X176087223Y-95250000D01*
X176087695Y-95255395D01*
X176105820Y-95462578D01*
X176105821Y-95462585D01*
X176106293Y-95467977D01*
X176107692Y-95473199D01*
X176107694Y-95473209D01*
X176150679Y-95633628D01*
X176162925Y-95679330D01*
X176165209Y-95684229D01*
X176165212Y-95684236D01*
X176253111Y-95872736D01*
X176253114Y-95872742D01*
X176255398Y-95877639D01*
X176258497Y-95882066D01*
X176258499Y-95882068D01*
X176377796Y-96052442D01*
X176377799Y-96052446D01*
X176380902Y-96056877D01*
X176535623Y-96211598D01*
X176540055Y-96214701D01*
X176540057Y-96214703D01*
X176631317Y-96278604D01*
X176714861Y-96337102D01*
X176719761Y-96339387D01*
X176719763Y-96339388D01*
X176866675Y-96407894D01*
X176918850Y-96453651D01*
X176938270Y-96520276D01*
X176918851Y-96586901D01*
X176866675Y-96632658D01*
X176720023Y-96701043D01*
X176710673Y-96706441D01*
X176664051Y-96739086D01*
X176656618Y-96747197D01*
X176662529Y-96756476D01*
X177330957Y-97424904D01*
X177342499Y-97431568D01*
X177354042Y-97424904D01*
X178022470Y-96756475D01*
X178028381Y-96747197D01*
X178020947Y-96739084D01*
X177974327Y-96706441D01*
X177964973Y-96701040D01*
X177818325Y-96632658D01*
X177766149Y-96586901D01*
X177746729Y-96520276D01*
X177766149Y-96453651D01*
X177818325Y-96407894D01*
X177965232Y-96339390D01*
X177965230Y-96339390D01*
X177970139Y-96337102D01*
X178123096Y-96230000D01*
X185990708Y-96230000D01*
X185991180Y-96235395D01*
X186009366Y-96443275D01*
X186009367Y-96443282D01*
X186009839Y-96448674D01*
X186011238Y-96453895D01*
X186011240Y-96453906D01*
X186065253Y-96655481D01*
X186065255Y-96655488D01*
X186066653Y-96660703D01*
X186068937Y-96665603D01*
X186068939Y-96665606D01*
X186144851Y-96828402D01*
X186159421Y-96859646D01*
X186162521Y-96864074D01*
X186162525Y-96864080D01*
X186248986Y-96987558D01*
X186285326Y-97039457D01*
X186440543Y-97194674D01*
X186530448Y-97257626D01*
X186615919Y-97317474D01*
X186615922Y-97317475D01*
X186620354Y-97320579D01*
X186819297Y-97413347D01*
X186824517Y-97414745D01*
X186824518Y-97414746D01*
X187026093Y-97468759D01*
X187026095Y-97468759D01*
X187031326Y-97470161D01*
X187250000Y-97489292D01*
X187468674Y-97470161D01*
X187680703Y-97413347D01*
X187879646Y-97320579D01*
X188059457Y-97194674D01*
X188214674Y-97039457D01*
X188340579Y-96859646D01*
X188433347Y-96660703D01*
X188490161Y-96448674D01*
X188509292Y-96230000D01*
X192490708Y-96230000D01*
X192491180Y-96235395D01*
X192509366Y-96443275D01*
X192509367Y-96443282D01*
X192509839Y-96448674D01*
X192511238Y-96453895D01*
X192511240Y-96453906D01*
X192565253Y-96655481D01*
X192565255Y-96655488D01*
X192566653Y-96660703D01*
X192568937Y-96665603D01*
X192568939Y-96665606D01*
X192644851Y-96828402D01*
X192659421Y-96859646D01*
X192662521Y-96864074D01*
X192662525Y-96864080D01*
X192748986Y-96987558D01*
X192785326Y-97039457D01*
X192940543Y-97194674D01*
X193030448Y-97257626D01*
X193115919Y-97317474D01*
X193115922Y-97317475D01*
X193120354Y-97320579D01*
X193319297Y-97413347D01*
X193324517Y-97414745D01*
X193324518Y-97414746D01*
X193526093Y-97468759D01*
X193526095Y-97468759D01*
X193531326Y-97470161D01*
X193750000Y-97489292D01*
X193968674Y-97470161D01*
X194180703Y-97413347D01*
X194379646Y-97320579D01*
X194559457Y-97194674D01*
X194714674Y-97039457D01*
X194840579Y-96859646D01*
X194933347Y-96660703D01*
X194990161Y-96448674D01*
X195009292Y-96230000D01*
X194990161Y-96011326D01*
X194938876Y-95819933D01*
X194934746Y-95804518D01*
X194934745Y-95804517D01*
X194933347Y-95799297D01*
X194840579Y-95600354D01*
X194835127Y-95592568D01*
X194758832Y-95483607D01*
X194714674Y-95420543D01*
X194559457Y-95265326D01*
X194454564Y-95191879D01*
X194384080Y-95142525D01*
X194384074Y-95142521D01*
X194379646Y-95139421D01*
X194374741Y-95137133D01*
X194374738Y-95137132D01*
X194185606Y-95048939D01*
X194185603Y-95048937D01*
X194180703Y-95046653D01*
X194175488Y-95045255D01*
X194175481Y-95045253D01*
X193973906Y-94991240D01*
X193973895Y-94991238D01*
X193968674Y-94989839D01*
X193963282Y-94989367D01*
X193963275Y-94989366D01*
X193755395Y-94971180D01*
X193750000Y-94970708D01*
X193744605Y-94971180D01*
X193536724Y-94989366D01*
X193536715Y-94989367D01*
X193531326Y-94989839D01*
X193526106Y-94991237D01*
X193526093Y-94991240D01*
X193324518Y-95045253D01*
X193324507Y-95045256D01*
X193319297Y-95046653D01*
X193314400Y-95048936D01*
X193314393Y-95048939D01*
X193125261Y-95137132D01*
X193125253Y-95137136D01*
X193120354Y-95139421D01*
X193115930Y-95142518D01*
X193115919Y-95142525D01*
X192944978Y-95262220D01*
X192944973Y-95262223D01*
X192940543Y-95265326D01*
X192936719Y-95269149D01*
X192936713Y-95269155D01*
X192789155Y-95416713D01*
X192789149Y-95416719D01*
X192785326Y-95420543D01*
X192782223Y-95424973D01*
X192782220Y-95424978D01*
X192662525Y-95595919D01*
X192662518Y-95595930D01*
X192659421Y-95600354D01*
X192657136Y-95605253D01*
X192657132Y-95605261D01*
X192568939Y-95794393D01*
X192568936Y-95794400D01*
X192566653Y-95799297D01*
X192565256Y-95804507D01*
X192565253Y-95804518D01*
X192511240Y-96006093D01*
X192511237Y-96006106D01*
X192509839Y-96011326D01*
X192509367Y-96016715D01*
X192509366Y-96016724D01*
X192498230Y-96144019D01*
X192490708Y-96230000D01*
X188509292Y-96230000D01*
X188490161Y-96011326D01*
X188438876Y-95819933D01*
X188434746Y-95804518D01*
X188434745Y-95804517D01*
X188433347Y-95799297D01*
X188340579Y-95600354D01*
X188335127Y-95592568D01*
X188258832Y-95483607D01*
X188214674Y-95420543D01*
X188059457Y-95265326D01*
X187954564Y-95191879D01*
X187884080Y-95142525D01*
X187884074Y-95142521D01*
X187879646Y-95139421D01*
X187874741Y-95137133D01*
X187874738Y-95137132D01*
X187685606Y-95048939D01*
X187685603Y-95048937D01*
X187680703Y-95046653D01*
X187675488Y-95045255D01*
X187675481Y-95045253D01*
X187473906Y-94991240D01*
X187473895Y-94991238D01*
X187468674Y-94989839D01*
X187463282Y-94989367D01*
X187463275Y-94989366D01*
X187255395Y-94971180D01*
X187250000Y-94970708D01*
X187244605Y-94971180D01*
X187036724Y-94989366D01*
X187036715Y-94989367D01*
X187031326Y-94989839D01*
X187026106Y-94991237D01*
X187026093Y-94991240D01*
X186824518Y-95045253D01*
X186824507Y-95045256D01*
X186819297Y-95046653D01*
X186814400Y-95048936D01*
X186814393Y-95048939D01*
X186625261Y-95137132D01*
X186625253Y-95137136D01*
X186620354Y-95139421D01*
X186615930Y-95142518D01*
X186615919Y-95142525D01*
X186444978Y-95262220D01*
X186444973Y-95262223D01*
X186440543Y-95265326D01*
X186436719Y-95269149D01*
X186436713Y-95269155D01*
X186289155Y-95416713D01*
X186289149Y-95416719D01*
X186285326Y-95420543D01*
X186282223Y-95424973D01*
X186282220Y-95424978D01*
X186162525Y-95595919D01*
X186162518Y-95595930D01*
X186159421Y-95600354D01*
X186157136Y-95605253D01*
X186157132Y-95605261D01*
X186068939Y-95794393D01*
X186068936Y-95794400D01*
X186066653Y-95799297D01*
X186065256Y-95804507D01*
X186065253Y-95804518D01*
X186011240Y-96006093D01*
X186011237Y-96006106D01*
X186009839Y-96011326D01*
X186009367Y-96016715D01*
X186009366Y-96016724D01*
X185998230Y-96144019D01*
X185990708Y-96230000D01*
X178123096Y-96230000D01*
X178149377Y-96211598D01*
X178304098Y-96056877D01*
X178429602Y-95877639D01*
X178522075Y-95679330D01*
X178578707Y-95467977D01*
X178597777Y-95250000D01*
X178578707Y-95032023D01*
X178522075Y-94820670D01*
X178429602Y-94622362D01*
X178304098Y-94443123D01*
X178149377Y-94288402D01*
X178144946Y-94285299D01*
X178144942Y-94285296D01*
X177974568Y-94165999D01*
X177974566Y-94165997D01*
X177970139Y-94162898D01*
X177965239Y-94160613D01*
X177965232Y-94160609D01*
X177818917Y-94092382D01*
X177766741Y-94046625D01*
X177747321Y-93980000D01*
X177766741Y-93913375D01*
X177818917Y-93867618D01*
X177965232Y-93799390D01*
X177965230Y-93799390D01*
X177970139Y-93797102D01*
X178149377Y-93671598D01*
X178304098Y-93516877D01*
X178429602Y-93337639D01*
X178522075Y-93139330D01*
X178578707Y-92927977D01*
X178597777Y-92710000D01*
X178581905Y-92528578D01*
X185995500Y-92528578D01*
X185995501Y-92531872D01*
X185995853Y-92535150D01*
X185995854Y-92535161D01*
X186001079Y-92583768D01*
X186001080Y-92583773D01*
X186001909Y-92591483D01*
X186004619Y-92598749D01*
X186004620Y-92598753D01*
X186024435Y-92651879D01*
X186052204Y-92726331D01*
X186138454Y-92841546D01*
X186253669Y-92927796D01*
X186388517Y-92978091D01*
X186448127Y-92984500D01*
X188051872Y-92984499D01*
X188111483Y-92978091D01*
X188246331Y-92927796D01*
X188361546Y-92841546D01*
X188447796Y-92726331D01*
X188498091Y-92591483D01*
X188504500Y-92531873D01*
X188504499Y-91730000D01*
X192490708Y-91730000D01*
X192491180Y-91735395D01*
X192509366Y-91943275D01*
X192509367Y-91943282D01*
X192509839Y-91948674D01*
X192511238Y-91953895D01*
X192511240Y-91953906D01*
X192565253Y-92155481D01*
X192565255Y-92155488D01*
X192566653Y-92160703D01*
X192568937Y-92165603D01*
X192568939Y-92165606D01*
X192625031Y-92285897D01*
X192659421Y-92359646D01*
X192662521Y-92364074D01*
X192662525Y-92364080D01*
X192748448Y-92486790D01*
X192785326Y-92539457D01*
X192940543Y-92694674D01*
X192985754Y-92726331D01*
X193115919Y-92817474D01*
X193115922Y-92817475D01*
X193120354Y-92820579D01*
X193319297Y-92913347D01*
X193324517Y-92914745D01*
X193324518Y-92914746D01*
X193526093Y-92968759D01*
X193526095Y-92968759D01*
X193531326Y-92970161D01*
X193750000Y-92989292D01*
X193968674Y-92970161D01*
X194180703Y-92913347D01*
X194379646Y-92820579D01*
X194559457Y-92694674D01*
X194714674Y-92539457D01*
X194840579Y-92359646D01*
X194933347Y-92160703D01*
X194990161Y-91948674D01*
X195009292Y-91730000D01*
X194990161Y-91511326D01*
X194955971Y-91383731D01*
X194934746Y-91304518D01*
X194934745Y-91304517D01*
X194933347Y-91299297D01*
X194840579Y-91100354D01*
X194714674Y-90920543D01*
X194559457Y-90765326D01*
X194504105Y-90726568D01*
X194384080Y-90642525D01*
X194384074Y-90642521D01*
X194379646Y-90639421D01*
X194374741Y-90637133D01*
X194374738Y-90637132D01*
X194185606Y-90548939D01*
X194185603Y-90548937D01*
X194180703Y-90546653D01*
X194175488Y-90545255D01*
X194175481Y-90545253D01*
X193973906Y-90491240D01*
X193973895Y-90491238D01*
X193968674Y-90489839D01*
X193963282Y-90489367D01*
X193963275Y-90489366D01*
X193755395Y-90471180D01*
X193750000Y-90470708D01*
X193744605Y-90471180D01*
X193536724Y-90489366D01*
X193536715Y-90489367D01*
X193531326Y-90489839D01*
X193526106Y-90491237D01*
X193526093Y-90491240D01*
X193324518Y-90545253D01*
X193324507Y-90545256D01*
X193319297Y-90546653D01*
X193314400Y-90548936D01*
X193314393Y-90548939D01*
X193125261Y-90637132D01*
X193125253Y-90637136D01*
X193120354Y-90639421D01*
X193115930Y-90642518D01*
X193115919Y-90642525D01*
X192944978Y-90762220D01*
X192944973Y-90762223D01*
X192940543Y-90765326D01*
X192936719Y-90769149D01*
X192936713Y-90769155D01*
X192789155Y-90916713D01*
X192789149Y-90916719D01*
X192785326Y-90920543D01*
X192782223Y-90924973D01*
X192782220Y-90924978D01*
X192662525Y-91095919D01*
X192662518Y-91095930D01*
X192659421Y-91100354D01*
X192657136Y-91105253D01*
X192657132Y-91105261D01*
X192568939Y-91294393D01*
X192568936Y-91294400D01*
X192566653Y-91299297D01*
X192565256Y-91304507D01*
X192565253Y-91304518D01*
X192511240Y-91506093D01*
X192511237Y-91506106D01*
X192509839Y-91511326D01*
X192509367Y-91516715D01*
X192509366Y-91516724D01*
X192499806Y-91626006D01*
X192490708Y-91730000D01*
X188504499Y-91730000D01*
X188504499Y-90928128D01*
X188498091Y-90868517D01*
X188447796Y-90733669D01*
X188361546Y-90618454D01*
X188331909Y-90596268D01*
X188253431Y-90537519D01*
X188253430Y-90537518D01*
X188246331Y-90532204D01*
X188136501Y-90491240D01*
X188118752Y-90484620D01*
X188118750Y-90484619D01*
X188111483Y-90481909D01*
X188103770Y-90481079D01*
X188103767Y-90481079D01*
X188055180Y-90475855D01*
X188055169Y-90475854D01*
X188051873Y-90475500D01*
X188048550Y-90475500D01*
X186451439Y-90475500D01*
X186451420Y-90475500D01*
X186448128Y-90475501D01*
X186444850Y-90475853D01*
X186444838Y-90475854D01*
X186396231Y-90481079D01*
X186396225Y-90481080D01*
X186388517Y-90481909D01*
X186381252Y-90484618D01*
X186381246Y-90484620D01*
X186261980Y-90529104D01*
X186261978Y-90529104D01*
X186253669Y-90532204D01*
X186246572Y-90537516D01*
X186246568Y-90537519D01*
X186145550Y-90613141D01*
X186145546Y-90613144D01*
X186138454Y-90618454D01*
X186133144Y-90625546D01*
X186133141Y-90625550D01*
X186057519Y-90726568D01*
X186057516Y-90726572D01*
X186052204Y-90733669D01*
X186049104Y-90741978D01*
X186049104Y-90741980D01*
X186004620Y-90861247D01*
X186004619Y-90861250D01*
X186001909Y-90868517D01*
X186001079Y-90876227D01*
X186001079Y-90876232D01*
X185995855Y-90924819D01*
X185995854Y-90924831D01*
X185995500Y-90928127D01*
X185995500Y-90931448D01*
X185995500Y-90931449D01*
X185995500Y-92528560D01*
X185995500Y-92528578D01*
X178581905Y-92528578D01*
X178578707Y-92492023D01*
X178522075Y-92280670D01*
X178429602Y-92082362D01*
X178304098Y-91903123D01*
X178149377Y-91748402D01*
X178144946Y-91745299D01*
X178144942Y-91745296D01*
X177974568Y-91625999D01*
X177974566Y-91625997D01*
X177970139Y-91622898D01*
X177965239Y-91620613D01*
X177965232Y-91620609D01*
X177818917Y-91552382D01*
X177766741Y-91506625D01*
X177747321Y-91440000D01*
X177766741Y-91373375D01*
X177818917Y-91327618D01*
X177868455Y-91304518D01*
X177970139Y-91257102D01*
X178149377Y-91131598D01*
X178304098Y-90976877D01*
X178429602Y-90797639D01*
X178522075Y-90599330D01*
X178578707Y-90387977D01*
X178597777Y-90170000D01*
X178578707Y-89952023D01*
X178522075Y-89740670D01*
X178429602Y-89542362D01*
X178304098Y-89363123D01*
X178149377Y-89208402D01*
X178144946Y-89205299D01*
X178144942Y-89205296D01*
X177974568Y-89085999D01*
X177974566Y-89085997D01*
X177970139Y-89082898D01*
X177965239Y-89080613D01*
X177965232Y-89080609D01*
X177818917Y-89012382D01*
X177766741Y-88966625D01*
X177747321Y-88900000D01*
X177766741Y-88833375D01*
X177818917Y-88787618D01*
X177965232Y-88719390D01*
X177965230Y-88719390D01*
X177970139Y-88717102D01*
X178149377Y-88591598D01*
X178304098Y-88436877D01*
X178429602Y-88257639D01*
X178522075Y-88059330D01*
X178578707Y-87847977D01*
X178597777Y-87630000D01*
X178578707Y-87412023D01*
X178522075Y-87200670D01*
X178429602Y-87002362D01*
X178304098Y-86823123D01*
X178149377Y-86668402D01*
X178144946Y-86665299D01*
X178144942Y-86665296D01*
X177974568Y-86545999D01*
X177974566Y-86545997D01*
X177970139Y-86542898D01*
X177965239Y-86540613D01*
X177965232Y-86540609D01*
X177818917Y-86472382D01*
X177766741Y-86426625D01*
X177747321Y-86360000D01*
X177766741Y-86293375D01*
X177818917Y-86247618D01*
X177882907Y-86217779D01*
X177970139Y-86177102D01*
X178149377Y-86051598D01*
X178304098Y-85896877D01*
X178429602Y-85717639D01*
X178522075Y-85519330D01*
X178578707Y-85307977D01*
X178583779Y-85250000D01*
X185990708Y-85250000D01*
X185991180Y-85255395D01*
X186009366Y-85463275D01*
X186009367Y-85463282D01*
X186009839Y-85468674D01*
X186011238Y-85473895D01*
X186011240Y-85473906D01*
X186065253Y-85675481D01*
X186065255Y-85675488D01*
X186066653Y-85680703D01*
X186068937Y-85685603D01*
X186068939Y-85685606D01*
X186142508Y-85843377D01*
X186159421Y-85879646D01*
X186162521Y-85884074D01*
X186162525Y-85884080D01*
X186265091Y-86030559D01*
X186285326Y-86059457D01*
X186440543Y-86214674D01*
X186487592Y-86247618D01*
X186615919Y-86337474D01*
X186615922Y-86337475D01*
X186620354Y-86340579D01*
X186819297Y-86433347D01*
X186824517Y-86434745D01*
X186824518Y-86434746D01*
X187026093Y-86488759D01*
X187026095Y-86488759D01*
X187031326Y-86490161D01*
X187250000Y-86509292D01*
X187468674Y-86490161D01*
X187680703Y-86433347D01*
X187879646Y-86340579D01*
X188059457Y-86214674D01*
X188214674Y-86059457D01*
X188340579Y-85879646D01*
X188433347Y-85680703D01*
X188490161Y-85468674D01*
X188509292Y-85250000D01*
X192490708Y-85250000D01*
X192491180Y-85255395D01*
X192509366Y-85463275D01*
X192509367Y-85463282D01*
X192509839Y-85468674D01*
X192511238Y-85473895D01*
X192511240Y-85473906D01*
X192565253Y-85675481D01*
X192565255Y-85675488D01*
X192566653Y-85680703D01*
X192568937Y-85685603D01*
X192568939Y-85685606D01*
X192642508Y-85843377D01*
X192659421Y-85879646D01*
X192662521Y-85884074D01*
X192662525Y-85884080D01*
X192765091Y-86030559D01*
X192785326Y-86059457D01*
X192940543Y-86214674D01*
X192987592Y-86247618D01*
X193115919Y-86337474D01*
X193115922Y-86337475D01*
X193120354Y-86340579D01*
X193319297Y-86433347D01*
X193324517Y-86434745D01*
X193324518Y-86434746D01*
X193526093Y-86488759D01*
X193526095Y-86488759D01*
X193531326Y-86490161D01*
X193750000Y-86509292D01*
X193968674Y-86490161D01*
X194180703Y-86433347D01*
X194379646Y-86340579D01*
X194559457Y-86214674D01*
X194714674Y-86059457D01*
X194840579Y-85879646D01*
X194933347Y-85680703D01*
X194990161Y-85468674D01*
X195009292Y-85250000D01*
X194990161Y-85031326D01*
X194988466Y-85025002D01*
X194934746Y-84824518D01*
X194934745Y-84824517D01*
X194933347Y-84819297D01*
X194840579Y-84620354D01*
X194714674Y-84440543D01*
X194559457Y-84285326D01*
X194516143Y-84254997D01*
X194384080Y-84162525D01*
X194384074Y-84162521D01*
X194379646Y-84159421D01*
X194374741Y-84157133D01*
X194374738Y-84157132D01*
X194185606Y-84068939D01*
X194185603Y-84068937D01*
X194180703Y-84066653D01*
X194175488Y-84065255D01*
X194175481Y-84065253D01*
X193973906Y-84011240D01*
X193973895Y-84011238D01*
X193968674Y-84009839D01*
X193963282Y-84009367D01*
X193963275Y-84009366D01*
X193755395Y-83991180D01*
X193750000Y-83990708D01*
X193744605Y-83991180D01*
X193536724Y-84009366D01*
X193536715Y-84009367D01*
X193531326Y-84009839D01*
X193526106Y-84011237D01*
X193526093Y-84011240D01*
X193324518Y-84065253D01*
X193324507Y-84065256D01*
X193319297Y-84066653D01*
X193314400Y-84068936D01*
X193314393Y-84068939D01*
X193125261Y-84157132D01*
X193125253Y-84157136D01*
X193120354Y-84159421D01*
X193115930Y-84162518D01*
X193115919Y-84162525D01*
X192944978Y-84282220D01*
X192944973Y-84282223D01*
X192940543Y-84285326D01*
X192936719Y-84289149D01*
X192936713Y-84289155D01*
X192789155Y-84436713D01*
X192789149Y-84436719D01*
X192785326Y-84440543D01*
X192782223Y-84444973D01*
X192782220Y-84444978D01*
X192662525Y-84615919D01*
X192662518Y-84615930D01*
X192659421Y-84620354D01*
X192657136Y-84625253D01*
X192657132Y-84625261D01*
X192568939Y-84814393D01*
X192568936Y-84814400D01*
X192566653Y-84819297D01*
X192565256Y-84824507D01*
X192565253Y-84824518D01*
X192511240Y-85026093D01*
X192511237Y-85026106D01*
X192509839Y-85031326D01*
X192509367Y-85036715D01*
X192509366Y-85036724D01*
X192497707Y-85169998D01*
X192490708Y-85250000D01*
X188509292Y-85250000D01*
X188490161Y-85031326D01*
X188488466Y-85025002D01*
X188434746Y-84824518D01*
X188434745Y-84824517D01*
X188433347Y-84819297D01*
X188340579Y-84620354D01*
X188214674Y-84440543D01*
X188059457Y-84285326D01*
X188016143Y-84254997D01*
X187884080Y-84162525D01*
X187884074Y-84162521D01*
X187879646Y-84159421D01*
X187874741Y-84157133D01*
X187874738Y-84157132D01*
X187685606Y-84068939D01*
X187685603Y-84068937D01*
X187680703Y-84066653D01*
X187675488Y-84065255D01*
X187675481Y-84065253D01*
X187473906Y-84011240D01*
X187473895Y-84011238D01*
X187468674Y-84009839D01*
X187463282Y-84009367D01*
X187463275Y-84009366D01*
X187255395Y-83991180D01*
X187250000Y-83990708D01*
X187244605Y-83991180D01*
X187036724Y-84009366D01*
X187036715Y-84009367D01*
X187031326Y-84009839D01*
X187026106Y-84011237D01*
X187026093Y-84011240D01*
X186824518Y-84065253D01*
X186824507Y-84065256D01*
X186819297Y-84066653D01*
X186814400Y-84068936D01*
X186814393Y-84068939D01*
X186625261Y-84157132D01*
X186625253Y-84157136D01*
X186620354Y-84159421D01*
X186615930Y-84162518D01*
X186615919Y-84162525D01*
X186444978Y-84282220D01*
X186444973Y-84282223D01*
X186440543Y-84285326D01*
X186436719Y-84289149D01*
X186436713Y-84289155D01*
X186289155Y-84436713D01*
X186289149Y-84436719D01*
X186285326Y-84440543D01*
X186282223Y-84444973D01*
X186282220Y-84444978D01*
X186162525Y-84615919D01*
X186162518Y-84615930D01*
X186159421Y-84620354D01*
X186157136Y-84625253D01*
X186157132Y-84625261D01*
X186068939Y-84814393D01*
X186068936Y-84814400D01*
X186066653Y-84819297D01*
X186065256Y-84824507D01*
X186065253Y-84824518D01*
X186011240Y-85026093D01*
X186011237Y-85026106D01*
X186009839Y-85031326D01*
X186009367Y-85036715D01*
X186009366Y-85036724D01*
X185997707Y-85169998D01*
X185990708Y-85250000D01*
X178583779Y-85250000D01*
X178597777Y-85090000D01*
X178578707Y-84872023D01*
X178522075Y-84660670D01*
X178429602Y-84462362D01*
X178304098Y-84283123D01*
X178149377Y-84128402D01*
X178144946Y-84125299D01*
X178144942Y-84125296D01*
X177974568Y-84005999D01*
X177974566Y-84005997D01*
X177970139Y-84002898D01*
X177965239Y-84000613D01*
X177965232Y-84000609D01*
X177818917Y-83932382D01*
X177766741Y-83886625D01*
X177747321Y-83820000D01*
X177766741Y-83753375D01*
X177818917Y-83707618D01*
X177965232Y-83639390D01*
X177965230Y-83639390D01*
X177970139Y-83637102D01*
X178149377Y-83511598D01*
X178304098Y-83356877D01*
X178429602Y-83177639D01*
X178522075Y-82979330D01*
X178578707Y-82767977D01*
X178597777Y-82550000D01*
X178578707Y-82332023D01*
X178522075Y-82120670D01*
X178429602Y-81922362D01*
X178304098Y-81743123D01*
X178149377Y-81588402D01*
X178144946Y-81585299D01*
X178144942Y-81585296D01*
X178092503Y-81548578D01*
X185995500Y-81548578D01*
X185995501Y-81551872D01*
X185995853Y-81555150D01*
X185995854Y-81555161D01*
X186001079Y-81603768D01*
X186001080Y-81603773D01*
X186001909Y-81611483D01*
X186004619Y-81618749D01*
X186004620Y-81618753D01*
X186037952Y-81708120D01*
X186052204Y-81746331D01*
X186057518Y-81753430D01*
X186057519Y-81753431D01*
X186106864Y-81819348D01*
X186138454Y-81861546D01*
X186253669Y-81947796D01*
X186388517Y-81998091D01*
X186448127Y-82004500D01*
X188051872Y-82004499D01*
X188111483Y-81998091D01*
X188246331Y-81947796D01*
X188361546Y-81861546D01*
X188447796Y-81746331D01*
X188498091Y-81611483D01*
X188504500Y-81551873D01*
X188504499Y-80750000D01*
X192490708Y-80750000D01*
X192491180Y-80755395D01*
X192509366Y-80963275D01*
X192509367Y-80963282D01*
X192509839Y-80968674D01*
X192511238Y-80973895D01*
X192511240Y-80973906D01*
X192565253Y-81175481D01*
X192565255Y-81175488D01*
X192566653Y-81180703D01*
X192568937Y-81185603D01*
X192568939Y-81185606D01*
X192612955Y-81280000D01*
X192659421Y-81379646D01*
X192662521Y-81384074D01*
X192662525Y-81384080D01*
X192719886Y-81465999D01*
X192785326Y-81559457D01*
X192940543Y-81714674D01*
X192995894Y-81753431D01*
X193115919Y-81837474D01*
X193115922Y-81837475D01*
X193120354Y-81840579D01*
X193319297Y-81933347D01*
X193324517Y-81934745D01*
X193324518Y-81934746D01*
X193526093Y-81988759D01*
X193526095Y-81988759D01*
X193531326Y-81990161D01*
X193750000Y-82009292D01*
X193968674Y-81990161D01*
X194180703Y-81933347D01*
X194379646Y-81840579D01*
X194559457Y-81714674D01*
X194714674Y-81559457D01*
X194840579Y-81379646D01*
X194933347Y-81180703D01*
X194990161Y-80968674D01*
X195009292Y-80750000D01*
X194990161Y-80531326D01*
X194964109Y-80434102D01*
X194934746Y-80324518D01*
X194934745Y-80324517D01*
X194933347Y-80319297D01*
X194840579Y-80120354D01*
X194714674Y-79940543D01*
X194559457Y-79785326D01*
X194481232Y-79730552D01*
X194384080Y-79662525D01*
X194384074Y-79662521D01*
X194379646Y-79659421D01*
X194374741Y-79657133D01*
X194374738Y-79657132D01*
X194185606Y-79568939D01*
X194185603Y-79568937D01*
X194180703Y-79566653D01*
X194175488Y-79565255D01*
X194175481Y-79565253D01*
X193973906Y-79511240D01*
X193973895Y-79511238D01*
X193968674Y-79509839D01*
X193963282Y-79509367D01*
X193963275Y-79509366D01*
X193755395Y-79491180D01*
X193750000Y-79490708D01*
X193744605Y-79491180D01*
X193536724Y-79509366D01*
X193536715Y-79509367D01*
X193531326Y-79509839D01*
X193526106Y-79511237D01*
X193526093Y-79511240D01*
X193324518Y-79565253D01*
X193324507Y-79565256D01*
X193319297Y-79566653D01*
X193314400Y-79568936D01*
X193314393Y-79568939D01*
X193125261Y-79657132D01*
X193125253Y-79657136D01*
X193120354Y-79659421D01*
X193115930Y-79662518D01*
X193115919Y-79662525D01*
X192944978Y-79782220D01*
X192944973Y-79782223D01*
X192940543Y-79785326D01*
X192936719Y-79789149D01*
X192936713Y-79789155D01*
X192789155Y-79936713D01*
X192789149Y-79936719D01*
X192785326Y-79940543D01*
X192782223Y-79944973D01*
X192782220Y-79944978D01*
X192662525Y-80115919D01*
X192662518Y-80115930D01*
X192659421Y-80120354D01*
X192657136Y-80125253D01*
X192657132Y-80125261D01*
X192568939Y-80314393D01*
X192568936Y-80314400D01*
X192566653Y-80319297D01*
X192565256Y-80324507D01*
X192565253Y-80324518D01*
X192511240Y-80526093D01*
X192511237Y-80526106D01*
X192509839Y-80531326D01*
X192509367Y-80536715D01*
X192509366Y-80536724D01*
X192491440Y-80741621D01*
X192490708Y-80750000D01*
X188504499Y-80750000D01*
X188504499Y-79948128D01*
X188498091Y-79888517D01*
X188447796Y-79753669D01*
X188361546Y-79638454D01*
X188246331Y-79552204D01*
X188136501Y-79511240D01*
X188118752Y-79504620D01*
X188118750Y-79504619D01*
X188111483Y-79501909D01*
X188103770Y-79501079D01*
X188103767Y-79501079D01*
X188055180Y-79495855D01*
X188055169Y-79495854D01*
X188051873Y-79495500D01*
X188048550Y-79495500D01*
X186451439Y-79495500D01*
X186451420Y-79495500D01*
X186448128Y-79495501D01*
X186444850Y-79495853D01*
X186444838Y-79495854D01*
X186396231Y-79501079D01*
X186396225Y-79501080D01*
X186388517Y-79501909D01*
X186381252Y-79504618D01*
X186381246Y-79504620D01*
X186261980Y-79549104D01*
X186261978Y-79549104D01*
X186253669Y-79552204D01*
X186246572Y-79557516D01*
X186246568Y-79557519D01*
X186145550Y-79633141D01*
X186145546Y-79633144D01*
X186138454Y-79638454D01*
X186133144Y-79645546D01*
X186133141Y-79645550D01*
X186057519Y-79746568D01*
X186057516Y-79746572D01*
X186052204Y-79753669D01*
X186049104Y-79761978D01*
X186049104Y-79761980D01*
X186004620Y-79881247D01*
X186004619Y-79881250D01*
X186001909Y-79888517D01*
X186001079Y-79896227D01*
X186001079Y-79896232D01*
X185995855Y-79944819D01*
X185995854Y-79944831D01*
X185995500Y-79948127D01*
X185995500Y-79951448D01*
X185995500Y-79951449D01*
X185995500Y-81548560D01*
X185995500Y-81548578D01*
X178092503Y-81548578D01*
X177974568Y-81465999D01*
X177974566Y-81465997D01*
X177970139Y-81462898D01*
X177965239Y-81460613D01*
X177965232Y-81460609D01*
X177818917Y-81392382D01*
X177766741Y-81346625D01*
X177747321Y-81280000D01*
X177766741Y-81213375D01*
X177818917Y-81167618D01*
X177839082Y-81158214D01*
X177970139Y-81097102D01*
X178149377Y-80971598D01*
X178304098Y-80816877D01*
X178429602Y-80637639D01*
X178522075Y-80439330D01*
X178578707Y-80227977D01*
X178597777Y-80010000D01*
X178578707Y-79792023D01*
X178570126Y-79760000D01*
X178542563Y-79657132D01*
X178522075Y-79580670D01*
X178511279Y-79557519D01*
X178480125Y-79490708D01*
X178429602Y-79382362D01*
X178304098Y-79203123D01*
X178149377Y-79048402D01*
X178144946Y-79045299D01*
X178144942Y-79045296D01*
X177974568Y-78925999D01*
X177974566Y-78925997D01*
X177970139Y-78922898D01*
X177965242Y-78920614D01*
X177965236Y-78920611D01*
X177776736Y-78832712D01*
X177776729Y-78832709D01*
X177771830Y-78830425D01*
X177766603Y-78829024D01*
X177766602Y-78829024D01*
X177565709Y-78775194D01*
X177565699Y-78775192D01*
X177560477Y-78773793D01*
X177555085Y-78773321D01*
X177555078Y-78773320D01*
X177347895Y-78755195D01*
X177342500Y-78754723D01*
X177337105Y-78755195D01*
X177129921Y-78773320D01*
X177129912Y-78773321D01*
X177124523Y-78773793D01*
X177119302Y-78775191D01*
X177119290Y-78775194D01*
X176918397Y-78829024D01*
X176918392Y-78829025D01*
X176913170Y-78830425D01*
X176908274Y-78832707D01*
X176908263Y-78832712D01*
X176719772Y-78920608D01*
X176719768Y-78920610D01*
X176714862Y-78922898D01*
X176710429Y-78926001D01*
X176710422Y-78926006D01*
X176540058Y-79045296D01*
X176540053Y-79045299D01*
X176535623Y-79048402D01*
X176531799Y-79052225D01*
X176531793Y-79052231D01*
X176384731Y-79199293D01*
X176384725Y-79199299D01*
X176380902Y-79203123D01*
X176377799Y-79207553D01*
X176377796Y-79207558D01*
X176258506Y-79377922D01*
X176258501Y-79377929D01*
X176255398Y-79382362D01*
X176253110Y-79387268D01*
X176253108Y-79387272D01*
X176165212Y-79575763D01*
X176165207Y-79575774D01*
X176162925Y-79580670D01*
X176161525Y-79585892D01*
X176161524Y-79585897D01*
X176107694Y-79786790D01*
X176107691Y-79786802D01*
X176106293Y-79792023D01*
X176105821Y-79797412D01*
X176105820Y-79797421D01*
X176092909Y-79945002D01*
X176087223Y-80010000D01*
X176087695Y-80015395D01*
X176105820Y-80222578D01*
X176105821Y-80222585D01*
X176106293Y-80227977D01*
X176107692Y-80233199D01*
X176107694Y-80233209D01*
X176129448Y-80314393D01*
X176162925Y-80439330D01*
X176165209Y-80444229D01*
X176165212Y-80444236D01*
X176253111Y-80632736D01*
X176253114Y-80632742D01*
X176255398Y-80637639D01*
X176258497Y-80642066D01*
X176258499Y-80642068D01*
X176377796Y-80812442D01*
X176377799Y-80812446D01*
X176380902Y-80816877D01*
X176535623Y-80971598D01*
X176540055Y-80974701D01*
X176540057Y-80974703D01*
X176631317Y-81038604D01*
X176714861Y-81097102D01*
X176719761Y-81099387D01*
X176719763Y-81099388D01*
X176866083Y-81167618D01*
X176918259Y-81213375D01*
X176937678Y-81280000D01*
X176918259Y-81346625D01*
X176866083Y-81392382D01*
X176719772Y-81460608D01*
X176719768Y-81460610D01*
X176714862Y-81462898D01*
X176710429Y-81466001D01*
X176710422Y-81466006D01*
X176540058Y-81585296D01*
X176540053Y-81585299D01*
X176535623Y-81588402D01*
X176531799Y-81592225D01*
X176531793Y-81592231D01*
X176384731Y-81739293D01*
X176384725Y-81739299D01*
X176380902Y-81743123D01*
X176377799Y-81747553D01*
X176377796Y-81747558D01*
X176258506Y-81917922D01*
X176258501Y-81917929D01*
X176255398Y-81922362D01*
X176253110Y-81927268D01*
X176253108Y-81927272D01*
X176165212Y-82115763D01*
X176165207Y-82115774D01*
X176162925Y-82120670D01*
X176161525Y-82125892D01*
X176161524Y-82125897D01*
X176107694Y-82326790D01*
X176107691Y-82326802D01*
X176106293Y-82332023D01*
X176105821Y-82337412D01*
X176105820Y-82337421D01*
X176092909Y-82485002D01*
X176087223Y-82550000D01*
X176087695Y-82555395D01*
X176105820Y-82762578D01*
X176105821Y-82762585D01*
X176106293Y-82767977D01*
X176107692Y-82773199D01*
X176107694Y-82773209D01*
X176159249Y-82965612D01*
X176162925Y-82979330D01*
X176165209Y-82984229D01*
X176165212Y-82984236D01*
X176253111Y-83172736D01*
X176253114Y-83172742D01*
X176255398Y-83177639D01*
X176258497Y-83182066D01*
X176258499Y-83182068D01*
X176377796Y-83352442D01*
X176377799Y-83352446D01*
X176380902Y-83356877D01*
X176535623Y-83511598D01*
X176540055Y-83514701D01*
X176540057Y-83514703D01*
X176631317Y-83578604D01*
X176714861Y-83637102D01*
X176719761Y-83639387D01*
X176719763Y-83639388D01*
X176866083Y-83707618D01*
X176918259Y-83753375D01*
X176937678Y-83820000D01*
X176918259Y-83886625D01*
X176866083Y-83932382D01*
X176719772Y-84000608D01*
X176719768Y-84000610D01*
X176714862Y-84002898D01*
X176710429Y-84006001D01*
X176710422Y-84006006D01*
X176540058Y-84125296D01*
X176540053Y-84125299D01*
X176535623Y-84128402D01*
X176531799Y-84132225D01*
X176531793Y-84132231D01*
X176384731Y-84279293D01*
X176384725Y-84279299D01*
X176380902Y-84283123D01*
X176377799Y-84287553D01*
X176377796Y-84287558D01*
X176258506Y-84457922D01*
X176258501Y-84457929D01*
X176255398Y-84462362D01*
X176253110Y-84467268D01*
X176253108Y-84467272D01*
X176165212Y-84655763D01*
X176165207Y-84655774D01*
X176162925Y-84660670D01*
X176161525Y-84665892D01*
X176161524Y-84665897D01*
X176107694Y-84866790D01*
X176107691Y-84866802D01*
X176106293Y-84872023D01*
X176105821Y-84877412D01*
X176105820Y-84877421D01*
X176092909Y-85025002D01*
X176087223Y-85090000D01*
X176087695Y-85095395D01*
X176105820Y-85302578D01*
X176105821Y-85302585D01*
X176106293Y-85307977D01*
X176107692Y-85313199D01*
X176107694Y-85313209D01*
X176159249Y-85505612D01*
X176162925Y-85519330D01*
X176165209Y-85524229D01*
X176165212Y-85524236D01*
X176253111Y-85712736D01*
X176253114Y-85712742D01*
X176255398Y-85717639D01*
X176258497Y-85722066D01*
X176258499Y-85722068D01*
X176377796Y-85892442D01*
X176377799Y-85892446D01*
X176380902Y-85896877D01*
X176535623Y-86051598D01*
X176540055Y-86054701D01*
X176540057Y-86054703D01*
X176631317Y-86118604D01*
X176714861Y-86177102D01*
X176719761Y-86179387D01*
X176719763Y-86179388D01*
X176866083Y-86247618D01*
X176918259Y-86293375D01*
X176937678Y-86360000D01*
X176918259Y-86426625D01*
X176866083Y-86472382D01*
X176719772Y-86540608D01*
X176719768Y-86540610D01*
X176714862Y-86542898D01*
X176710429Y-86546001D01*
X176710422Y-86546006D01*
X176540058Y-86665296D01*
X176540053Y-86665299D01*
X176535623Y-86668402D01*
X176531799Y-86672225D01*
X176531793Y-86672231D01*
X176384731Y-86819293D01*
X176384725Y-86819299D01*
X176380902Y-86823123D01*
X176377799Y-86827553D01*
X176377796Y-86827558D01*
X176258506Y-86997922D01*
X176258501Y-86997929D01*
X176255398Y-87002362D01*
X176253110Y-87007268D01*
X176253108Y-87007272D01*
X176165212Y-87195763D01*
X176165207Y-87195774D01*
X176162925Y-87200670D01*
X176161525Y-87205892D01*
X176161524Y-87205897D01*
X176107694Y-87406790D01*
X176107691Y-87406802D01*
X176106293Y-87412023D01*
X176105821Y-87417412D01*
X176105820Y-87417421D01*
X176092909Y-87565002D01*
X176087223Y-87630000D01*
X176087695Y-87635395D01*
X176105820Y-87842578D01*
X176105821Y-87842585D01*
X176106293Y-87847977D01*
X176107692Y-87853199D01*
X176107694Y-87853209D01*
X176159249Y-88045612D01*
X176162925Y-88059330D01*
X176165209Y-88064229D01*
X176165212Y-88064236D01*
X176253111Y-88252736D01*
X176253114Y-88252742D01*
X176255398Y-88257639D01*
X176258497Y-88262066D01*
X176258499Y-88262068D01*
X176377796Y-88432442D01*
X176377799Y-88432446D01*
X176380902Y-88436877D01*
X176535623Y-88591598D01*
X176540055Y-88594701D01*
X176540057Y-88594703D01*
X176673659Y-88688252D01*
X176714861Y-88717102D01*
X176719761Y-88719387D01*
X176719763Y-88719388D01*
X176866083Y-88787618D01*
X176918259Y-88833375D01*
X176937678Y-88900000D01*
X176918259Y-88966625D01*
X176866083Y-89012382D01*
X176719772Y-89080608D01*
X176719768Y-89080610D01*
X176714862Y-89082898D01*
X176710429Y-89086001D01*
X176710422Y-89086006D01*
X176540058Y-89205296D01*
X176540053Y-89205299D01*
X176535623Y-89208402D01*
X176531799Y-89212225D01*
X176531793Y-89212231D01*
X176384731Y-89359293D01*
X176384725Y-89359299D01*
X176380902Y-89363123D01*
X176377799Y-89367553D01*
X176377796Y-89367558D01*
X176258506Y-89537922D01*
X176258501Y-89537929D01*
X176255398Y-89542362D01*
X176253110Y-89547268D01*
X176253108Y-89547272D01*
X176165212Y-89735763D01*
X176165207Y-89735774D01*
X176162925Y-89740670D01*
X176161525Y-89745892D01*
X176161524Y-89745897D01*
X176107694Y-89946790D01*
X176107691Y-89946802D01*
X176106293Y-89952023D01*
X176105821Y-89957412D01*
X176105820Y-89957421D01*
X176092909Y-90105002D01*
X176087223Y-90170000D01*
X176087695Y-90175395D01*
X176105820Y-90382578D01*
X176105821Y-90382585D01*
X176106293Y-90387977D01*
X176107692Y-90393199D01*
X176107694Y-90393209D01*
X176159249Y-90585612D01*
X176162925Y-90599330D01*
X176165209Y-90604229D01*
X176165212Y-90604236D01*
X176253111Y-90792736D01*
X176253114Y-90792742D01*
X176255398Y-90797639D01*
X176258497Y-90802066D01*
X176258499Y-90802068D01*
X176377796Y-90972442D01*
X176377799Y-90972446D01*
X176380902Y-90976877D01*
X176535623Y-91131598D01*
X176540055Y-91134701D01*
X176540057Y-91134703D01*
X176631317Y-91198604D01*
X176714861Y-91257102D01*
X176719761Y-91259387D01*
X176719763Y-91259388D01*
X176866083Y-91327618D01*
X176918259Y-91373375D01*
X176937678Y-91440000D01*
X176918259Y-91506625D01*
X176866083Y-91552382D01*
X176719772Y-91620608D01*
X176719768Y-91620610D01*
X176714862Y-91622898D01*
X176710429Y-91626001D01*
X176710422Y-91626006D01*
X176540058Y-91745296D01*
X176540053Y-91745299D01*
X176535623Y-91748402D01*
X176531799Y-91752225D01*
X176531793Y-91752231D01*
X176384731Y-91899293D01*
X176384725Y-91899299D01*
X176380902Y-91903123D01*
X176377799Y-91907553D01*
X176377796Y-91907558D01*
X176258506Y-92077922D01*
X176258501Y-92077929D01*
X176255398Y-92082362D01*
X176253110Y-92087268D01*
X176253108Y-92087272D01*
X176165212Y-92275763D01*
X176165207Y-92275774D01*
X176162925Y-92280670D01*
X176161525Y-92285892D01*
X176161524Y-92285897D01*
X176107694Y-92486790D01*
X176107691Y-92486802D01*
X176106293Y-92492023D01*
X176105821Y-92497412D01*
X176105820Y-92497421D01*
X176092909Y-92645002D01*
X176087223Y-92710000D01*
X176087695Y-92715395D01*
X176105820Y-92922578D01*
X176105821Y-92922585D01*
X176106293Y-92927977D01*
X176107692Y-92933199D01*
X176107694Y-92933209D01*
X176159249Y-93125612D01*
X176162925Y-93139330D01*
X176165209Y-93144229D01*
X176165212Y-93144236D01*
X176253111Y-93332736D01*
X176253114Y-93332742D01*
X176255398Y-93337639D01*
X176258497Y-93342066D01*
X176258499Y-93342068D01*
X176377796Y-93512442D01*
X176377799Y-93512446D01*
X176380902Y-93516877D01*
X176535623Y-93671598D01*
X176540055Y-93674701D01*
X176540057Y-93674703D01*
X176631317Y-93738604D01*
X176714861Y-93797102D01*
X176719761Y-93799387D01*
X176719763Y-93799388D01*
X176866083Y-93867618D01*
X176918259Y-93913375D01*
X176937678Y-93980000D01*
X176918259Y-94046625D01*
X176866083Y-94092382D01*
X176719772Y-94160608D01*
X176719768Y-94160610D01*
X176714862Y-94162898D01*
X176710429Y-94166001D01*
X176710422Y-94166006D01*
X176540058Y-94285296D01*
X176540053Y-94285299D01*
X176535623Y-94288402D01*
X176531799Y-94292225D01*
X176531793Y-94292231D01*
X176384731Y-94439293D01*
X176384725Y-94439299D01*
X176380902Y-94443123D01*
X176377799Y-94447553D01*
X176377796Y-94447558D01*
X176258506Y-94617922D01*
X176258501Y-94617929D01*
X176255398Y-94622362D01*
X176253110Y-94627268D01*
X176253108Y-94627272D01*
X176165212Y-94815763D01*
X176165207Y-94815774D01*
X176162925Y-94820670D01*
X176161525Y-94825892D01*
X176161524Y-94825897D01*
X176107694Y-95026790D01*
X176107691Y-95026802D01*
X176106293Y-95032023D01*
X176105821Y-95037412D01*
X176105820Y-95037421D01*
X176094472Y-95167142D01*
X176087223Y-95250000D01*
X164450500Y-95250000D01*
X164450500Y-72900000D01*
X176006918Y-72900000D01*
X176007390Y-72905395D01*
X176026735Y-73126522D01*
X176026736Y-73126529D01*
X176027208Y-73131921D01*
X176087463Y-73356796D01*
X176089747Y-73361695D01*
X176089750Y-73361702D01*
X176177824Y-73550575D01*
X176185852Y-73567791D01*
X176319385Y-73758496D01*
X176484004Y-73923115D01*
X176674709Y-74056648D01*
X176885704Y-74155037D01*
X177110579Y-74215292D01*
X177284411Y-74230500D01*
X177397880Y-74230500D01*
X177400589Y-74230500D01*
X177574421Y-74215292D01*
X177799296Y-74155037D01*
X178010291Y-74056648D01*
X178200996Y-73923115D01*
X178365615Y-73758496D01*
X178499148Y-73567791D01*
X178597537Y-73356796D01*
X178657792Y-73131921D01*
X178678082Y-72900000D01*
X178657792Y-72668079D01*
X178597537Y-72443204D01*
X178499148Y-72232209D01*
X178365615Y-72041504D01*
X178200996Y-71876885D01*
X178010291Y-71743352D01*
X177993075Y-71735324D01*
X177804202Y-71647250D01*
X177804195Y-71647247D01*
X177799296Y-71644963D01*
X177794069Y-71643562D01*
X177794068Y-71643562D01*
X177579653Y-71586110D01*
X177574421Y-71584708D01*
X177569029Y-71584236D01*
X177569022Y-71584235D01*
X177403289Y-71569736D01*
X177403284Y-71569735D01*
X177400589Y-71569500D01*
X177284411Y-71569500D01*
X177281716Y-71569735D01*
X177281710Y-71569736D01*
X177115977Y-71584235D01*
X177115968Y-71584236D01*
X177110579Y-71584708D01*
X177105347Y-71586109D01*
X177105346Y-71586110D01*
X176890931Y-71643562D01*
X176890926Y-71643563D01*
X176885704Y-71644963D01*
X176880808Y-71647245D01*
X176880797Y-71647250D01*
X176679619Y-71741062D01*
X176679615Y-71741064D01*
X176674709Y-71743352D01*
X176670276Y-71746455D01*
X176670269Y-71746460D01*
X176488439Y-71873779D01*
X176488434Y-71873782D01*
X176484004Y-71876885D01*
X176480180Y-71880708D01*
X176480174Y-71880714D01*
X176323214Y-72037674D01*
X176323208Y-72037680D01*
X176319385Y-72041504D01*
X176316282Y-72045934D01*
X176316279Y-72045939D01*
X176188960Y-72227769D01*
X176188955Y-72227776D01*
X176185852Y-72232209D01*
X176183564Y-72237115D01*
X176183562Y-72237119D01*
X176089750Y-72438297D01*
X176089745Y-72438308D01*
X176087463Y-72443204D01*
X176027208Y-72668079D01*
X176026736Y-72673468D01*
X176026735Y-72673477D01*
X176007628Y-72891878D01*
X176006918Y-72900000D01*
X164450500Y-72900000D01*
X164450500Y-70115392D01*
X164458749Y-70070920D01*
X164475703Y-70043279D01*
X164474363Y-70042306D01*
X164478184Y-70037045D01*
X164482533Y-70032216D01*
X164577179Y-69868284D01*
X164635674Y-69688256D01*
X164655460Y-69500000D01*
X164635674Y-69311744D01*
X164577179Y-69131716D01*
X164482533Y-68967784D01*
X164355871Y-68827112D01*
X164350613Y-68823292D01*
X164350611Y-68823290D01*
X164207988Y-68719669D01*
X164207987Y-68719668D01*
X164202730Y-68715849D01*
X164196792Y-68713205D01*
X164035745Y-68641501D01*
X164035740Y-68641499D01*
X164029803Y-68638856D01*
X164023444Y-68637504D01*
X164023440Y-68637503D01*
X163851008Y-68600852D01*
X163851005Y-68600851D01*
X163844646Y-68599500D01*
X163655354Y-68599500D01*
X163648995Y-68600851D01*
X163648991Y-68600852D01*
X163476559Y-68637503D01*
X163476552Y-68637505D01*
X163470197Y-68638856D01*
X163464262Y-68641498D01*
X163464254Y-68641501D01*
X163303207Y-68713205D01*
X163303202Y-68713207D01*
X163297270Y-68715849D01*
X163214726Y-68775820D01*
X163180163Y-68793431D01*
X163141845Y-68799500D01*
X120108155Y-68799500D01*
X120069837Y-68793431D01*
X120035273Y-68775820D01*
X119952730Y-68715849D01*
X119946792Y-68713205D01*
X119785745Y-68641501D01*
X119785740Y-68641499D01*
X119779803Y-68638856D01*
X119773444Y-68637504D01*
X119773440Y-68637503D01*
X119601008Y-68600852D01*
X119601005Y-68600851D01*
X119594646Y-68599500D01*
X119405354Y-68599500D01*
X119398995Y-68600851D01*
X119398991Y-68600852D01*
X119226559Y-68637503D01*
X119226552Y-68637505D01*
X119220197Y-68638856D01*
X119214262Y-68641498D01*
X119214254Y-68641501D01*
X119053207Y-68713205D01*
X119053202Y-68713207D01*
X119047270Y-68715849D01*
X119042016Y-68719665D01*
X119042011Y-68719669D01*
X118899388Y-68823290D01*
X118899381Y-68823295D01*
X118894129Y-68827112D01*
X118889784Y-68831937D01*
X118889779Y-68831942D01*
X118771813Y-68962956D01*
X118771808Y-68962962D01*
X118767467Y-68967784D01*
X118764222Y-68973404D01*
X118764218Y-68973410D01*
X118676069Y-69126089D01*
X118676066Y-69126094D01*
X118672821Y-69131716D01*
X118670815Y-69137888D01*
X118670813Y-69137894D01*
X118616333Y-69305564D01*
X118616331Y-69305573D01*
X118614326Y-69311744D01*
X118613648Y-69318194D01*
X118613646Y-69318204D01*
X118595962Y-69486464D01*
X118594540Y-69500000D01*
X113950500Y-69500000D01*
X113950500Y-65278975D01*
X113969506Y-65213003D01*
X114020699Y-65167255D01*
X114152775Y-65103651D01*
X114375741Y-64951635D01*
X114573561Y-64768085D01*
X114741815Y-64557102D01*
X114876743Y-64323398D01*
X114975334Y-64072195D01*
X115035383Y-63809103D01*
X115055549Y-63540000D01*
X115052551Y-63500000D01*
X194490448Y-63500000D01*
X194510634Y-63807983D01*
X194511424Y-63811954D01*
X194511425Y-63811962D01*
X194570053Y-64106704D01*
X194570055Y-64106714D01*
X194570848Y-64110697D01*
X194670058Y-64402961D01*
X194671850Y-64406595D01*
X194671853Y-64406602D01*
X194804772Y-64676135D01*
X194806568Y-64679776D01*
X194808819Y-64683145D01*
X194808822Y-64683150D01*
X194897284Y-64815542D01*
X194978042Y-64936404D01*
X194980717Y-64939454D01*
X194980723Y-64939462D01*
X195079884Y-65052533D01*
X195181545Y-65168455D01*
X195184593Y-65171128D01*
X195410537Y-65369276D01*
X195410543Y-65369280D01*
X195413596Y-65371958D01*
X195670224Y-65543432D01*
X195947039Y-65679942D01*
X196239303Y-65779152D01*
X196542017Y-65839366D01*
X196850000Y-65859552D01*
X197157983Y-65839366D01*
X197460697Y-65779152D01*
X197752961Y-65679942D01*
X198029776Y-65543432D01*
X198286404Y-65371958D01*
X198518455Y-65168455D01*
X198721958Y-64936404D01*
X198893432Y-64679776D01*
X199029942Y-64402961D01*
X199129152Y-64110697D01*
X199189366Y-63807983D01*
X199209552Y-63500000D01*
X199189366Y-63192017D01*
X199129152Y-62889303D01*
X199029942Y-62597039D01*
X198893432Y-62320224D01*
X198721958Y-62063596D01*
X198719280Y-62060543D01*
X198719276Y-62060537D01*
X198521128Y-61834593D01*
X198518455Y-61831545D01*
X198503986Y-61818856D01*
X198289462Y-61630723D01*
X198289454Y-61630717D01*
X198286404Y-61628042D01*
X198230421Y-61590635D01*
X198033150Y-61458822D01*
X198033145Y-61458819D01*
X198029776Y-61456568D01*
X198026140Y-61454775D01*
X198026135Y-61454772D01*
X197756602Y-61321853D01*
X197756595Y-61321850D01*
X197752961Y-61320058D01*
X197617951Y-61274228D01*
X197464551Y-61222156D01*
X197464547Y-61222155D01*
X197460697Y-61220848D01*
X197456714Y-61220055D01*
X197456704Y-61220053D01*
X197161962Y-61161425D01*
X197161954Y-61161424D01*
X197157983Y-61160634D01*
X196850000Y-61140448D01*
X196845957Y-61140713D01*
X196546059Y-61160369D01*
X196546057Y-61160369D01*
X196542017Y-61160634D01*
X196538047Y-61161423D01*
X196538037Y-61161425D01*
X196243295Y-61220053D01*
X196243281Y-61220056D01*
X196239303Y-61220848D01*
X196235456Y-61222153D01*
X196235448Y-61222156D01*
X195966205Y-61313552D01*
X195947039Y-61320058D01*
X195943410Y-61321847D01*
X195943397Y-61321853D01*
X195673864Y-61454772D01*
X195673852Y-61454778D01*
X195670224Y-61456568D01*
X195666861Y-61458814D01*
X195666849Y-61458822D01*
X195416977Y-61625782D01*
X195416968Y-61625788D01*
X195413596Y-61628042D01*
X195410552Y-61630711D01*
X195410537Y-61630723D01*
X195184593Y-61828871D01*
X195184585Y-61828878D01*
X195181545Y-61831545D01*
X195178878Y-61834585D01*
X195178871Y-61834593D01*
X194980723Y-62060537D01*
X194980711Y-62060552D01*
X194978042Y-62063596D01*
X194975788Y-62066968D01*
X194975782Y-62066977D01*
X194808822Y-62316849D01*
X194808814Y-62316861D01*
X194806568Y-62320224D01*
X194804778Y-62323852D01*
X194804772Y-62323864D01*
X194671853Y-62593397D01*
X194671847Y-62593410D01*
X194670058Y-62597039D01*
X194668752Y-62600884D01*
X194668752Y-62600886D01*
X194572156Y-62885448D01*
X194572153Y-62885456D01*
X194570848Y-62889303D01*
X194570056Y-62893281D01*
X194570053Y-62893295D01*
X194511425Y-63188037D01*
X194511423Y-63188047D01*
X194510634Y-63192017D01*
X194490448Y-63500000D01*
X115052551Y-63500000D01*
X115035383Y-63270897D01*
X114975334Y-63007805D01*
X114876743Y-62756602D01*
X114845634Y-62702720D01*
X136406779Y-62702720D01*
X136408078Y-62714063D01*
X136467939Y-62875695D01*
X136473453Y-62886937D01*
X136571691Y-63044544D01*
X136579352Y-63054440D01*
X136707302Y-63189043D01*
X136716803Y-63197200D01*
X136869224Y-63303288D01*
X136880169Y-63309364D01*
X137050841Y-63382604D01*
X137062771Y-63386347D01*
X137236481Y-63422046D01*
X137247562Y-63421836D01*
X137250000Y-63411023D01*
X137250000Y-63402466D01*
X137750000Y-63402466D01*
X137753779Y-63415676D01*
X137767301Y-63418099D01*
X137841025Y-63410602D01*
X137853276Y-63408084D01*
X138030475Y-63352487D01*
X138041981Y-63347550D01*
X138204357Y-63257424D01*
X138214632Y-63250273D01*
X138355539Y-63129307D01*
X138364171Y-63120227D01*
X138477841Y-62973377D01*
X138484466Y-62962750D01*
X138566254Y-62796013D01*
X138570598Y-62784283D01*
X138588862Y-62713742D01*
X138589141Y-62702720D01*
X141406779Y-62702720D01*
X141408078Y-62714063D01*
X141467939Y-62875695D01*
X141473453Y-62886937D01*
X141571691Y-63044544D01*
X141579352Y-63054440D01*
X141707302Y-63189043D01*
X141716803Y-63197200D01*
X141869224Y-63303288D01*
X141880169Y-63309364D01*
X142050841Y-63382604D01*
X142062771Y-63386347D01*
X142236481Y-63422046D01*
X142247562Y-63421836D01*
X142250000Y-63411023D01*
X142250000Y-63402466D01*
X142750000Y-63402466D01*
X142753779Y-63415676D01*
X142767301Y-63418099D01*
X142841025Y-63410602D01*
X142853276Y-63408084D01*
X143030475Y-63352487D01*
X143041981Y-63347550D01*
X143204357Y-63257424D01*
X143214632Y-63250273D01*
X143355539Y-63129307D01*
X143364171Y-63120227D01*
X143477841Y-62973377D01*
X143484466Y-62962750D01*
X143566254Y-62796013D01*
X143570598Y-62784283D01*
X143588862Y-62713742D01*
X143589146Y-62702535D01*
X143578221Y-62700000D01*
X142766326Y-62700000D01*
X142753450Y-62703450D01*
X142750000Y-62716326D01*
X142750000Y-63402466D01*
X142250000Y-63402466D01*
X142250000Y-62716326D01*
X142246549Y-62703450D01*
X142233674Y-62700000D01*
X141417865Y-62700000D01*
X141406779Y-62702720D01*
X138589141Y-62702720D01*
X138589146Y-62702535D01*
X138578221Y-62700000D01*
X137766326Y-62700000D01*
X137753450Y-62703450D01*
X137750000Y-62716326D01*
X137750000Y-63402466D01*
X137250000Y-63402466D01*
X137250000Y-62716326D01*
X137246549Y-62703450D01*
X137233674Y-62700000D01*
X136417865Y-62700000D01*
X136406779Y-62702720D01*
X114845634Y-62702720D01*
X114741815Y-62522898D01*
X114573561Y-62311915D01*
X114450212Y-62197464D01*
X136410853Y-62197464D01*
X136421779Y-62200000D01*
X137233674Y-62200000D01*
X137246549Y-62196549D01*
X137250000Y-62183674D01*
X137750000Y-62183674D01*
X137753450Y-62196549D01*
X137766326Y-62200000D01*
X138582135Y-62200000D01*
X138592466Y-62197464D01*
X141410853Y-62197464D01*
X141421779Y-62200000D01*
X142233674Y-62200000D01*
X142246549Y-62196549D01*
X142250000Y-62183674D01*
X142750000Y-62183674D01*
X142753450Y-62196549D01*
X142766326Y-62200000D01*
X143582135Y-62200000D01*
X143593220Y-62197279D01*
X143591921Y-62185936D01*
X143532060Y-62024304D01*
X143526546Y-62013062D01*
X143428308Y-61855455D01*
X143420647Y-61845559D01*
X143292697Y-61710956D01*
X143283196Y-61702799D01*
X143130775Y-61596711D01*
X143119830Y-61590635D01*
X142949158Y-61517395D01*
X142937228Y-61513652D01*
X142763518Y-61477953D01*
X142752437Y-61478163D01*
X142750000Y-61488977D01*
X142750000Y-62183674D01*
X142250000Y-62183674D01*
X142250000Y-61497534D01*
X142246220Y-61484323D01*
X142232698Y-61481900D01*
X142158974Y-61489397D01*
X142146723Y-61491915D01*
X141969524Y-61547512D01*
X141958018Y-61552449D01*
X141795642Y-61642575D01*
X141785367Y-61649726D01*
X141644460Y-61770692D01*
X141635828Y-61779772D01*
X141522158Y-61926622D01*
X141515533Y-61937249D01*
X141433745Y-62103986D01*
X141429401Y-62115716D01*
X141411137Y-62186257D01*
X141410853Y-62197464D01*
X138592466Y-62197464D01*
X138593220Y-62197279D01*
X138591921Y-62185936D01*
X138532060Y-62024304D01*
X138526546Y-62013062D01*
X138428308Y-61855455D01*
X138420647Y-61845559D01*
X138292697Y-61710956D01*
X138283196Y-61702799D01*
X138130775Y-61596711D01*
X138119830Y-61590635D01*
X137949158Y-61517395D01*
X137937228Y-61513652D01*
X137763518Y-61477953D01*
X137752437Y-61478163D01*
X137750000Y-61488977D01*
X137750000Y-62183674D01*
X137250000Y-62183674D01*
X137250000Y-61497534D01*
X137246220Y-61484323D01*
X137232698Y-61481900D01*
X137158974Y-61489397D01*
X137146723Y-61491915D01*
X136969524Y-61547512D01*
X136958018Y-61552449D01*
X136795642Y-61642575D01*
X136785367Y-61649726D01*
X136644460Y-61770692D01*
X136635828Y-61779772D01*
X136522158Y-61926622D01*
X136515533Y-61937249D01*
X136433745Y-62103986D01*
X136429401Y-62115716D01*
X136411137Y-62186257D01*
X136410853Y-62197464D01*
X114450212Y-62197464D01*
X114375741Y-62128365D01*
X114371912Y-62125754D01*
X114371909Y-62125752D01*
X114156610Y-61978964D01*
X114152775Y-61976349D01*
X114049516Y-61926622D01*
X113913820Y-61861274D01*
X113913814Y-61861271D01*
X113909641Y-61859262D01*
X113905219Y-61857898D01*
X113905209Y-61857894D01*
X113656202Y-61781086D01*
X113656196Y-61781084D01*
X113651772Y-61779720D01*
X113647195Y-61779030D01*
X113647186Y-61779028D01*
X113389514Y-61740191D01*
X113389513Y-61740190D01*
X113384929Y-61739500D01*
X113115071Y-61739500D01*
X113110487Y-61740190D01*
X113110485Y-61740191D01*
X112852813Y-61779028D01*
X112852801Y-61779030D01*
X112848228Y-61779720D01*
X112843806Y-61781083D01*
X112843797Y-61781086D01*
X112594790Y-61857894D01*
X112594775Y-61857899D01*
X112590359Y-61859262D01*
X112586185Y-61861271D01*
X112586180Y-61861274D01*
X112351411Y-61974333D01*
X112351404Y-61974336D01*
X112347226Y-61976349D01*
X112343393Y-61978962D01*
X112343390Y-61978964D01*
X112128090Y-62125752D01*
X112128080Y-62125759D01*
X112124259Y-62128365D01*
X112120863Y-62131516D01*
X112120853Y-62131524D01*
X111929843Y-62308756D01*
X111929839Y-62308759D01*
X111926439Y-62311915D01*
X111923549Y-62315537D01*
X111923546Y-62315542D01*
X111761077Y-62519271D01*
X111758185Y-62522898D01*
X111755866Y-62526913D01*
X111755865Y-62526916D01*
X111625578Y-62752581D01*
X111625575Y-62752586D01*
X111623257Y-62756602D01*
X111621563Y-62760916D01*
X111621561Y-62760922D01*
X111571175Y-62889303D01*
X111524666Y-63007805D01*
X111523633Y-63012326D01*
X111523632Y-63012333D01*
X111465648Y-63266377D01*
X111465646Y-63266385D01*
X111464617Y-63270897D01*
X111464270Y-63275516D01*
X111464270Y-63275522D01*
X111444798Y-63535369D01*
X111444451Y-63540000D01*
X111464617Y-63809103D01*
X111524666Y-64072195D01*
X111526362Y-64076518D01*
X111526363Y-64076519D01*
X111606650Y-64281086D01*
X111623257Y-64323398D01*
X111758185Y-64557102D01*
X111926439Y-64768085D01*
X111929843Y-64771243D01*
X112111139Y-64939462D01*
X112124259Y-64951635D01*
X112347226Y-65103651D01*
X112351413Y-65105667D01*
X112351416Y-65105669D01*
X112479301Y-65167255D01*
X112530494Y-65213003D01*
X112549500Y-65278975D01*
X112549500Y-76408481D01*
X112540061Y-76455934D01*
X112513181Y-76496162D01*
X104656162Y-84353181D01*
X104615934Y-84380061D01*
X104568481Y-84389500D01*
X103443134Y-84389500D01*
X103385877Y-84375489D01*
X103341559Y-84336623D01*
X103304098Y-84283123D01*
X103149377Y-84128402D01*
X103144946Y-84125299D01*
X103144942Y-84125296D01*
X102974568Y-84005999D01*
X102974566Y-84005997D01*
X102970139Y-84002898D01*
X102965239Y-84000613D01*
X102965232Y-84000609D01*
X102818917Y-83932382D01*
X102766741Y-83886625D01*
X102747321Y-83820000D01*
X102766741Y-83753375D01*
X102818917Y-83707618D01*
X102965232Y-83639390D01*
X102965230Y-83639390D01*
X102970139Y-83637102D01*
X103149377Y-83511598D01*
X103304098Y-83356877D01*
X103429602Y-83177639D01*
X103522075Y-82979330D01*
X103578707Y-82767977D01*
X103597777Y-82550000D01*
X103578707Y-82332023D01*
X103522075Y-82120670D01*
X103429602Y-81922362D01*
X103304098Y-81743123D01*
X103149377Y-81588402D01*
X103144946Y-81585299D01*
X103144942Y-81585296D01*
X103002525Y-81485575D01*
X102962199Y-81438358D01*
X102949819Y-81377510D01*
X102968491Y-81318290D01*
X103013533Y-81275547D01*
X103073649Y-81260000D01*
X103137018Y-81260000D01*
X103143614Y-81259646D01*
X103192167Y-81254426D01*
X103207141Y-81250888D01*
X103326277Y-81206452D01*
X103341689Y-81198037D01*
X103442592Y-81122501D01*
X103455001Y-81110092D01*
X103530537Y-81009189D01*
X103538952Y-80993777D01*
X103583388Y-80874641D01*
X103586926Y-80859667D01*
X103592146Y-80811114D01*
X103592500Y-80804518D01*
X103592500Y-80276326D01*
X103589049Y-80263450D01*
X103576174Y-80260000D01*
X101108826Y-80260000D01*
X101095950Y-80263450D01*
X101092500Y-80276326D01*
X101092500Y-80804518D01*
X101092853Y-80811114D01*
X101098073Y-80859667D01*
X101101611Y-80874641D01*
X101146047Y-80993777D01*
X101154462Y-81009189D01*
X101229998Y-81110092D01*
X101242407Y-81122501D01*
X101343310Y-81198037D01*
X101358722Y-81206452D01*
X101477858Y-81250888D01*
X101492832Y-81254426D01*
X101541385Y-81259646D01*
X101547982Y-81260000D01*
X101611353Y-81260000D01*
X101671469Y-81275547D01*
X101716511Y-81318290D01*
X101735183Y-81377511D01*
X101722803Y-81438358D01*
X101682476Y-81485575D01*
X101540058Y-81585296D01*
X101540053Y-81585299D01*
X101535623Y-81588402D01*
X101531799Y-81592225D01*
X101531793Y-81592231D01*
X101384731Y-81739293D01*
X101384725Y-81739299D01*
X101380902Y-81743123D01*
X101377799Y-81747553D01*
X101377796Y-81747558D01*
X101258506Y-81917922D01*
X101258501Y-81917929D01*
X101255398Y-81922362D01*
X101253110Y-81927268D01*
X101253108Y-81927272D01*
X101165212Y-82115763D01*
X101165207Y-82115774D01*
X101162925Y-82120670D01*
X101161525Y-82125892D01*
X101161524Y-82125897D01*
X101107694Y-82326790D01*
X101107691Y-82326802D01*
X101106293Y-82332023D01*
X101105821Y-82337412D01*
X101105820Y-82337421D01*
X101092909Y-82485002D01*
X101087223Y-82550000D01*
X101087695Y-82555395D01*
X101105820Y-82762578D01*
X101105821Y-82762585D01*
X101106293Y-82767977D01*
X101107692Y-82773199D01*
X101107694Y-82773209D01*
X101159249Y-82965612D01*
X101162925Y-82979330D01*
X101165209Y-82984229D01*
X101165212Y-82984236D01*
X101253111Y-83172736D01*
X101253114Y-83172742D01*
X101255398Y-83177639D01*
X101258497Y-83182066D01*
X101258499Y-83182068D01*
X101377796Y-83352442D01*
X101377799Y-83352446D01*
X101380902Y-83356877D01*
X101535623Y-83511598D01*
X101540055Y-83514701D01*
X101540057Y-83514703D01*
X101631317Y-83578604D01*
X101714861Y-83637102D01*
X101719761Y-83639387D01*
X101719763Y-83639388D01*
X101866083Y-83707618D01*
X101918259Y-83753375D01*
X101937678Y-83820000D01*
X101918259Y-83886625D01*
X101866083Y-83932382D01*
X101719772Y-84000608D01*
X101719768Y-84000610D01*
X101714862Y-84002898D01*
X101710429Y-84006001D01*
X101710422Y-84006006D01*
X101540058Y-84125296D01*
X101540053Y-84125299D01*
X101535623Y-84128402D01*
X101531799Y-84132225D01*
X101531793Y-84132231D01*
X101384731Y-84279293D01*
X101384725Y-84279299D01*
X101380902Y-84283123D01*
X101377799Y-84287553D01*
X101377796Y-84287558D01*
X101258506Y-84457922D01*
X101258501Y-84457929D01*
X101255398Y-84462362D01*
X101253110Y-84467268D01*
X101253108Y-84467272D01*
X101165212Y-84655763D01*
X101165207Y-84655774D01*
X101162925Y-84660670D01*
X101161525Y-84665892D01*
X101161524Y-84665897D01*
X101107694Y-84866790D01*
X101107691Y-84866802D01*
X101106293Y-84872023D01*
X101105821Y-84877412D01*
X101105820Y-84877421D01*
X101092909Y-85025002D01*
X101087223Y-85090000D01*
X101087695Y-85095395D01*
X101105820Y-85302578D01*
X101105821Y-85302585D01*
X101106293Y-85307977D01*
X101107692Y-85313199D01*
X101107694Y-85313209D01*
X101159249Y-85505612D01*
X101162925Y-85519330D01*
X101165209Y-85524229D01*
X101165212Y-85524236D01*
X101253111Y-85712736D01*
X101253114Y-85712742D01*
X101255398Y-85717639D01*
X101258497Y-85722066D01*
X101258499Y-85722068D01*
X101377796Y-85892442D01*
X101377799Y-85892446D01*
X101380902Y-85896877D01*
X101535623Y-86051598D01*
X101540055Y-86054701D01*
X101540057Y-86054703D01*
X101631317Y-86118604D01*
X101714861Y-86177102D01*
X101719761Y-86179387D01*
X101719763Y-86179388D01*
X101866083Y-86247618D01*
X101918259Y-86293375D01*
X101937678Y-86360000D01*
X101918259Y-86426625D01*
X101866083Y-86472382D01*
X101719772Y-86540608D01*
X101719768Y-86540610D01*
X101714862Y-86542898D01*
X101710429Y-86546001D01*
X101710422Y-86546006D01*
X101540058Y-86665296D01*
X101540053Y-86665299D01*
X101535623Y-86668402D01*
X101531799Y-86672225D01*
X101531793Y-86672231D01*
X101384731Y-86819293D01*
X101384725Y-86819299D01*
X101380902Y-86823123D01*
X101377799Y-86827553D01*
X101377796Y-86827558D01*
X101258506Y-86997922D01*
X101258501Y-86997929D01*
X101255398Y-87002362D01*
X101253110Y-87007268D01*
X101253108Y-87007272D01*
X101165212Y-87195763D01*
X101165207Y-87195774D01*
X101162925Y-87200670D01*
X101161525Y-87205892D01*
X101161524Y-87205897D01*
X101107694Y-87406790D01*
X101107691Y-87406802D01*
X101106293Y-87412023D01*
X101105821Y-87417412D01*
X101105820Y-87417421D01*
X101092909Y-87565002D01*
X101087223Y-87630000D01*
X101087695Y-87635395D01*
X101105820Y-87842578D01*
X101105821Y-87842585D01*
X101106293Y-87847977D01*
X101107692Y-87853199D01*
X101107694Y-87853209D01*
X101159249Y-88045612D01*
X101162925Y-88059330D01*
X101165209Y-88064229D01*
X101165212Y-88064236D01*
X101253111Y-88252736D01*
X101253114Y-88252742D01*
X101255398Y-88257639D01*
X101258497Y-88262066D01*
X101258499Y-88262068D01*
X101377796Y-88432442D01*
X101377799Y-88432446D01*
X101380902Y-88436877D01*
X101535623Y-88591598D01*
X101540055Y-88594701D01*
X101540057Y-88594703D01*
X101673659Y-88688252D01*
X101714861Y-88717102D01*
X101719761Y-88719387D01*
X101719763Y-88719388D01*
X101866083Y-88787618D01*
X101918259Y-88833375D01*
X101937678Y-88900000D01*
X101918259Y-88966625D01*
X101866083Y-89012382D01*
X101719772Y-89080608D01*
X101719768Y-89080610D01*
X101714862Y-89082898D01*
X101710429Y-89086001D01*
X101710422Y-89086006D01*
X101540058Y-89205296D01*
X101540053Y-89205299D01*
X101535623Y-89208402D01*
X101531799Y-89212225D01*
X101531793Y-89212231D01*
X101384731Y-89359293D01*
X101384725Y-89359299D01*
X101380902Y-89363123D01*
X101377799Y-89367553D01*
X101377796Y-89367558D01*
X101258506Y-89537922D01*
X101258501Y-89537929D01*
X101255398Y-89542362D01*
X101253110Y-89547268D01*
X101253108Y-89547272D01*
X101165212Y-89735763D01*
X101165207Y-89735774D01*
X101162925Y-89740670D01*
X101161525Y-89745892D01*
X101161524Y-89745897D01*
X101107694Y-89946790D01*
X101107691Y-89946802D01*
X101106293Y-89952023D01*
X101105821Y-89957412D01*
X101105820Y-89957421D01*
X101092909Y-90105002D01*
X101087616Y-90165500D01*
X101087616Y-90165503D01*
X101087223Y-90170000D01*
X101086550Y-90169941D01*
X101074180Y-90221471D01*
X101036580Y-90265494D01*
X100983093Y-90287649D01*
X100925377Y-90283107D01*
X100876014Y-90252857D01*
X98986819Y-88363662D01*
X98959939Y-88323434D01*
X98950500Y-88275981D01*
X98950500Y-79743674D01*
X101092500Y-79743674D01*
X101095950Y-79756549D01*
X101108826Y-79760000D01*
X102076174Y-79760000D01*
X102089049Y-79756549D01*
X102092500Y-79743674D01*
X102592500Y-79743674D01*
X102595950Y-79756549D01*
X102608826Y-79760000D01*
X103576174Y-79760000D01*
X103589049Y-79756549D01*
X103592500Y-79743674D01*
X103592500Y-79215482D01*
X103592146Y-79208885D01*
X103586926Y-79160332D01*
X103583388Y-79145358D01*
X103538952Y-79026222D01*
X103530537Y-79010810D01*
X103455001Y-78909907D01*
X103442592Y-78897498D01*
X103341689Y-78821962D01*
X103326277Y-78813547D01*
X103207141Y-78769111D01*
X103192167Y-78765573D01*
X103143614Y-78760353D01*
X103137018Y-78760000D01*
X102608826Y-78760000D01*
X102595950Y-78763450D01*
X102592500Y-78776326D01*
X102592500Y-79743674D01*
X102092500Y-79743674D01*
X102092500Y-78776326D01*
X102089049Y-78763450D01*
X102076174Y-78760000D01*
X101547982Y-78760000D01*
X101541385Y-78760353D01*
X101492832Y-78765573D01*
X101477858Y-78769111D01*
X101358722Y-78813547D01*
X101343310Y-78821962D01*
X101242407Y-78897498D01*
X101229998Y-78909907D01*
X101154462Y-79010810D01*
X101146047Y-79026222D01*
X101101611Y-79145358D01*
X101098073Y-79160332D01*
X101092853Y-79208885D01*
X101092500Y-79215482D01*
X101092500Y-79743674D01*
X98950500Y-79743674D01*
X98950500Y-71381519D01*
X98959939Y-71334066D01*
X98986819Y-71293838D01*
X99753606Y-70527051D01*
X102514262Y-67766393D01*
X102572093Y-67733722D01*
X102638490Y-67735585D01*
X102843793Y-67798912D01*
X102848228Y-67800280D01*
X103115071Y-67840500D01*
X103380292Y-67840500D01*
X103384929Y-67840500D01*
X103651772Y-67800280D01*
X103909641Y-67720738D01*
X104152775Y-67603651D01*
X104375741Y-67451635D01*
X104573561Y-67268085D01*
X104741815Y-67057102D01*
X104876743Y-66823398D01*
X104975334Y-66572195D01*
X105035383Y-66309103D01*
X105055549Y-66040000D01*
X105035383Y-65770897D01*
X104975334Y-65507805D01*
X104876743Y-65256602D01*
X104741815Y-65022898D01*
X104573561Y-64811915D01*
X104375741Y-64628365D01*
X104371912Y-64625754D01*
X104371909Y-64625752D01*
X104257435Y-64547705D01*
X104152775Y-64476349D01*
X104007944Y-64406602D01*
X103913820Y-64361274D01*
X103913814Y-64361271D01*
X103909641Y-64359262D01*
X103905219Y-64357898D01*
X103905209Y-64357894D01*
X103656202Y-64281086D01*
X103656196Y-64281084D01*
X103651772Y-64279720D01*
X103647195Y-64279030D01*
X103647186Y-64279028D01*
X103389514Y-64240191D01*
X103389513Y-64240190D01*
X103384929Y-64239500D01*
X103115071Y-64239500D01*
X103110487Y-64240190D01*
X103110485Y-64240191D01*
X102852813Y-64279028D01*
X102852801Y-64279030D01*
X102848228Y-64279720D01*
X102843806Y-64281083D01*
X102843797Y-64281086D01*
X102594790Y-64357894D01*
X102594775Y-64357899D01*
X102590359Y-64359262D01*
X102586185Y-64361271D01*
X102586180Y-64361274D01*
X102351411Y-64474333D01*
X102351404Y-64474336D01*
X102347226Y-64476349D01*
X102343393Y-64478962D01*
X102343390Y-64478964D01*
X102128090Y-64625752D01*
X102128080Y-64625759D01*
X102124259Y-64628365D01*
X102120863Y-64631516D01*
X102120853Y-64631524D01*
X101929843Y-64808756D01*
X101929839Y-64808759D01*
X101926439Y-64811915D01*
X101923549Y-64815537D01*
X101923546Y-64815542D01*
X101761077Y-65019271D01*
X101758185Y-65022898D01*
X101755866Y-65026913D01*
X101755865Y-65026916D01*
X101625578Y-65252581D01*
X101625575Y-65252586D01*
X101623257Y-65256602D01*
X101621563Y-65260916D01*
X101621561Y-65260922D01*
X101577096Y-65374217D01*
X101524666Y-65507805D01*
X101523633Y-65512326D01*
X101523632Y-65512333D01*
X101465648Y-65766377D01*
X101465646Y-65766385D01*
X101464617Y-65770897D01*
X101464270Y-65775516D01*
X101464270Y-65775522D01*
X101459545Y-65838574D01*
X101444451Y-66040000D01*
X101464617Y-66309103D01*
X101524666Y-66572195D01*
X101526360Y-66576511D01*
X101526364Y-66576524D01*
X101552074Y-66642031D01*
X101560636Y-66688879D01*
X101550909Y-66735499D01*
X101524327Y-66775014D01*
X97772290Y-70527051D01*
X97766838Y-70532184D01*
X97727431Y-70567096D01*
X97727425Y-70567102D01*
X97721817Y-70572071D01*
X97717560Y-70578236D01*
X97717551Y-70578248D01*
X97687649Y-70621568D01*
X97683213Y-70627597D01*
X97650749Y-70669035D01*
X97650743Y-70669043D01*
X97646122Y-70674943D01*
X97643044Y-70681780D01*
X97643043Y-70681783D01*
X97641962Y-70684185D01*
X97630940Y-70703727D01*
X97629441Y-70705898D01*
X97629437Y-70705904D01*
X97625182Y-70712070D01*
X97622526Y-70719070D01*
X97622522Y-70719080D01*
X97603853Y-70768305D01*
X97600989Y-70775219D01*
X97579382Y-70823229D01*
X97579379Y-70823235D01*
X97576305Y-70830068D01*
X97574953Y-70837439D01*
X97574951Y-70837449D01*
X97574474Y-70840053D01*
X97568456Y-70861643D01*
X97567519Y-70864114D01*
X97567517Y-70864119D01*
X97564860Y-70871128D01*
X97563956Y-70878565D01*
X97563956Y-70878569D01*
X97557610Y-70930827D01*
X97556483Y-70938226D01*
X97546994Y-70990010D01*
X97546993Y-70990018D01*
X97545642Y-70997394D01*
X97546094Y-71004873D01*
X97546094Y-71004881D01*
X97549274Y-71057433D01*
X97549500Y-71064921D01*
X97549500Y-88592579D01*
X97549274Y-88600067D01*
X97546094Y-88652618D01*
X97546094Y-88652626D01*
X97545642Y-88660106D01*
X93794399Y-88660106D01*
X93796397Y-88653083D01*
X93815215Y-88450000D01*
X93796397Y-88246917D01*
X93740582Y-88050750D01*
X93649673Y-87868179D01*
X93601176Y-87803959D01*
X93530221Y-87709998D01*
X93530217Y-87709994D01*
X93526764Y-87705421D01*
X93522527Y-87701558D01*
X93522523Y-87701554D01*
X93380275Y-87571879D01*
X93380276Y-87571879D01*
X93376041Y-87568019D01*
X93371171Y-87565004D01*
X93371169Y-87565002D01*
X93207511Y-87463670D01*
X93207512Y-87463670D01*
X93202637Y-87460652D01*
X93197294Y-87458582D01*
X93017803Y-87389047D01*
X93017798Y-87389045D01*
X93012456Y-87386976D01*
X93006818Y-87385922D01*
X92817605Y-87350552D01*
X92817602Y-87350551D01*
X92811976Y-87349500D01*
X92608024Y-87349500D01*
X92602398Y-87350551D01*
X92602394Y-87350552D01*
X92413181Y-87385922D01*
X92413178Y-87385922D01*
X92407544Y-87386976D01*
X92402203Y-87389044D01*
X92402196Y-87389047D01*
X92222705Y-87458582D01*
X92222700Y-87458584D01*
X92217363Y-87460652D01*
X92212491Y-87463668D01*
X92212488Y-87463670D01*
X92048830Y-87565002D01*
X92048822Y-87565007D01*
X92043959Y-87568019D01*
X92039728Y-87571875D01*
X92039724Y-87571879D01*
X91897476Y-87701554D01*
X91897466Y-87701564D01*
X91893236Y-87705421D01*
X91889787Y-87709987D01*
X91889778Y-87709998D01*
X91773779Y-87863607D01*
X91773776Y-87863611D01*
X91770327Y-87868179D01*
X91767774Y-87873304D01*
X91767772Y-87873309D01*
X91681976Y-88045612D01*
X91679418Y-88050750D01*
X91677850Y-88056258D01*
X91677847Y-88056268D01*
X91625173Y-88241395D01*
X91625170Y-88241406D01*
X91623603Y-88246917D01*
X91623073Y-88252627D01*
X91623073Y-88252632D01*
X91612785Y-88363662D01*
X91604785Y-88450000D01*
X86195215Y-88450000D01*
X86176397Y-88246917D01*
X86120582Y-88050750D01*
X86029673Y-87868179D01*
X85981176Y-87803959D01*
X85910221Y-87709998D01*
X85910217Y-87709994D01*
X85906764Y-87705421D01*
X85902527Y-87701558D01*
X85902523Y-87701554D01*
X85760275Y-87571879D01*
X85760276Y-87571879D01*
X85756041Y-87568019D01*
X85751171Y-87565004D01*
X85751169Y-87565002D01*
X85587511Y-87463670D01*
X85587512Y-87463670D01*
X85582637Y-87460652D01*
X85577294Y-87458582D01*
X85397803Y-87389047D01*
X85397798Y-87389045D01*
X85392456Y-87386976D01*
X85386818Y-87385922D01*
X85197605Y-87350552D01*
X85197602Y-87350551D01*
X85191976Y-87349500D01*
X84988024Y-87349500D01*
X84982398Y-87350551D01*
X84982394Y-87350552D01*
X84793181Y-87385922D01*
X84793178Y-87385922D01*
X84787544Y-87386976D01*
X84782203Y-87389044D01*
X84782196Y-87389047D01*
X84602705Y-87458582D01*
X84602700Y-87458584D01*
X84597363Y-87460652D01*
X84592491Y-87463668D01*
X84592488Y-87463670D01*
X84428830Y-87565002D01*
X84428822Y-87565007D01*
X84423959Y-87568019D01*
X84419728Y-87571875D01*
X84419724Y-87571879D01*
X84277476Y-87701554D01*
X84277466Y-87701564D01*
X84273236Y-87705421D01*
X84269787Y-87709987D01*
X84269778Y-87709998D01*
X84153779Y-87863607D01*
X84153776Y-87863611D01*
X84150327Y-87868179D01*
X84147774Y-87873304D01*
X84147772Y-87873309D01*
X84061976Y-88045612D01*
X84059418Y-88050750D01*
X84057850Y-88056258D01*
X84057847Y-88056268D01*
X84005173Y-88241395D01*
X84005170Y-88241406D01*
X84003603Y-88246917D01*
X84003073Y-88252627D01*
X84003073Y-88252632D01*
X83992785Y-88363662D01*
X83984785Y-88450000D01*
X76454500Y-88450000D01*
X76454500Y-85910000D01*
X83984785Y-85910000D01*
X83985314Y-85915709D01*
X83998988Y-86063286D01*
X84003603Y-86113083D01*
X84005171Y-86118594D01*
X84005173Y-86118604D01*
X84057847Y-86303731D01*
X84057849Y-86303737D01*
X84059418Y-86309250D01*
X84150327Y-86491821D01*
X84170522Y-86518564D01*
X84269778Y-86650001D01*
X84269783Y-86650006D01*
X84273236Y-86654579D01*
X84277472Y-86658440D01*
X84277476Y-86658445D01*
X84379227Y-86751203D01*
X84423959Y-86791981D01*
X84597363Y-86899348D01*
X84787544Y-86973024D01*
X84988024Y-87010500D01*
X85186247Y-87010500D01*
X85191976Y-87010500D01*
X85392456Y-86973024D01*
X85582637Y-86899348D01*
X85756041Y-86791981D01*
X85906764Y-86654579D01*
X86029673Y-86491821D01*
X86120582Y-86309250D01*
X86176397Y-86113083D01*
X86195215Y-85910000D01*
X91604785Y-85910000D01*
X91605314Y-85915709D01*
X91618988Y-86063286D01*
X91623603Y-86113083D01*
X91625171Y-86118594D01*
X91625173Y-86118604D01*
X91677847Y-86303731D01*
X91677849Y-86303737D01*
X91679418Y-86309250D01*
X91770327Y-86491821D01*
X91790522Y-86518564D01*
X91889778Y-86650001D01*
X91889783Y-86650006D01*
X91893236Y-86654579D01*
X91897472Y-86658440D01*
X91897476Y-86658445D01*
X91999227Y-86751203D01*
X92043959Y-86791981D01*
X92217363Y-86899348D01*
X92407544Y-86973024D01*
X92608024Y-87010500D01*
X92806247Y-87010500D01*
X92811976Y-87010500D01*
X93012456Y-86973024D01*
X93202637Y-86899348D01*
X93376041Y-86791981D01*
X93526764Y-86654579D01*
X93649673Y-86491821D01*
X93740582Y-86309250D01*
X93796397Y-86113083D01*
X93815215Y-85910000D01*
X93796397Y-85706917D01*
X93790333Y-85685606D01*
X93742152Y-85516268D01*
X93740582Y-85510750D01*
X93649673Y-85328179D01*
X93586561Y-85244605D01*
X93530221Y-85169998D01*
X93530217Y-85169994D01*
X93526764Y-85165421D01*
X93522527Y-85161558D01*
X93522523Y-85161554D01*
X93380275Y-85031879D01*
X93380276Y-85031879D01*
X93376041Y-85028019D01*
X93371171Y-85025004D01*
X93371169Y-85025002D01*
X93207511Y-84923670D01*
X93207512Y-84923670D01*
X93202637Y-84920652D01*
X93197294Y-84918582D01*
X93017803Y-84849047D01*
X93017798Y-84849045D01*
X93012456Y-84846976D01*
X93006818Y-84845922D01*
X92817605Y-84810552D01*
X92817602Y-84810551D01*
X92811976Y-84809500D01*
X92608024Y-84809500D01*
X92602398Y-84810551D01*
X92602394Y-84810552D01*
X92413181Y-84845922D01*
X92413178Y-84845922D01*
X92407544Y-84846976D01*
X92402203Y-84849044D01*
X92402196Y-84849047D01*
X92222705Y-84918582D01*
X92222700Y-84918584D01*
X92217363Y-84920652D01*
X92212491Y-84923668D01*
X92212488Y-84923670D01*
X92048830Y-85025002D01*
X92048822Y-85025007D01*
X92043959Y-85028019D01*
X92039728Y-85031875D01*
X92039724Y-85031879D01*
X91897476Y-85161554D01*
X91897466Y-85161564D01*
X91893236Y-85165421D01*
X91889787Y-85169987D01*
X91889778Y-85169998D01*
X91773779Y-85323607D01*
X91773776Y-85323611D01*
X91770327Y-85328179D01*
X91767774Y-85333304D01*
X91767772Y-85333309D01*
X91700369Y-85468674D01*
X91679418Y-85510750D01*
X91677850Y-85516258D01*
X91677847Y-85516268D01*
X91625173Y-85701395D01*
X91625170Y-85701406D01*
X91623603Y-85706917D01*
X91623073Y-85712627D01*
X91623073Y-85712632D01*
X91614560Y-85804511D01*
X91604785Y-85910000D01*
X86195215Y-85910000D01*
X86176397Y-85706917D01*
X86170333Y-85685606D01*
X86122152Y-85516268D01*
X86120582Y-85510750D01*
X86029673Y-85328179D01*
X85966561Y-85244605D01*
X85910221Y-85169998D01*
X85910217Y-85169994D01*
X85906764Y-85165421D01*
X85902527Y-85161558D01*
X85902523Y-85161554D01*
X85760275Y-85031879D01*
X85760276Y-85031879D01*
X85756041Y-85028019D01*
X85751171Y-85025004D01*
X85751169Y-85025002D01*
X85587511Y-84923670D01*
X85587512Y-84923670D01*
X85582637Y-84920652D01*
X85577294Y-84918582D01*
X85397803Y-84849047D01*
X85397798Y-84849045D01*
X85392456Y-84846976D01*
X85386818Y-84845922D01*
X85197605Y-84810552D01*
X85197602Y-84810551D01*
X85191976Y-84809500D01*
X84988024Y-84809500D01*
X84982398Y-84810551D01*
X84982394Y-84810552D01*
X84793181Y-84845922D01*
X84793178Y-84845922D01*
X84787544Y-84846976D01*
X84782203Y-84849044D01*
X84782196Y-84849047D01*
X84602705Y-84918582D01*
X84602700Y-84918584D01*
X84597363Y-84920652D01*
X84592491Y-84923668D01*
X84592488Y-84923670D01*
X84428830Y-85025002D01*
X84428822Y-85025007D01*
X84423959Y-85028019D01*
X84419728Y-85031875D01*
X84419724Y-85031879D01*
X84277476Y-85161554D01*
X84277466Y-85161564D01*
X84273236Y-85165421D01*
X84269787Y-85169987D01*
X84269778Y-85169998D01*
X84153779Y-85323607D01*
X84153776Y-85323611D01*
X84150327Y-85328179D01*
X84147774Y-85333304D01*
X84147772Y-85333309D01*
X84080369Y-85468674D01*
X84059418Y-85510750D01*
X84057850Y-85516258D01*
X84057847Y-85516268D01*
X84005173Y-85701395D01*
X84005170Y-85701406D01*
X84003603Y-85706917D01*
X84003073Y-85712627D01*
X84003073Y-85712632D01*
X83994560Y-85804511D01*
X83984785Y-85910000D01*
X76454500Y-85910000D01*
X76454500Y-83370000D01*
X83984785Y-83370000D01*
X83985314Y-83375709D01*
X83997905Y-83511598D01*
X84003603Y-83573083D01*
X84005171Y-83578594D01*
X84005173Y-83578604D01*
X84057847Y-83763731D01*
X84057849Y-83763737D01*
X84059418Y-83769250D01*
X84150327Y-83951821D01*
X84153779Y-83956392D01*
X84269778Y-84110001D01*
X84269783Y-84110006D01*
X84273236Y-84114579D01*
X84277472Y-84118440D01*
X84277476Y-84118445D01*
X84319914Y-84157132D01*
X84423959Y-84251981D01*
X84597363Y-84359348D01*
X84787544Y-84433024D01*
X84988024Y-84470500D01*
X85186247Y-84470500D01*
X85191976Y-84470500D01*
X85392456Y-84433024D01*
X85582637Y-84359348D01*
X85756041Y-84251981D01*
X85906764Y-84114579D01*
X86029673Y-83951821D01*
X86120582Y-83769250D01*
X86176397Y-83573083D01*
X86195215Y-83370000D01*
X91604785Y-83370000D01*
X91605314Y-83375709D01*
X91617905Y-83511598D01*
X91623603Y-83573083D01*
X91625171Y-83578594D01*
X91625173Y-83578604D01*
X91677847Y-83763731D01*
X91677849Y-83763737D01*
X91679418Y-83769250D01*
X91770327Y-83951821D01*
X91773779Y-83956392D01*
X91889778Y-84110001D01*
X91889783Y-84110006D01*
X91893236Y-84114579D01*
X91897472Y-84118440D01*
X91897476Y-84118445D01*
X91939914Y-84157132D01*
X92043959Y-84251981D01*
X92217363Y-84359348D01*
X92407544Y-84433024D01*
X92608024Y-84470500D01*
X92806247Y-84470500D01*
X92811976Y-84470500D01*
X93012456Y-84433024D01*
X93202637Y-84359348D01*
X93376041Y-84251981D01*
X93526764Y-84114579D01*
X93649673Y-83951821D01*
X93740582Y-83769250D01*
X93796397Y-83573083D01*
X93815215Y-83370000D01*
X93796397Y-83166917D01*
X93740582Y-82970750D01*
X93649673Y-82788179D01*
X93601176Y-82723959D01*
X93530221Y-82629998D01*
X93530217Y-82629994D01*
X93526764Y-82625421D01*
X93522527Y-82621558D01*
X93522523Y-82621554D01*
X93380275Y-82491879D01*
X93380276Y-82491879D01*
X93376041Y-82488019D01*
X93371171Y-82485004D01*
X93371169Y-82485002D01*
X93207511Y-82383670D01*
X93207512Y-82383670D01*
X93202637Y-82380652D01*
X93197294Y-82378582D01*
X93017803Y-82309047D01*
X93017798Y-82309045D01*
X93012456Y-82306976D01*
X93006818Y-82305922D01*
X92817605Y-82270552D01*
X92817602Y-82270551D01*
X92811976Y-82269500D01*
X92608024Y-82269500D01*
X92602398Y-82270551D01*
X92602394Y-82270552D01*
X92413181Y-82305922D01*
X92413178Y-82305922D01*
X92407544Y-82306976D01*
X92402203Y-82309044D01*
X92402196Y-82309047D01*
X92222705Y-82378582D01*
X92222700Y-82378584D01*
X92217363Y-82380652D01*
X92212491Y-82383668D01*
X92212488Y-82383670D01*
X92048830Y-82485002D01*
X92048822Y-82485007D01*
X92043959Y-82488019D01*
X92039728Y-82491875D01*
X92039724Y-82491879D01*
X91897476Y-82621554D01*
X91897466Y-82621564D01*
X91893236Y-82625421D01*
X91889787Y-82629987D01*
X91889778Y-82629998D01*
X91773779Y-82783607D01*
X91773776Y-82783611D01*
X91770327Y-82788179D01*
X91767774Y-82793304D01*
X91767772Y-82793309D01*
X91681976Y-82965612D01*
X91679418Y-82970750D01*
X91677850Y-82976258D01*
X91677847Y-82976268D01*
X91625173Y-83161395D01*
X91625170Y-83161406D01*
X91623603Y-83166917D01*
X91623073Y-83172627D01*
X91623073Y-83172632D01*
X91622609Y-83177639D01*
X91604785Y-83370000D01*
X86195215Y-83370000D01*
X86176397Y-83166917D01*
X86120582Y-82970750D01*
X86029673Y-82788179D01*
X85981176Y-82723959D01*
X85910221Y-82629998D01*
X85910217Y-82629994D01*
X85906764Y-82625421D01*
X85902527Y-82621558D01*
X85902523Y-82621554D01*
X85760275Y-82491879D01*
X85760276Y-82491879D01*
X85756041Y-82488019D01*
X85751171Y-82485004D01*
X85751169Y-82485002D01*
X85587511Y-82383670D01*
X85587512Y-82383670D01*
X85582637Y-82380652D01*
X85577294Y-82378582D01*
X85397803Y-82309047D01*
X85397798Y-82309045D01*
X85392456Y-82306976D01*
X85386818Y-82305922D01*
X85197605Y-82270552D01*
X85197602Y-82270551D01*
X85191976Y-82269500D01*
X84988024Y-82269500D01*
X84982398Y-82270551D01*
X84982394Y-82270552D01*
X84793181Y-82305922D01*
X84793178Y-82305922D01*
X84787544Y-82306976D01*
X84782203Y-82309044D01*
X84782196Y-82309047D01*
X84602705Y-82378582D01*
X84602700Y-82378584D01*
X84597363Y-82380652D01*
X84592491Y-82383668D01*
X84592488Y-82383670D01*
X84428830Y-82485002D01*
X84428822Y-82485007D01*
X84423959Y-82488019D01*
X84419728Y-82491875D01*
X84419724Y-82491879D01*
X84277476Y-82621554D01*
X84277466Y-82621564D01*
X84273236Y-82625421D01*
X84269787Y-82629987D01*
X84269778Y-82629998D01*
X84153779Y-82783607D01*
X84153776Y-82783611D01*
X84150327Y-82788179D01*
X84147774Y-82793304D01*
X84147772Y-82793309D01*
X84061976Y-82965612D01*
X84059418Y-82970750D01*
X84057850Y-82976258D01*
X84057847Y-82976268D01*
X84005173Y-83161395D01*
X84005170Y-83161406D01*
X84003603Y-83166917D01*
X84003073Y-83172627D01*
X84003073Y-83172632D01*
X84002609Y-83177639D01*
X83984785Y-83370000D01*
X76454500Y-83370000D01*
X76454500Y-80830000D01*
X83984785Y-80830000D01*
X83985314Y-80835709D01*
X83998119Y-80973906D01*
X84003603Y-81033083D01*
X84005171Y-81038594D01*
X84005173Y-81038604D01*
X84057847Y-81223731D01*
X84057849Y-81223737D01*
X84059418Y-81229250D01*
X84150327Y-81411821D01*
X84153779Y-81416392D01*
X84269778Y-81570001D01*
X84269783Y-81570006D01*
X84273236Y-81574579D01*
X84277472Y-81578440D01*
X84277476Y-81578445D01*
X84379227Y-81671203D01*
X84423959Y-81711981D01*
X84597363Y-81819348D01*
X84787544Y-81893024D01*
X84988024Y-81930500D01*
X85186247Y-81930500D01*
X85191976Y-81930500D01*
X85392456Y-81893024D01*
X85582637Y-81819348D01*
X85756041Y-81711981D01*
X85906764Y-81574579D01*
X86029673Y-81411821D01*
X86120582Y-81229250D01*
X86176397Y-81033083D01*
X86195215Y-80830000D01*
X91604785Y-80830000D01*
X91605314Y-80835709D01*
X91618119Y-80973906D01*
X91623603Y-81033083D01*
X91625171Y-81038594D01*
X91625173Y-81038604D01*
X91677847Y-81223731D01*
X91677849Y-81223737D01*
X91679418Y-81229250D01*
X91770327Y-81411821D01*
X91773779Y-81416392D01*
X91889778Y-81570001D01*
X91889783Y-81570006D01*
X91893236Y-81574579D01*
X91897472Y-81578440D01*
X91897476Y-81578445D01*
X91999227Y-81671203D01*
X92043959Y-81711981D01*
X92217363Y-81819348D01*
X92407544Y-81893024D01*
X92608024Y-81930500D01*
X92806247Y-81930500D01*
X92811976Y-81930500D01*
X93012456Y-81893024D01*
X93202637Y-81819348D01*
X93376041Y-81711981D01*
X93526764Y-81574579D01*
X93649673Y-81411821D01*
X93740582Y-81229250D01*
X93796397Y-81033083D01*
X93815215Y-80830000D01*
X93796397Y-80626917D01*
X93740582Y-80430750D01*
X93649673Y-80248179D01*
X93556850Y-80125261D01*
X93530221Y-80089998D01*
X93530217Y-80089994D01*
X93526764Y-80085421D01*
X93522527Y-80081558D01*
X93522523Y-80081554D01*
X93380275Y-79951879D01*
X93380276Y-79951879D01*
X93376041Y-79948019D01*
X93371171Y-79945004D01*
X93371169Y-79945002D01*
X93207511Y-79843670D01*
X93207512Y-79843670D01*
X93202637Y-79840652D01*
X93197294Y-79838582D01*
X93017803Y-79769047D01*
X93017798Y-79769045D01*
X93012456Y-79766976D01*
X92985730Y-79761980D01*
X92817605Y-79730552D01*
X92817602Y-79730551D01*
X92811976Y-79729500D01*
X92608024Y-79729500D01*
X92602398Y-79730551D01*
X92602394Y-79730552D01*
X92413181Y-79765922D01*
X92413178Y-79765922D01*
X92407544Y-79766976D01*
X92402203Y-79769044D01*
X92402196Y-79769047D01*
X92222705Y-79838582D01*
X92222700Y-79838584D01*
X92217363Y-79840652D01*
X92212491Y-79843668D01*
X92212488Y-79843670D01*
X92048830Y-79945002D01*
X92048822Y-79945007D01*
X92043959Y-79948019D01*
X92039728Y-79951875D01*
X92039724Y-79951879D01*
X91897476Y-80081554D01*
X91897466Y-80081564D01*
X91893236Y-80085421D01*
X91889787Y-80089987D01*
X91889778Y-80089998D01*
X91773779Y-80243607D01*
X91773776Y-80243611D01*
X91770327Y-80248179D01*
X91767774Y-80253304D01*
X91767772Y-80253309D01*
X91681976Y-80425612D01*
X91679418Y-80430750D01*
X91677850Y-80436258D01*
X91677847Y-80436268D01*
X91625173Y-80621395D01*
X91625170Y-80621406D01*
X91623603Y-80626917D01*
X91623073Y-80632627D01*
X91623073Y-80632632D01*
X91622609Y-80637639D01*
X91604785Y-80830000D01*
X86195215Y-80830000D01*
X86176397Y-80626917D01*
X86120582Y-80430750D01*
X86029673Y-80248179D01*
X85936850Y-80125261D01*
X85910221Y-80089998D01*
X85910217Y-80089994D01*
X85906764Y-80085421D01*
X85902527Y-80081558D01*
X85902523Y-80081554D01*
X85760275Y-79951879D01*
X85760276Y-79951879D01*
X85756041Y-79948019D01*
X85751171Y-79945004D01*
X85751169Y-79945002D01*
X85587511Y-79843670D01*
X85587512Y-79843670D01*
X85582637Y-79840652D01*
X85577294Y-79838582D01*
X85397803Y-79769047D01*
X85397798Y-79769045D01*
X85392456Y-79766976D01*
X85365730Y-79761980D01*
X85197605Y-79730552D01*
X85197602Y-79730551D01*
X85191976Y-79729500D01*
X84988024Y-79729500D01*
X84982398Y-79730551D01*
X84982394Y-79730552D01*
X84793181Y-79765922D01*
X84793178Y-79765922D01*
X84787544Y-79766976D01*
X84782203Y-79769044D01*
X84782196Y-79769047D01*
X84602705Y-79838582D01*
X84602700Y-79838584D01*
X84597363Y-79840652D01*
X84592491Y-79843668D01*
X84592488Y-79843670D01*
X84428830Y-79945002D01*
X84428822Y-79945007D01*
X84423959Y-79948019D01*
X84419728Y-79951875D01*
X84419724Y-79951879D01*
X84277476Y-80081554D01*
X84277466Y-80081564D01*
X84273236Y-80085421D01*
X84269787Y-80089987D01*
X84269778Y-80089998D01*
X84153779Y-80243607D01*
X84153776Y-80243611D01*
X84150327Y-80248179D01*
X84147774Y-80253304D01*
X84147772Y-80253309D01*
X84061976Y-80425612D01*
X84059418Y-80430750D01*
X84057850Y-80436258D01*
X84057847Y-80436268D01*
X84005173Y-80621395D01*
X84005170Y-80621406D01*
X84003603Y-80626917D01*
X84003073Y-80632627D01*
X84003073Y-80632632D01*
X84002609Y-80637639D01*
X83984785Y-80830000D01*
X76454500Y-80830000D01*
X76454500Y-78934578D01*
X83989500Y-78934578D01*
X83989501Y-78937872D01*
X83989853Y-78941150D01*
X83989854Y-78941161D01*
X83995079Y-78989768D01*
X83995080Y-78989773D01*
X83995909Y-78997483D01*
X83998619Y-79004749D01*
X83998620Y-79004753D01*
X84016329Y-79052233D01*
X84046204Y-79132331D01*
X84051518Y-79139430D01*
X84051519Y-79139431D01*
X84067165Y-79160332D01*
X84132454Y-79247546D01*
X84247669Y-79333796D01*
X84382517Y-79384091D01*
X84442127Y-79390500D01*
X85737872Y-79390499D01*
X85797483Y-79384091D01*
X85932331Y-79333796D01*
X86047546Y-79247546D01*
X86065339Y-79223778D01*
X92133298Y-79223778D01*
X92141235Y-79231624D01*
X92212712Y-79275880D01*
X92222929Y-79280968D01*
X92402333Y-79350469D01*
X92413318Y-79353594D01*
X92602440Y-79388947D01*
X92613799Y-79390000D01*
X92806201Y-79390000D01*
X92817559Y-79388947D01*
X93006681Y-79353594D01*
X93017666Y-79350469D01*
X93197071Y-79280968D01*
X93207284Y-79275882D01*
X93278764Y-79231623D01*
X93286701Y-79223778D01*
X93280771Y-79214324D01*
X92721542Y-78655095D01*
X92710000Y-78648431D01*
X92698456Y-78655096D01*
X92139228Y-79214323D01*
X92133298Y-79223778D01*
X86065339Y-79223778D01*
X86133796Y-79132331D01*
X86184091Y-78997483D01*
X86190500Y-78937873D01*
X86190500Y-78295709D01*
X91605816Y-78295709D01*
X91623568Y-78487282D01*
X91625666Y-78498504D01*
X91678314Y-78683545D01*
X91682445Y-78694208D01*
X91766645Y-78863305D01*
X91772944Y-78867988D01*
X91785111Y-78861334D01*
X92344904Y-78301542D01*
X92351568Y-78290000D01*
X93068431Y-78290000D01*
X93075095Y-78301542D01*
X93634890Y-78861337D01*
X93647054Y-78867990D01*
X93653350Y-78863312D01*
X93737554Y-78694208D01*
X93741685Y-78683545D01*
X93794333Y-78498504D01*
X93796431Y-78487282D01*
X93814184Y-78295709D01*
X93814184Y-78284291D01*
X93796431Y-78092717D01*
X93794333Y-78081495D01*
X93741685Y-77896454D01*
X93737554Y-77885791D01*
X93653352Y-77716690D01*
X93647054Y-77712009D01*
X93634889Y-77718662D01*
X93075096Y-78278456D01*
X93068431Y-78290000D01*
X92351568Y-78290000D01*
X92344904Y-78278457D01*
X91785112Y-77718665D01*
X91772945Y-77712011D01*
X91766643Y-77716698D01*
X91682445Y-77885791D01*
X91678314Y-77896454D01*
X91625666Y-78081495D01*
X91623568Y-78092717D01*
X91605816Y-78284291D01*
X91605816Y-78295709D01*
X86190500Y-78295709D01*
X86190499Y-77642128D01*
X86184091Y-77582517D01*
X86133796Y-77447669D01*
X86065337Y-77356220D01*
X92133298Y-77356220D01*
X92139228Y-77365675D01*
X92698457Y-77924904D01*
X92710000Y-77931568D01*
X92721542Y-77924904D01*
X93280770Y-77365675D01*
X93286700Y-77356220D01*
X93278763Y-77348374D01*
X93207287Y-77304119D01*
X93197070Y-77299031D01*
X93017666Y-77229530D01*
X93006681Y-77226405D01*
X92817559Y-77191052D01*
X92806201Y-77190000D01*
X92613799Y-77190000D01*
X92602440Y-77191052D01*
X92413318Y-77226405D01*
X92402333Y-77229530D01*
X92222927Y-77299032D01*
X92212718Y-77304115D01*
X92141233Y-77348376D01*
X92133298Y-77356220D01*
X86065337Y-77356220D01*
X86047546Y-77332454D01*
X86009695Y-77304119D01*
X85939431Y-77251519D01*
X85939430Y-77251518D01*
X85932331Y-77246204D01*
X85797483Y-77195909D01*
X85789770Y-77195079D01*
X85789767Y-77195079D01*
X85741180Y-77189855D01*
X85741169Y-77189854D01*
X85737873Y-77189500D01*
X85734550Y-77189500D01*
X84445439Y-77189500D01*
X84445420Y-77189500D01*
X84442128Y-77189501D01*
X84438850Y-77189853D01*
X84438838Y-77189854D01*
X84390231Y-77195079D01*
X84390225Y-77195080D01*
X84382517Y-77195909D01*
X84375252Y-77198618D01*
X84375246Y-77198620D01*
X84255980Y-77243104D01*
X84255978Y-77243104D01*
X84247669Y-77246204D01*
X84240572Y-77251516D01*
X84240568Y-77251519D01*
X84139550Y-77327141D01*
X84139546Y-77327144D01*
X84132454Y-77332454D01*
X84127144Y-77339546D01*
X84127141Y-77339550D01*
X84051519Y-77440568D01*
X84051516Y-77440572D01*
X84046204Y-77447669D01*
X84043104Y-77455978D01*
X84043104Y-77455980D01*
X83998620Y-77575247D01*
X83998619Y-77575250D01*
X83995909Y-77582517D01*
X83995079Y-77590227D01*
X83995079Y-77590232D01*
X83989855Y-77638819D01*
X83989854Y-77638831D01*
X83989500Y-77642127D01*
X83989500Y-77645448D01*
X83989500Y-77645449D01*
X83989500Y-78934560D01*
X83989500Y-78934578D01*
X76454500Y-78934578D01*
X76454500Y-63502425D01*
X76454548Y-63500000D01*
X80190448Y-63500000D01*
X80210634Y-63807983D01*
X80211424Y-63811954D01*
X80211425Y-63811962D01*
X80270053Y-64106704D01*
X80270055Y-64106714D01*
X80270848Y-64110697D01*
X80370058Y-64402961D01*
X80371850Y-64406595D01*
X80371853Y-64406602D01*
X80504772Y-64676135D01*
X80506568Y-64679776D01*
X80508819Y-64683145D01*
X80508822Y-64683150D01*
X80597284Y-64815542D01*
X80678042Y-64936404D01*
X80680717Y-64939454D01*
X80680723Y-64939462D01*
X80779884Y-65052533D01*
X80881545Y-65168455D01*
X80884593Y-65171128D01*
X81110537Y-65369276D01*
X81110543Y-65369280D01*
X81113596Y-65371958D01*
X81370224Y-65543432D01*
X81647039Y-65679942D01*
X81939303Y-65779152D01*
X82242017Y-65839366D01*
X82550000Y-65859552D01*
X82857983Y-65839366D01*
X83160697Y-65779152D01*
X83452961Y-65679942D01*
X83729776Y-65543432D01*
X83986404Y-65371958D01*
X84218455Y-65168455D01*
X84421958Y-64936404D01*
X84593432Y-64679776D01*
X84729942Y-64402961D01*
X84829152Y-64110697D01*
X84889366Y-63807983D01*
X84909552Y-63500000D01*
X84889366Y-63192017D01*
X84829152Y-62889303D01*
X84729942Y-62597039D01*
X84671411Y-62478350D01*
X102168604Y-62478350D01*
X102176150Y-62486408D01*
X102343641Y-62600601D01*
X102351662Y-62605232D01*
X102586362Y-62718258D01*
X102594973Y-62721638D01*
X102843908Y-62798424D01*
X102852924Y-62800482D01*
X103110523Y-62839308D01*
X103119746Y-62840000D01*
X103380254Y-62840000D01*
X103389476Y-62839308D01*
X103647075Y-62800482D01*
X103656091Y-62798424D01*
X103905027Y-62721637D01*
X103913637Y-62718258D01*
X104148340Y-62605231D01*
X104156359Y-62600601D01*
X104323846Y-62486409D01*
X104331394Y-62478350D01*
X104325477Y-62469030D01*
X103261542Y-61405095D01*
X103250000Y-61398431D01*
X103238457Y-61405095D01*
X102174521Y-62469030D01*
X102168604Y-62478350D01*
X84671411Y-62478350D01*
X84593432Y-62320224D01*
X84421958Y-62063596D01*
X84419280Y-62060543D01*
X84419276Y-62060537D01*
X84221128Y-61834593D01*
X84218455Y-61831545D01*
X84203986Y-61818856D01*
X83989462Y-61630723D01*
X83989454Y-61630717D01*
X83986404Y-61628042D01*
X83930421Y-61590635D01*
X83733150Y-61458822D01*
X83733145Y-61458819D01*
X83729776Y-61456568D01*
X83726140Y-61454775D01*
X83726135Y-61454772D01*
X83456602Y-61321853D01*
X83456595Y-61321850D01*
X83452961Y-61320058D01*
X83317951Y-61274228D01*
X83164551Y-61222156D01*
X83164547Y-61222155D01*
X83160697Y-61220848D01*
X83156714Y-61220055D01*
X83156704Y-61220053D01*
X82861962Y-61161425D01*
X82861954Y-61161424D01*
X82857983Y-61160634D01*
X82550000Y-61140448D01*
X82545957Y-61140713D01*
X82246059Y-61160369D01*
X82246057Y-61160369D01*
X82242017Y-61160634D01*
X82238047Y-61161423D01*
X82238037Y-61161425D01*
X81943295Y-61220053D01*
X81943281Y-61220056D01*
X81939303Y-61220848D01*
X81935456Y-61222153D01*
X81935448Y-61222156D01*
X81666205Y-61313552D01*
X81647039Y-61320058D01*
X81643410Y-61321847D01*
X81643397Y-61321853D01*
X81373864Y-61454772D01*
X81373852Y-61454778D01*
X81370224Y-61456568D01*
X81366861Y-61458814D01*
X81366849Y-61458822D01*
X81116977Y-61625782D01*
X81116968Y-61625788D01*
X81113596Y-61628042D01*
X81110552Y-61630711D01*
X81110537Y-61630723D01*
X80884593Y-61828871D01*
X80884585Y-61828878D01*
X80881545Y-61831545D01*
X80878878Y-61834585D01*
X80878871Y-61834593D01*
X80680723Y-62060537D01*
X80680711Y-62060552D01*
X80678042Y-62063596D01*
X80675788Y-62066968D01*
X80675782Y-62066977D01*
X80508822Y-62316849D01*
X80508814Y-62316861D01*
X80506568Y-62320224D01*
X80504778Y-62323852D01*
X80504772Y-62323864D01*
X80371853Y-62593397D01*
X80371847Y-62593410D01*
X80370058Y-62597039D01*
X80368752Y-62600884D01*
X80368752Y-62600886D01*
X80272156Y-62885448D01*
X80272153Y-62885456D01*
X80270848Y-62889303D01*
X80270056Y-62893281D01*
X80270053Y-62893295D01*
X80211425Y-63188037D01*
X80211423Y-63188047D01*
X80210634Y-63192017D01*
X80190448Y-63500000D01*
X76454548Y-63500000D01*
X76454596Y-63497557D01*
X76459112Y-63382604D01*
X76473099Y-63026602D01*
X76473860Y-63016932D01*
X76528974Y-62551282D01*
X76530496Y-62541676D01*
X76533432Y-62526916D01*
X76621970Y-62081803D01*
X76624241Y-62072345D01*
X76625755Y-62066977D01*
X76751514Y-61621069D01*
X76754519Y-61611821D01*
X76916809Y-61171914D01*
X76920524Y-61162943D01*
X76975067Y-61044630D01*
X101445300Y-61044630D01*
X101464767Y-61304399D01*
X101466146Y-61313552D01*
X101524111Y-61567515D01*
X101526844Y-61576375D01*
X101622011Y-61818856D01*
X101626030Y-61827202D01*
X101756278Y-62052798D01*
X101761496Y-62060450D01*
X101801379Y-62110462D01*
X101812615Y-62118435D01*
X101824674Y-62111771D01*
X102884904Y-61051542D01*
X102891568Y-61040000D01*
X103608431Y-61040000D01*
X103615095Y-61051542D01*
X104675325Y-62111772D01*
X104687382Y-62118436D01*
X104698619Y-62110463D01*
X104738507Y-62060445D01*
X104743719Y-62052800D01*
X104873969Y-61827202D01*
X104877988Y-61818856D01*
X104973155Y-61576375D01*
X104975888Y-61567515D01*
X105033853Y-61313552D01*
X105035232Y-61304399D01*
X105054700Y-61044630D01*
X105054700Y-61035370D01*
X105035232Y-60775600D01*
X105033853Y-60766447D01*
X104975888Y-60512484D01*
X104973155Y-60503624D01*
X104877988Y-60261143D01*
X104873969Y-60252797D01*
X104800057Y-60124778D01*
X135555000Y-60124778D01*
X135555317Y-60131043D01*
X135568935Y-60264955D01*
X135571453Y-60277206D01*
X135625223Y-60448584D01*
X135630160Y-60460089D01*
X135717325Y-60617130D01*
X135724476Y-60627405D01*
X135841468Y-60763683D01*
X135850548Y-60772315D01*
X135992573Y-60882250D01*
X136003200Y-60888875D01*
X136164459Y-60967976D01*
X136176193Y-60972321D01*
X136236254Y-60987872D01*
X136247464Y-60988157D01*
X136249324Y-60980143D01*
X136750000Y-60980143D01*
X136752720Y-60991228D01*
X136764062Y-60989929D01*
X136912418Y-60934985D01*
X136923659Y-60929471D01*
X137076086Y-60834463D01*
X137085980Y-60826804D01*
X137216167Y-60703052D01*
X137224314Y-60693561D01*
X137326927Y-60546133D01*
X137332996Y-60535199D01*
X137403832Y-60370131D01*
X137407575Y-60358201D01*
X137443734Y-60182254D01*
X137445000Y-60169809D01*
X137445000Y-60124778D01*
X142555000Y-60124778D01*
X142555317Y-60131043D01*
X142568935Y-60264955D01*
X142571453Y-60277206D01*
X142625223Y-60448584D01*
X142630160Y-60460089D01*
X142717325Y-60617130D01*
X142724476Y-60627405D01*
X142841468Y-60763683D01*
X142850548Y-60772315D01*
X142992573Y-60882250D01*
X143003200Y-60888875D01*
X143164459Y-60967976D01*
X143176193Y-60972321D01*
X143236254Y-60987872D01*
X143247464Y-60988157D01*
X143249324Y-60980143D01*
X143750000Y-60980143D01*
X143752720Y-60991228D01*
X143764062Y-60989929D01*
X143912418Y-60934985D01*
X143923659Y-60929471D01*
X144076086Y-60834463D01*
X144085980Y-60826804D01*
X144216167Y-60703052D01*
X144224314Y-60693561D01*
X144326927Y-60546133D01*
X144332996Y-60535199D01*
X144403832Y-60370131D01*
X144407575Y-60358201D01*
X144443734Y-60182254D01*
X144445000Y-60169809D01*
X144445000Y-60016326D01*
X144441549Y-60003450D01*
X144428674Y-60000000D01*
X143766326Y-60000000D01*
X143753450Y-60003450D01*
X143750000Y-60016326D01*
X143750000Y-60980143D01*
X143249324Y-60980143D01*
X143250000Y-60977232D01*
X143250000Y-60016326D01*
X143246549Y-60003450D01*
X143233674Y-60000000D01*
X142571326Y-60000000D01*
X142558450Y-60003450D01*
X142555000Y-60016326D01*
X142555000Y-60124778D01*
X137445000Y-60124778D01*
X137445000Y-60016326D01*
X137441549Y-60003450D01*
X137428674Y-60000000D01*
X136766326Y-60000000D01*
X136753450Y-60003450D01*
X136750000Y-60016326D01*
X136750000Y-60980143D01*
X136249324Y-60980143D01*
X136250000Y-60977232D01*
X136250000Y-60016326D01*
X136246549Y-60003450D01*
X136233674Y-60000000D01*
X135571326Y-60000000D01*
X135558450Y-60003450D01*
X135555000Y-60016326D01*
X135555000Y-60124778D01*
X104800057Y-60124778D01*
X104743721Y-60027201D01*
X104738503Y-60019549D01*
X104698619Y-59969536D01*
X104687382Y-59961562D01*
X104675325Y-59968226D01*
X103615095Y-61028457D01*
X103608431Y-61040000D01*
X102891568Y-61040000D01*
X102884904Y-61028457D01*
X101824674Y-59968227D01*
X101812615Y-59961562D01*
X101801380Y-59969534D01*
X101761488Y-60019558D01*
X101756282Y-60027195D01*
X101626030Y-60252797D01*
X101622011Y-60261143D01*
X101526844Y-60503624D01*
X101524111Y-60512484D01*
X101466146Y-60766447D01*
X101464767Y-60775600D01*
X101445300Y-61035370D01*
X101445300Y-61044630D01*
X76975067Y-61044630D01*
X77116839Y-60737104D01*
X77121250Y-60728451D01*
X77350355Y-60319356D01*
X77355442Y-60311054D01*
X77615940Y-59921189D01*
X77621641Y-59913343D01*
X77867361Y-59601648D01*
X102168603Y-59601648D01*
X102174519Y-59610966D01*
X103238457Y-60674904D01*
X103250000Y-60681568D01*
X103261542Y-60674904D01*
X104325477Y-59610968D01*
X104331394Y-59601648D01*
X104323846Y-59593589D01*
X104162632Y-59483674D01*
X135555000Y-59483674D01*
X135558450Y-59496549D01*
X135571326Y-59500000D01*
X136233674Y-59500000D01*
X136246549Y-59496549D01*
X136250000Y-59483674D01*
X136750000Y-59483674D01*
X136753450Y-59496549D01*
X136766326Y-59500000D01*
X137428674Y-59500000D01*
X137441549Y-59496549D01*
X137445000Y-59483674D01*
X142555000Y-59483674D01*
X142558450Y-59496549D01*
X142571326Y-59500000D01*
X143233674Y-59500000D01*
X143246549Y-59496549D01*
X143250000Y-59483674D01*
X143750000Y-59483674D01*
X143753450Y-59496549D01*
X143766326Y-59500000D01*
X144428674Y-59500000D01*
X144441549Y-59496549D01*
X144445000Y-59483674D01*
X144445000Y-59375222D01*
X144444682Y-59368956D01*
X144431064Y-59235044D01*
X144428546Y-59222793D01*
X144374776Y-59051415D01*
X144369839Y-59039910D01*
X144282674Y-58882869D01*
X144275523Y-58872594D01*
X144158531Y-58736316D01*
X144149451Y-58727684D01*
X144007426Y-58617749D01*
X143996799Y-58611124D01*
X143835540Y-58532023D01*
X143823806Y-58527678D01*
X143763745Y-58512127D01*
X143752535Y-58511842D01*
X143750000Y-58522768D01*
X143750000Y-59483674D01*
X143250000Y-59483674D01*
X143250000Y-58519857D01*
X143247279Y-58508771D01*
X143235937Y-58510070D01*
X143087581Y-58565014D01*
X143076340Y-58570528D01*
X142923913Y-58665536D01*
X142914019Y-58673195D01*
X142783832Y-58796947D01*
X142775685Y-58806438D01*
X142673072Y-58953866D01*
X142667003Y-58964800D01*
X142596167Y-59129868D01*
X142592424Y-59141798D01*
X142556265Y-59317745D01*
X142555000Y-59330191D01*
X142555000Y-59483674D01*
X137445000Y-59483674D01*
X137445000Y-59375222D01*
X137444682Y-59368956D01*
X137431064Y-59235044D01*
X137428546Y-59222793D01*
X137374776Y-59051415D01*
X137369839Y-59039910D01*
X137282674Y-58882869D01*
X137275523Y-58872594D01*
X137158531Y-58736316D01*
X137149451Y-58727684D01*
X137007426Y-58617749D01*
X136996799Y-58611124D01*
X136835540Y-58532023D01*
X136823806Y-58527678D01*
X136763745Y-58512127D01*
X136752535Y-58511842D01*
X136750000Y-58522768D01*
X136750000Y-59483674D01*
X136250000Y-59483674D01*
X136250000Y-58519857D01*
X136247279Y-58508771D01*
X136235937Y-58510070D01*
X136087581Y-58565014D01*
X136076340Y-58570528D01*
X135923913Y-58665536D01*
X135914019Y-58673195D01*
X135783832Y-58796947D01*
X135775685Y-58806438D01*
X135673072Y-58953866D01*
X135667003Y-58964800D01*
X135596167Y-59129868D01*
X135592424Y-59141798D01*
X135556265Y-59317745D01*
X135555000Y-59330191D01*
X135555000Y-59483674D01*
X104162632Y-59483674D01*
X104156360Y-59479398D01*
X104148340Y-59474768D01*
X103913637Y-59361741D01*
X103905027Y-59358362D01*
X103656091Y-59281575D01*
X103647075Y-59279517D01*
X103389476Y-59240691D01*
X103380254Y-59240000D01*
X103119746Y-59240000D01*
X103110523Y-59240691D01*
X102852924Y-59279517D01*
X102843908Y-59281575D01*
X102594973Y-59358361D01*
X102586362Y-59361741D01*
X102351660Y-59474768D01*
X102343639Y-59479399D01*
X102176151Y-59593590D01*
X102168603Y-59601648D01*
X77867361Y-59601648D01*
X77911933Y-59545108D01*
X77918238Y-59537726D01*
X78236529Y-59193402D01*
X78243408Y-59186524D01*
X78587726Y-58868238D01*
X78595108Y-58861933D01*
X78963343Y-58571641D01*
X78971189Y-58565940D01*
X79361056Y-58305440D01*
X79369356Y-58300355D01*
X79778451Y-58071250D01*
X79787104Y-58066839D01*
X80212943Y-57870524D01*
X80221914Y-57866809D01*
X80661831Y-57704515D01*
X80671069Y-57701514D01*
X81122355Y-57574238D01*
X81131803Y-57571970D01*
X81591685Y-57480494D01*
X81601282Y-57478974D01*
X82066932Y-57423860D01*
X82076602Y-57423099D01*
X82547556Y-57404596D01*
X82552425Y-57404500D01*
X82594875Y-57404500D01*
X196805125Y-57404500D01*
X196847575Y-57404500D01*
X196852443Y-57404596D01*
G37*
%TD.AperFunction*%
%TD*%
M02*
