G04 #@! TF.GenerationSoftware,KiCad,Pcbnew,7.0.1-0*
G04 #@! TF.CreationDate,2023-04-17T19:11:43-07:00*
G04 #@! TF.ProjectId,msp-debugger,6d73702d-6465-4627-9567-6765722e6b69,rev?*
G04 #@! TF.SameCoordinates,Original*
G04 #@! TF.FileFunction,Copper,L1,Top*
G04 #@! TF.FilePolarity,Positive*
%FSLAX46Y46*%
G04 Gerber Fmt 4.6, Leading zero omitted, Abs format (unit mm)*
G04 Created by KiCad (PCBNEW 7.0.1-0) date 2023-04-17 19:11:43*
%MOMM*%
%LPD*%
G01*
G04 APERTURE LIST*
G04 Aperture macros list*
%AMRoundRect*
0 Rectangle with rounded corners*
0 $1 Rounding radius*
0 $2 $3 $4 $5 $6 $7 $8 $9 X,Y pos of 4 corners*
0 Add a 4 corners polygon primitive as box body*
4,1,4,$2,$3,$4,$5,$6,$7,$8,$9,$2,$3,0*
0 Add four circle primitives for the rounded corners*
1,1,$1+$1,$2,$3*
1,1,$1+$1,$4,$5*
1,1,$1+$1,$6,$7*
1,1,$1+$1,$8,$9*
0 Add four rect primitives between the rounded corners*
20,1,$1+$1,$2,$3,$4,$5,0*
20,1,$1+$1,$4,$5,$6,$7,0*
20,1,$1+$1,$6,$7,$8,$9,0*
20,1,$1+$1,$8,$9,$2,$3,0*%
G04 Aperture macros list end*
G04 #@! TA.AperFunction,SMDPad,CuDef*
%ADD10RoundRect,0.250000X0.450000X-0.262500X0.450000X0.262500X-0.450000X0.262500X-0.450000X-0.262500X0*%
G04 #@! TD*
G04 #@! TA.AperFunction,ComponentPad*
%ADD11R,1.508000X1.508000*%
G04 #@! TD*
G04 #@! TA.AperFunction,ComponentPad*
%ADD12C,1.508000*%
G04 #@! TD*
G04 #@! TA.AperFunction,SMDPad,CuDef*
%ADD13R,1.500000X1.500000*%
G04 #@! TD*
G04 #@! TA.AperFunction,SMDPad,CuDef*
%ADD14R,0.400000X1.350000*%
G04 #@! TD*
G04 #@! TA.AperFunction,ComponentPad*
%ADD15O,0.890000X1.550000*%
G04 #@! TD*
G04 #@! TA.AperFunction,SMDPad,CuDef*
%ADD16R,1.200000X1.550000*%
G04 #@! TD*
G04 #@! TA.AperFunction,ComponentPad*
%ADD17O,1.250000X0.950000*%
G04 #@! TD*
G04 #@! TA.AperFunction,SMDPad,CuDef*
%ADD18R,1.500000X1.550000*%
G04 #@! TD*
G04 #@! TA.AperFunction,SMDPad,CuDef*
%ADD19RoundRect,0.250000X0.250000X0.475000X-0.250000X0.475000X-0.250000X-0.475000X0.250000X-0.475000X0*%
G04 #@! TD*
G04 #@! TA.AperFunction,SMDPad,CuDef*
%ADD20R,1.500000X0.900000*%
G04 #@! TD*
G04 #@! TA.AperFunction,SMDPad,CuDef*
%ADD21R,0.900000X1.500000*%
G04 #@! TD*
G04 #@! TA.AperFunction,SMDPad,CuDef*
%ADD22R,0.900000X0.900000*%
G04 #@! TD*
G04 #@! TA.AperFunction,SMDPad,CuDef*
%ADD23RoundRect,0.250000X0.475000X-0.250000X0.475000X0.250000X-0.475000X0.250000X-0.475000X-0.250000X0*%
G04 #@! TD*
G04 #@! TA.AperFunction,SMDPad,CuDef*
%ADD24RoundRect,0.250000X-0.250000X-0.475000X0.250000X-0.475000X0.250000X0.475000X-0.250000X0.475000X0*%
G04 #@! TD*
G04 #@! TA.AperFunction,ComponentPad*
%ADD25C,2.600000*%
G04 #@! TD*
G04 #@! TA.AperFunction,SMDPad,CuDef*
%ADD26RoundRect,0.250000X-0.650000X1.000000X-0.650000X-1.000000X0.650000X-1.000000X0.650000X1.000000X0*%
G04 #@! TD*
G04 #@! TA.AperFunction,SMDPad,CuDef*
%ADD27R,3.000000X1.600000*%
G04 #@! TD*
G04 #@! TA.AperFunction,SMDPad,CuDef*
%ADD28R,6.200000X5.800000*%
G04 #@! TD*
G04 #@! TA.AperFunction,ComponentPad*
%ADD29R,1.500000X1.500000*%
G04 #@! TD*
G04 #@! TA.AperFunction,ComponentPad*
%ADD30C,1.500000*%
G04 #@! TD*
G04 #@! TA.AperFunction,ComponentPad*
%ADD31R,1.200000X1.200000*%
G04 #@! TD*
G04 #@! TA.AperFunction,ComponentPad*
%ADD32C,1.200000*%
G04 #@! TD*
G04 #@! TA.AperFunction,SMDPad,CuDef*
%ADD33RoundRect,0.250000X-0.312500X-1.450000X0.312500X-1.450000X0.312500X1.450000X-0.312500X1.450000X0*%
G04 #@! TD*
G04 #@! TA.AperFunction,ViaPad*
%ADD34C,0.800000*%
G04 #@! TD*
G04 #@! TA.AperFunction,ViaPad*
%ADD35C,0.711200*%
G04 #@! TD*
G04 #@! TA.AperFunction,Conductor*
%ADD36C,0.400000*%
G04 #@! TD*
G04 #@! TA.AperFunction,Conductor*
%ADD37C,0.203200*%
G04 #@! TD*
G04 #@! TA.AperFunction,Conductor*
%ADD38C,0.250000*%
G04 #@! TD*
G04 APERTURE END LIST*
D10*
X154870000Y-135532500D03*
X154870000Y-133707500D03*
D11*
X187250000Y-80750000D03*
D12*
X187250000Y-85250000D03*
X193750000Y-80750000D03*
X193750000Y-85250000D03*
D13*
X168656000Y-125349000D03*
D11*
X114000000Y-116000000D03*
D12*
X114000000Y-120500000D03*
X120500000Y-116000000D03*
X120500000Y-120500000D03*
D11*
X102110000Y-116000000D03*
D12*
X102110000Y-120500000D03*
X108610000Y-116000000D03*
X108610000Y-120500000D03*
D14*
X141300000Y-62450000D03*
X140650000Y-62450000D03*
X140000000Y-62450000D03*
X139350000Y-62450000D03*
X138700000Y-62450000D03*
D15*
X143500000Y-59750000D03*
D16*
X142900000Y-59750000D03*
D17*
X142500000Y-62450000D03*
D18*
X141000000Y-59750000D03*
X139000000Y-59750000D03*
D17*
X137500000Y-62450000D03*
D16*
X137100000Y-59750000D03*
D15*
X136500000Y-59750000D03*
D19*
X150700000Y-60000000D03*
X148800000Y-60000000D03*
D20*
X148520000Y-130360000D03*
X148520000Y-129090000D03*
X148520000Y-127820000D03*
X148520000Y-126550000D03*
X148520000Y-125280000D03*
X148520000Y-124010000D03*
X148520000Y-122740000D03*
X148520000Y-121470000D03*
X148520000Y-120200000D03*
X148520000Y-118930000D03*
X148520000Y-117660000D03*
X148520000Y-116390000D03*
X148520000Y-115120000D03*
X148520000Y-113850000D03*
D21*
X146755000Y-112600000D03*
X145485000Y-112600000D03*
X144215000Y-112600000D03*
X142945000Y-112600000D03*
X141675000Y-112600000D03*
X140405000Y-112600000D03*
X139135000Y-112600000D03*
X137865000Y-112600000D03*
X136595000Y-112600000D03*
X135325000Y-112600000D03*
X134055000Y-112600000D03*
X132785000Y-112600000D03*
D20*
X131020000Y-113850000D03*
X131020000Y-115120000D03*
X131020000Y-116390000D03*
X131020000Y-117660000D03*
X131020000Y-118930000D03*
X131020000Y-120200000D03*
X131020000Y-121470000D03*
X131020000Y-122740000D03*
X131020000Y-124010000D03*
X131020000Y-125280000D03*
X131020000Y-126550000D03*
X131020000Y-127820000D03*
X131020000Y-129090000D03*
X131020000Y-130360000D03*
D22*
X142670000Y-124040000D03*
X142670000Y-122640000D03*
X142670000Y-121240000D03*
X141270000Y-124040000D03*
X141270000Y-122640000D03*
X141270000Y-121240000D03*
X139870000Y-124040000D03*
X139870000Y-122640000D03*
X139870000Y-121240000D03*
D23*
X154870000Y-129220000D03*
X154870000Y-127320000D03*
D24*
X119500000Y-66750000D03*
X121400000Y-66750000D03*
D13*
X95631000Y-116840000D03*
D11*
X85500000Y-116000000D03*
D12*
X85500000Y-120500000D03*
X92000000Y-116000000D03*
X92000000Y-120500000D03*
D25*
X103250000Y-61040000D03*
X113250000Y-63540000D03*
X103250000Y-66040000D03*
D24*
X119500000Y-61250000D03*
X121400000Y-61250000D03*
X124800000Y-64000000D03*
X126700000Y-64000000D03*
D26*
X159131000Y-62000000D03*
X159131000Y-66000000D03*
D27*
X165670000Y-61965000D03*
X165670000Y-66535000D03*
D28*
X172840000Y-64250000D03*
D29*
X102342500Y-80010000D03*
D30*
X102342500Y-82550000D03*
X102342500Y-85090000D03*
X102342500Y-87630000D03*
X102342500Y-90170000D03*
X102342500Y-92710000D03*
X102342500Y-95250000D03*
X102342500Y-97790000D03*
X177342500Y-80010000D03*
X177342500Y-82550000D03*
X177342500Y-85090000D03*
X177342500Y-87630000D03*
X177342500Y-90170000D03*
X177342500Y-92710000D03*
X177342500Y-95250000D03*
X177342500Y-97790000D03*
D31*
X85090000Y-78290000D03*
D32*
X85090000Y-80830000D03*
X85090000Y-83370000D03*
X85090000Y-85910000D03*
X85090000Y-88450000D03*
X85090000Y-90990000D03*
X85090000Y-93530000D03*
X85090000Y-96070000D03*
X85090000Y-98610000D03*
X85090000Y-101150000D03*
X92710000Y-101150000D03*
X92710000Y-98610000D03*
X92710000Y-96070000D03*
X92710000Y-93530000D03*
X92710000Y-90990000D03*
X92710000Y-88450000D03*
X92710000Y-85910000D03*
X92710000Y-83370000D03*
X92710000Y-80830000D03*
X92710000Y-78290000D03*
D19*
X89750000Y-125000000D03*
X87850000Y-125000000D03*
D11*
X167000000Y-116000000D03*
D12*
X167000000Y-120500000D03*
X173500000Y-116000000D03*
X173500000Y-120500000D03*
D33*
X147612500Y-66000000D03*
X151887500Y-66000000D03*
D11*
X187250000Y-91730000D03*
D12*
X187250000Y-96230000D03*
X193750000Y-91730000D03*
X193750000Y-96230000D03*
D34*
X163750000Y-69500000D03*
X151750000Y-131500000D03*
X119500000Y-69500000D03*
D35*
X167640000Y-132080000D03*
X127000000Y-81280000D03*
X127000000Y-60960000D03*
X157480000Y-81280000D03*
X187960000Y-71120000D03*
X121920000Y-132080000D03*
X157480000Y-71120000D03*
X147320000Y-71120000D03*
X198120000Y-91440000D03*
X198120000Y-71120000D03*
X198120000Y-81280000D03*
X157480000Y-132080000D03*
X81280000Y-71120000D03*
X116840000Y-60960000D03*
X106680000Y-71120000D03*
X198120000Y-101600000D03*
X127000000Y-71120000D03*
X177800000Y-60960000D03*
X187960000Y-132080000D03*
X81280000Y-81280000D03*
X81280000Y-101600000D03*
X198120000Y-121920000D03*
X142240000Y-132080000D03*
X198120000Y-111760000D03*
X167640000Y-101600000D03*
X81280000Y-111760000D03*
X91440000Y-60960000D03*
X96520000Y-71120000D03*
X91440000Y-132080000D03*
X187960000Y-111760000D03*
X147320000Y-101600000D03*
X101600000Y-132080000D03*
X147320000Y-91440000D03*
X111760000Y-132080000D03*
X177800000Y-121920000D03*
X81280000Y-121920000D03*
X137160000Y-81280000D03*
X187960000Y-121920000D03*
X157480000Y-121920000D03*
X177800000Y-132080000D03*
X137160000Y-91440000D03*
X116840000Y-81280000D03*
X177800000Y-101600000D03*
X81280000Y-91440000D03*
X137160000Y-71120000D03*
X187960000Y-60960000D03*
X187960000Y-101600000D03*
D36*
X97340000Y-66040000D02*
X85090000Y-78290000D01*
X151750000Y-131500000D02*
X149340000Y-129090000D01*
X119500000Y-69500000D02*
X119500000Y-61780000D01*
X119500000Y-69500000D02*
X106450000Y-82550000D01*
X165670000Y-67580000D02*
X163750000Y-69500000D01*
X165670000Y-66535000D02*
X162714000Y-66535000D01*
X187250000Y-80750000D02*
X185250000Y-82750000D01*
X165670000Y-66535000D02*
X166992000Y-66535000D01*
X119500000Y-66750000D02*
X122250000Y-64000000D01*
X178500000Y-69000000D02*
X187250000Y-77750000D01*
X177342500Y-95250000D02*
X183730000Y-95250000D01*
X162714000Y-66535000D02*
X162179000Y-66000000D01*
X151750000Y-133500000D02*
X151750000Y-131500000D01*
X154870000Y-135532500D02*
X153782500Y-135532500D01*
X187250000Y-77750000D02*
X187250000Y-80750000D01*
X106710000Y-69500000D02*
X103250000Y-66040000D01*
X103250000Y-66040000D02*
X97340000Y-66040000D01*
X183730000Y-95250000D02*
X187250000Y-91730000D01*
X165670000Y-66535000D02*
X165670000Y-67580000D01*
X185250000Y-89730000D02*
X187250000Y-91730000D01*
X162179000Y-66000000D02*
X159131000Y-66000000D01*
X185250000Y-82750000D02*
X185250000Y-89730000D01*
X149340000Y-129090000D02*
X148520000Y-129090000D01*
X106450000Y-82550000D02*
X102342500Y-82550000D01*
X153782500Y-135532500D02*
X151750000Y-133500000D01*
X166992000Y-66535000D02*
X169457000Y-69000000D01*
X169457000Y-69000000D02*
X178500000Y-69000000D01*
X119500000Y-69500000D02*
X106710000Y-69500000D01*
X122250000Y-64000000D02*
X124800000Y-64000000D01*
D37*
X138700000Y-62450000D02*
X137500000Y-62450000D01*
D38*
X152500000Y-129250000D02*
X154840000Y-129250000D01*
X168656000Y-125344000D02*
X173500000Y-120500000D01*
X148520000Y-127820000D02*
X151070000Y-127820000D01*
X151070000Y-127820000D02*
X152500000Y-129250000D01*
X154870000Y-129220000D02*
X154870000Y-133707500D01*
X154840000Y-129250000D02*
X154870000Y-129220000D01*
X168656000Y-125349000D02*
X164785000Y-129220000D01*
D36*
X168656000Y-125349000D02*
X168656000Y-125344000D01*
D38*
X154870000Y-129220000D02*
X164780000Y-129220000D01*
X95631000Y-116840000D02*
X98621000Y-113850000D01*
X89750000Y-125000000D02*
X92000000Y-122750000D01*
X98621000Y-113850000D02*
X131020000Y-113850000D01*
X95631000Y-116869000D02*
X95631000Y-116840000D01*
X92000000Y-122750000D02*
X92000000Y-120500000D01*
X92000000Y-120500000D02*
X95631000Y-116869000D01*
D36*
X143581250Y-66000000D02*
X141300000Y-63718750D01*
X147612500Y-66000000D02*
X143581250Y-66000000D01*
X141300000Y-63718750D02*
X141300000Y-62450000D01*
D38*
X140650000Y-75650000D02*
X151500000Y-86500000D01*
X151500000Y-113250000D02*
X149630000Y-115120000D01*
X140650000Y-62450000D02*
X140650000Y-75650000D01*
X148520000Y-115120000D02*
X149630000Y-115120000D01*
X151500000Y-86500000D02*
X151500000Y-113250000D01*
X150750000Y-86750000D02*
X150750000Y-112750000D01*
X140000000Y-62450000D02*
X140000000Y-76000000D01*
X140000000Y-76000000D02*
X150750000Y-86750000D01*
X148520000Y-113850000D02*
X149650000Y-113850000D01*
X150750000Y-112750000D02*
X149650000Y-113850000D01*
X132955000Y-110500000D02*
X95250000Y-110500000D01*
X134055000Y-112600000D02*
X134055000Y-111600000D01*
X134055000Y-111600000D02*
X132955000Y-110500000D01*
X88000000Y-103250000D02*
X88000000Y-93900000D01*
X95250000Y-110500000D02*
X88000000Y-103250000D01*
X88000000Y-93900000D02*
X85090000Y-90990000D01*
X87000000Y-95440000D02*
X85090000Y-93530000D01*
X132785000Y-112600000D02*
X131935000Y-111750000D01*
X87000000Y-104336753D02*
X87000000Y-95440000D01*
X131935000Y-111750000D02*
X94413247Y-111750000D01*
X94413247Y-111750000D02*
X87000000Y-104336753D01*
X94750000Y-95570000D02*
X92710000Y-93530000D01*
X98250000Y-109250000D02*
X94750000Y-105750000D01*
X132975000Y-109250000D02*
X98250000Y-109250000D01*
X94750000Y-105750000D02*
X94750000Y-95570000D01*
X135325000Y-111600000D02*
X132975000Y-109250000D01*
X135325000Y-112600000D02*
X135325000Y-111600000D01*
X136595000Y-112600000D02*
X136595000Y-111600000D01*
X132995000Y-108000000D02*
X99000000Y-108000000D01*
X96000000Y-105000000D02*
X96000000Y-94280000D01*
X96000000Y-94280000D02*
X92710000Y-90990000D01*
X99000000Y-108000000D02*
X96000000Y-105000000D01*
X136595000Y-111600000D02*
X132995000Y-108000000D01*
X137865000Y-112600000D02*
X137865000Y-111600000D01*
X97000000Y-92750000D02*
X92710000Y-88460000D01*
X97000000Y-97000000D02*
X97000000Y-92750000D01*
X129015000Y-102750000D02*
X102750000Y-102750000D01*
X137865000Y-111600000D02*
X129015000Y-102750000D01*
X102750000Y-102750000D02*
X97000000Y-97000000D01*
X92710000Y-88460000D02*
X92710000Y-88450000D01*
X98250000Y-91450000D02*
X92710000Y-85910000D01*
X103500000Y-101500000D02*
X98250000Y-96250000D01*
X98250000Y-96250000D02*
X98250000Y-91450000D01*
X139135000Y-111600000D02*
X129035000Y-101500000D01*
X139135000Y-112600000D02*
X139135000Y-111600000D01*
X129035000Y-101500000D02*
X103500000Y-101500000D01*
X120500000Y-120500000D02*
X125880000Y-115120000D01*
X125880000Y-115120000D02*
X131020000Y-115120000D01*
X127610000Y-116390000D02*
X131020000Y-116390000D01*
X121500000Y-122500000D02*
X127610000Y-116390000D01*
X108610000Y-120500000D02*
X110610000Y-122500000D01*
X110610000Y-122500000D02*
X121500000Y-122500000D01*
X163750000Y-111000000D02*
X149470000Y-125280000D01*
X195750000Y-87250000D02*
X195750000Y-98500000D01*
X195750000Y-98500000D02*
X183250000Y-111000000D01*
X193750000Y-85250000D02*
X195750000Y-87250000D01*
X183250000Y-111000000D02*
X163750000Y-111000000D01*
X149470000Y-125280000D02*
X148520000Y-125280000D01*
X193750000Y-96230000D02*
X193750000Y-99000000D01*
X149490000Y-124010000D02*
X148520000Y-124010000D01*
X193750000Y-99000000D02*
X182750000Y-110000000D01*
X163500000Y-110000000D02*
X149490000Y-124010000D01*
X182750000Y-110000000D02*
X163500000Y-110000000D01*
X140405000Y-112600000D02*
X140405000Y-111655000D01*
X140405000Y-111655000D02*
X126540000Y-97790000D01*
X126540000Y-97790000D02*
X102342500Y-97790000D01*
X149520000Y-116390000D02*
X152250000Y-113660000D01*
X169240000Y-80010000D02*
X177342500Y-80010000D01*
X148520000Y-116390000D02*
X149520000Y-116390000D01*
X152250000Y-97000000D02*
X169240000Y-80010000D01*
X152250000Y-113660000D02*
X152250000Y-97000000D01*
X153000000Y-114180000D02*
X153000000Y-97250000D01*
X148520000Y-117660000D02*
X149520000Y-117660000D01*
X149520000Y-117660000D02*
X153000000Y-114180000D01*
X167700000Y-82550000D02*
X177342500Y-82550000D01*
X153000000Y-97250000D02*
X167700000Y-82550000D01*
X149520000Y-118930000D02*
X153750000Y-114700000D01*
X153750000Y-114700000D02*
X153750000Y-97625000D01*
X148520000Y-118930000D02*
X149520000Y-118930000D01*
X153750000Y-97625000D02*
X166285000Y-85090000D01*
X166285000Y-85090000D02*
X177342500Y-85090000D01*
X149520000Y-120200000D02*
X154500000Y-115220000D01*
X148520000Y-120200000D02*
X149520000Y-120200000D01*
X154500000Y-98000000D02*
X164870000Y-87630000D01*
X154500000Y-115220000D02*
X154500000Y-98000000D01*
X164870000Y-87630000D02*
X177342500Y-87630000D01*
X125250000Y-95250000D02*
X102342500Y-95250000D01*
X141675000Y-111675000D02*
X141675000Y-112600000D01*
X141675000Y-111675000D02*
X125250000Y-95250000D01*
X149520000Y-121470000D02*
X155250000Y-115740000D01*
X155250000Y-98500000D02*
X163580000Y-90170000D01*
X155250000Y-115740000D02*
X155250000Y-98500000D01*
X148520000Y-121470000D02*
X149520000Y-121470000D01*
X163580000Y-90170000D02*
X177342500Y-90170000D01*
X148520000Y-122740000D02*
X149520000Y-122740000D01*
X162290000Y-92710000D02*
X177342500Y-92710000D01*
X149520000Y-122740000D02*
X156000000Y-116260000D01*
X156000000Y-116260000D02*
X156000000Y-99000000D01*
X156000000Y-99000000D02*
X162290000Y-92710000D01*
X144215000Y-111600000D02*
X120245000Y-87630000D01*
X144215000Y-112600000D02*
X144215000Y-111600000D01*
X120245000Y-87630000D02*
X102342500Y-87630000D01*
X142945000Y-111695000D02*
X121420000Y-90170000D01*
X142945000Y-112600000D02*
X142945000Y-111695000D01*
X121420000Y-90170000D02*
X102342500Y-90170000D01*
D36*
X151887500Y-61187500D02*
X150700000Y-60000000D01*
X151887500Y-66000000D02*
X153075000Y-66000000D01*
X165670000Y-61965000D02*
X159166000Y-61965000D01*
X153075000Y-66000000D02*
X157075000Y-62000000D01*
X159166000Y-61965000D02*
X159131000Y-62000000D01*
X151887500Y-66000000D02*
X151887500Y-61187500D01*
X157075000Y-62000000D02*
X159131000Y-62000000D01*
G04 #@! TA.AperFunction,Conductor*
G36*
X196852443Y-57404596D02*
G01*
X197323395Y-57423099D01*
X197333069Y-57423860D01*
X197798713Y-57478974D01*
X197808318Y-57480495D01*
X198268190Y-57571969D01*
X198277650Y-57574240D01*
X198728922Y-57701512D01*
X198738175Y-57704518D01*
X199178076Y-57866805D01*
X199187065Y-57870528D01*
X199612884Y-58066835D01*
X199621548Y-58071250D01*
X200030643Y-58300355D01*
X200038945Y-58305442D01*
X200292707Y-58475000D01*
X200337397Y-58504861D01*
X200428794Y-58565930D01*
X200436671Y-58571653D01*
X200804880Y-58861925D01*
X200812284Y-58868248D01*
X201156591Y-59186524D01*
X201163475Y-59193408D01*
X201481751Y-59537715D01*
X201488074Y-59545119D01*
X201778346Y-59913328D01*
X201784069Y-59921205D01*
X202044557Y-60311054D01*
X202049644Y-60319356D01*
X202278749Y-60728451D01*
X202283170Y-60737126D01*
X202479469Y-61162931D01*
X202483195Y-61171927D01*
X202645480Y-61611821D01*
X202648488Y-61621080D01*
X202775758Y-62072345D01*
X202778031Y-62081813D01*
X202869503Y-62541676D01*
X202871026Y-62551292D01*
X202926137Y-63016914D01*
X202926901Y-63026621D01*
X202945404Y-63497557D01*
X202945500Y-63502425D01*
X202945500Y-133347575D01*
X202945404Y-133352443D01*
X202926901Y-133823378D01*
X202926137Y-133833085D01*
X202871026Y-134298707D01*
X202869503Y-134308323D01*
X202778031Y-134768186D01*
X202775758Y-134777654D01*
X202648488Y-135228919D01*
X202645480Y-135238178D01*
X202483195Y-135678072D01*
X202479469Y-135687068D01*
X202283170Y-136112873D01*
X202278749Y-136121548D01*
X202049644Y-136530643D01*
X202044557Y-136538945D01*
X201784069Y-136928794D01*
X201778346Y-136936671D01*
X201488074Y-137304880D01*
X201481751Y-137312284D01*
X201163475Y-137656591D01*
X201156591Y-137663475D01*
X200812284Y-137981751D01*
X200804880Y-137988074D01*
X200436671Y-138278346D01*
X200428794Y-138284069D01*
X200038945Y-138544557D01*
X200030643Y-138549644D01*
X199621548Y-138778749D01*
X199612873Y-138783170D01*
X199187068Y-138979469D01*
X199178072Y-138983195D01*
X198738178Y-139145480D01*
X198728919Y-139148488D01*
X198277654Y-139275758D01*
X198268186Y-139278031D01*
X197808323Y-139369503D01*
X197798707Y-139371026D01*
X197333085Y-139426137D01*
X197323378Y-139426901D01*
X196852443Y-139445404D01*
X196847575Y-139445500D01*
X82552425Y-139445500D01*
X82547557Y-139445404D01*
X82076621Y-139426901D01*
X82066914Y-139426137D01*
X81601292Y-139371026D01*
X81591676Y-139369503D01*
X81131813Y-139278031D01*
X81122345Y-139275758D01*
X80671080Y-139148488D01*
X80661821Y-139145480D01*
X80221927Y-138983195D01*
X80212931Y-138979469D01*
X79787126Y-138783170D01*
X79778451Y-138778749D01*
X79369356Y-138549644D01*
X79361054Y-138544557D01*
X78971205Y-138284069D01*
X78963328Y-138278346D01*
X78595119Y-137988074D01*
X78587715Y-137981751D01*
X78243408Y-137663475D01*
X78236524Y-137656591D01*
X77918248Y-137312284D01*
X77911925Y-137304880D01*
X77621653Y-136936671D01*
X77615930Y-136928794D01*
X77355442Y-136538945D01*
X77350355Y-136530643D01*
X77121250Y-136121548D01*
X77116835Y-136112884D01*
X76920528Y-135687065D01*
X76916804Y-135678072D01*
X76862156Y-135529943D01*
X76754518Y-135238175D01*
X76751511Y-135228919D01*
X76721002Y-135120744D01*
X76624240Y-134777650D01*
X76621968Y-134768186D01*
X76603887Y-134677288D01*
X76530495Y-134308318D01*
X76528973Y-134298707D01*
X76524723Y-134262800D01*
X76473860Y-133833069D01*
X76473099Y-133823395D01*
X76454596Y-133352443D01*
X76454548Y-133350000D01*
X80190448Y-133350000D01*
X80210634Y-133657989D01*
X80270847Y-133960697D01*
X80370056Y-134252959D01*
X80506567Y-134529775D01*
X80616290Y-134693987D01*
X80678042Y-134786404D01*
X80881545Y-135018455D01*
X81111353Y-135219991D01*
X81113596Y-135221958D01*
X81370224Y-135393432D01*
X81647040Y-135529943D01*
X81939302Y-135629152D01*
X82242010Y-135689365D01*
X82242012Y-135689365D01*
X82242017Y-135689366D01*
X82550000Y-135709552D01*
X82857983Y-135689366D01*
X82857987Y-135689365D01*
X82857989Y-135689365D01*
X83160697Y-135629152D01*
X83452959Y-135529943D01*
X83460446Y-135526250D01*
X83729776Y-135393432D01*
X83986404Y-135221958D01*
X84218455Y-135018455D01*
X84421958Y-134786404D01*
X84593432Y-134529776D01*
X84729942Y-134252961D01*
X84829152Y-133960697D01*
X84889366Y-133657983D01*
X84909552Y-133350000D01*
X84889366Y-133042017D01*
X84876302Y-132976342D01*
X84829152Y-132739302D01*
X84729943Y-132447040D01*
X84593432Y-132170224D01*
X84421958Y-131913596D01*
X84382220Y-131868284D01*
X84218455Y-131681545D01*
X83986404Y-131478042D01*
X83737522Y-131311744D01*
X83729775Y-131306567D01*
X83452959Y-131170056D01*
X83160697Y-131070847D01*
X82857989Y-131010634D01*
X82550000Y-130990448D01*
X82242010Y-131010634D01*
X81939302Y-131070847D01*
X81647040Y-131170056D01*
X81370224Y-131306567D01*
X81113596Y-131478041D01*
X80881545Y-131681545D01*
X80678041Y-131913596D01*
X80506567Y-132170224D01*
X80370056Y-132447040D01*
X80270847Y-132739302D01*
X80210634Y-133042010D01*
X80190448Y-133350000D01*
X76454548Y-133350000D01*
X76454500Y-133347575D01*
X76454500Y-130610000D01*
X129770000Y-130610000D01*
X129770000Y-130857824D01*
X129776402Y-130917375D01*
X129826647Y-131052089D01*
X129912811Y-131167188D01*
X130027910Y-131253352D01*
X130162624Y-131303597D01*
X130222176Y-131310000D01*
X130770000Y-131310000D01*
X130770000Y-130610000D01*
X131270000Y-130610000D01*
X131270000Y-131310000D01*
X131817824Y-131310000D01*
X131877375Y-131303597D01*
X132012089Y-131253352D01*
X132127188Y-131167188D01*
X132213352Y-131052089D01*
X132263597Y-130917375D01*
X132270000Y-130857824D01*
X132270000Y-130610000D01*
X147270000Y-130610000D01*
X147270000Y-130857824D01*
X147276402Y-130917375D01*
X147326647Y-131052089D01*
X147412811Y-131167188D01*
X147527910Y-131253352D01*
X147662624Y-131303597D01*
X147722176Y-131310000D01*
X148270000Y-131310000D01*
X148270000Y-130610000D01*
X147270000Y-130610000D01*
X132270000Y-130610000D01*
X131270000Y-130610000D01*
X130770000Y-130610000D01*
X129770000Y-130610000D01*
X76454500Y-130610000D01*
X76454500Y-125250000D01*
X86850001Y-125250000D01*
X86850001Y-125524979D01*
X86860493Y-125627695D01*
X86915642Y-125794122D01*
X87007683Y-125943345D01*
X87131654Y-126067316D01*
X87280877Y-126159357D01*
X87447303Y-126214506D01*
X87550021Y-126225000D01*
X87600000Y-126225000D01*
X87600000Y-125250000D01*
X86850001Y-125250000D01*
X76454500Y-125250000D01*
X76454500Y-124750000D01*
X86850000Y-124750000D01*
X87600000Y-124750000D01*
X87600000Y-123775001D01*
X87550021Y-123775001D01*
X87447304Y-123785493D01*
X87280877Y-123840642D01*
X87131654Y-123932683D01*
X87007683Y-124056654D01*
X86915642Y-124205877D01*
X86860493Y-124372303D01*
X86850000Y-124475021D01*
X86850000Y-124750000D01*
X76454500Y-124750000D01*
X76454500Y-120500000D01*
X84240707Y-120500000D01*
X84259838Y-120718671D01*
X84316653Y-120930704D01*
X84344303Y-120990000D01*
X84409421Y-121129646D01*
X84535326Y-121309457D01*
X84690543Y-121464674D01*
X84870354Y-121590579D01*
X85069297Y-121683347D01*
X85281326Y-121740161D01*
X85500000Y-121759292D01*
X85718674Y-121740161D01*
X85930703Y-121683347D01*
X86129646Y-121590579D01*
X86309457Y-121464674D01*
X86464674Y-121309457D01*
X86590579Y-121129646D01*
X86683347Y-120930703D01*
X86740161Y-120718674D01*
X86759292Y-120500000D01*
X86740161Y-120281326D01*
X86683347Y-120069297D01*
X86590579Y-119870354D01*
X86464674Y-119690543D01*
X86309457Y-119535326D01*
X86129646Y-119409421D01*
X86037921Y-119366649D01*
X85930704Y-119316653D01*
X85718671Y-119259838D01*
X85500000Y-119240707D01*
X85281328Y-119259838D01*
X85069295Y-119316653D01*
X84870356Y-119409420D01*
X84870354Y-119409421D01*
X84844002Y-119427873D01*
X84690539Y-119535329D01*
X84535329Y-119690539D01*
X84409420Y-119870356D01*
X84316653Y-120069295D01*
X84259838Y-120281328D01*
X84240707Y-120500000D01*
X76454500Y-120500000D01*
X76454500Y-116250000D01*
X84246000Y-116250000D01*
X84246000Y-116801824D01*
X84252402Y-116861375D01*
X84302647Y-116996089D01*
X84388811Y-117111188D01*
X84503910Y-117197352D01*
X84638624Y-117247597D01*
X84698176Y-117254000D01*
X85250000Y-117254000D01*
X85250000Y-116250000D01*
X85750000Y-116250000D01*
X85750000Y-117254000D01*
X86301824Y-117254000D01*
X86361375Y-117247597D01*
X86496089Y-117197352D01*
X86611188Y-117111188D01*
X86697352Y-116996089D01*
X86747597Y-116861375D01*
X86754000Y-116801824D01*
X86754000Y-116250000D01*
X85750000Y-116250000D01*
X85250000Y-116250000D01*
X84246000Y-116250000D01*
X76454500Y-116250000D01*
X76454500Y-116000000D01*
X90740707Y-116000000D01*
X90759838Y-116218671D01*
X90816653Y-116430704D01*
X90838707Y-116477998D01*
X90909421Y-116629646D01*
X91035326Y-116809457D01*
X91190543Y-116964674D01*
X91370354Y-117090579D01*
X91569297Y-117183347D01*
X91781326Y-117240161D01*
X92000000Y-117259292D01*
X92218674Y-117240161D01*
X92430703Y-117183347D01*
X92629646Y-117090579D01*
X92809457Y-116964674D01*
X92964674Y-116809457D01*
X93090579Y-116629646D01*
X93183347Y-116430703D01*
X93240161Y-116218674D01*
X93259292Y-116000000D01*
X93240161Y-115781326D01*
X93183347Y-115569297D01*
X93090579Y-115370354D01*
X92964674Y-115190543D01*
X92809457Y-115035326D01*
X92629646Y-114909421D01*
X92537921Y-114866649D01*
X92430704Y-114816653D01*
X92218671Y-114759838D01*
X92000000Y-114740707D01*
X91781328Y-114759838D01*
X91569295Y-114816653D01*
X91370356Y-114909420D01*
X91370354Y-114909421D01*
X91235754Y-115003669D01*
X91190539Y-115035329D01*
X91035329Y-115190539D01*
X91035326Y-115190542D01*
X91035326Y-115190543D01*
X91029982Y-115198176D01*
X90909420Y-115370356D01*
X90816653Y-115569295D01*
X90759838Y-115781328D01*
X90740707Y-116000000D01*
X76454500Y-116000000D01*
X76454500Y-115750000D01*
X84246000Y-115750000D01*
X85250000Y-115750000D01*
X85250000Y-114746000D01*
X85750000Y-114746000D01*
X85750000Y-115750000D01*
X86754000Y-115750000D01*
X86754000Y-115198176D01*
X86747597Y-115138624D01*
X86697352Y-115003910D01*
X86611188Y-114888811D01*
X86496089Y-114802647D01*
X86361375Y-114752402D01*
X86301824Y-114746000D01*
X85750000Y-114746000D01*
X85250000Y-114746000D01*
X84698176Y-114746000D01*
X84638624Y-114752402D01*
X84503910Y-114802647D01*
X84388811Y-114888811D01*
X84302647Y-115003910D01*
X84252402Y-115138624D01*
X84246000Y-115198176D01*
X84246000Y-115750000D01*
X76454500Y-115750000D01*
X76454500Y-101149999D01*
X83984785Y-101149999D01*
X84003602Y-101353083D01*
X84059418Y-101549251D01*
X84150324Y-101731818D01*
X84273236Y-101894580D01*
X84423958Y-102031981D01*
X84597361Y-102139347D01*
X84597363Y-102139348D01*
X84787544Y-102213024D01*
X84988024Y-102250500D01*
X85191974Y-102250500D01*
X85191976Y-102250500D01*
X85392456Y-102213024D01*
X85582637Y-102139348D01*
X85756041Y-102031981D01*
X85846819Y-101949226D01*
X85906763Y-101894580D01*
X86029675Y-101731818D01*
X86075313Y-101640161D01*
X86120582Y-101549250D01*
X86131234Y-101511814D01*
X86160161Y-101460809D01*
X86209288Y-101428798D01*
X86267632Y-101422938D01*
X86322144Y-101444541D01*
X86360636Y-101488775D01*
X86374500Y-101545749D01*
X86374500Y-104254009D01*
X86372235Y-104274515D01*
X86374439Y-104344626D01*
X86374500Y-104348521D01*
X86374500Y-104376102D01*
X86375003Y-104380087D01*
X86375918Y-104391720D01*
X86377290Y-104435379D01*
X86382879Y-104454613D01*
X86386825Y-104473669D01*
X86389335Y-104493545D01*
X86405414Y-104534157D01*
X86409197Y-104545204D01*
X86421382Y-104587144D01*
X86431580Y-104604388D01*
X86440136Y-104621853D01*
X86447514Y-104640485D01*
X86447515Y-104640486D01*
X86473180Y-104675812D01*
X86479593Y-104685575D01*
X86501826Y-104723169D01*
X86501829Y-104723172D01*
X86501830Y-104723173D01*
X86515995Y-104737338D01*
X86528627Y-104752128D01*
X86540406Y-104768340D01*
X86574058Y-104796179D01*
X86582699Y-104804042D01*
X93912443Y-112133787D01*
X93925343Y-112149888D01*
X93976470Y-112197900D01*
X93979266Y-112200610D01*
X93998776Y-112220120D01*
X94001958Y-112222588D01*
X94010818Y-112230155D01*
X94042665Y-112260062D01*
X94060217Y-112269711D01*
X94076485Y-112280397D01*
X94092311Y-112292673D01*
X94132393Y-112310017D01*
X94142880Y-112315155D01*
X94181154Y-112336197D01*
X94189657Y-112338379D01*
X94200555Y-112341178D01*
X94218960Y-112347478D01*
X94237351Y-112355437D01*
X94280497Y-112362270D01*
X94291915Y-112364635D01*
X94334228Y-112375500D01*
X94354263Y-112375500D01*
X94373662Y-112377027D01*
X94393443Y-112380160D01*
X94436921Y-112376050D01*
X94448591Y-112375500D01*
X131624548Y-112375500D01*
X131672001Y-112384939D01*
X131712229Y-112411819D01*
X131798181Y-112497771D01*
X131825061Y-112537999D01*
X131834500Y-112585452D01*
X131834500Y-112775500D01*
X131817887Y-112837500D01*
X131772500Y-112882887D01*
X131710500Y-112899500D01*
X130222130Y-112899500D01*
X130162515Y-112905909D01*
X130027669Y-112956204D01*
X129912453Y-113042454D01*
X129815519Y-113171942D01*
X129814326Y-113171049D01*
X129804926Y-113186068D01*
X129763996Y-113214488D01*
X129715182Y-113224500D01*
X98703744Y-113224500D01*
X98683236Y-113222235D01*
X98613113Y-113224439D01*
X98609219Y-113224500D01*
X98581650Y-113224500D01*
X98577671Y-113225002D01*
X98566041Y-113225917D01*
X98522372Y-113227289D01*
X98503128Y-113232880D01*
X98484084Y-113236824D01*
X98464208Y-113239335D01*
X98423600Y-113255413D01*
X98412554Y-113259194D01*
X98370610Y-113271382D01*
X98370607Y-113271383D01*
X98353365Y-113281579D01*
X98335904Y-113290133D01*
X98317267Y-113297512D01*
X98281931Y-113323185D01*
X98272174Y-113329595D01*
X98234580Y-113351829D01*
X98220413Y-113365996D01*
X98205624Y-113378626D01*
X98189413Y-113390404D01*
X98161572Y-113424058D01*
X98153711Y-113432697D01*
X96033227Y-115553181D01*
X95992999Y-115580061D01*
X95945546Y-115589500D01*
X94833130Y-115589500D01*
X94773515Y-115595909D01*
X94638669Y-115646204D01*
X94523454Y-115732454D01*
X94437204Y-115847668D01*
X94386909Y-115982516D01*
X94380500Y-116042131D01*
X94380500Y-117183546D01*
X94371061Y-117230999D01*
X94344181Y-117271227D01*
X92377262Y-119238145D01*
X92321675Y-119270239D01*
X92257488Y-119270239D01*
X92218674Y-119259839D01*
X92218673Y-119259838D01*
X92218670Y-119259838D01*
X91999999Y-119240707D01*
X91781328Y-119259838D01*
X91569295Y-119316653D01*
X91370356Y-119409420D01*
X91370354Y-119409421D01*
X91344002Y-119427873D01*
X91190539Y-119535329D01*
X91035329Y-119690539D01*
X90909420Y-119870356D01*
X90816653Y-120069295D01*
X90759838Y-120281328D01*
X90740707Y-120500000D01*
X90759838Y-120718671D01*
X90816653Y-120930704D01*
X90844303Y-120990000D01*
X90909421Y-121129646D01*
X91035326Y-121309457D01*
X91035328Y-121309459D01*
X91035329Y-121309460D01*
X91190543Y-121464674D01*
X91321624Y-121556459D01*
X91360489Y-121600776D01*
X91374500Y-121658033D01*
X91374500Y-122439547D01*
X91365061Y-122487000D01*
X91338181Y-122527228D01*
X90127227Y-123738181D01*
X90086999Y-123765061D01*
X90039546Y-123774500D01*
X89449991Y-123774500D01*
X89347203Y-123785000D01*
X89180665Y-123840186D01*
X89031342Y-123932288D01*
X88907286Y-124056344D01*
X88905242Y-124059659D01*
X88860135Y-124102837D01*
X88799704Y-124118558D01*
X88739274Y-124102835D01*
X88694168Y-124059656D01*
X88692316Y-124056654D01*
X88568345Y-123932683D01*
X88419122Y-123840642D01*
X88252696Y-123785493D01*
X88149979Y-123775000D01*
X88100000Y-123775000D01*
X88100000Y-126224999D01*
X88149979Y-126224999D01*
X88252695Y-126214506D01*
X88419122Y-126159357D01*
X88568345Y-126067316D01*
X88692313Y-125943348D01*
X88694164Y-125940348D01*
X88739271Y-125897164D01*
X88799704Y-125881440D01*
X88860138Y-125897163D01*
X88905246Y-125940345D01*
X88907290Y-125943659D01*
X89031342Y-126067711D01*
X89031344Y-126067712D01*
X89180666Y-126159814D01*
X89292017Y-126196712D01*
X89347202Y-126214999D01*
X89356729Y-126215972D01*
X89449991Y-126225500D01*
X90050008Y-126225499D01*
X90152797Y-126214999D01*
X90319334Y-126159814D01*
X90468656Y-126067712D01*
X90592712Y-125943656D01*
X90684814Y-125794334D01*
X90739999Y-125627797D01*
X90750500Y-125525009D01*
X90750499Y-124935450D01*
X90759938Y-124887998D01*
X90786815Y-124847773D01*
X92383786Y-123250802D01*
X92399887Y-123237904D01*
X92401874Y-123235787D01*
X92401877Y-123235786D01*
X92447932Y-123186741D01*
X92450613Y-123183976D01*
X92470120Y-123164470D01*
X92472581Y-123161295D01*
X92480152Y-123152431D01*
X92510062Y-123120582D01*
X92519713Y-123103026D01*
X92530393Y-123086767D01*
X92542674Y-123070936D01*
X92560018Y-123030851D01*
X92565160Y-123020356D01*
X92565515Y-123019711D01*
X92586197Y-122982092D01*
X92591178Y-122962688D01*
X92597480Y-122944283D01*
X92605438Y-122925895D01*
X92612270Y-122882748D01*
X92614639Y-122871316D01*
X92625500Y-122829020D01*
X92625500Y-122808984D01*
X92627027Y-122789585D01*
X92630160Y-122769804D01*
X92626050Y-122726325D01*
X92625500Y-122714656D01*
X92625500Y-121658033D01*
X92639511Y-121600776D01*
X92678376Y-121556459D01*
X92758712Y-121500205D01*
X92809457Y-121464674D01*
X92964674Y-121309457D01*
X93090579Y-121129646D01*
X93183347Y-120930703D01*
X93240161Y-120718674D01*
X93259292Y-120500000D01*
X100850707Y-120500000D01*
X100869838Y-120718671D01*
X100926653Y-120930704D01*
X100954303Y-120990000D01*
X101019421Y-121129646D01*
X101145326Y-121309457D01*
X101300543Y-121464674D01*
X101480354Y-121590579D01*
X101679297Y-121683347D01*
X101891326Y-121740161D01*
X102110000Y-121759292D01*
X102328674Y-121740161D01*
X102540703Y-121683347D01*
X102739646Y-121590579D01*
X102919457Y-121464674D01*
X103074674Y-121309457D01*
X103200579Y-121129646D01*
X103293347Y-120930703D01*
X103350161Y-120718674D01*
X103369292Y-120500000D01*
X103350161Y-120281326D01*
X103293347Y-120069297D01*
X103200579Y-119870354D01*
X103074674Y-119690543D01*
X102919457Y-119535326D01*
X102739646Y-119409421D01*
X102647921Y-119366649D01*
X102540704Y-119316653D01*
X102328671Y-119259838D01*
X102110000Y-119240707D01*
X101891328Y-119259838D01*
X101679295Y-119316653D01*
X101480356Y-119409420D01*
X101480354Y-119409421D01*
X101454002Y-119427873D01*
X101300539Y-119535329D01*
X101145329Y-119690539D01*
X101019420Y-119870356D01*
X100926653Y-120069295D01*
X100869838Y-120281328D01*
X100850707Y-120500000D01*
X93259292Y-120500000D01*
X93240161Y-120281326D01*
X93229759Y-120242510D01*
X93229759Y-120178324D01*
X93261851Y-120122737D01*
X95257771Y-118126818D01*
X95298000Y-118099938D01*
X95345453Y-118090499D01*
X96428870Y-118090499D01*
X96428872Y-118090499D01*
X96488483Y-118084091D01*
X96623331Y-118033796D01*
X96738546Y-117947546D01*
X96824796Y-117832331D01*
X96875091Y-117697483D01*
X96881500Y-117637873D01*
X96881499Y-116801869D01*
X100855500Y-116801869D01*
X100861897Y-116861375D01*
X100861909Y-116861483D01*
X100912204Y-116996331D01*
X100998454Y-117111546D01*
X101113669Y-117197796D01*
X101248517Y-117248091D01*
X101308127Y-117254500D01*
X102911872Y-117254499D01*
X102971483Y-117248091D01*
X103106331Y-117197796D01*
X103221546Y-117111546D01*
X103307796Y-116996331D01*
X103358091Y-116861483D01*
X103364500Y-116801873D01*
X103364499Y-116000000D01*
X107350707Y-116000000D01*
X107369838Y-116218671D01*
X107426653Y-116430704D01*
X107448707Y-116477998D01*
X107519421Y-116629646D01*
X107645326Y-116809457D01*
X107800543Y-116964674D01*
X107980354Y-117090579D01*
X108179297Y-117183347D01*
X108391326Y-117240161D01*
X108610000Y-117259292D01*
X108828674Y-117240161D01*
X109040703Y-117183347D01*
X109239646Y-117090579D01*
X109419457Y-116964674D01*
X109574674Y-116809457D01*
X109579987Y-116801869D01*
X112745500Y-116801869D01*
X112751897Y-116861375D01*
X112751909Y-116861483D01*
X112802204Y-116996331D01*
X112888454Y-117111546D01*
X113003669Y-117197796D01*
X113138517Y-117248091D01*
X113198127Y-117254500D01*
X114801872Y-117254499D01*
X114861483Y-117248091D01*
X114996331Y-117197796D01*
X115111546Y-117111546D01*
X115197796Y-116996331D01*
X115248091Y-116861483D01*
X115254500Y-116801873D01*
X115254499Y-116000000D01*
X119240707Y-116000000D01*
X119259838Y-116218671D01*
X119316653Y-116430704D01*
X119338707Y-116477998D01*
X119409421Y-116629646D01*
X119535326Y-116809457D01*
X119690543Y-116964674D01*
X119870354Y-117090579D01*
X120069297Y-117183347D01*
X120281326Y-117240161D01*
X120500000Y-117259292D01*
X120718674Y-117240161D01*
X120930703Y-117183347D01*
X121129646Y-117090579D01*
X121309457Y-116964674D01*
X121464674Y-116809457D01*
X121590579Y-116629646D01*
X121683347Y-116430703D01*
X121740161Y-116218674D01*
X121759292Y-116000000D01*
X121740161Y-115781326D01*
X121683347Y-115569297D01*
X121590579Y-115370354D01*
X121464674Y-115190543D01*
X121309457Y-115035326D01*
X121129646Y-114909421D01*
X121037921Y-114866649D01*
X120930704Y-114816653D01*
X120718671Y-114759838D01*
X120500000Y-114740707D01*
X120281328Y-114759838D01*
X120069295Y-114816653D01*
X119870356Y-114909420D01*
X119870354Y-114909421D01*
X119735754Y-115003669D01*
X119690539Y-115035329D01*
X119535329Y-115190539D01*
X119535326Y-115190542D01*
X119535326Y-115190543D01*
X119529982Y-115198176D01*
X119409420Y-115370356D01*
X119316653Y-115569295D01*
X119259838Y-115781328D01*
X119240707Y-116000000D01*
X115254499Y-116000000D01*
X115254499Y-115198128D01*
X115248091Y-115138517D01*
X115197796Y-115003669D01*
X115111546Y-114888454D01*
X114996331Y-114802204D01*
X114861483Y-114751909D01*
X114801873Y-114745500D01*
X114801869Y-114745500D01*
X113198130Y-114745500D01*
X113138515Y-114751909D01*
X113003669Y-114802204D01*
X112888454Y-114888454D01*
X112802204Y-115003668D01*
X112751909Y-115138515D01*
X112751909Y-115138517D01*
X112746316Y-115190543D01*
X112745500Y-115198130D01*
X112745500Y-116801869D01*
X109579987Y-116801869D01*
X109700579Y-116629646D01*
X109793347Y-116430703D01*
X109850161Y-116218674D01*
X109869292Y-116000000D01*
X109850161Y-115781326D01*
X109793347Y-115569297D01*
X109700579Y-115370354D01*
X109574674Y-115190543D01*
X109419457Y-115035326D01*
X109239646Y-114909421D01*
X109147921Y-114866649D01*
X109040704Y-114816653D01*
X108828671Y-114759838D01*
X108610000Y-114740707D01*
X108391328Y-114759838D01*
X108179295Y-114816653D01*
X107980356Y-114909420D01*
X107980354Y-114909421D01*
X107845754Y-115003669D01*
X107800539Y-115035329D01*
X107645329Y-115190539D01*
X107645326Y-115190542D01*
X107645326Y-115190543D01*
X107639982Y-115198176D01*
X107519420Y-115370356D01*
X107426653Y-115569295D01*
X107369838Y-115781328D01*
X107350707Y-116000000D01*
X103364499Y-116000000D01*
X103364499Y-115198128D01*
X103358091Y-115138517D01*
X103307796Y-115003669D01*
X103221546Y-114888454D01*
X103106331Y-114802204D01*
X102971483Y-114751909D01*
X102911873Y-114745500D01*
X102911869Y-114745500D01*
X101308130Y-114745500D01*
X101248515Y-114751909D01*
X101113669Y-114802204D01*
X100998454Y-114888454D01*
X100912204Y-115003668D01*
X100861909Y-115138515D01*
X100861909Y-115138517D01*
X100856316Y-115190543D01*
X100855500Y-115198130D01*
X100855500Y-116801869D01*
X96881499Y-116801869D01*
X96881499Y-116525450D01*
X96890938Y-116477998D01*
X96917815Y-116437773D01*
X98843770Y-114511819D01*
X98883999Y-114484939D01*
X98931452Y-114475500D01*
X125337867Y-114475500D01*
X125404311Y-114494804D01*
X125450067Y-114546706D01*
X125460889Y-114615045D01*
X125433407Y-114678544D01*
X125420570Y-114694060D01*
X125412711Y-114702697D01*
X120877262Y-119238145D01*
X120821675Y-119270239D01*
X120757488Y-119270239D01*
X120718674Y-119259839D01*
X120718673Y-119259838D01*
X120718670Y-119259838D01*
X120499999Y-119240707D01*
X120281328Y-119259838D01*
X120069295Y-119316653D01*
X119870356Y-119409420D01*
X119870354Y-119409421D01*
X119844002Y-119427873D01*
X119690539Y-119535329D01*
X119535329Y-119690539D01*
X119409420Y-119870356D01*
X119316653Y-120069295D01*
X119259838Y-120281328D01*
X119240707Y-120500000D01*
X119259838Y-120718671D01*
X119316653Y-120930704D01*
X119344303Y-120990000D01*
X119409421Y-121129646D01*
X119535326Y-121309457D01*
X119690543Y-121464674D01*
X119870354Y-121590579D01*
X119954515Y-121629823D01*
X119972302Y-121638118D01*
X120022698Y-121681160D01*
X120043727Y-121744010D01*
X120029382Y-121808715D01*
X119983762Y-121856789D01*
X119919897Y-121874500D01*
X114580103Y-121874500D01*
X114516238Y-121856789D01*
X114470618Y-121808715D01*
X114456273Y-121744010D01*
X114477302Y-121681160D01*
X114527698Y-121638118D01*
X114540288Y-121632246D01*
X114629646Y-121590579D01*
X114809457Y-121464674D01*
X114964674Y-121309457D01*
X115090579Y-121129646D01*
X115183347Y-120930703D01*
X115240161Y-120718674D01*
X115259292Y-120500000D01*
X115240161Y-120281326D01*
X115183347Y-120069297D01*
X115090579Y-119870354D01*
X114964674Y-119690543D01*
X114809457Y-119535326D01*
X114629646Y-119409421D01*
X114537921Y-119366649D01*
X114430704Y-119316653D01*
X114218671Y-119259838D01*
X114000000Y-119240707D01*
X113781328Y-119259838D01*
X113569295Y-119316653D01*
X113370356Y-119409420D01*
X113370354Y-119409421D01*
X113344002Y-119427873D01*
X113190539Y-119535329D01*
X113035329Y-119690539D01*
X112909420Y-119870356D01*
X112816653Y-120069295D01*
X112759838Y-120281328D01*
X112740707Y-120500000D01*
X112759838Y-120718671D01*
X112816653Y-120930704D01*
X112844303Y-120990000D01*
X112909421Y-121129646D01*
X113035326Y-121309457D01*
X113190543Y-121464674D01*
X113370354Y-121590579D01*
X113454515Y-121629823D01*
X113472302Y-121638118D01*
X113522698Y-121681160D01*
X113543727Y-121744010D01*
X113529382Y-121808715D01*
X113483762Y-121856789D01*
X113419897Y-121874500D01*
X110920453Y-121874500D01*
X110873000Y-121865061D01*
X110832772Y-121838181D01*
X109871854Y-120877263D01*
X109839760Y-120821674D01*
X109839761Y-120757486D01*
X109839762Y-120757483D01*
X109850161Y-120718674D01*
X109869292Y-120500000D01*
X109850161Y-120281326D01*
X109793347Y-120069297D01*
X109700579Y-119870354D01*
X109574674Y-119690543D01*
X109419457Y-119535326D01*
X109239646Y-119409421D01*
X109147921Y-119366649D01*
X109040704Y-119316653D01*
X108828671Y-119259838D01*
X108610000Y-119240707D01*
X108391328Y-119259838D01*
X108179295Y-119316653D01*
X107980356Y-119409420D01*
X107980354Y-119409421D01*
X107954002Y-119427873D01*
X107800539Y-119535329D01*
X107645329Y-119690539D01*
X107519420Y-119870356D01*
X107426653Y-120069295D01*
X107369838Y-120281328D01*
X107350707Y-120500000D01*
X107369838Y-120718671D01*
X107426653Y-120930704D01*
X107454303Y-120990000D01*
X107519421Y-121129646D01*
X107645326Y-121309457D01*
X107800543Y-121464674D01*
X107980354Y-121590579D01*
X108179297Y-121683347D01*
X108391326Y-121740161D01*
X108610000Y-121759292D01*
X108828674Y-121740161D01*
X108867488Y-121729759D01*
X108931673Y-121729759D01*
X108987263Y-121761853D01*
X110109196Y-122883787D01*
X110122096Y-122899888D01*
X110173223Y-122947900D01*
X110176019Y-122950610D01*
X110195529Y-122970120D01*
X110198711Y-122972588D01*
X110207571Y-122980155D01*
X110239418Y-123010062D01*
X110256970Y-123019711D01*
X110273238Y-123030397D01*
X110289064Y-123042673D01*
X110329146Y-123060017D01*
X110339633Y-123065155D01*
X110377907Y-123086197D01*
X110386410Y-123088379D01*
X110397308Y-123091178D01*
X110415713Y-123097478D01*
X110434104Y-123105437D01*
X110477250Y-123112270D01*
X110488668Y-123114635D01*
X110530981Y-123125500D01*
X110551016Y-123125500D01*
X110570415Y-123127027D01*
X110590196Y-123130160D01*
X110633674Y-123126050D01*
X110645344Y-123125500D01*
X121417256Y-123125500D01*
X121437762Y-123127764D01*
X121440665Y-123127672D01*
X121440667Y-123127673D01*
X121507872Y-123125561D01*
X121511768Y-123125500D01*
X121539349Y-123125500D01*
X121539350Y-123125500D01*
X121543319Y-123124998D01*
X121554965Y-123124080D01*
X121598627Y-123122709D01*
X121617859Y-123117120D01*
X121636918Y-123113174D01*
X121644099Y-123112267D01*
X121656792Y-123110664D01*
X121697407Y-123094582D01*
X121708444Y-123090803D01*
X121750390Y-123078618D01*
X121767629Y-123068422D01*
X121785102Y-123059862D01*
X121803732Y-123052486D01*
X121839064Y-123026814D01*
X121848830Y-123020400D01*
X121886418Y-122998171D01*
X121886417Y-122998171D01*
X121886420Y-122998170D01*
X121900585Y-122984004D01*
X121915373Y-122971373D01*
X121931587Y-122959594D01*
X121959438Y-122925926D01*
X121967279Y-122917309D01*
X127832771Y-117051819D01*
X127873000Y-117024939D01*
X127920453Y-117015500D01*
X129647218Y-117015500D01*
X129713011Y-117034394D01*
X129758755Y-117085319D01*
X129770508Y-117152755D01*
X129769500Y-117162130D01*
X129769500Y-118157869D01*
X129775909Y-118217485D01*
X129788658Y-118251667D01*
X129796476Y-118294999D01*
X129788659Y-118338330D01*
X129775909Y-118372515D01*
X129769500Y-118432130D01*
X129769500Y-119427869D01*
X129775909Y-119487485D01*
X129788658Y-119521667D01*
X129796476Y-119564999D01*
X129788659Y-119608330D01*
X129775909Y-119642515D01*
X129775908Y-119642517D01*
X129775909Y-119642517D01*
X129770746Y-119690543D01*
X129769500Y-119702130D01*
X129769500Y-120697869D01*
X129775909Y-120757485D01*
X129788658Y-120791666D01*
X129796476Y-120834997D01*
X129788659Y-120878328D01*
X129775909Y-120912513D01*
X129769500Y-120972130D01*
X129769500Y-121967869D01*
X129775909Y-122027485D01*
X129788658Y-122061666D01*
X129796476Y-122104997D01*
X129788659Y-122148328D01*
X129775909Y-122182513D01*
X129769500Y-122242130D01*
X129769500Y-123237869D01*
X129775909Y-123297485D01*
X129788658Y-123331667D01*
X129796476Y-123374999D01*
X129788659Y-123418330D01*
X129775909Y-123452515D01*
X129769500Y-123512130D01*
X129769500Y-124507869D01*
X129775909Y-124567485D01*
X129788658Y-124601666D01*
X129796476Y-124644997D01*
X129788659Y-124688328D01*
X129775909Y-124722513D01*
X129769500Y-124782130D01*
X129769500Y-125777869D01*
X129775909Y-125837485D01*
X129788658Y-125871666D01*
X129796476Y-125914997D01*
X129788659Y-125958328D01*
X129775909Y-125992513D01*
X129769500Y-126052130D01*
X129769500Y-127047869D01*
X129775909Y-127107485D01*
X129788658Y-127141667D01*
X129796476Y-127184999D01*
X129788659Y-127228330D01*
X129775909Y-127262515D01*
X129769500Y-127322130D01*
X129769500Y-128317869D01*
X129775909Y-128377485D01*
X129788658Y-128411667D01*
X129796476Y-128454999D01*
X129788659Y-128498330D01*
X129775909Y-128532515D01*
X129775908Y-128532517D01*
X129775909Y-128532517D01*
X129769925Y-128588181D01*
X129769500Y-128592130D01*
X129769500Y-129587869D01*
X129775909Y-129647485D01*
X129788925Y-129682382D01*
X129796743Y-129725714D01*
X129788925Y-129769047D01*
X129776402Y-129802622D01*
X129770000Y-129862176D01*
X129770000Y-130110000D01*
X132270000Y-130110000D01*
X132270000Y-129862176D01*
X132263597Y-129802622D01*
X132251075Y-129769049D01*
X132243256Y-129725714D01*
X132251074Y-129682383D01*
X132264091Y-129647483D01*
X132270500Y-129587873D01*
X132270499Y-128592128D01*
X132264091Y-128532517D01*
X132251340Y-128498330D01*
X132243523Y-128455000D01*
X132251342Y-128411665D01*
X132264090Y-128377485D01*
X132264089Y-128377485D01*
X132264091Y-128377483D01*
X132270500Y-128317873D01*
X132270499Y-127322128D01*
X132264091Y-127262517D01*
X132251340Y-127228330D01*
X132243523Y-127185000D01*
X132251342Y-127141665D01*
X132254223Y-127133939D01*
X132264091Y-127107483D01*
X132270500Y-127047873D01*
X132270499Y-126052128D01*
X132264091Y-125992517D01*
X132251340Y-125958331D01*
X132243523Y-125914999D01*
X132251342Y-125871665D01*
X132264090Y-125837485D01*
X132264089Y-125837485D01*
X132264091Y-125837483D01*
X132270500Y-125777873D01*
X132270499Y-124782128D01*
X132264091Y-124722517D01*
X132251340Y-124688331D01*
X132243523Y-124645000D01*
X132251342Y-124601665D01*
X132264090Y-124567485D01*
X132264089Y-124567485D01*
X132264091Y-124567483D01*
X132270500Y-124507873D01*
X132270500Y-124290000D01*
X138920000Y-124290000D01*
X138920000Y-124537824D01*
X138926402Y-124597375D01*
X138976647Y-124732089D01*
X139062811Y-124847188D01*
X139177910Y-124933352D01*
X139312624Y-124983597D01*
X139372176Y-124990000D01*
X139620000Y-124990000D01*
X139620000Y-124290000D01*
X140120000Y-124290000D01*
X140120000Y-124990000D01*
X140367824Y-124990000D01*
X140427378Y-124983597D01*
X140526665Y-124946565D01*
X140569999Y-124938746D01*
X140613333Y-124946564D01*
X140712624Y-124983597D01*
X140772176Y-124990000D01*
X141020000Y-124990000D01*
X141020000Y-124290000D01*
X141520000Y-124290000D01*
X141520000Y-124990000D01*
X141767824Y-124990000D01*
X141827378Y-124983597D01*
X141926665Y-124946565D01*
X141969999Y-124938746D01*
X142013333Y-124946564D01*
X142112624Y-124983597D01*
X142172176Y-124990000D01*
X142420000Y-124990000D01*
X142420000Y-124290000D01*
X142920000Y-124290000D01*
X142920000Y-124990000D01*
X143167824Y-124990000D01*
X143227375Y-124983597D01*
X143362089Y-124933352D01*
X143477188Y-124847188D01*
X143563352Y-124732089D01*
X143613597Y-124597375D01*
X143620000Y-124537824D01*
X143620000Y-124290000D01*
X142920000Y-124290000D01*
X142420000Y-124290000D01*
X141520000Y-124290000D01*
X141020000Y-124290000D01*
X140120000Y-124290000D01*
X139620000Y-124290000D01*
X138920000Y-124290000D01*
X132270500Y-124290000D01*
X132270499Y-123512128D01*
X132264091Y-123452517D01*
X132251340Y-123418330D01*
X132243523Y-123375000D01*
X132251342Y-123331665D01*
X132264090Y-123297485D01*
X132264089Y-123297485D01*
X132264091Y-123297483D01*
X132270500Y-123237873D01*
X132270500Y-122890000D01*
X138920000Y-122890000D01*
X138920000Y-123137824D01*
X138926402Y-123197377D01*
X138963435Y-123296667D01*
X138971253Y-123340000D01*
X138963435Y-123383333D01*
X138926402Y-123482622D01*
X138920000Y-123542176D01*
X138920000Y-123790000D01*
X139620000Y-123790000D01*
X139620000Y-122890000D01*
X140120000Y-122890000D01*
X140120000Y-123790000D01*
X141020000Y-123790000D01*
X141020000Y-122890000D01*
X141520000Y-122890000D01*
X141520000Y-123790000D01*
X142420000Y-123790000D01*
X142420000Y-122890000D01*
X142920000Y-122890000D01*
X142920000Y-123790000D01*
X143620000Y-123790000D01*
X143620000Y-123542176D01*
X143613597Y-123482624D01*
X143576564Y-123383333D01*
X143568746Y-123339999D01*
X143576565Y-123296665D01*
X143613597Y-123197378D01*
X143620000Y-123137824D01*
X143620000Y-122890000D01*
X142920000Y-122890000D01*
X142420000Y-122890000D01*
X141520000Y-122890000D01*
X141020000Y-122890000D01*
X140120000Y-122890000D01*
X139620000Y-122890000D01*
X138920000Y-122890000D01*
X132270500Y-122890000D01*
X132270499Y-122242128D01*
X132264091Y-122182517D01*
X132251340Y-122148331D01*
X132243523Y-122104999D01*
X132251342Y-122061665D01*
X132264090Y-122027485D01*
X132264089Y-122027485D01*
X132264091Y-122027483D01*
X132270500Y-121967873D01*
X132270500Y-121490000D01*
X138920000Y-121490000D01*
X138920000Y-121737824D01*
X138926402Y-121797377D01*
X138963435Y-121896667D01*
X138971253Y-121940000D01*
X138963435Y-121983333D01*
X138926402Y-122082622D01*
X138920000Y-122142176D01*
X138920000Y-122390000D01*
X139620000Y-122390000D01*
X139620000Y-121490000D01*
X140120000Y-121490000D01*
X140120000Y-122390000D01*
X141020000Y-122390000D01*
X141020000Y-121490000D01*
X141520000Y-121490000D01*
X141520000Y-122390000D01*
X142420000Y-122390000D01*
X142420000Y-121490000D01*
X142920000Y-121490000D01*
X142920000Y-122390000D01*
X143620000Y-122390000D01*
X143620000Y-122142176D01*
X143613597Y-122082624D01*
X143576564Y-121983333D01*
X143568746Y-121939999D01*
X143576565Y-121896665D01*
X143613597Y-121797378D01*
X143620000Y-121737824D01*
X143620000Y-121490000D01*
X142920000Y-121490000D01*
X142420000Y-121490000D01*
X141520000Y-121490000D01*
X141020000Y-121490000D01*
X140120000Y-121490000D01*
X139620000Y-121490000D01*
X138920000Y-121490000D01*
X132270500Y-121490000D01*
X132270499Y-120990000D01*
X138920000Y-120990000D01*
X139620000Y-120990000D01*
X139620000Y-120290000D01*
X140120000Y-120290000D01*
X140120000Y-120990000D01*
X141020000Y-120990000D01*
X141020000Y-120290000D01*
X141520000Y-120290000D01*
X141520000Y-120990000D01*
X142420000Y-120990000D01*
X142420000Y-120290000D01*
X142920000Y-120290000D01*
X142920000Y-120990000D01*
X143620000Y-120990000D01*
X143620000Y-120742176D01*
X143613597Y-120682624D01*
X143563352Y-120547910D01*
X143477188Y-120432811D01*
X143362089Y-120346647D01*
X143227375Y-120296402D01*
X143167824Y-120290000D01*
X142920000Y-120290000D01*
X142420000Y-120290000D01*
X142172176Y-120290000D01*
X142112622Y-120296402D01*
X142013333Y-120333435D01*
X141970000Y-120341253D01*
X141926667Y-120333435D01*
X141827377Y-120296402D01*
X141767824Y-120290000D01*
X141520000Y-120290000D01*
X141020000Y-120290000D01*
X140772176Y-120290000D01*
X140712622Y-120296402D01*
X140613333Y-120333435D01*
X140570000Y-120341253D01*
X140526667Y-120333435D01*
X140427377Y-120296402D01*
X140367824Y-120290000D01*
X140120000Y-120290000D01*
X139620000Y-120290000D01*
X139372176Y-120290000D01*
X139312624Y-120296402D01*
X139177910Y-120346647D01*
X139062811Y-120432811D01*
X138976647Y-120547910D01*
X138926402Y-120682624D01*
X138920000Y-120742176D01*
X138920000Y-120990000D01*
X132270499Y-120990000D01*
X132270499Y-120972128D01*
X132264091Y-120912517D01*
X132251340Y-120878331D01*
X132243523Y-120835000D01*
X132251342Y-120791665D01*
X132254223Y-120783939D01*
X132264091Y-120757483D01*
X132270500Y-120697873D01*
X132270499Y-119702128D01*
X132264091Y-119642517D01*
X132251340Y-119608330D01*
X132243523Y-119565000D01*
X132251342Y-119521665D01*
X132264090Y-119487485D01*
X132264089Y-119487485D01*
X132264091Y-119487483D01*
X132270500Y-119427873D01*
X132270499Y-118432128D01*
X132264091Y-118372517D01*
X132251340Y-118338330D01*
X132243523Y-118295000D01*
X132251342Y-118251665D01*
X132264090Y-118217485D01*
X132264089Y-118217485D01*
X132264091Y-118217483D01*
X132270500Y-118157873D01*
X132270499Y-117162128D01*
X132264091Y-117102517D01*
X132251340Y-117068331D01*
X132243523Y-117024999D01*
X132251342Y-116981665D01*
X132264090Y-116947485D01*
X132264089Y-116947485D01*
X132264091Y-116947483D01*
X132270500Y-116887873D01*
X132270499Y-115892128D01*
X132264091Y-115832517D01*
X132251340Y-115798330D01*
X132243523Y-115754999D01*
X132251342Y-115711665D01*
X132264090Y-115677485D01*
X132264089Y-115677485D01*
X132264091Y-115677483D01*
X132270500Y-115617873D01*
X132270499Y-114622128D01*
X132264091Y-114562517D01*
X132251340Y-114528330D01*
X132243523Y-114485000D01*
X132251342Y-114441665D01*
X132264090Y-114407485D01*
X132264089Y-114407485D01*
X132264091Y-114407483D01*
X132270500Y-114347873D01*
X132270499Y-113974498D01*
X132287112Y-113912499D01*
X132332499Y-113867112D01*
X132394495Y-113850499D01*
X133282872Y-113850499D01*
X133342483Y-113844091D01*
X133376665Y-113831341D01*
X133419999Y-113823523D01*
X133463332Y-113831340D01*
X133497517Y-113844091D01*
X133557127Y-113850500D01*
X134552872Y-113850499D01*
X134612483Y-113844091D01*
X134646665Y-113831341D01*
X134689999Y-113823523D01*
X134733332Y-113831340D01*
X134767517Y-113844091D01*
X134827127Y-113850500D01*
X135822872Y-113850499D01*
X135882483Y-113844091D01*
X135916665Y-113831341D01*
X135959999Y-113823523D01*
X136003332Y-113831340D01*
X136037517Y-113844091D01*
X136097127Y-113850500D01*
X137092872Y-113850499D01*
X137152483Y-113844091D01*
X137186665Y-113831341D01*
X137229999Y-113823523D01*
X137273332Y-113831340D01*
X137307517Y-113844091D01*
X137367127Y-113850500D01*
X138362872Y-113850499D01*
X138422483Y-113844091D01*
X138456665Y-113831341D01*
X138499999Y-113823523D01*
X138543332Y-113831340D01*
X138577517Y-113844091D01*
X138637127Y-113850500D01*
X139632872Y-113850499D01*
X139692483Y-113844091D01*
X139726665Y-113831341D01*
X139769999Y-113823523D01*
X139813332Y-113831340D01*
X139847517Y-113844091D01*
X139907127Y-113850500D01*
X140902872Y-113850499D01*
X140962483Y-113844091D01*
X140996665Y-113831341D01*
X141039999Y-113823523D01*
X141083332Y-113831340D01*
X141117517Y-113844091D01*
X141177127Y-113850500D01*
X142172872Y-113850499D01*
X142232483Y-113844091D01*
X142266665Y-113831341D01*
X142309999Y-113823523D01*
X142353332Y-113831340D01*
X142387517Y-113844091D01*
X142447127Y-113850500D01*
X143442872Y-113850499D01*
X143502483Y-113844091D01*
X143536665Y-113831341D01*
X143579999Y-113823523D01*
X143623332Y-113831340D01*
X143657517Y-113844091D01*
X143717127Y-113850500D01*
X144712872Y-113850499D01*
X144772483Y-113844091D01*
X144806665Y-113831341D01*
X144849999Y-113823523D01*
X144893332Y-113831340D01*
X144927517Y-113844091D01*
X144987127Y-113850500D01*
X145982872Y-113850499D01*
X146042483Y-113844091D01*
X146076665Y-113831341D01*
X146119999Y-113823523D01*
X146163332Y-113831340D01*
X146197517Y-113844091D01*
X146257127Y-113850500D01*
X147145500Y-113850499D01*
X147207500Y-113867112D01*
X147252887Y-113912499D01*
X147269500Y-113974499D01*
X147269500Y-114347869D01*
X147275909Y-114407485D01*
X147288658Y-114441667D01*
X147296476Y-114484999D01*
X147288659Y-114528330D01*
X147275909Y-114562515D01*
X147275908Y-114562517D01*
X147275909Y-114562517D01*
X147270262Y-114615045D01*
X147269500Y-114622130D01*
X147269500Y-115617869D01*
X147275909Y-115677485D01*
X147288658Y-115711667D01*
X147296476Y-115754999D01*
X147288659Y-115798330D01*
X147275909Y-115832515D01*
X147275909Y-115832516D01*
X147275909Y-115832517D01*
X147270262Y-115885045D01*
X147269500Y-115892130D01*
X147269500Y-116887869D01*
X147275909Y-116947485D01*
X147288658Y-116981666D01*
X147296476Y-117024997D01*
X147288659Y-117068328D01*
X147275909Y-117102513D01*
X147269500Y-117162130D01*
X147269500Y-118157869D01*
X147275909Y-118217485D01*
X147288658Y-118251667D01*
X147296476Y-118294999D01*
X147288659Y-118338330D01*
X147275909Y-118372515D01*
X147269500Y-118432130D01*
X147269500Y-119427869D01*
X147275909Y-119487485D01*
X147288658Y-119521667D01*
X147296476Y-119564999D01*
X147288659Y-119608330D01*
X147275909Y-119642515D01*
X147275908Y-119642517D01*
X147275909Y-119642517D01*
X147270746Y-119690543D01*
X147269500Y-119702130D01*
X147269500Y-120697869D01*
X147275909Y-120757485D01*
X147288658Y-120791666D01*
X147296476Y-120834997D01*
X147288659Y-120878328D01*
X147275909Y-120912513D01*
X147269500Y-120972130D01*
X147269500Y-121967869D01*
X147275909Y-122027485D01*
X147288658Y-122061666D01*
X147296476Y-122104997D01*
X147288659Y-122148328D01*
X147275909Y-122182513D01*
X147269500Y-122242130D01*
X147269500Y-123237869D01*
X147275909Y-123297485D01*
X147288658Y-123331667D01*
X147296476Y-123374999D01*
X147288659Y-123418330D01*
X147275909Y-123452515D01*
X147269500Y-123512130D01*
X147269500Y-124507869D01*
X147275909Y-124567485D01*
X147288658Y-124601666D01*
X147296476Y-124644997D01*
X147288659Y-124688328D01*
X147275909Y-124722513D01*
X147269500Y-124782130D01*
X147269500Y-125777869D01*
X147275909Y-125837485D01*
X147288658Y-125871666D01*
X147296476Y-125914997D01*
X147288659Y-125958328D01*
X147275909Y-125992513D01*
X147269500Y-126052130D01*
X147269500Y-127047869D01*
X147275909Y-127107485D01*
X147288658Y-127141667D01*
X147296476Y-127184999D01*
X147288659Y-127228330D01*
X147275909Y-127262515D01*
X147269500Y-127322130D01*
X147269500Y-128317869D01*
X147275909Y-128377485D01*
X147288658Y-128411667D01*
X147296476Y-128454999D01*
X147288659Y-128498330D01*
X147275909Y-128532515D01*
X147275908Y-128532517D01*
X147275909Y-128532517D01*
X147269925Y-128588181D01*
X147269500Y-128592130D01*
X147269500Y-129587869D01*
X147275909Y-129647485D01*
X147288925Y-129682382D01*
X147296743Y-129725714D01*
X147288925Y-129769047D01*
X147276402Y-129802622D01*
X147270000Y-129862176D01*
X147270000Y-130110000D01*
X148646000Y-130110000D01*
X148708000Y-130126613D01*
X148753387Y-130172000D01*
X148770000Y-130234000D01*
X148770000Y-131310000D01*
X149317824Y-131310000D01*
X149377375Y-131303597D01*
X149512089Y-131253352D01*
X149627188Y-131167188D01*
X149713352Y-131052089D01*
X149763597Y-130917375D01*
X149770000Y-130857824D01*
X149770000Y-130810019D01*
X149783515Y-130753724D01*
X149821115Y-130709701D01*
X149874602Y-130687546D01*
X149932318Y-130692088D01*
X149981681Y-130722338D01*
X150823495Y-131564152D01*
X150847734Y-131598449D01*
X150859134Y-131638869D01*
X150864325Y-131688254D01*
X150922820Y-131868284D01*
X151017466Y-132032216D01*
X151017650Y-132032420D01*
X151041264Y-132070955D01*
X151049500Y-132115392D01*
X151049500Y-133475079D01*
X151049274Y-133482566D01*
X151045641Y-133542607D01*
X151056483Y-133601771D01*
X151057610Y-133609172D01*
X151064860Y-133668873D01*
X151068450Y-133678339D01*
X151074475Y-133699952D01*
X151076303Y-133709929D01*
X151100991Y-133764783D01*
X151103856Y-133771701D01*
X151125180Y-133827926D01*
X151125182Y-133827930D01*
X151130941Y-133836273D01*
X151141961Y-133855813D01*
X151146120Y-133865054D01*
X151183216Y-133912405D01*
X151187651Y-133918432D01*
X151221817Y-133967929D01*
X151266847Y-134007822D01*
X151272283Y-134012940D01*
X153269558Y-136010215D01*
X153274678Y-136015653D01*
X153314571Y-136060683D01*
X153364077Y-136094855D01*
X153370097Y-136099285D01*
X153417441Y-136136377D01*
X153417442Y-136136377D01*
X153417443Y-136136378D01*
X153426684Y-136140537D01*
X153446230Y-136151561D01*
X153454570Y-136157318D01*
X153510822Y-136178651D01*
X153517718Y-136181509D01*
X153572568Y-136206195D01*
X153582535Y-136208021D01*
X153604151Y-136214046D01*
X153613628Y-136217640D01*
X153673340Y-136224890D01*
X153680685Y-136226007D01*
X153739894Y-136236858D01*
X153741327Y-136236771D01*
X153792784Y-136244603D01*
X153836495Y-136272864D01*
X153951342Y-136387711D01*
X153951344Y-136387712D01*
X154100666Y-136479814D01*
X154212017Y-136516712D01*
X154267202Y-136534999D01*
X154277703Y-136536071D01*
X154369991Y-136545500D01*
X155370008Y-136545499D01*
X155472797Y-136534999D01*
X155639334Y-136479814D01*
X155788656Y-136387712D01*
X155912712Y-136263656D01*
X156004814Y-136114334D01*
X156059999Y-135947797D01*
X156070500Y-135845009D01*
X156070499Y-135219992D01*
X156059999Y-135117203D01*
X156004814Y-134950666D01*
X155912712Y-134801344D01*
X155819047Y-134707679D01*
X155786955Y-134652094D01*
X155786955Y-134587906D01*
X155819047Y-134532320D01*
X155912712Y-134438656D01*
X156004814Y-134289334D01*
X156059999Y-134122797D01*
X156070500Y-134020009D01*
X156070499Y-133394992D01*
X156065903Y-133350000D01*
X194490448Y-133350000D01*
X194510634Y-133657989D01*
X194570847Y-133960697D01*
X194670056Y-134252959D01*
X194806567Y-134529775D01*
X194916290Y-134693987D01*
X194978042Y-134786404D01*
X195181545Y-135018455D01*
X195411353Y-135219991D01*
X195413596Y-135221958D01*
X195670224Y-135393432D01*
X195947040Y-135529943D01*
X196239302Y-135629152D01*
X196542010Y-135689365D01*
X196542012Y-135689365D01*
X196542017Y-135689366D01*
X196850000Y-135709552D01*
X197157983Y-135689366D01*
X197157987Y-135689365D01*
X197157989Y-135689365D01*
X197460697Y-135629152D01*
X197752959Y-135529943D01*
X197760446Y-135526250D01*
X198029776Y-135393432D01*
X198286404Y-135221958D01*
X198518455Y-135018455D01*
X198721958Y-134786404D01*
X198893432Y-134529776D01*
X199029942Y-134252961D01*
X199129152Y-133960697D01*
X199189366Y-133657983D01*
X199209552Y-133350000D01*
X199189366Y-133042017D01*
X199176302Y-132976342D01*
X199129152Y-132739302D01*
X199029943Y-132447040D01*
X198893432Y-132170224D01*
X198721958Y-131913596D01*
X198682220Y-131868284D01*
X198518455Y-131681545D01*
X198286404Y-131478042D01*
X198037522Y-131311744D01*
X198029775Y-131306567D01*
X197752959Y-131170056D01*
X197460697Y-131070847D01*
X197157989Y-131010634D01*
X196850000Y-130990448D01*
X196542010Y-131010634D01*
X196239302Y-131070847D01*
X195947040Y-131170056D01*
X195670224Y-131306567D01*
X195413596Y-131478041D01*
X195181545Y-131681545D01*
X194978041Y-131913596D01*
X194806567Y-132170224D01*
X194670056Y-132447040D01*
X194570847Y-132739302D01*
X194510634Y-133042010D01*
X194490448Y-133350000D01*
X156065903Y-133350000D01*
X156059999Y-133292203D01*
X156004814Y-133125666D01*
X155912712Y-132976344D01*
X155912711Y-132976342D01*
X155788657Y-132852288D01*
X155639334Y-132760186D01*
X155580496Y-132740689D01*
X155536171Y-132714810D01*
X155506123Y-132673198D01*
X155495500Y-132622983D01*
X155495500Y-130300301D01*
X155506123Y-130250086D01*
X155536171Y-130208474D01*
X155580495Y-130182595D01*
X155664334Y-130154814D01*
X155813656Y-130062712D01*
X155937712Y-129938656D01*
X155958838Y-129904404D01*
X156003946Y-129861223D01*
X156064378Y-129845500D01*
X164702256Y-129845500D01*
X164722762Y-129847764D01*
X164725665Y-129847672D01*
X164725667Y-129847673D01*
X164792872Y-129845561D01*
X164796768Y-129845500D01*
X164819347Y-129845500D01*
X164819350Y-129845500D01*
X164821672Y-129845206D01*
X164833320Y-129844289D01*
X164883627Y-129842709D01*
X164906705Y-129836003D01*
X164925755Y-129832057D01*
X164936792Y-129830664D01*
X164963628Y-129820037D01*
X164974661Y-129816260D01*
X165035390Y-129798618D01*
X165062763Y-129782428D01*
X165080235Y-129773870D01*
X165083732Y-129772486D01*
X165097186Y-129762709D01*
X165106938Y-129756303D01*
X165171420Y-129718170D01*
X165198872Y-129690716D01*
X165210837Y-129680499D01*
X165211583Y-129679596D01*
X165211587Y-129679594D01*
X165215488Y-129674877D01*
X165223334Y-129666254D01*
X168253770Y-126635818D01*
X168293999Y-126608938D01*
X168341452Y-126599499D01*
X169453870Y-126599499D01*
X169453872Y-126599499D01*
X169513483Y-126593091D01*
X169648331Y-126542796D01*
X169763546Y-126456546D01*
X169849796Y-126341331D01*
X169900091Y-126206483D01*
X169906500Y-126146873D01*
X169906499Y-125029450D01*
X169915938Y-124981998D01*
X169942815Y-124941773D01*
X173122737Y-121761852D01*
X173178323Y-121729760D01*
X173242509Y-121729760D01*
X173281326Y-121740161D01*
X173500000Y-121759292D01*
X173718674Y-121740161D01*
X173930703Y-121683347D01*
X174129646Y-121590579D01*
X174309457Y-121464674D01*
X174464674Y-121309457D01*
X174590579Y-121129646D01*
X174683347Y-120930703D01*
X174740161Y-120718674D01*
X174759292Y-120500000D01*
X174740161Y-120281326D01*
X174683347Y-120069297D01*
X174590579Y-119870354D01*
X174464674Y-119690543D01*
X174309457Y-119535326D01*
X174129646Y-119409421D01*
X174037921Y-119366649D01*
X173930704Y-119316653D01*
X173718671Y-119259838D01*
X173500000Y-119240707D01*
X173281328Y-119259838D01*
X173069295Y-119316653D01*
X172870356Y-119409420D01*
X172870354Y-119409421D01*
X172844002Y-119427873D01*
X172690539Y-119535329D01*
X172535329Y-119690539D01*
X172409420Y-119870356D01*
X172316653Y-120069295D01*
X172259838Y-120281328D01*
X172240707Y-120499999D01*
X172259838Y-120718670D01*
X172259838Y-120718673D01*
X172259839Y-120718674D01*
X172270238Y-120757486D01*
X172270239Y-120757487D01*
X172270239Y-120821675D01*
X172238145Y-120877262D01*
X169053226Y-124062181D01*
X169012998Y-124089061D01*
X168965545Y-124098500D01*
X167858130Y-124098500D01*
X167798515Y-124104909D01*
X167663669Y-124155204D01*
X167548454Y-124241454D01*
X167462204Y-124356668D01*
X167418061Y-124475021D01*
X167411909Y-124491517D01*
X167406931Y-124537824D01*
X167405500Y-124551131D01*
X167405500Y-125663547D01*
X167396061Y-125711000D01*
X167369181Y-125751228D01*
X164562228Y-128558181D01*
X164522000Y-128585061D01*
X164474547Y-128594500D01*
X156064378Y-128594500D01*
X156003946Y-128578777D01*
X155958839Y-128535596D01*
X155937711Y-128501342D01*
X155813659Y-128377290D01*
X155810345Y-128375246D01*
X155767163Y-128330138D01*
X155751440Y-128269704D01*
X155767164Y-128209271D01*
X155810348Y-128164164D01*
X155813348Y-128162313D01*
X155937316Y-128038345D01*
X156029357Y-127889122D01*
X156084506Y-127722696D01*
X156095000Y-127619979D01*
X156095000Y-127570000D01*
X153645001Y-127570000D01*
X153645001Y-127619979D01*
X153655493Y-127722695D01*
X153710642Y-127889122D01*
X153802683Y-128038345D01*
X153926654Y-128162316D01*
X153929656Y-128164168D01*
X153972835Y-128209274D01*
X153988558Y-128269704D01*
X153972837Y-128330135D01*
X153929659Y-128375242D01*
X153926344Y-128377286D01*
X153802288Y-128501342D01*
X153762657Y-128565596D01*
X153717550Y-128608777D01*
X153657118Y-128624500D01*
X152810453Y-128624500D01*
X152763000Y-128615061D01*
X152722772Y-128588181D01*
X151570802Y-127436211D01*
X151557906Y-127420113D01*
X151506775Y-127372098D01*
X151503978Y-127369387D01*
X151484470Y-127349879D01*
X151481290Y-127347412D01*
X151472424Y-127339839D01*
X151440582Y-127309938D01*
X151423024Y-127300285D01*
X151406764Y-127289604D01*
X151390936Y-127277327D01*
X151350851Y-127259980D01*
X151340361Y-127254841D01*
X151302091Y-127233802D01*
X151282691Y-127228821D01*
X151264284Y-127222519D01*
X151245897Y-127214562D01*
X151202758Y-127207729D01*
X151191324Y-127205361D01*
X151149019Y-127194500D01*
X151128984Y-127194500D01*
X151109586Y-127192973D01*
X151102162Y-127191797D01*
X151089805Y-127189840D01*
X151089804Y-127189840D01*
X151056751Y-127192964D01*
X151046325Y-127193950D01*
X151034656Y-127194500D01*
X149892782Y-127194500D01*
X149826989Y-127175606D01*
X149781245Y-127124681D01*
X149771715Y-127070000D01*
X153645000Y-127070000D01*
X154620000Y-127070000D01*
X154620000Y-126320001D01*
X154345021Y-126320001D01*
X154242304Y-126330493D01*
X154075877Y-126385642D01*
X153926654Y-126477683D01*
X153802683Y-126601654D01*
X153710642Y-126750877D01*
X153655493Y-126917303D01*
X153645000Y-127020021D01*
X153645000Y-127070000D01*
X149771715Y-127070000D01*
X149769492Y-127057245D01*
X149770500Y-127047873D01*
X149770499Y-126320000D01*
X155120000Y-126320000D01*
X155120000Y-127070000D01*
X156094999Y-127070000D01*
X156094999Y-127020021D01*
X156084506Y-126917304D01*
X156029357Y-126750877D01*
X155937316Y-126601654D01*
X155813345Y-126477683D01*
X155664122Y-126385642D01*
X155497696Y-126330493D01*
X155394979Y-126320000D01*
X155120000Y-126320000D01*
X149770499Y-126320000D01*
X149770499Y-126052128D01*
X149764091Y-125992517D01*
X149752107Y-125960387D01*
X149744649Y-125907624D01*
X149760027Y-125856600D01*
X149795397Y-125816744D01*
X149809078Y-125806804D01*
X149818814Y-125800408D01*
X149856420Y-125778170D01*
X149870585Y-125764004D01*
X149885373Y-125751373D01*
X149901587Y-125739594D01*
X149929438Y-125705926D01*
X149937279Y-125697309D01*
X155134589Y-120499999D01*
X165740707Y-120499999D01*
X165759838Y-120718671D01*
X165816653Y-120930704D01*
X165844303Y-120990000D01*
X165909421Y-121129646D01*
X166035326Y-121309457D01*
X166190543Y-121464674D01*
X166370354Y-121590579D01*
X166569297Y-121683347D01*
X166781326Y-121740161D01*
X167000000Y-121759292D01*
X167218674Y-121740161D01*
X167430703Y-121683347D01*
X167629646Y-121590579D01*
X167809457Y-121464674D01*
X167964674Y-121309457D01*
X168090579Y-121129646D01*
X168183347Y-120930703D01*
X168240161Y-120718674D01*
X168259292Y-120500000D01*
X168240161Y-120281326D01*
X168183347Y-120069297D01*
X168090579Y-119870354D01*
X167964674Y-119690543D01*
X167809457Y-119535326D01*
X167629646Y-119409421D01*
X167537921Y-119366649D01*
X167430704Y-119316653D01*
X167218671Y-119259838D01*
X167000000Y-119240707D01*
X166781328Y-119259838D01*
X166569295Y-119316653D01*
X166370356Y-119409420D01*
X166370354Y-119409421D01*
X166344002Y-119427873D01*
X166190539Y-119535329D01*
X166035329Y-119690539D01*
X165909420Y-119870356D01*
X165816653Y-120069295D01*
X165759838Y-120281328D01*
X165740707Y-120499999D01*
X155134589Y-120499999D01*
X159384589Y-116250000D01*
X165746000Y-116250000D01*
X165746000Y-116801824D01*
X165752402Y-116861375D01*
X165802647Y-116996089D01*
X165888811Y-117111188D01*
X166003910Y-117197352D01*
X166138624Y-117247597D01*
X166198176Y-117254000D01*
X166750000Y-117254000D01*
X166750000Y-116250000D01*
X167250000Y-116250000D01*
X167250000Y-117254000D01*
X167801824Y-117254000D01*
X167861375Y-117247597D01*
X167996089Y-117197352D01*
X168111188Y-117111188D01*
X168197352Y-116996089D01*
X168247597Y-116861375D01*
X168254000Y-116801824D01*
X168254000Y-116250000D01*
X167250000Y-116250000D01*
X166750000Y-116250000D01*
X165746000Y-116250000D01*
X159384589Y-116250000D01*
X159634589Y-116000000D01*
X172240707Y-116000000D01*
X172259838Y-116218671D01*
X172316653Y-116430704D01*
X172338707Y-116477998D01*
X172409421Y-116629646D01*
X172535326Y-116809457D01*
X172690543Y-116964674D01*
X172870354Y-117090579D01*
X173069297Y-117183347D01*
X173281326Y-117240161D01*
X173500000Y-117259292D01*
X173718674Y-117240161D01*
X173930703Y-117183347D01*
X174129646Y-117090579D01*
X174309457Y-116964674D01*
X174464674Y-116809457D01*
X174590579Y-116629646D01*
X174683347Y-116430703D01*
X174740161Y-116218674D01*
X174759292Y-116000000D01*
X174740161Y-115781326D01*
X174683347Y-115569297D01*
X174590579Y-115370354D01*
X174464674Y-115190543D01*
X174309457Y-115035326D01*
X174129646Y-114909421D01*
X174037921Y-114866649D01*
X173930704Y-114816653D01*
X173718671Y-114759838D01*
X173500000Y-114740707D01*
X173281328Y-114759838D01*
X173069295Y-114816653D01*
X172870356Y-114909420D01*
X172870354Y-114909421D01*
X172735754Y-115003669D01*
X172690539Y-115035329D01*
X172535329Y-115190539D01*
X172535326Y-115190542D01*
X172535326Y-115190543D01*
X172529982Y-115198176D01*
X172409420Y-115370356D01*
X172316653Y-115569295D01*
X172259838Y-115781328D01*
X172240707Y-116000000D01*
X159634589Y-116000000D01*
X159884589Y-115750000D01*
X165746000Y-115750000D01*
X166750000Y-115750000D01*
X166750000Y-114746000D01*
X167250000Y-114746000D01*
X167250000Y-115750000D01*
X168254000Y-115750000D01*
X168254000Y-115198176D01*
X168247597Y-115138624D01*
X168197352Y-115003910D01*
X168111188Y-114888811D01*
X167996089Y-114802647D01*
X167861375Y-114752402D01*
X167801824Y-114746000D01*
X167250000Y-114746000D01*
X166750000Y-114746000D01*
X166198176Y-114746000D01*
X166138624Y-114752402D01*
X166003910Y-114802647D01*
X165888811Y-114888811D01*
X165802647Y-115003910D01*
X165752402Y-115138624D01*
X165746000Y-115198176D01*
X165746000Y-115750000D01*
X159884589Y-115750000D01*
X163972770Y-111661819D01*
X164012999Y-111634939D01*
X164060452Y-111625500D01*
X183167256Y-111625500D01*
X183187762Y-111627764D01*
X183190665Y-111627672D01*
X183190667Y-111627673D01*
X183257872Y-111625561D01*
X183261768Y-111625500D01*
X183289349Y-111625500D01*
X183289350Y-111625500D01*
X183293319Y-111624998D01*
X183304965Y-111624080D01*
X183348627Y-111622709D01*
X183367859Y-111617120D01*
X183386918Y-111613174D01*
X183393196Y-111612381D01*
X183406792Y-111610664D01*
X183447407Y-111594582D01*
X183458444Y-111590803D01*
X183500390Y-111578618D01*
X183517629Y-111568422D01*
X183535102Y-111559862D01*
X183553732Y-111552486D01*
X183589064Y-111526814D01*
X183598830Y-111520400D01*
X183636418Y-111498171D01*
X183636417Y-111498171D01*
X183636420Y-111498170D01*
X183650585Y-111484004D01*
X183665373Y-111471373D01*
X183681587Y-111459594D01*
X183709438Y-111425926D01*
X183717279Y-111417309D01*
X196133786Y-99000802D01*
X196149887Y-98987904D01*
X196151874Y-98985787D01*
X196151877Y-98985786D01*
X196197932Y-98936741D01*
X196200613Y-98933976D01*
X196220120Y-98914470D01*
X196222581Y-98911295D01*
X196230152Y-98902431D01*
X196260062Y-98870582D01*
X196269713Y-98853026D01*
X196280393Y-98836767D01*
X196292674Y-98820936D01*
X196310018Y-98780851D01*
X196315160Y-98770356D01*
X196336197Y-98732092D01*
X196341178Y-98712688D01*
X196347480Y-98694283D01*
X196355438Y-98675895D01*
X196362270Y-98632748D01*
X196364639Y-98621316D01*
X196375500Y-98579020D01*
X196375500Y-98558984D01*
X196377027Y-98539585D01*
X196380160Y-98519804D01*
X196376050Y-98476325D01*
X196375500Y-98464656D01*
X196375500Y-87332741D01*
X196377763Y-87312237D01*
X196375561Y-87242145D01*
X196375500Y-87238251D01*
X196375500Y-87210657D01*
X196375500Y-87210650D01*
X196374995Y-87206653D01*
X196374080Y-87195023D01*
X196373674Y-87182098D01*
X196372709Y-87151373D01*
X196367120Y-87132140D01*
X196363174Y-87113082D01*
X196360664Y-87093208D01*
X196344585Y-87052597D01*
X196340804Y-87041552D01*
X196328619Y-86999613D01*
X196328618Y-86999612D01*
X196328618Y-86999610D01*
X196318417Y-86982361D01*
X196309860Y-86964895D01*
X196302486Y-86946268D01*
X196276813Y-86910932D01*
X196270402Y-86901172D01*
X196248169Y-86863578D01*
X196234006Y-86849415D01*
X196221369Y-86834620D01*
X196209595Y-86818414D01*
X196209594Y-86818413D01*
X196175935Y-86790568D01*
X196167305Y-86782714D01*
X195011854Y-85627263D01*
X194979760Y-85571674D01*
X194979761Y-85507486D01*
X194990161Y-85468673D01*
X195009292Y-85250000D01*
X194990161Y-85031328D01*
X194990161Y-85031326D01*
X194933347Y-84819297D01*
X194840579Y-84620354D01*
X194714674Y-84440543D01*
X194559457Y-84285326D01*
X194379646Y-84159421D01*
X194287921Y-84116649D01*
X194180704Y-84066653D01*
X193968671Y-84009838D01*
X193750000Y-83990707D01*
X193531328Y-84009838D01*
X193319295Y-84066653D01*
X193186868Y-84128405D01*
X193120354Y-84159421D01*
X192988165Y-84251981D01*
X192940539Y-84285329D01*
X192785329Y-84440539D01*
X192785326Y-84440542D01*
X192785326Y-84440543D01*
X192778015Y-84450985D01*
X192659420Y-84620356D01*
X192566653Y-84819295D01*
X192509838Y-85031328D01*
X192490707Y-85250000D01*
X192509838Y-85468671D01*
X192566653Y-85680704D01*
X192582879Y-85715500D01*
X192659421Y-85879646D01*
X192785326Y-86059457D01*
X192940543Y-86214674D01*
X193120354Y-86340579D01*
X193319297Y-86433347D01*
X193531326Y-86490161D01*
X193750000Y-86509292D01*
X193968674Y-86490161D01*
X194007488Y-86479759D01*
X194071673Y-86479759D01*
X194127262Y-86511852D01*
X194607965Y-86992556D01*
X195088181Y-87472772D01*
X195115061Y-87513000D01*
X195124500Y-87560453D01*
X195124500Y-91149897D01*
X195106789Y-91213762D01*
X195058715Y-91259382D01*
X194994010Y-91273727D01*
X194931160Y-91252698D01*
X194888118Y-91202302D01*
X194874905Y-91173967D01*
X194840579Y-91100354D01*
X194714674Y-90920543D01*
X194559457Y-90765326D01*
X194379646Y-90639421D01*
X194275266Y-90590748D01*
X194180704Y-90546653D01*
X193968671Y-90489838D01*
X193750000Y-90470707D01*
X193531328Y-90489838D01*
X193319295Y-90546653D01*
X193145136Y-90627865D01*
X193120354Y-90639421D01*
X192985754Y-90733669D01*
X192940539Y-90765329D01*
X192785329Y-90920539D01*
X192785326Y-90920542D01*
X192785326Y-90920543D01*
X192705449Y-91034620D01*
X192659420Y-91100356D01*
X192566653Y-91299295D01*
X192509838Y-91511328D01*
X192490707Y-91730000D01*
X192509838Y-91948671D01*
X192566653Y-92160704D01*
X192588382Y-92207302D01*
X192659421Y-92359646D01*
X192785326Y-92539457D01*
X192940543Y-92694674D01*
X193120354Y-92820579D01*
X193319297Y-92913347D01*
X193531326Y-92970161D01*
X193750000Y-92989292D01*
X193968674Y-92970161D01*
X194180703Y-92913347D01*
X194379646Y-92820579D01*
X194559457Y-92694674D01*
X194714674Y-92539457D01*
X194840579Y-92359646D01*
X194888117Y-92257698D01*
X194931160Y-92207302D01*
X194994010Y-92186273D01*
X195058715Y-92200618D01*
X195106789Y-92246238D01*
X195124500Y-92310103D01*
X195124500Y-95649897D01*
X195106789Y-95713762D01*
X195058715Y-95759382D01*
X194994010Y-95773727D01*
X194931160Y-95752698D01*
X194888118Y-95702302D01*
X194863681Y-95649897D01*
X194840579Y-95600354D01*
X194714674Y-95420543D01*
X194559457Y-95265326D01*
X194379646Y-95139421D01*
X194224001Y-95066843D01*
X194180704Y-95046653D01*
X193968671Y-94989838D01*
X193750000Y-94970707D01*
X193531328Y-94989838D01*
X193319295Y-95046653D01*
X193143819Y-95128479D01*
X193120354Y-95139421D01*
X192962431Y-95250000D01*
X192940539Y-95265329D01*
X192785329Y-95420539D01*
X192785326Y-95420542D01*
X192785326Y-95420543D01*
X192737966Y-95488181D01*
X192659420Y-95600356D01*
X192566653Y-95799295D01*
X192509838Y-96011328D01*
X192490707Y-96230000D01*
X192509838Y-96448671D01*
X192566653Y-96660704D01*
X192588382Y-96707302D01*
X192659421Y-96859646D01*
X192785326Y-97039457D01*
X192785329Y-97039460D01*
X192940543Y-97194674D01*
X193071624Y-97286459D01*
X193110489Y-97330776D01*
X193124500Y-97388033D01*
X193124500Y-98689547D01*
X193115061Y-98737000D01*
X193088181Y-98777228D01*
X182527228Y-109338181D01*
X182487000Y-109365061D01*
X182439547Y-109374500D01*
X163582744Y-109374500D01*
X163562237Y-109372235D01*
X163492127Y-109374439D01*
X163488232Y-109374500D01*
X163460650Y-109374500D01*
X163456665Y-109375003D01*
X163445033Y-109375918D01*
X163401369Y-109377290D01*
X163382129Y-109382880D01*
X163363081Y-109386825D01*
X163343209Y-109389335D01*
X163302599Y-109405413D01*
X163291554Y-109409194D01*
X163249610Y-109421381D01*
X163232365Y-109431579D01*
X163214904Y-109440133D01*
X163196267Y-109447512D01*
X163160931Y-109473185D01*
X163151174Y-109479595D01*
X163113580Y-109501829D01*
X163099413Y-109515996D01*
X163084624Y-109528626D01*
X163068413Y-109540404D01*
X163040572Y-109574058D01*
X163032711Y-109582697D01*
X156837181Y-115778229D01*
X156787818Y-115808479D01*
X156730102Y-115813021D01*
X156676615Y-115790866D01*
X156639015Y-115746843D01*
X156625500Y-115690548D01*
X156625500Y-99310452D01*
X156634939Y-99262999D01*
X156661819Y-99222771D01*
X157051466Y-98833124D01*
X176652926Y-98833124D01*
X176652927Y-98833125D01*
X176715110Y-98876666D01*
X176913340Y-98969102D01*
X177124613Y-99025712D01*
X177342500Y-99044775D01*
X177560386Y-99025712D01*
X177771659Y-98969102D01*
X177969885Y-98876667D01*
X178032072Y-98833124D01*
X177342501Y-98143553D01*
X177342500Y-98143553D01*
X176652926Y-98833124D01*
X157051466Y-98833124D01*
X158094591Y-97789999D01*
X176087724Y-97789999D01*
X176106787Y-98007886D01*
X176163398Y-98219161D01*
X176255831Y-98417386D01*
X176299373Y-98479571D01*
X176299375Y-98479572D01*
X176988947Y-97790001D01*
X176988947Y-97790000D01*
X177696053Y-97790000D01*
X178385624Y-98479572D01*
X178429167Y-98417385D01*
X178521602Y-98219159D01*
X178578212Y-98007886D01*
X178597275Y-97789999D01*
X178578212Y-97572113D01*
X178521602Y-97360840D01*
X178429167Y-97162615D01*
X178385623Y-97100428D01*
X177696053Y-97790000D01*
X176988947Y-97790000D01*
X176299375Y-97100427D01*
X176299374Y-97100428D01*
X176255833Y-97162611D01*
X176163397Y-97360840D01*
X176106787Y-97572113D01*
X176087724Y-97789999D01*
X158094591Y-97789999D01*
X162512772Y-93371819D01*
X162553000Y-93344939D01*
X162600453Y-93335500D01*
X176189351Y-93335500D01*
X176246608Y-93349511D01*
X176290923Y-93388375D01*
X176380902Y-93516877D01*
X176535623Y-93671598D01*
X176714861Y-93797102D01*
X176813737Y-93843208D01*
X176866082Y-93867618D01*
X176918258Y-93913375D01*
X176937677Y-93980000D01*
X176918258Y-94046625D01*
X176866082Y-94092382D01*
X176714861Y-94162898D01*
X176535622Y-94288402D01*
X176380902Y-94443122D01*
X176255398Y-94622361D01*
X176162925Y-94820668D01*
X176106292Y-95032025D01*
X176087222Y-95249999D01*
X176106292Y-95467974D01*
X176162925Y-95679331D01*
X176173637Y-95702302D01*
X176255398Y-95877639D01*
X176380902Y-96056877D01*
X176535623Y-96211598D01*
X176714861Y-96337102D01*
X176864312Y-96406792D01*
X176866675Y-96407894D01*
X176918851Y-96453651D01*
X176938270Y-96520276D01*
X176918851Y-96586901D01*
X176866675Y-96632658D01*
X176715112Y-96703333D01*
X176652928Y-96746874D01*
X176652927Y-96746875D01*
X177342500Y-97436447D01*
X177342501Y-97436447D01*
X178032072Y-96746875D01*
X178032071Y-96746873D01*
X177969886Y-96703331D01*
X177818325Y-96632658D01*
X177766149Y-96586901D01*
X177746729Y-96520276D01*
X177766148Y-96453651D01*
X177818322Y-96407895D01*
X177970139Y-96337102D01*
X178123096Y-96230000D01*
X185990707Y-96230000D01*
X186009838Y-96448671D01*
X186066653Y-96660704D01*
X186088382Y-96707302D01*
X186159421Y-96859646D01*
X186285326Y-97039457D01*
X186440543Y-97194674D01*
X186620354Y-97320579D01*
X186819297Y-97413347D01*
X187031326Y-97470161D01*
X187250000Y-97489292D01*
X187468674Y-97470161D01*
X187680703Y-97413347D01*
X187879646Y-97320579D01*
X188059457Y-97194674D01*
X188214674Y-97039457D01*
X188340579Y-96859646D01*
X188433347Y-96660703D01*
X188490161Y-96448674D01*
X188509292Y-96230000D01*
X188490161Y-96011326D01*
X188433347Y-95799297D01*
X188340579Y-95600354D01*
X188214674Y-95420543D01*
X188059457Y-95265326D01*
X187879646Y-95139421D01*
X187724001Y-95066843D01*
X187680704Y-95046653D01*
X187468671Y-94989838D01*
X187250000Y-94970707D01*
X187031328Y-94989838D01*
X186819295Y-95046653D01*
X186643819Y-95128479D01*
X186620354Y-95139421D01*
X186462431Y-95250000D01*
X186440539Y-95265329D01*
X186285329Y-95420539D01*
X186285326Y-95420542D01*
X186285326Y-95420543D01*
X186237966Y-95488181D01*
X186159420Y-95600356D01*
X186066653Y-95799295D01*
X186009838Y-96011328D01*
X185990707Y-96230000D01*
X178123096Y-96230000D01*
X178149377Y-96211598D01*
X178304098Y-96056877D01*
X178341561Y-96003374D01*
X178385877Y-95964511D01*
X178443134Y-95950500D01*
X183705079Y-95950500D01*
X183712566Y-95950726D01*
X183715706Y-95950915D01*
X183772606Y-95954358D01*
X183831782Y-95943513D01*
X183839181Y-95942387D01*
X183898872Y-95935140D01*
X183908335Y-95931550D01*
X183929958Y-95925522D01*
X183939932Y-95923695D01*
X183994808Y-95898996D01*
X184001673Y-95896152D01*
X184057930Y-95874818D01*
X184066270Y-95869060D01*
X184085819Y-95858035D01*
X184095057Y-95853878D01*
X184142413Y-95816775D01*
X184148420Y-95812355D01*
X184197929Y-95778183D01*
X184237823Y-95733150D01*
X184242924Y-95727731D01*
X186949838Y-93020818D01*
X186990066Y-92993938D01*
X187037519Y-92984499D01*
X188051870Y-92984499D01*
X188051872Y-92984499D01*
X188111483Y-92978091D01*
X188246331Y-92927796D01*
X188361546Y-92841546D01*
X188447796Y-92726331D01*
X188498091Y-92591483D01*
X188504500Y-92531873D01*
X188504499Y-90928128D01*
X188498091Y-90868517D01*
X188447796Y-90733669D01*
X188361546Y-90618454D01*
X188246331Y-90532204D01*
X188111483Y-90481909D01*
X188051873Y-90475500D01*
X188051869Y-90475500D01*
X187037519Y-90475500D01*
X186990066Y-90466061D01*
X186949838Y-90439181D01*
X185986819Y-89476162D01*
X185959939Y-89435934D01*
X185950500Y-89388481D01*
X185950500Y-85974553D01*
X185966047Y-85914437D01*
X186008790Y-85869395D01*
X186068010Y-85850723D01*
X186128858Y-85863103D01*
X186176074Y-85903429D01*
X186285326Y-86059457D01*
X186440543Y-86214674D01*
X186620354Y-86340579D01*
X186819297Y-86433347D01*
X187031326Y-86490161D01*
X187250000Y-86509292D01*
X187468674Y-86490161D01*
X187680703Y-86433347D01*
X187879646Y-86340579D01*
X188059457Y-86214674D01*
X188214674Y-86059457D01*
X188340579Y-85879646D01*
X188433347Y-85680703D01*
X188490161Y-85468674D01*
X188509292Y-85250000D01*
X188490161Y-85031326D01*
X188433347Y-84819297D01*
X188340579Y-84620354D01*
X188214674Y-84440543D01*
X188059457Y-84285326D01*
X187879646Y-84159421D01*
X187787921Y-84116649D01*
X187680704Y-84066653D01*
X187468671Y-84009838D01*
X187250000Y-83990707D01*
X187031328Y-84009838D01*
X186819295Y-84066653D01*
X186686868Y-84128405D01*
X186620354Y-84159421D01*
X186488165Y-84251981D01*
X186440539Y-84285329D01*
X186285326Y-84440542D01*
X186176075Y-84596570D01*
X186128858Y-84636897D01*
X186068010Y-84649277D01*
X186008790Y-84630605D01*
X185966047Y-84585563D01*
X185950500Y-84525447D01*
X185950500Y-83091519D01*
X185959939Y-83044066D01*
X185986819Y-83003838D01*
X186949838Y-82040818D01*
X186990066Y-82013938D01*
X187037519Y-82004499D01*
X188051870Y-82004499D01*
X188051872Y-82004499D01*
X188111483Y-81998091D01*
X188246331Y-81947796D01*
X188361546Y-81861546D01*
X188447796Y-81746331D01*
X188498091Y-81611483D01*
X188504500Y-81551873D01*
X188504499Y-80750000D01*
X192490707Y-80750000D01*
X192509838Y-80968671D01*
X192566653Y-81180704D01*
X192606090Y-81265277D01*
X192659421Y-81379646D01*
X192785326Y-81559457D01*
X192940543Y-81714674D01*
X193120354Y-81840579D01*
X193319297Y-81933347D01*
X193531326Y-81990161D01*
X193750000Y-82009292D01*
X193968674Y-81990161D01*
X194180703Y-81933347D01*
X194379646Y-81840579D01*
X194559457Y-81714674D01*
X194714674Y-81559457D01*
X194840579Y-81379646D01*
X194933347Y-81180703D01*
X194990161Y-80968674D01*
X195009292Y-80750000D01*
X194990161Y-80531326D01*
X194933347Y-80319297D01*
X194840579Y-80120354D01*
X194714674Y-79940543D01*
X194559457Y-79785326D01*
X194379646Y-79659421D01*
X194227677Y-79588557D01*
X194180704Y-79566653D01*
X193968671Y-79509838D01*
X193750000Y-79490707D01*
X193531328Y-79509838D01*
X193319295Y-79566653D01*
X193165318Y-79638454D01*
X193120354Y-79659421D01*
X192966750Y-79766976D01*
X192940539Y-79785329D01*
X192785329Y-79940539D01*
X192785326Y-79940542D01*
X192785326Y-79940543D01*
X192683882Y-80085421D01*
X192659420Y-80120356D01*
X192566653Y-80319295D01*
X192509838Y-80531328D01*
X192490707Y-80750000D01*
X188504499Y-80750000D01*
X188504499Y-79948128D01*
X188498091Y-79888517D01*
X188447796Y-79753669D01*
X188361546Y-79638454D01*
X188246331Y-79552204D01*
X188111483Y-79501909D01*
X188061243Y-79496507D01*
X188004997Y-79475909D01*
X187964968Y-79431346D01*
X187950500Y-79373218D01*
X187950500Y-77774921D01*
X187950726Y-77767434D01*
X187950927Y-77764102D01*
X187954358Y-77707394D01*
X187943507Y-77648185D01*
X187942390Y-77640841D01*
X187935140Y-77581128D01*
X187931547Y-77571656D01*
X187925522Y-77550044D01*
X187923695Y-77540069D01*
X187899009Y-77485220D01*
X187896152Y-77478326D01*
X187874818Y-77422070D01*
X187874816Y-77422068D01*
X187874816Y-77422066D01*
X187869062Y-77413731D01*
X187858033Y-77394177D01*
X187853878Y-77384944D01*
X187816780Y-77337591D01*
X187812352Y-77331573D01*
X187778184Y-77282072D01*
X187737697Y-77246204D01*
X187733153Y-77242178D01*
X187727715Y-77237058D01*
X179012940Y-68522283D01*
X179007822Y-68516847D01*
X178967929Y-68471817D01*
X178918432Y-68437651D01*
X178912405Y-68433216D01*
X178865054Y-68396120D01*
X178855813Y-68391961D01*
X178836273Y-68380941D01*
X178827930Y-68375182D01*
X178827927Y-68375181D01*
X178827926Y-68375180D01*
X178771701Y-68353856D01*
X178764783Y-68350991D01*
X178709929Y-68326303D01*
X178699952Y-68324475D01*
X178678339Y-68318450D01*
X178668873Y-68314860D01*
X178609172Y-68307610D01*
X178601771Y-68306483D01*
X178542607Y-68295641D01*
X178482566Y-68299274D01*
X178475079Y-68299500D01*
X169798519Y-68299500D01*
X169751066Y-68290061D01*
X169710838Y-68263181D01*
X167706818Y-66259161D01*
X167679938Y-66218933D01*
X167670499Y-66171480D01*
X167670499Y-65687130D01*
X167670021Y-65682683D01*
X167664091Y-65627517D01*
X167613796Y-65492669D01*
X167527546Y-65377454D01*
X167412331Y-65291204D01*
X167277483Y-65240909D01*
X167217873Y-65234500D01*
X167217869Y-65234500D01*
X164122130Y-65234500D01*
X164062515Y-65240909D01*
X163927669Y-65291204D01*
X163812454Y-65377454D01*
X163726204Y-65492668D01*
X163675909Y-65627515D01*
X163675909Y-65627517D01*
X163670021Y-65682288D01*
X163669500Y-65687131D01*
X163669500Y-65710500D01*
X163652887Y-65772500D01*
X163607500Y-65817887D01*
X163545500Y-65834500D01*
X163055519Y-65834500D01*
X163008066Y-65825061D01*
X162967838Y-65798181D01*
X162691940Y-65522283D01*
X162686822Y-65516847D01*
X162646929Y-65471817D01*
X162597432Y-65437651D01*
X162591405Y-65433216D01*
X162544054Y-65396120D01*
X162534813Y-65391961D01*
X162515273Y-65380941D01*
X162506930Y-65375182D01*
X162506927Y-65375181D01*
X162506926Y-65375180D01*
X162450701Y-65353856D01*
X162443783Y-65350991D01*
X162388929Y-65326303D01*
X162378952Y-65324475D01*
X162357339Y-65318450D01*
X162347873Y-65314860D01*
X162288172Y-65307610D01*
X162280771Y-65306483D01*
X162221607Y-65295641D01*
X162161566Y-65299274D01*
X162154079Y-65299500D01*
X160655499Y-65299500D01*
X160593499Y-65282887D01*
X160548112Y-65237500D01*
X160531499Y-65175500D01*
X160531499Y-64949991D01*
X160520999Y-64847203D01*
X160503480Y-64794334D01*
X160465814Y-64680666D01*
X160373712Y-64531344D01*
X160373711Y-64531342D01*
X160342369Y-64500000D01*
X169240000Y-64500000D01*
X169240000Y-67197824D01*
X169246402Y-67257375D01*
X169296647Y-67392089D01*
X169382811Y-67507188D01*
X169497910Y-67593352D01*
X169632624Y-67643597D01*
X169692176Y-67650000D01*
X172590000Y-67650000D01*
X172590000Y-64500000D01*
X173090000Y-64500000D01*
X173090000Y-67650000D01*
X175987824Y-67650000D01*
X176047375Y-67643597D01*
X176182089Y-67593352D01*
X176297188Y-67507188D01*
X176383352Y-67392089D01*
X176433597Y-67257375D01*
X176440000Y-67197824D01*
X176440000Y-64500000D01*
X173090000Y-64500000D01*
X172590000Y-64500000D01*
X169240000Y-64500000D01*
X160342369Y-64500000D01*
X160249657Y-64407288D01*
X160100334Y-64315186D01*
X159933797Y-64260000D01*
X159831009Y-64249500D01*
X158430991Y-64249500D01*
X158328203Y-64260000D01*
X158161665Y-64315186D01*
X158012342Y-64407288D01*
X157888288Y-64531342D01*
X157796186Y-64680665D01*
X157741000Y-64847202D01*
X157730500Y-64949990D01*
X157730500Y-67050008D01*
X157741000Y-67152796D01*
X157796186Y-67319334D01*
X157888288Y-67468657D01*
X158012342Y-67592711D01*
X158068895Y-67627593D01*
X158161666Y-67684814D01*
X158270074Y-67720737D01*
X158328202Y-67739999D01*
X158338702Y-67741071D01*
X158430991Y-67750500D01*
X159831008Y-67750499D01*
X159933797Y-67739999D01*
X160100334Y-67684814D01*
X160249656Y-67592712D01*
X160373712Y-67468656D01*
X160465814Y-67319334D01*
X160520999Y-67152797D01*
X160531500Y-67050009D01*
X160531500Y-66824500D01*
X160548113Y-66762500D01*
X160593500Y-66717113D01*
X160655500Y-66700500D01*
X161837481Y-66700500D01*
X161884934Y-66709939D01*
X161925162Y-66736819D01*
X162201058Y-67012715D01*
X162206178Y-67018153D01*
X162234399Y-67050008D01*
X162246072Y-67063184D01*
X162295569Y-67097349D01*
X162301602Y-67101788D01*
X162348943Y-67138877D01*
X162358174Y-67143031D01*
X162377726Y-67154058D01*
X162386070Y-67159818D01*
X162442322Y-67181151D01*
X162449228Y-67184012D01*
X162504068Y-67208694D01*
X162514030Y-67210519D01*
X162535650Y-67216546D01*
X162545125Y-67220139D01*
X162545128Y-67220140D01*
X162604856Y-67227392D01*
X162612201Y-67228509D01*
X162671394Y-67239357D01*
X162731422Y-67235726D01*
X162738910Y-67235500D01*
X163545501Y-67235500D01*
X163607501Y-67252113D01*
X163652888Y-67297500D01*
X163669501Y-67359500D01*
X163669501Y-67382870D01*
X163675909Y-67442484D01*
X163679322Y-67451635D01*
X163726204Y-67577331D01*
X163812454Y-67692546D01*
X163927669Y-67778796D01*
X164062517Y-67829091D01*
X164122127Y-67835500D01*
X164124470Y-67835499D01*
X164126368Y-67835955D01*
X164128735Y-67836210D01*
X164128702Y-67836515D01*
X164180765Y-67849009D01*
X164224793Y-67886607D01*
X164246952Y-67940096D01*
X164242412Y-67997814D01*
X164212161Y-68047180D01*
X163687027Y-68572315D01*
X163658514Y-68593607D01*
X163625127Y-68605924D01*
X163470197Y-68638855D01*
X163297269Y-68715848D01*
X163144129Y-68827110D01*
X163017466Y-68967783D01*
X162922820Y-69131715D01*
X162864326Y-69311742D01*
X162864325Y-69311744D01*
X162864326Y-69311744D01*
X162844540Y-69500000D01*
X162851317Y-69564479D01*
X162864326Y-69688257D01*
X162922820Y-69868284D01*
X163017466Y-70032216D01*
X163144129Y-70172889D01*
X163297269Y-70284151D01*
X163470197Y-70361144D01*
X163655352Y-70400500D01*
X163655354Y-70400500D01*
X163844646Y-70400500D01*
X163844648Y-70400500D01*
X164021927Y-70362818D01*
X164029803Y-70361144D01*
X164202730Y-70284151D01*
X164247512Y-70251615D01*
X164355870Y-70172889D01*
X164399154Y-70124818D01*
X164482533Y-70032216D01*
X164577179Y-69868284D01*
X164635674Y-69688256D01*
X164640864Y-69638866D01*
X164652263Y-69598450D01*
X164676500Y-69564155D01*
X166147731Y-68092924D01*
X166153150Y-68087823D01*
X166198183Y-68047929D01*
X166232355Y-67998420D01*
X166236775Y-67992413D01*
X166273878Y-67945057D01*
X166278035Y-67935819D01*
X166289060Y-67916270D01*
X166294818Y-67907930D01*
X166294819Y-67907925D01*
X166303376Y-67895532D01*
X166304214Y-67896111D01*
X166318447Y-67873604D01*
X166359273Y-67845422D01*
X166407878Y-67835499D01*
X167217869Y-67835499D01*
X167217872Y-67835499D01*
X167234707Y-67833689D01*
X167289214Y-67840043D01*
X167335641Y-67869298D01*
X168944058Y-69477715D01*
X168949178Y-69483153D01*
X168989071Y-69528183D01*
X168989072Y-69528184D01*
X169038569Y-69562349D01*
X169044602Y-69566788D01*
X169091943Y-69603877D01*
X169101174Y-69608031D01*
X169120726Y-69619058D01*
X169129070Y-69624818D01*
X169185322Y-69646151D01*
X169192228Y-69649012D01*
X169247068Y-69673694D01*
X169257030Y-69675519D01*
X169278650Y-69681546D01*
X169288125Y-69685139D01*
X169288128Y-69685140D01*
X169347856Y-69692392D01*
X169355201Y-69693509D01*
X169414394Y-69704357D01*
X169474421Y-69700726D01*
X169481909Y-69700500D01*
X178158481Y-69700500D01*
X178205934Y-69709939D01*
X178246162Y-69736819D01*
X186513181Y-78003838D01*
X186540061Y-78044066D01*
X186549500Y-78091519D01*
X186549500Y-79373219D01*
X186535031Y-79431347D01*
X186495002Y-79475910D01*
X186438753Y-79496508D01*
X186413563Y-79499216D01*
X186388515Y-79501909D01*
X186253669Y-79552204D01*
X186138454Y-79638454D01*
X186052204Y-79753668D01*
X186001909Y-79888515D01*
X186001909Y-79888517D01*
X185996316Y-79940543D01*
X185995500Y-79948131D01*
X185995500Y-80962480D01*
X185986061Y-81009933D01*
X185959181Y-81050161D01*
X184772290Y-82237051D01*
X184766838Y-82242183D01*
X184721816Y-82282070D01*
X184687649Y-82331568D01*
X184683213Y-82337597D01*
X184646121Y-82384942D01*
X184641961Y-82394186D01*
X184630941Y-82413725D01*
X184625182Y-82422069D01*
X184603853Y-82478305D01*
X184600989Y-82485219D01*
X184576303Y-82540070D01*
X184574475Y-82550047D01*
X184568454Y-82571648D01*
X184564859Y-82581128D01*
X184557609Y-82640827D01*
X184556483Y-82648226D01*
X184545641Y-82707391D01*
X184549274Y-82767434D01*
X184549500Y-82774921D01*
X184549500Y-89705079D01*
X184549274Y-89712566D01*
X184545641Y-89772607D01*
X184556483Y-89831771D01*
X184557610Y-89839172D01*
X184564860Y-89898873D01*
X184568450Y-89908339D01*
X184574475Y-89929952D01*
X184576303Y-89939929D01*
X184600991Y-89994783D01*
X184603856Y-90001701D01*
X184625180Y-90057926D01*
X184625182Y-90057930D01*
X184630941Y-90066273D01*
X184641961Y-90085813D01*
X184646120Y-90095054D01*
X184683216Y-90142405D01*
X184687651Y-90148432D01*
X184721817Y-90197929D01*
X184766847Y-90237822D01*
X184772283Y-90242940D01*
X185959181Y-91429838D01*
X185986061Y-91470066D01*
X185995500Y-91517519D01*
X185995500Y-91942480D01*
X185986061Y-91989933D01*
X185959181Y-92030161D01*
X183476162Y-94513181D01*
X183435934Y-94540061D01*
X183388481Y-94549500D01*
X178443134Y-94549500D01*
X178385877Y-94535489D01*
X178341561Y-94496625D01*
X178304098Y-94443123D01*
X178149377Y-94288402D01*
X177970139Y-94162898D01*
X177818917Y-94092382D01*
X177766741Y-94046625D01*
X177747322Y-93980000D01*
X177766741Y-93913375D01*
X177818917Y-93867618D01*
X177842380Y-93856677D01*
X177970139Y-93797102D01*
X178149377Y-93671598D01*
X178304098Y-93516877D01*
X178429602Y-93337639D01*
X178522075Y-93139330D01*
X178578707Y-92927977D01*
X178597777Y-92710000D01*
X178578707Y-92492023D01*
X178522075Y-92280670D01*
X178429602Y-92082362D01*
X178304098Y-91903123D01*
X178149377Y-91748402D01*
X177970139Y-91622898D01*
X177927842Y-91603174D01*
X177818917Y-91552381D01*
X177766741Y-91506624D01*
X177747322Y-91439998D01*
X177766742Y-91373373D01*
X177818916Y-91327618D01*
X177970139Y-91257102D01*
X178149377Y-91131598D01*
X178304098Y-90976877D01*
X178429602Y-90797639D01*
X178522075Y-90599330D01*
X178578707Y-90387977D01*
X178597777Y-90170000D01*
X178595890Y-90148436D01*
X178578707Y-89952025D01*
X178578707Y-89952023D01*
X178522075Y-89740670D01*
X178429602Y-89542362D01*
X178304098Y-89363123D01*
X178149377Y-89208402D01*
X177970139Y-89082898D01*
X177818917Y-89012382D01*
X177766741Y-88966625D01*
X177747322Y-88900000D01*
X177766741Y-88833375D01*
X177818917Y-88787618D01*
X177821824Y-88786262D01*
X177970139Y-88717102D01*
X178149377Y-88591598D01*
X178304098Y-88436877D01*
X178429602Y-88257639D01*
X178522075Y-88059330D01*
X178578707Y-87847977D01*
X178597777Y-87630000D01*
X178578707Y-87412023D01*
X178522075Y-87200670D01*
X178429602Y-87002362D01*
X178304098Y-86823123D01*
X178149377Y-86668402D01*
X177970139Y-86542898D01*
X177898071Y-86509292D01*
X177818917Y-86472381D01*
X177766741Y-86426624D01*
X177747322Y-86359998D01*
X177766742Y-86293373D01*
X177818916Y-86247618D01*
X177970139Y-86177102D01*
X178149377Y-86051598D01*
X178304098Y-85896877D01*
X178429602Y-85717639D01*
X178522075Y-85519330D01*
X178578707Y-85307977D01*
X178597777Y-85090000D01*
X178578707Y-84872023D01*
X178522075Y-84660670D01*
X178429602Y-84462362D01*
X178304098Y-84283123D01*
X178149377Y-84128402D01*
X177970139Y-84002898D01*
X177818917Y-83932382D01*
X177766741Y-83886625D01*
X177747322Y-83820000D01*
X177766741Y-83753375D01*
X177818917Y-83707618D01*
X177821824Y-83706262D01*
X177970139Y-83637102D01*
X178149377Y-83511598D01*
X178304098Y-83356877D01*
X178429602Y-83177639D01*
X178522075Y-82979330D01*
X178578707Y-82767977D01*
X178597777Y-82550000D01*
X178578707Y-82332023D01*
X178522075Y-82120670D01*
X178429602Y-81922362D01*
X178304098Y-81743123D01*
X178149377Y-81588402D01*
X177970139Y-81462898D01*
X177818917Y-81392382D01*
X177766741Y-81346625D01*
X177747322Y-81280000D01*
X177766741Y-81213375D01*
X177818917Y-81167618D01*
X177821824Y-81166262D01*
X177970139Y-81097102D01*
X178149377Y-80971598D01*
X178304098Y-80816877D01*
X178429602Y-80637639D01*
X178522075Y-80439330D01*
X178578707Y-80227977D01*
X178597777Y-80010000D01*
X178578707Y-79792023D01*
X178522075Y-79580670D01*
X178429602Y-79382362D01*
X178304098Y-79203123D01*
X178149377Y-79048402D01*
X177970139Y-78922898D01*
X177860027Y-78871552D01*
X177771831Y-78830425D01*
X177560474Y-78773792D01*
X177342500Y-78754722D01*
X177124525Y-78773792D01*
X176913168Y-78830425D01*
X176714861Y-78922898D01*
X176535622Y-79048402D01*
X176380902Y-79203122D01*
X176290926Y-79331623D01*
X176246608Y-79370489D01*
X176189351Y-79384500D01*
X169322740Y-79384500D01*
X169302236Y-79382236D01*
X169232144Y-79384439D01*
X169228250Y-79384500D01*
X169200648Y-79384500D01*
X169196653Y-79385004D01*
X169185029Y-79385918D01*
X169141368Y-79387290D01*
X169122129Y-79392880D01*
X169103080Y-79396825D01*
X169083208Y-79399335D01*
X169042593Y-79415415D01*
X169031549Y-79419196D01*
X168989611Y-79431382D01*
X168972364Y-79441581D01*
X168954900Y-79450136D01*
X168936267Y-79457514D01*
X168900926Y-79483189D01*
X168891168Y-79489599D01*
X168853579Y-79511829D01*
X168839410Y-79525998D01*
X168824622Y-79538628D01*
X168808413Y-79550405D01*
X168780572Y-79584058D01*
X168772711Y-79592696D01*
X152337181Y-96028228D01*
X152287818Y-96058478D01*
X152230102Y-96063020D01*
X152176615Y-96040865D01*
X152139015Y-95996842D01*
X152125500Y-95940547D01*
X152125500Y-86582741D01*
X152127763Y-86562237D01*
X152127155Y-86542898D01*
X152125561Y-86492145D01*
X152125500Y-86488251D01*
X152125500Y-86460657D01*
X152125500Y-86460650D01*
X152124995Y-86456653D01*
X152124080Y-86445023D01*
X152122709Y-86401373D01*
X152117120Y-86382140D01*
X152113174Y-86363082D01*
X152110664Y-86343208D01*
X152094588Y-86302606D01*
X152090804Y-86291552D01*
X152078619Y-86249613D01*
X152078618Y-86249612D01*
X152078618Y-86249610D01*
X152068417Y-86232361D01*
X152059860Y-86214895D01*
X152052486Y-86196268D01*
X152026813Y-86160932D01*
X152020402Y-86151172D01*
X151998169Y-86113578D01*
X151984006Y-86099415D01*
X151971369Y-86084620D01*
X151959595Y-86068414D01*
X151959594Y-86068413D01*
X151925935Y-86040568D01*
X151917305Y-86032714D01*
X141311819Y-75427228D01*
X141284939Y-75387000D01*
X141275500Y-75339547D01*
X141275500Y-72899999D01*
X176006917Y-72899999D01*
X176027207Y-73131917D01*
X176027207Y-73131920D01*
X176027208Y-73131921D01*
X176087463Y-73356796D01*
X176185852Y-73567791D01*
X176319385Y-73758496D01*
X176484004Y-73923115D01*
X176674709Y-74056648D01*
X176885704Y-74155037D01*
X177110579Y-74215292D01*
X177214878Y-74224416D01*
X177284409Y-74230500D01*
X177284411Y-74230500D01*
X177400589Y-74230500D01*
X177400591Y-74230500D01*
X177458532Y-74225430D01*
X177574421Y-74215292D01*
X177799296Y-74155037D01*
X178010291Y-74056648D01*
X178200996Y-73923115D01*
X178365615Y-73758496D01*
X178499148Y-73567791D01*
X178597537Y-73356796D01*
X178657792Y-73131921D01*
X178678082Y-72900000D01*
X178657792Y-72668079D01*
X178597537Y-72443204D01*
X178499148Y-72232209D01*
X178365615Y-72041504D01*
X178200996Y-71876885D01*
X178010291Y-71743352D01*
X177913007Y-71697987D01*
X177799297Y-71644963D01*
X177574417Y-71584707D01*
X177400591Y-71569500D01*
X177400589Y-71569500D01*
X177284411Y-71569500D01*
X177284409Y-71569500D01*
X177110582Y-71584707D01*
X176885702Y-71644963D01*
X176674711Y-71743351D01*
X176674709Y-71743352D01*
X176484004Y-71876885D01*
X176484000Y-71876888D01*
X176319388Y-72041500D01*
X176185851Y-72232211D01*
X176087463Y-72443202D01*
X176027207Y-72668082D01*
X176006917Y-72899999D01*
X141275500Y-72899999D01*
X141275500Y-64984269D01*
X141289015Y-64927974D01*
X141326615Y-64883951D01*
X141380102Y-64861796D01*
X141437818Y-64866338D01*
X141487181Y-64896588D01*
X143068308Y-66477715D01*
X143073428Y-66483153D01*
X143103071Y-66516613D01*
X143113322Y-66528184D01*
X143162823Y-66562352D01*
X143168841Y-66566780D01*
X143216194Y-66603878D01*
X143225430Y-66608034D01*
X143244981Y-66619062D01*
X143253316Y-66624816D01*
X143253318Y-66624816D01*
X143253320Y-66624818D01*
X143309576Y-66646152D01*
X143316470Y-66649009D01*
X143371319Y-66673695D01*
X143381294Y-66675522D01*
X143402906Y-66681547D01*
X143412378Y-66685140D01*
X143472091Y-66692390D01*
X143479435Y-66693507D01*
X143538644Y-66704358D01*
X143595352Y-66700927D01*
X143598684Y-66700726D01*
X143606171Y-66700500D01*
X146425501Y-66700500D01*
X146487501Y-66717113D01*
X146532888Y-66762500D01*
X146549501Y-66824500D01*
X146549501Y-67500009D01*
X146560000Y-67602796D01*
X146615186Y-67769334D01*
X146707288Y-67918657D01*
X146831342Y-68042711D01*
X146839802Y-68047929D01*
X146980666Y-68134814D01*
X147092016Y-68171712D01*
X147147202Y-68189999D01*
X147157703Y-68191071D01*
X147249991Y-68200500D01*
X147975008Y-68200499D01*
X148077797Y-68189999D01*
X148244334Y-68134814D01*
X148393656Y-68042712D01*
X148517712Y-67918656D01*
X148609814Y-67769334D01*
X148664999Y-67602797D01*
X148675500Y-67500009D01*
X148675499Y-64499992D01*
X148664999Y-64397203D01*
X148609814Y-64230666D01*
X148517712Y-64081344D01*
X148517711Y-64081342D01*
X148393657Y-63957288D01*
X148244334Y-63865186D01*
X148077797Y-63810000D01*
X147975009Y-63799500D01*
X147249991Y-63799500D01*
X147147203Y-63810000D01*
X146980665Y-63865186D01*
X146831342Y-63957288D01*
X146707288Y-64081342D01*
X146615186Y-64230665D01*
X146560000Y-64397202D01*
X146549500Y-64499991D01*
X146549500Y-65175500D01*
X146532887Y-65237500D01*
X146487500Y-65282887D01*
X146425500Y-65299500D01*
X143922769Y-65299500D01*
X143875316Y-65290061D01*
X143835088Y-65263181D01*
X142207538Y-63635631D01*
X142174429Y-63575980D01*
X142177884Y-63507843D01*
X142216859Y-63451848D01*
X142250000Y-63424825D01*
X142250000Y-62700000D01*
X142750000Y-62700000D01*
X142750000Y-63419858D01*
X142847278Y-63409966D01*
X143036480Y-63350603D01*
X143209859Y-63254371D01*
X143360317Y-63125207D01*
X143481693Y-62968402D01*
X143569022Y-62790369D01*
X143592420Y-62700000D01*
X142750000Y-62700000D01*
X142250000Y-62700000D01*
X142250000Y-61480142D01*
X142249999Y-61480141D01*
X142152717Y-61490033D01*
X142041458Y-61524941D01*
X141991130Y-61529923D01*
X141942999Y-61514394D01*
X141905071Y-61480939D01*
X141900756Y-61475175D01*
X142750000Y-61475175D01*
X142750000Y-62200000D01*
X143597130Y-62200000D01*
X143597130Y-62199999D01*
X143529876Y-62018404D01*
X143424980Y-61850116D01*
X143288364Y-61706397D01*
X143125610Y-61593116D01*
X142943385Y-61514918D01*
X142750000Y-61475175D01*
X141900756Y-61475175D01*
X141857546Y-61417454D01*
X141742331Y-61331204D01*
X141607483Y-61280909D01*
X141547873Y-61274500D01*
X141547869Y-61274500D01*
X141052128Y-61274500D01*
X140988253Y-61281367D01*
X140961747Y-61281367D01*
X140924672Y-61277381D01*
X140897873Y-61274500D01*
X140897870Y-61274500D01*
X140402128Y-61274500D01*
X140338253Y-61281367D01*
X140311747Y-61281367D01*
X140274672Y-61277381D01*
X140247873Y-61274500D01*
X140247870Y-61274500D01*
X139752128Y-61274500D01*
X139688253Y-61281367D01*
X139661747Y-61281367D01*
X139624672Y-61277381D01*
X139597873Y-61274500D01*
X139597870Y-61274500D01*
X139102131Y-61274500D01*
X139065661Y-61278421D01*
X139042517Y-61280909D01*
X139042515Y-61280909D01*
X139035908Y-61281620D01*
X139009399Y-61281620D01*
X138947823Y-61275000D01*
X138900000Y-61275000D01*
X138899961Y-61275038D01*
X138886884Y-61330379D01*
X138850311Y-61374142D01*
X138792454Y-61417453D01*
X138774575Y-61441337D01*
X138723264Y-61509878D01*
X138675511Y-61548360D01*
X138615154Y-61559250D01*
X138556961Y-61539881D01*
X138515168Y-61494993D01*
X138500000Y-61435566D01*
X138500000Y-61275000D01*
X138452176Y-61275000D01*
X138392624Y-61281402D01*
X138257910Y-61331647D01*
X138142809Y-61417811D01*
X138097786Y-61477955D01*
X138056183Y-61513420D01*
X138003373Y-61527548D01*
X137949619Y-61517593D01*
X137943386Y-61514918D01*
X137750000Y-61475175D01*
X137750000Y-62200000D01*
X138525500Y-62200000D01*
X138587500Y-62216613D01*
X138632887Y-62262000D01*
X138649500Y-62324000D01*
X138649501Y-62576000D01*
X138632888Y-62638000D01*
X138587501Y-62683387D01*
X138525501Y-62700000D01*
X137750000Y-62700000D01*
X137750000Y-63419858D01*
X137847278Y-63409966D01*
X137959045Y-63374899D01*
X138009374Y-63369917D01*
X138057506Y-63385446D01*
X138095434Y-63418901D01*
X138142811Y-63482188D01*
X138257910Y-63568352D01*
X138392624Y-63618597D01*
X138452176Y-63625000D01*
X138500000Y-63625000D01*
X138500000Y-63464434D01*
X138515168Y-63405007D01*
X138556961Y-63360119D01*
X138615154Y-63340750D01*
X138675511Y-63351640D01*
X138723264Y-63390121D01*
X138782056Y-63468656D01*
X138792454Y-63482546D01*
X138850311Y-63525858D01*
X138886884Y-63569621D01*
X138899961Y-63624961D01*
X138900000Y-63625000D01*
X138947823Y-63625000D01*
X139009398Y-63618380D01*
X139035908Y-63618381D01*
X139076715Y-63622767D01*
X139102127Y-63625500D01*
X139250500Y-63625499D01*
X139312500Y-63642112D01*
X139357887Y-63687499D01*
X139374500Y-63749499D01*
X139374500Y-75917256D01*
X139372235Y-75937762D01*
X139374439Y-76007873D01*
X139374500Y-76011768D01*
X139374500Y-76039349D01*
X139375003Y-76043334D01*
X139375918Y-76054967D01*
X139377290Y-76098626D01*
X139382879Y-76117860D01*
X139386825Y-76136916D01*
X139389335Y-76156792D01*
X139405414Y-76197404D01*
X139409197Y-76208451D01*
X139421382Y-76250391D01*
X139431580Y-76267635D01*
X139440136Y-76285100D01*
X139447514Y-76303732D01*
X139447515Y-76303733D01*
X139473180Y-76339059D01*
X139479593Y-76348822D01*
X139501826Y-76386416D01*
X139501829Y-76386419D01*
X139501830Y-76386420D01*
X139515995Y-76400585D01*
X139528627Y-76415375D01*
X139540406Y-76431587D01*
X139574058Y-76459426D01*
X139582699Y-76467289D01*
X150088181Y-86972771D01*
X150115061Y-87012999D01*
X150124500Y-87060452D01*
X150124500Y-112439548D01*
X150115061Y-112487001D01*
X150088183Y-112527226D01*
X149839909Y-112775500D01*
X149672302Y-112943106D01*
X149622379Y-112973536D01*
X149564061Y-112977708D01*
X149524050Y-112960576D01*
X149512333Y-112956206D01*
X149512331Y-112956204D01*
X149377483Y-112905909D01*
X149317873Y-112899500D01*
X149317869Y-112899500D01*
X149317813Y-112899500D01*
X147829498Y-112899500D01*
X147767499Y-112882888D01*
X147722112Y-112837501D01*
X147705499Y-112775501D01*
X147705499Y-111802130D01*
X147705499Y-111802128D01*
X147699091Y-111742517D01*
X147648796Y-111607669D01*
X147562546Y-111492454D01*
X147447331Y-111406204D01*
X147312483Y-111355909D01*
X147252873Y-111349500D01*
X147252869Y-111349500D01*
X146257130Y-111349500D01*
X146197516Y-111355909D01*
X146163331Y-111368659D01*
X146120000Y-111376476D01*
X146076668Y-111368658D01*
X146042486Y-111355909D01*
X146016935Y-111353162D01*
X145982873Y-111349500D01*
X145982869Y-111349500D01*
X144987130Y-111349500D01*
X144927512Y-111355909D01*
X144922527Y-111357769D01*
X144859445Y-111364001D01*
X144801525Y-111338242D01*
X144778793Y-111307415D01*
X144776693Y-111308941D01*
X144767486Y-111296269D01*
X144767486Y-111296268D01*
X144741808Y-111260925D01*
X144735401Y-111251171D01*
X144728758Y-111239938D01*
X144713170Y-111213580D01*
X144699006Y-111199416D01*
X144686367Y-111184617D01*
X144674595Y-111168413D01*
X144640941Y-111140573D01*
X144632299Y-111132709D01*
X120745802Y-87246211D01*
X120732906Y-87230113D01*
X120681775Y-87182098D01*
X120678978Y-87179387D01*
X120659470Y-87159879D01*
X120656290Y-87157412D01*
X120647424Y-87149839D01*
X120615582Y-87119938D01*
X120598024Y-87110285D01*
X120581764Y-87099604D01*
X120565936Y-87087327D01*
X120525851Y-87069980D01*
X120515361Y-87064841D01*
X120477091Y-87043802D01*
X120457691Y-87038821D01*
X120439284Y-87032519D01*
X120420897Y-87024562D01*
X120377758Y-87017729D01*
X120366324Y-87015361D01*
X120324019Y-87004500D01*
X120303984Y-87004500D01*
X120284586Y-87002973D01*
X120277162Y-87001797D01*
X120264805Y-86999840D01*
X120264804Y-86999840D01*
X120231751Y-87002964D01*
X120221325Y-87003950D01*
X120209656Y-87004500D01*
X103495649Y-87004500D01*
X103438392Y-86990489D01*
X103394074Y-86951623D01*
X103390324Y-86946268D01*
X103304098Y-86823123D01*
X103149377Y-86668402D01*
X102970139Y-86542898D01*
X102898071Y-86509292D01*
X102818917Y-86472381D01*
X102766741Y-86426624D01*
X102747322Y-86359998D01*
X102766742Y-86293373D01*
X102818916Y-86247618D01*
X102970139Y-86177102D01*
X103149377Y-86051598D01*
X103304098Y-85896877D01*
X103429602Y-85717639D01*
X103522075Y-85519330D01*
X103578707Y-85307977D01*
X103597777Y-85090000D01*
X103578707Y-84872023D01*
X103522075Y-84660670D01*
X103429602Y-84462362D01*
X103304098Y-84283123D01*
X103149377Y-84128402D01*
X102970139Y-84002898D01*
X102818917Y-83932382D01*
X102766741Y-83886625D01*
X102747322Y-83820000D01*
X102766741Y-83753375D01*
X102818917Y-83707618D01*
X102821824Y-83706262D01*
X102970139Y-83637102D01*
X103149377Y-83511598D01*
X103304098Y-83356877D01*
X103341561Y-83303374D01*
X103385877Y-83264511D01*
X103443134Y-83250500D01*
X106425079Y-83250500D01*
X106432566Y-83250726D01*
X106435706Y-83250915D01*
X106492606Y-83254358D01*
X106551782Y-83243513D01*
X106559181Y-83242387D01*
X106618872Y-83235140D01*
X106628335Y-83231550D01*
X106649958Y-83225522D01*
X106659932Y-83223695D01*
X106714808Y-83198996D01*
X106721673Y-83196152D01*
X106777930Y-83174818D01*
X106786270Y-83169060D01*
X106805819Y-83158035D01*
X106815057Y-83153878D01*
X106862413Y-83116775D01*
X106868420Y-83112355D01*
X106917929Y-83078183D01*
X106957823Y-83033150D01*
X106962924Y-83027731D01*
X119562975Y-70427681D01*
X119591486Y-70406391D01*
X119624872Y-70394075D01*
X119779803Y-70361144D01*
X119952730Y-70284151D01*
X119997512Y-70251615D01*
X120105870Y-70172889D01*
X120149154Y-70124818D01*
X120232533Y-70032216D01*
X120327179Y-69868284D01*
X120385674Y-69688256D01*
X120405460Y-69500000D01*
X120385674Y-69311744D01*
X120327179Y-69131716D01*
X120327179Y-69131715D01*
X120232533Y-68967783D01*
X120232350Y-68967580D01*
X120208736Y-68929045D01*
X120200500Y-68884608D01*
X120200500Y-67887230D01*
X120209939Y-67839777D01*
X120236816Y-67799551D01*
X120342712Y-67693656D01*
X120344752Y-67690347D01*
X120389856Y-67647166D01*
X120450289Y-67631440D01*
X120510723Y-67647161D01*
X120555831Y-67690343D01*
X120557682Y-67693344D01*
X120681654Y-67817316D01*
X120830877Y-67909357D01*
X120997303Y-67964506D01*
X121100021Y-67975000D01*
X121150000Y-67975000D01*
X121150000Y-67000000D01*
X121650000Y-67000000D01*
X121650000Y-67974999D01*
X121699979Y-67974999D01*
X121802695Y-67964506D01*
X121969122Y-67909357D01*
X122118345Y-67817316D01*
X122242316Y-67693345D01*
X122334357Y-67544122D01*
X122389506Y-67377696D01*
X122400000Y-67274979D01*
X122400000Y-67000000D01*
X121650000Y-67000000D01*
X121150000Y-67000000D01*
X121150000Y-66624000D01*
X121166613Y-66562000D01*
X121212000Y-66516613D01*
X121274000Y-66500000D01*
X122399999Y-66500000D01*
X122399999Y-66225021D01*
X122389506Y-66122304D01*
X122334357Y-65955877D01*
X122242316Y-65806654D01*
X122118345Y-65682683D01*
X121969122Y-65590642D01*
X121920266Y-65574453D01*
X121867847Y-65540520D01*
X121838612Y-65485343D01*
X121839975Y-65422915D01*
X121871586Y-65369070D01*
X122503837Y-64736819D01*
X122544066Y-64709939D01*
X122591519Y-64700500D01*
X123744552Y-64700500D01*
X123794768Y-64711123D01*
X123836380Y-64741171D01*
X123862258Y-64785497D01*
X123865186Y-64794334D01*
X123957288Y-64943657D01*
X124081342Y-65067711D01*
X124081344Y-65067712D01*
X124230666Y-65159814D01*
X124342017Y-65196712D01*
X124397202Y-65214999D01*
X124406729Y-65215972D01*
X124499991Y-65225500D01*
X125100008Y-65225499D01*
X125202797Y-65214999D01*
X125369334Y-65159814D01*
X125518656Y-65067712D01*
X125642712Y-64943656D01*
X125644752Y-64940347D01*
X125689856Y-64897166D01*
X125750289Y-64881440D01*
X125810723Y-64897161D01*
X125855831Y-64940343D01*
X125857682Y-64943344D01*
X125981654Y-65067316D01*
X126130877Y-65159357D01*
X126297303Y-65214506D01*
X126400021Y-65225000D01*
X126450000Y-65225000D01*
X126450000Y-64250000D01*
X126950000Y-64250000D01*
X126950000Y-65224999D01*
X126999979Y-65224999D01*
X127102695Y-65214506D01*
X127269122Y-65159357D01*
X127418345Y-65067316D01*
X127542316Y-64943345D01*
X127634357Y-64794122D01*
X127689506Y-64627696D01*
X127700000Y-64524979D01*
X127700000Y-64250000D01*
X126950000Y-64250000D01*
X126450000Y-64250000D01*
X126450000Y-62775001D01*
X126400021Y-62775001D01*
X126297304Y-62785493D01*
X126130877Y-62840642D01*
X125981654Y-62932683D01*
X125857683Y-63056654D01*
X125855830Y-63059659D01*
X125810721Y-63102838D01*
X125750289Y-63118559D01*
X125689857Y-63102834D01*
X125644752Y-63059652D01*
X125642903Y-63056654D01*
X125642712Y-63056344D01*
X125642710Y-63056342D01*
X125642709Y-63056340D01*
X125518657Y-62932288D01*
X125369334Y-62840186D01*
X125202797Y-62785000D01*
X125104903Y-62775000D01*
X126950000Y-62775000D01*
X126950000Y-63750000D01*
X127699999Y-63750000D01*
X127699999Y-63475021D01*
X127689506Y-63372304D01*
X127634357Y-63205877D01*
X127542316Y-63056654D01*
X127418345Y-62932683D01*
X127269122Y-62840642D01*
X127102696Y-62785493D01*
X126999979Y-62775000D01*
X126950000Y-62775000D01*
X125104903Y-62775000D01*
X125100008Y-62774500D01*
X124499991Y-62774500D01*
X124397203Y-62785000D01*
X124230665Y-62840186D01*
X124081342Y-62932288D01*
X123957288Y-63056342D01*
X123865186Y-63205665D01*
X123862258Y-63214503D01*
X123836380Y-63258829D01*
X123794768Y-63288877D01*
X123744552Y-63299500D01*
X122274910Y-63299500D01*
X122267423Y-63299274D01*
X122207391Y-63295642D01*
X122148242Y-63306481D01*
X122140843Y-63307608D01*
X122081122Y-63314860D01*
X122071641Y-63318456D01*
X122050036Y-63324479D01*
X122040069Y-63326305D01*
X121985234Y-63350984D01*
X121978318Y-63353848D01*
X121922069Y-63375181D01*
X121913725Y-63380941D01*
X121894183Y-63391963D01*
X121884944Y-63396121D01*
X121837594Y-63433216D01*
X121831566Y-63437652D01*
X121782067Y-63471819D01*
X121742183Y-63516838D01*
X121737051Y-63522290D01*
X120412181Y-64847162D01*
X120362818Y-64877412D01*
X120305102Y-64881954D01*
X120251615Y-64859799D01*
X120214015Y-64815776D01*
X120200500Y-64759481D01*
X120200500Y-62700000D01*
X136402869Y-62700000D01*
X136470123Y-62881595D01*
X136575019Y-63049883D01*
X136711635Y-63193602D01*
X136874389Y-63306883D01*
X137056614Y-63385081D01*
X137250000Y-63424824D01*
X137250000Y-62700000D01*
X136402869Y-62700000D01*
X120200500Y-62700000D01*
X120200500Y-62387230D01*
X120209939Y-62339777D01*
X120236816Y-62299551D01*
X120342712Y-62193656D01*
X120344752Y-62190347D01*
X120389856Y-62147166D01*
X120450289Y-62131440D01*
X120510723Y-62147161D01*
X120555831Y-62190343D01*
X120557682Y-62193344D01*
X120681654Y-62317316D01*
X120830877Y-62409357D01*
X120997303Y-62464506D01*
X121100021Y-62475000D01*
X121150000Y-62475000D01*
X121150000Y-61500000D01*
X121650000Y-61500000D01*
X121650000Y-62474999D01*
X121699979Y-62474999D01*
X121802695Y-62464506D01*
X121969122Y-62409357D01*
X122118345Y-62317316D01*
X122235662Y-62199999D01*
X136407579Y-62199999D01*
X136407580Y-62200000D01*
X137250000Y-62200000D01*
X137250000Y-61480142D01*
X137249999Y-61480141D01*
X137152721Y-61490033D01*
X136963519Y-61549396D01*
X136790140Y-61645628D01*
X136639682Y-61774792D01*
X136518306Y-61931597D01*
X136430977Y-62109630D01*
X136407579Y-62199999D01*
X122235662Y-62199999D01*
X122242316Y-62193345D01*
X122334357Y-62044122D01*
X122389506Y-61877696D01*
X122400000Y-61774979D01*
X122400000Y-61500000D01*
X121650000Y-61500000D01*
X121150000Y-61500000D01*
X121150000Y-60025001D01*
X121100021Y-60025001D01*
X120997304Y-60035493D01*
X120830877Y-60090642D01*
X120681654Y-60182683D01*
X120557683Y-60306654D01*
X120555830Y-60309659D01*
X120510721Y-60352838D01*
X120450289Y-60368559D01*
X120389857Y-60352834D01*
X120344752Y-60309652D01*
X120342903Y-60306654D01*
X120342712Y-60306344D01*
X120342710Y-60306342D01*
X120342709Y-60306340D01*
X120218657Y-60182288D01*
X120069334Y-60090186D01*
X119902797Y-60035000D01*
X119804903Y-60025000D01*
X121650000Y-60025000D01*
X121650000Y-61000000D01*
X122399999Y-61000000D01*
X122399999Y-60725021D01*
X122389506Y-60622304D01*
X122334357Y-60455877D01*
X122242316Y-60306654D01*
X122118345Y-60182683D01*
X121969122Y-60090642D01*
X121802696Y-60035493D01*
X121699979Y-60025000D01*
X121650000Y-60025000D01*
X119804903Y-60025000D01*
X119800008Y-60024500D01*
X119199991Y-60024500D01*
X119097203Y-60035000D01*
X118930665Y-60090186D01*
X118781342Y-60182288D01*
X118657288Y-60306342D01*
X118565186Y-60455665D01*
X118510000Y-60622202D01*
X118499500Y-60724990D01*
X118499500Y-61775008D01*
X118510000Y-61877796D01*
X118565186Y-62044334D01*
X118657286Y-62193654D01*
X118657287Y-62193655D01*
X118657288Y-62193656D01*
X118763183Y-62299551D01*
X118790061Y-62339777D01*
X118799500Y-62387230D01*
X118799500Y-65612770D01*
X118790061Y-65660223D01*
X118763183Y-65700448D01*
X118710233Y-65753398D01*
X118657286Y-65806345D01*
X118565186Y-65955665D01*
X118510000Y-66122202D01*
X118499500Y-66224990D01*
X118499500Y-67275008D01*
X118510000Y-67377796D01*
X118565186Y-67544334D01*
X118657286Y-67693654D01*
X118657287Y-67693655D01*
X118657288Y-67693656D01*
X118763183Y-67799551D01*
X118790061Y-67839777D01*
X118799500Y-67887230D01*
X118799500Y-68675500D01*
X118782887Y-68737500D01*
X118737500Y-68782887D01*
X118675500Y-68799500D01*
X107051519Y-68799500D01*
X107004066Y-68790061D01*
X106963838Y-68763181D01*
X104975671Y-66775014D01*
X104949089Y-66735498D01*
X104939362Y-66688877D01*
X104947924Y-66642032D01*
X104975334Y-66572195D01*
X105035383Y-66309103D01*
X105055549Y-66040000D01*
X105035383Y-65770897D01*
X104975334Y-65507805D01*
X104876743Y-65256602D01*
X104741815Y-65022898D01*
X104573561Y-64811915D01*
X104545089Y-64785497D01*
X104375743Y-64628366D01*
X104318205Y-64589137D01*
X104152775Y-64476349D01*
X103909641Y-64359262D01*
X103793373Y-64323398D01*
X103651771Y-64279719D01*
X103384929Y-64239500D01*
X103115071Y-64239500D01*
X102848228Y-64279719D01*
X102590359Y-64359262D01*
X102347228Y-64476347D01*
X102124257Y-64628366D01*
X101926439Y-64811915D01*
X101758184Y-65022899D01*
X101623256Y-65256601D01*
X101621609Y-65260800D01*
X101594948Y-65302080D01*
X101554347Y-65329763D01*
X101506180Y-65339500D01*
X97364910Y-65339500D01*
X97357423Y-65339274D01*
X97297391Y-65335642D01*
X97238242Y-65346481D01*
X97230843Y-65347608D01*
X97171122Y-65354860D01*
X97161641Y-65358456D01*
X97140036Y-65364479D01*
X97130067Y-65366306D01*
X97075228Y-65390986D01*
X97068313Y-65393850D01*
X97012067Y-65415182D01*
X97003720Y-65420943D01*
X96984192Y-65431957D01*
X96974948Y-65436118D01*
X96927597Y-65473214D01*
X96921568Y-65477649D01*
X96872070Y-65511816D01*
X96832183Y-65556838D01*
X96827051Y-65562290D01*
X85236160Y-77153181D01*
X85195932Y-77180061D01*
X85148479Y-77189500D01*
X84442130Y-77189500D01*
X84382515Y-77195909D01*
X84247669Y-77246204D01*
X84132454Y-77332454D01*
X84046204Y-77447668D01*
X83995909Y-77582516D01*
X83989500Y-77642130D01*
X83989500Y-78937869D01*
X83995909Y-78997484D01*
X84014902Y-79048405D01*
X84046204Y-79132331D01*
X84132454Y-79247546D01*
X84247669Y-79333796D01*
X84382517Y-79384091D01*
X84442127Y-79390500D01*
X85737872Y-79390499D01*
X85797483Y-79384091D01*
X85932331Y-79333796D01*
X86047546Y-79247546D01*
X86064993Y-79224240D01*
X92129310Y-79224240D01*
X92217588Y-79278899D01*
X92407679Y-79352540D01*
X92608072Y-79390000D01*
X92811928Y-79390000D01*
X93012320Y-79352540D01*
X93202411Y-79278899D01*
X93290688Y-79224240D01*
X92710001Y-78643553D01*
X92710000Y-78643553D01*
X92129310Y-79224240D01*
X86064993Y-79224240D01*
X86133796Y-79132331D01*
X86184091Y-78997483D01*
X86190500Y-78937873D01*
X86190499Y-78290000D01*
X91605287Y-78290000D01*
X91624096Y-78492992D01*
X91679885Y-78689068D01*
X91770751Y-78871552D01*
X91772532Y-78873912D01*
X91772533Y-78873913D01*
X92356447Y-78290001D01*
X93063553Y-78290001D01*
X93647465Y-78873912D01*
X93649247Y-78871553D01*
X93740115Y-78689066D01*
X93795903Y-78492992D01*
X93814712Y-78290000D01*
X93795903Y-78087007D01*
X93740114Y-77890931D01*
X93649248Y-77708448D01*
X93647465Y-77706086D01*
X93647465Y-77706085D01*
X93063553Y-78290000D01*
X93063553Y-78290001D01*
X92356447Y-78290001D01*
X92356447Y-78290000D01*
X91772533Y-77706085D01*
X91770753Y-77708444D01*
X91679884Y-77890933D01*
X91624096Y-78087007D01*
X91605287Y-78290000D01*
X86190499Y-78290000D01*
X86190499Y-78231517D01*
X86199938Y-78184065D01*
X86226815Y-78143840D01*
X87014897Y-77355758D01*
X92129310Y-77355758D01*
X92710000Y-77936447D01*
X92710001Y-77936447D01*
X93290688Y-77355758D01*
X93290687Y-77355757D01*
X93202414Y-77301101D01*
X93012320Y-77227459D01*
X92811928Y-77190000D01*
X92608072Y-77190000D01*
X92407679Y-77227459D01*
X92217589Y-77301100D01*
X92129310Y-77355758D01*
X87014897Y-77355758D01*
X97593837Y-66776819D01*
X97634066Y-66749939D01*
X97681519Y-66740500D01*
X101506180Y-66740500D01*
X101554347Y-66750237D01*
X101594948Y-66777920D01*
X101621609Y-66819200D01*
X101623256Y-66823398D01*
X101725217Y-67000000D01*
X101758185Y-67057102D01*
X101926439Y-67268085D01*
X102124259Y-67451635D01*
X102347226Y-67603651D01*
X102590359Y-67720738D01*
X102848228Y-67800280D01*
X103115071Y-67840500D01*
X103384929Y-67840500D01*
X103651772Y-67800280D01*
X103861508Y-67735584D01*
X103927905Y-67733722D01*
X103985738Y-67766395D01*
X106197058Y-69977715D01*
X106202178Y-69983153D01*
X106242071Y-70028183D01*
X106291577Y-70062355D01*
X106297597Y-70066785D01*
X106344941Y-70103877D01*
X106344942Y-70103877D01*
X106344943Y-70103878D01*
X106354184Y-70108037D01*
X106373730Y-70119061D01*
X106382070Y-70124818D01*
X106438313Y-70146147D01*
X106445217Y-70149007D01*
X106500069Y-70173695D01*
X106510044Y-70175522D01*
X106531656Y-70181547D01*
X106541128Y-70185140D01*
X106600841Y-70192390D01*
X106608185Y-70193507D01*
X106667394Y-70204358D01*
X106724102Y-70200927D01*
X106727434Y-70200726D01*
X106734921Y-70200500D01*
X117509481Y-70200500D01*
X117565776Y-70214015D01*
X117609799Y-70251615D01*
X117631954Y-70305102D01*
X117627412Y-70362818D01*
X117597162Y-70412181D01*
X106196162Y-81813181D01*
X106155934Y-81840061D01*
X106108481Y-81849500D01*
X103443134Y-81849500D01*
X103385877Y-81835489D01*
X103341561Y-81796625D01*
X103304098Y-81743123D01*
X103149377Y-81588402D01*
X103002522Y-81485573D01*
X102962197Y-81438358D01*
X102949818Y-81377510D01*
X102968490Y-81318290D01*
X103013532Y-81275547D01*
X103073648Y-81260000D01*
X103140324Y-81260000D01*
X103199875Y-81253597D01*
X103334589Y-81203352D01*
X103449688Y-81117188D01*
X103535852Y-81002089D01*
X103586097Y-80867375D01*
X103592500Y-80807824D01*
X103592500Y-80260000D01*
X101092500Y-80260000D01*
X101092500Y-80807824D01*
X101098902Y-80867375D01*
X101149147Y-81002089D01*
X101235311Y-81117188D01*
X101350410Y-81203352D01*
X101485124Y-81253597D01*
X101544676Y-81260000D01*
X101611353Y-81260000D01*
X101671469Y-81275547D01*
X101716511Y-81318290D01*
X101735183Y-81377510D01*
X101722803Y-81438358D01*
X101682476Y-81485575D01*
X101535622Y-81588402D01*
X101380902Y-81743122D01*
X101255398Y-81922361D01*
X101162925Y-82120668D01*
X101106292Y-82332025D01*
X101087222Y-82550000D01*
X101106292Y-82767974D01*
X101111706Y-82788181D01*
X101162925Y-82979330D01*
X101255398Y-83177639D01*
X101380902Y-83356877D01*
X101535623Y-83511598D01*
X101714861Y-83637102D01*
X101813737Y-83683208D01*
X101866082Y-83707618D01*
X101918258Y-83753375D01*
X101937677Y-83820000D01*
X101918258Y-83886625D01*
X101866082Y-83932382D01*
X101714861Y-84002898D01*
X101535622Y-84128402D01*
X101380902Y-84283122D01*
X101255398Y-84462361D01*
X101162925Y-84660668D01*
X101106292Y-84872025D01*
X101087222Y-85089999D01*
X101106292Y-85307974D01*
X101149351Y-85468674D01*
X101162925Y-85519330D01*
X101255398Y-85717639D01*
X101380902Y-85896877D01*
X101535623Y-86051598D01*
X101714861Y-86177102D01*
X101795885Y-86214884D01*
X101866082Y-86247618D01*
X101918258Y-86293375D01*
X101937677Y-86360000D01*
X101918258Y-86426625D01*
X101866082Y-86472382D01*
X101714861Y-86542898D01*
X101535622Y-86668402D01*
X101380902Y-86823122D01*
X101255398Y-87002361D01*
X101162925Y-87200668D01*
X101106292Y-87412025D01*
X101087222Y-87630000D01*
X101106292Y-87847974D01*
X101162925Y-88059331D01*
X101195944Y-88130140D01*
X101255398Y-88257639D01*
X101380902Y-88436877D01*
X101535623Y-88591598D01*
X101714861Y-88717102D01*
X101813737Y-88763208D01*
X101866082Y-88787618D01*
X101918258Y-88833375D01*
X101937677Y-88900000D01*
X101918258Y-88966625D01*
X101866082Y-89012382D01*
X101714861Y-89082898D01*
X101535622Y-89208402D01*
X101380902Y-89363122D01*
X101255398Y-89542361D01*
X101162925Y-89740668D01*
X101106292Y-89952025D01*
X101087222Y-90169999D01*
X101106292Y-90387974D01*
X101162925Y-90599331D01*
X101202462Y-90684117D01*
X101255398Y-90797639D01*
X101380902Y-90976877D01*
X101535623Y-91131598D01*
X101714861Y-91257102D01*
X101813737Y-91303208D01*
X101866082Y-91327618D01*
X101918258Y-91373375D01*
X101937677Y-91440000D01*
X101918258Y-91506625D01*
X101866082Y-91552382D01*
X101714861Y-91622898D01*
X101535622Y-91748402D01*
X101380902Y-91903122D01*
X101255398Y-92082361D01*
X101162925Y-92280668D01*
X101106292Y-92492025D01*
X101087222Y-92710000D01*
X101106292Y-92927974D01*
X101162925Y-93139331D01*
X101169714Y-93153889D01*
X101255398Y-93337639D01*
X101380902Y-93516877D01*
X101535623Y-93671598D01*
X101714861Y-93797102D01*
X101813737Y-93843208D01*
X101866082Y-93867618D01*
X101918258Y-93913375D01*
X101937677Y-93980000D01*
X101918258Y-94046625D01*
X101866082Y-94092382D01*
X101714861Y-94162898D01*
X101535622Y-94288402D01*
X101380902Y-94443122D01*
X101255398Y-94622361D01*
X101162925Y-94820668D01*
X101106292Y-95032025D01*
X101087222Y-95249999D01*
X101106292Y-95467974D01*
X101162925Y-95679331D01*
X101173637Y-95702302D01*
X101255398Y-95877639D01*
X101380902Y-96056877D01*
X101535623Y-96211598D01*
X101714861Y-96337102D01*
X101800922Y-96377233D01*
X101866082Y-96407618D01*
X101918258Y-96453375D01*
X101937677Y-96520000D01*
X101918258Y-96586625D01*
X101866082Y-96632382D01*
X101714861Y-96702898D01*
X101535622Y-96828402D01*
X101380902Y-96983122D01*
X101255398Y-97162361D01*
X101162925Y-97360668D01*
X101106292Y-97572025D01*
X101087222Y-97790000D01*
X101097091Y-97902803D01*
X101087705Y-97962061D01*
X101051599Y-98009976D01*
X100997223Y-98035332D01*
X100937309Y-98032192D01*
X100885882Y-98001291D01*
X98911819Y-96027228D01*
X98884939Y-95987000D01*
X98875500Y-95939547D01*
X98875500Y-91532741D01*
X98877763Y-91512237D01*
X98875561Y-91442145D01*
X98875500Y-91438251D01*
X98875500Y-91410657D01*
X98875500Y-91410650D01*
X98874995Y-91406653D01*
X98874080Y-91395023D01*
X98873400Y-91373373D01*
X98872709Y-91351373D01*
X98867120Y-91332140D01*
X98863174Y-91313082D01*
X98860664Y-91293208D01*
X98846369Y-91257103D01*
X98844585Y-91252597D01*
X98840804Y-91241552D01*
X98828619Y-91199613D01*
X98828618Y-91199612D01*
X98828618Y-91199610D01*
X98818417Y-91182361D01*
X98809860Y-91164895D01*
X98802486Y-91146268D01*
X98776813Y-91110932D01*
X98770402Y-91101172D01*
X98748169Y-91063578D01*
X98734006Y-91049415D01*
X98721369Y-91034620D01*
X98709595Y-91018414D01*
X98709594Y-91018413D01*
X98675935Y-90990568D01*
X98667305Y-90982714D01*
X93837665Y-86153074D01*
X93808716Y-86107504D01*
X93801875Y-86053955D01*
X93815215Y-85910000D01*
X93796397Y-85706917D01*
X93788938Y-85680703D01*
X93773733Y-85627263D01*
X93740582Y-85510750D01*
X93719630Y-85468673D01*
X93649675Y-85328181D01*
X93526763Y-85165419D01*
X93376041Y-85028018D01*
X93202638Y-84920652D01*
X93012457Y-84846976D01*
X92945629Y-84834484D01*
X92811976Y-84809500D01*
X92608024Y-84809500D01*
X92507784Y-84828237D01*
X92407542Y-84846976D01*
X92217361Y-84920652D01*
X92043958Y-85028018D01*
X91893236Y-85165419D01*
X91770324Y-85328181D01*
X91679418Y-85510748D01*
X91623602Y-85706916D01*
X91604785Y-85910000D01*
X91623602Y-86113083D01*
X91679418Y-86309251D01*
X91770324Y-86491818D01*
X91893236Y-86654580D01*
X92043958Y-86791981D01*
X92217361Y-86899347D01*
X92217363Y-86899348D01*
X92407544Y-86973024D01*
X92608024Y-87010500D01*
X92811975Y-87010500D01*
X92811976Y-87010500D01*
X92843719Y-87004566D01*
X92903183Y-87008004D01*
X92954184Y-87038774D01*
X93085895Y-87170485D01*
X93117480Y-87224232D01*
X93118920Y-87286556D01*
X93089851Y-87341704D01*
X93037620Y-87375738D01*
X92975430Y-87380054D01*
X92811976Y-87349500D01*
X92608024Y-87349500D01*
X92507783Y-87368238D01*
X92407542Y-87386976D01*
X92217361Y-87460652D01*
X92043958Y-87568018D01*
X91893236Y-87705419D01*
X91770324Y-87868181D01*
X91679418Y-88050748D01*
X91623602Y-88246916D01*
X91604785Y-88450000D01*
X91623602Y-88653083D01*
X91679418Y-88849251D01*
X91770324Y-89031818D01*
X91893236Y-89194580D01*
X92043958Y-89331981D01*
X92211849Y-89435934D01*
X92217363Y-89439348D01*
X92407544Y-89513024D01*
X92608024Y-89550500D01*
X92811973Y-89550500D01*
X92811976Y-89550500D01*
X92835292Y-89546141D01*
X92894755Y-89549578D01*
X92945758Y-89580348D01*
X93073596Y-89708186D01*
X93105181Y-89761933D01*
X93106621Y-89824257D01*
X93077552Y-89879405D01*
X93025321Y-89913439D01*
X92963132Y-89917755D01*
X92811976Y-89889500D01*
X92608024Y-89889500D01*
X92507784Y-89908237D01*
X92407542Y-89926976D01*
X92217361Y-90000652D01*
X92043958Y-90108018D01*
X91893236Y-90245419D01*
X91770324Y-90408181D01*
X91679418Y-90590748D01*
X91623602Y-90786916D01*
X91611221Y-90920539D01*
X91604785Y-90990000D01*
X91606380Y-91007221D01*
X91623602Y-91193083D01*
X91679418Y-91389251D01*
X91770324Y-91571818D01*
X91893236Y-91734580D01*
X92043958Y-91871981D01*
X92217361Y-91979347D01*
X92217363Y-91979348D01*
X92407544Y-92053024D01*
X92608024Y-92090500D01*
X92811975Y-92090500D01*
X92811976Y-92090500D01*
X92843719Y-92084566D01*
X92903183Y-92088004D01*
X92954184Y-92118774D01*
X93085895Y-92250485D01*
X93117480Y-92304232D01*
X93118920Y-92366556D01*
X93089851Y-92421704D01*
X93037620Y-92455738D01*
X92975430Y-92460054D01*
X92811976Y-92429500D01*
X92608024Y-92429500D01*
X92518323Y-92446268D01*
X92407542Y-92466976D01*
X92217361Y-92540652D01*
X92043958Y-92648018D01*
X91893236Y-92785419D01*
X91770324Y-92948181D01*
X91679418Y-93130748D01*
X91623602Y-93326916D01*
X91604785Y-93529999D01*
X91623602Y-93733083D01*
X91679418Y-93929251D01*
X91770324Y-94111818D01*
X91893236Y-94274580D01*
X92043958Y-94411981D01*
X92180662Y-94496624D01*
X92217363Y-94519348D01*
X92407544Y-94593024D01*
X92608024Y-94630500D01*
X92811975Y-94630500D01*
X92811976Y-94630500D01*
X92843719Y-94624566D01*
X92903183Y-94628004D01*
X92954184Y-94658774D01*
X93085895Y-94790485D01*
X93117480Y-94844232D01*
X93118920Y-94906556D01*
X93089851Y-94961704D01*
X93037620Y-94995738D01*
X92975430Y-95000054D01*
X92811976Y-94969500D01*
X92608024Y-94969500D01*
X92507784Y-94988237D01*
X92407542Y-95006976D01*
X92217361Y-95080652D01*
X92043958Y-95188018D01*
X91893236Y-95325419D01*
X91770324Y-95488181D01*
X91679418Y-95670748D01*
X91623602Y-95866916D01*
X91604785Y-96070000D01*
X91623602Y-96273083D01*
X91679418Y-96469251D01*
X91770324Y-96651818D01*
X91893236Y-96814580D01*
X92043958Y-96951981D01*
X92217361Y-97059347D01*
X92217363Y-97059348D01*
X92407544Y-97133024D01*
X92608024Y-97170500D01*
X92811974Y-97170500D01*
X92811976Y-97170500D01*
X93012456Y-97133024D01*
X93202637Y-97059348D01*
X93376041Y-96951981D01*
X93526764Y-96814579D01*
X93649673Y-96651821D01*
X93649673Y-96651819D01*
X93649675Y-96651818D01*
X93698515Y-96553732D01*
X93740582Y-96469250D01*
X93796397Y-96273083D01*
X93815215Y-96070000D01*
X93796397Y-95866917D01*
X93786746Y-95832999D01*
X93781537Y-95814690D01*
X93780642Y-95750140D01*
X93812315Y-95693888D01*
X93867972Y-95661180D01*
X93932527Y-95660882D01*
X93988484Y-95693074D01*
X94088181Y-95792771D01*
X94115061Y-95832999D01*
X94124500Y-95880452D01*
X94124500Y-105667256D01*
X94122235Y-105687762D01*
X94124439Y-105757873D01*
X94124500Y-105761768D01*
X94124500Y-105789349D01*
X94125003Y-105793334D01*
X94125918Y-105804967D01*
X94127290Y-105848626D01*
X94132879Y-105867860D01*
X94136825Y-105886916D01*
X94139335Y-105906792D01*
X94155414Y-105947404D01*
X94159197Y-105958451D01*
X94171382Y-106000391D01*
X94181580Y-106017635D01*
X94190136Y-106035100D01*
X94197514Y-106053732D01*
X94197515Y-106053733D01*
X94223180Y-106089059D01*
X94229593Y-106098822D01*
X94251826Y-106136416D01*
X94251829Y-106136419D01*
X94251830Y-106136420D01*
X94265995Y-106150585D01*
X94278627Y-106165375D01*
X94290406Y-106181587D01*
X94324058Y-106209426D01*
X94332699Y-106217289D01*
X97749196Y-109633787D01*
X97762096Y-109649888D01*
X97772979Y-109660108D01*
X97805026Y-109709230D01*
X97810912Y-109767586D01*
X97789321Y-109822119D01*
X97745083Y-109860629D01*
X97688095Y-109874500D01*
X95560453Y-109874500D01*
X95513000Y-109865061D01*
X95472772Y-109838181D01*
X88661819Y-103027228D01*
X88634939Y-102987000D01*
X88625500Y-102939547D01*
X88625500Y-101149999D01*
X91604785Y-101149999D01*
X91623602Y-101353083D01*
X91679418Y-101549251D01*
X91770324Y-101731818D01*
X91893236Y-101894580D01*
X92043958Y-102031981D01*
X92217361Y-102139347D01*
X92217363Y-102139348D01*
X92407544Y-102213024D01*
X92608024Y-102250500D01*
X92811974Y-102250500D01*
X92811976Y-102250500D01*
X93012456Y-102213024D01*
X93202637Y-102139348D01*
X93376041Y-102031981D01*
X93466819Y-101949226D01*
X93526763Y-101894580D01*
X93649675Y-101731818D01*
X93695313Y-101640161D01*
X93740582Y-101549250D01*
X93796397Y-101353083D01*
X93815215Y-101150000D01*
X93796397Y-100946917D01*
X93740582Y-100750750D01*
X93696798Y-100662819D01*
X93649675Y-100568181D01*
X93526763Y-100405419D01*
X93376041Y-100268018D01*
X93202638Y-100160652D01*
X93012457Y-100086976D01*
X92945629Y-100074483D01*
X92811976Y-100049500D01*
X92608024Y-100049500D01*
X92507783Y-100068238D01*
X92407542Y-100086976D01*
X92217361Y-100160652D01*
X92043958Y-100268018D01*
X91893236Y-100405419D01*
X91770324Y-100568181D01*
X91679418Y-100750748D01*
X91623602Y-100946916D01*
X91604785Y-101149999D01*
X88625500Y-101149999D01*
X88625500Y-98610000D01*
X91604785Y-98610000D01*
X91623602Y-98813083D01*
X91679418Y-99009251D01*
X91770324Y-99191818D01*
X91893236Y-99354580D01*
X92043958Y-99491981D01*
X92217361Y-99599347D01*
X92217363Y-99599348D01*
X92407544Y-99673024D01*
X92608024Y-99710500D01*
X92811974Y-99710500D01*
X92811976Y-99710500D01*
X93012456Y-99673024D01*
X93202637Y-99599348D01*
X93376041Y-99491981D01*
X93526764Y-99354579D01*
X93649673Y-99191821D01*
X93649673Y-99191819D01*
X93649675Y-99191818D01*
X93704905Y-99080900D01*
X93740582Y-99009250D01*
X93796397Y-98813083D01*
X93815215Y-98610000D01*
X93796397Y-98406917D01*
X93740582Y-98210750D01*
X93707122Y-98143553D01*
X93649675Y-98028181D01*
X93526763Y-97865419D01*
X93376041Y-97728018D01*
X93202638Y-97620652D01*
X93012457Y-97546976D01*
X92945629Y-97534484D01*
X92811976Y-97509500D01*
X92608024Y-97509500D01*
X92507783Y-97528238D01*
X92407542Y-97546976D01*
X92217361Y-97620652D01*
X92043958Y-97728018D01*
X91893236Y-97865419D01*
X91770324Y-98028181D01*
X91679418Y-98210748D01*
X91623602Y-98406916D01*
X91604785Y-98610000D01*
X88625500Y-98610000D01*
X88625500Y-93982740D01*
X88627763Y-93962236D01*
X88627259Y-93946207D01*
X88625561Y-93892144D01*
X88625500Y-93888250D01*
X88625500Y-93860657D01*
X88625500Y-93860650D01*
X88624995Y-93856653D01*
X88624080Y-93845023D01*
X88622709Y-93801372D01*
X88617119Y-93782134D01*
X88613174Y-93763082D01*
X88610664Y-93743208D01*
X88604446Y-93727504D01*
X88594578Y-93702581D01*
X88590805Y-93691560D01*
X88578617Y-93649610D01*
X88568421Y-93632369D01*
X88559863Y-93614902D01*
X88552486Y-93596268D01*
X88526798Y-93560912D01*
X88520409Y-93551184D01*
X88498170Y-93513579D01*
X88484005Y-93499414D01*
X88471369Y-93484620D01*
X88459595Y-93468414D01*
X88459594Y-93468413D01*
X88425935Y-93440568D01*
X88417305Y-93432714D01*
X86217665Y-91233074D01*
X86188716Y-91187504D01*
X86181875Y-91133955D01*
X86195215Y-90990000D01*
X86176397Y-90786917D01*
X86161246Y-90733669D01*
X86154200Y-90708904D01*
X86120582Y-90590750D01*
X86120209Y-90590001D01*
X86029675Y-90408181D01*
X85906763Y-90245419D01*
X85756041Y-90108018D01*
X85582638Y-90000652D01*
X85392457Y-89926976D01*
X85292756Y-89908339D01*
X85191976Y-89889500D01*
X84988024Y-89889500D01*
X84887784Y-89908237D01*
X84787542Y-89926976D01*
X84597361Y-90000652D01*
X84423958Y-90108018D01*
X84273236Y-90245419D01*
X84150324Y-90408181D01*
X84059418Y-90590748D01*
X84003602Y-90786916D01*
X83991221Y-90920539D01*
X83984785Y-90990000D01*
X83986380Y-91007221D01*
X84003602Y-91193083D01*
X84059418Y-91389251D01*
X84150324Y-91571818D01*
X84273236Y-91734580D01*
X84423958Y-91871981D01*
X84597361Y-91979347D01*
X84597363Y-91979348D01*
X84787544Y-92053024D01*
X84988024Y-92090500D01*
X85191975Y-92090500D01*
X85191976Y-92090500D01*
X85223719Y-92084566D01*
X85283183Y-92088004D01*
X85334184Y-92118774D01*
X85465895Y-92250485D01*
X85497480Y-92304232D01*
X85498920Y-92366556D01*
X85469851Y-92421704D01*
X85417620Y-92455738D01*
X85355430Y-92460054D01*
X85191976Y-92429500D01*
X84988024Y-92429500D01*
X84898323Y-92446268D01*
X84787542Y-92466976D01*
X84597361Y-92540652D01*
X84423958Y-92648018D01*
X84273236Y-92785419D01*
X84150324Y-92948181D01*
X84059418Y-93130748D01*
X84003602Y-93326916D01*
X83984785Y-93529999D01*
X84003602Y-93733083D01*
X84059418Y-93929251D01*
X84150324Y-94111818D01*
X84273236Y-94274580D01*
X84423958Y-94411981D01*
X84560662Y-94496624D01*
X84597363Y-94519348D01*
X84787544Y-94593024D01*
X84988024Y-94630500D01*
X85191975Y-94630500D01*
X85191976Y-94630500D01*
X85223719Y-94624566D01*
X85283183Y-94628004D01*
X85334184Y-94658774D01*
X85465895Y-94790485D01*
X85497480Y-94844232D01*
X85498920Y-94906556D01*
X85469851Y-94961704D01*
X85417620Y-94995738D01*
X85355430Y-95000054D01*
X85191976Y-94969500D01*
X84988024Y-94969500D01*
X84887784Y-94988237D01*
X84787542Y-95006976D01*
X84597361Y-95080652D01*
X84423958Y-95188018D01*
X84273236Y-95325419D01*
X84150324Y-95488181D01*
X84059418Y-95670748D01*
X84003602Y-95866916D01*
X83984785Y-96070000D01*
X84003602Y-96273083D01*
X84059418Y-96469251D01*
X84150324Y-96651818D01*
X84273236Y-96814580D01*
X84423958Y-96951981D01*
X84597361Y-97059347D01*
X84597363Y-97059348D01*
X84787544Y-97133024D01*
X84988024Y-97170500D01*
X85191974Y-97170500D01*
X85191976Y-97170500D01*
X85392456Y-97133024D01*
X85582637Y-97059348D01*
X85756041Y-96951981D01*
X85906764Y-96814579D01*
X86029673Y-96651821D01*
X86029673Y-96651819D01*
X86029675Y-96651818D01*
X86078515Y-96553732D01*
X86120582Y-96469250D01*
X86131234Y-96431814D01*
X86160161Y-96380809D01*
X86209288Y-96348798D01*
X86267632Y-96342938D01*
X86322144Y-96364541D01*
X86360636Y-96408775D01*
X86374500Y-96465749D01*
X86374500Y-98214251D01*
X86360636Y-98271225D01*
X86322144Y-98315459D01*
X86267632Y-98337062D01*
X86209288Y-98331202D01*
X86160161Y-98299191D01*
X86131234Y-98248186D01*
X86122975Y-98219161D01*
X86120582Y-98210750D01*
X86087122Y-98143553D01*
X86029675Y-98028181D01*
X85906763Y-97865419D01*
X85756041Y-97728018D01*
X85582638Y-97620652D01*
X85392457Y-97546976D01*
X85325629Y-97534484D01*
X85191976Y-97509500D01*
X84988024Y-97509500D01*
X84887783Y-97528238D01*
X84787542Y-97546976D01*
X84597361Y-97620652D01*
X84423958Y-97728018D01*
X84273236Y-97865419D01*
X84150324Y-98028181D01*
X84059418Y-98210748D01*
X84003602Y-98406916D01*
X83984785Y-98610000D01*
X84003602Y-98813083D01*
X84059418Y-99009251D01*
X84150324Y-99191818D01*
X84273236Y-99354580D01*
X84423958Y-99491981D01*
X84597361Y-99599347D01*
X84597363Y-99599348D01*
X84787544Y-99673024D01*
X84988024Y-99710500D01*
X85191974Y-99710500D01*
X85191976Y-99710500D01*
X85392456Y-99673024D01*
X85582637Y-99599348D01*
X85756041Y-99491981D01*
X85906764Y-99354579D01*
X86029673Y-99191821D01*
X86029673Y-99191819D01*
X86029675Y-99191818D01*
X86084905Y-99080900D01*
X86120582Y-99009250D01*
X86131234Y-98971814D01*
X86160161Y-98920809D01*
X86209288Y-98888798D01*
X86267632Y-98882938D01*
X86322144Y-98904541D01*
X86360636Y-98948775D01*
X86374500Y-99005749D01*
X86374500Y-100754251D01*
X86360636Y-100811225D01*
X86322144Y-100855459D01*
X86267632Y-100877062D01*
X86209288Y-100871202D01*
X86160161Y-100839191D01*
X86131234Y-100788186D01*
X86120581Y-100750748D01*
X86029675Y-100568181D01*
X85906763Y-100405419D01*
X85756041Y-100268018D01*
X85582638Y-100160652D01*
X85392457Y-100086976D01*
X85325629Y-100074483D01*
X85191976Y-100049500D01*
X84988024Y-100049500D01*
X84887783Y-100068238D01*
X84787542Y-100086976D01*
X84597361Y-100160652D01*
X84423958Y-100268018D01*
X84273236Y-100405419D01*
X84150324Y-100568181D01*
X84059418Y-100750748D01*
X84003602Y-100946916D01*
X83984785Y-101149999D01*
X76454500Y-101149999D01*
X76454500Y-88450000D01*
X83984785Y-88450000D01*
X84003602Y-88653083D01*
X84059418Y-88849251D01*
X84150324Y-89031818D01*
X84273236Y-89194580D01*
X84423958Y-89331981D01*
X84591849Y-89435934D01*
X84597363Y-89439348D01*
X84787544Y-89513024D01*
X84988024Y-89550500D01*
X85191974Y-89550500D01*
X85191976Y-89550500D01*
X85392456Y-89513024D01*
X85582637Y-89439348D01*
X85756041Y-89331981D01*
X85906764Y-89194579D01*
X86029673Y-89031821D01*
X86029673Y-89031819D01*
X86029675Y-89031818D01*
X86078485Y-88933793D01*
X86120582Y-88849250D01*
X86176397Y-88653083D01*
X86195215Y-88450000D01*
X86176397Y-88246917D01*
X86120582Y-88050750D01*
X86115668Y-88040882D01*
X86029675Y-87868181D01*
X85906763Y-87705419D01*
X85756041Y-87568018D01*
X85582638Y-87460652D01*
X85392457Y-87386976D01*
X85325629Y-87374484D01*
X85191976Y-87349500D01*
X84988024Y-87349500D01*
X84887783Y-87368238D01*
X84787542Y-87386976D01*
X84597361Y-87460652D01*
X84423958Y-87568018D01*
X84273236Y-87705419D01*
X84150324Y-87868181D01*
X84059418Y-88050748D01*
X84003602Y-88246916D01*
X83984785Y-88450000D01*
X76454500Y-88450000D01*
X76454500Y-85910000D01*
X83984785Y-85910000D01*
X84003602Y-86113083D01*
X84059418Y-86309251D01*
X84150324Y-86491818D01*
X84273236Y-86654580D01*
X84423958Y-86791981D01*
X84597361Y-86899347D01*
X84597363Y-86899348D01*
X84787544Y-86973024D01*
X84988024Y-87010500D01*
X85191974Y-87010500D01*
X85191976Y-87010500D01*
X85392456Y-86973024D01*
X85582637Y-86899348D01*
X85756041Y-86791981D01*
X85906764Y-86654579D01*
X86029673Y-86491821D01*
X86029673Y-86491819D01*
X86029675Y-86491818D01*
X86084284Y-86382146D01*
X86120582Y-86309250D01*
X86176397Y-86113083D01*
X86195215Y-85910000D01*
X86176397Y-85706917D01*
X86168938Y-85680703D01*
X86153733Y-85627263D01*
X86120582Y-85510750D01*
X86099630Y-85468673D01*
X86029675Y-85328181D01*
X85906763Y-85165419D01*
X85756041Y-85028018D01*
X85582638Y-84920652D01*
X85392457Y-84846976D01*
X85325629Y-84834484D01*
X85191976Y-84809500D01*
X84988024Y-84809500D01*
X84887784Y-84828237D01*
X84787542Y-84846976D01*
X84597361Y-84920652D01*
X84423958Y-85028018D01*
X84273236Y-85165419D01*
X84150324Y-85328181D01*
X84059418Y-85510748D01*
X84003602Y-85706916D01*
X83984785Y-85910000D01*
X76454500Y-85910000D01*
X76454500Y-83370000D01*
X83984785Y-83370000D01*
X84003602Y-83573083D01*
X84059418Y-83769251D01*
X84150324Y-83951818D01*
X84273236Y-84114580D01*
X84423958Y-84251981D01*
X84597361Y-84359347D01*
X84597363Y-84359348D01*
X84787544Y-84433024D01*
X84988024Y-84470500D01*
X85191974Y-84470500D01*
X85191976Y-84470500D01*
X85392456Y-84433024D01*
X85582637Y-84359348D01*
X85756041Y-84251981D01*
X85906764Y-84114579D01*
X86029673Y-83951821D01*
X86029673Y-83951819D01*
X86029675Y-83951818D01*
X86078485Y-83853793D01*
X86120582Y-83769250D01*
X86176397Y-83573083D01*
X86195215Y-83370000D01*
X91604785Y-83370000D01*
X91623602Y-83573083D01*
X91679418Y-83769251D01*
X91770324Y-83951818D01*
X91893236Y-84114580D01*
X92043958Y-84251981D01*
X92217361Y-84359347D01*
X92217363Y-84359348D01*
X92407544Y-84433024D01*
X92608024Y-84470500D01*
X92811974Y-84470500D01*
X92811976Y-84470500D01*
X93012456Y-84433024D01*
X93202637Y-84359348D01*
X93376041Y-84251981D01*
X93526764Y-84114579D01*
X93649673Y-83951821D01*
X93649673Y-83951819D01*
X93649675Y-83951818D01*
X93698485Y-83853793D01*
X93740582Y-83769250D01*
X93796397Y-83573083D01*
X93815215Y-83370000D01*
X93796397Y-83166917D01*
X93793869Y-83158033D01*
X93760330Y-83040157D01*
X93740582Y-82970750D01*
X93740209Y-82970001D01*
X93649675Y-82788181D01*
X93526763Y-82625419D01*
X93376041Y-82488018D01*
X93202638Y-82380652D01*
X93012457Y-82306976D01*
X92945629Y-82294483D01*
X92811976Y-82269500D01*
X92608024Y-82269500D01*
X92540775Y-82282071D01*
X92407542Y-82306976D01*
X92217361Y-82380652D01*
X92043958Y-82488018D01*
X91893236Y-82625419D01*
X91770324Y-82788181D01*
X91679418Y-82970748D01*
X91623602Y-83166916D01*
X91604785Y-83370000D01*
X86195215Y-83370000D01*
X86176397Y-83166917D01*
X86173869Y-83158033D01*
X86140330Y-83040157D01*
X86120582Y-82970750D01*
X86120209Y-82970001D01*
X86029675Y-82788181D01*
X85906763Y-82625419D01*
X85756041Y-82488018D01*
X85582638Y-82380652D01*
X85392457Y-82306976D01*
X85325629Y-82294483D01*
X85191976Y-82269500D01*
X84988024Y-82269500D01*
X84920775Y-82282071D01*
X84787542Y-82306976D01*
X84597361Y-82380652D01*
X84423958Y-82488018D01*
X84273236Y-82625419D01*
X84150324Y-82788181D01*
X84059418Y-82970748D01*
X84003602Y-83166916D01*
X83984785Y-83370000D01*
X76454500Y-83370000D01*
X76454500Y-80829999D01*
X83984785Y-80829999D01*
X84003602Y-81033083D01*
X84059418Y-81229251D01*
X84150324Y-81411818D01*
X84273236Y-81574580D01*
X84423958Y-81711981D01*
X84560662Y-81796624D01*
X84597363Y-81819348D01*
X84787544Y-81893024D01*
X84988024Y-81930500D01*
X85191974Y-81930500D01*
X85191976Y-81930500D01*
X85392456Y-81893024D01*
X85582637Y-81819348D01*
X85756041Y-81711981D01*
X85906764Y-81574579D01*
X86029673Y-81411821D01*
X86029673Y-81411819D01*
X86029675Y-81411818D01*
X86078485Y-81313793D01*
X86120582Y-81229250D01*
X86176397Y-81033083D01*
X86195215Y-80830000D01*
X86195215Y-80829999D01*
X91604785Y-80829999D01*
X91623602Y-81033083D01*
X91679418Y-81229251D01*
X91770324Y-81411818D01*
X91893236Y-81574580D01*
X92043958Y-81711981D01*
X92180662Y-81796624D01*
X92217363Y-81819348D01*
X92407544Y-81893024D01*
X92608024Y-81930500D01*
X92811974Y-81930500D01*
X92811976Y-81930500D01*
X93012456Y-81893024D01*
X93202637Y-81819348D01*
X93376041Y-81711981D01*
X93526764Y-81574579D01*
X93649673Y-81411821D01*
X93649673Y-81411819D01*
X93649675Y-81411818D01*
X93698485Y-81313793D01*
X93740582Y-81229250D01*
X93796397Y-81033083D01*
X93815215Y-80830000D01*
X93796397Y-80626917D01*
X93740582Y-80430750D01*
X93740209Y-80430001D01*
X93649675Y-80248181D01*
X93526763Y-80085419D01*
X93376041Y-79948018D01*
X93202638Y-79840652D01*
X93012457Y-79766976D01*
X92975138Y-79760000D01*
X101092500Y-79760000D01*
X102092500Y-79760000D01*
X102092500Y-78760000D01*
X102592500Y-78760000D01*
X102592500Y-79760000D01*
X103592500Y-79760000D01*
X103592500Y-79212176D01*
X103586097Y-79152624D01*
X103535852Y-79017910D01*
X103449688Y-78902811D01*
X103334589Y-78816647D01*
X103199875Y-78766402D01*
X103140324Y-78760000D01*
X102592500Y-78760000D01*
X102092500Y-78760000D01*
X101544676Y-78760000D01*
X101485124Y-78766402D01*
X101350410Y-78816647D01*
X101235311Y-78902811D01*
X101149147Y-79017910D01*
X101098902Y-79152624D01*
X101092500Y-79212176D01*
X101092500Y-79760000D01*
X92975138Y-79760000D01*
X92941264Y-79753668D01*
X92811976Y-79729500D01*
X92608024Y-79729500D01*
X92507784Y-79748237D01*
X92407542Y-79766976D01*
X92217361Y-79840652D01*
X92043958Y-79948018D01*
X91893236Y-80085419D01*
X91770324Y-80248181D01*
X91679418Y-80430748D01*
X91623602Y-80626916D01*
X91604785Y-80829999D01*
X86195215Y-80829999D01*
X86176397Y-80626917D01*
X86120582Y-80430750D01*
X86120209Y-80430001D01*
X86029675Y-80248181D01*
X85906763Y-80085419D01*
X85756041Y-79948018D01*
X85582638Y-79840652D01*
X85392457Y-79766976D01*
X85321264Y-79753668D01*
X85191976Y-79729500D01*
X84988024Y-79729500D01*
X84887784Y-79748237D01*
X84787542Y-79766976D01*
X84597361Y-79840652D01*
X84423958Y-79948018D01*
X84273236Y-80085419D01*
X84150324Y-80248181D01*
X84059418Y-80430748D01*
X84003602Y-80626916D01*
X83984785Y-80829999D01*
X76454500Y-80829999D01*
X76454500Y-63502425D01*
X76454548Y-63499999D01*
X80190448Y-63499999D01*
X80210634Y-63807989D01*
X80270847Y-64110697D01*
X80370056Y-64402959D01*
X80506567Y-64679775D01*
X80678041Y-64936403D01*
X80684128Y-64943344D01*
X80881545Y-65168455D01*
X81098200Y-65358456D01*
X81113596Y-65371958D01*
X81370224Y-65543432D01*
X81647040Y-65679943D01*
X81939302Y-65779152D01*
X82242010Y-65839365D01*
X82242012Y-65839365D01*
X82242017Y-65839366D01*
X82550000Y-65859552D01*
X82857983Y-65839366D01*
X82857987Y-65839365D01*
X82857989Y-65839365D01*
X83160697Y-65779152D01*
X83452959Y-65679943D01*
X83589172Y-65612770D01*
X83729776Y-65543432D01*
X83986404Y-65371958D01*
X84218455Y-65168455D01*
X84421958Y-64936404D01*
X84593432Y-64679776D01*
X84729942Y-64402961D01*
X84785430Y-64239500D01*
X84829152Y-64110697D01*
X84889365Y-63807989D01*
X84889365Y-63807987D01*
X84889366Y-63807983D01*
X84906930Y-63540000D01*
X111444450Y-63540000D01*
X111464616Y-63809100D01*
X111487084Y-63907539D01*
X111524666Y-64072195D01*
X111623257Y-64323398D01*
X111758185Y-64557102D01*
X111926439Y-64768085D01*
X112124259Y-64951635D01*
X112347226Y-65103651D01*
X112590359Y-65220738D01*
X112848228Y-65300280D01*
X113115071Y-65340500D01*
X113384929Y-65340500D01*
X113651772Y-65300280D01*
X113909641Y-65220738D01*
X114152775Y-65103651D01*
X114375741Y-64951635D01*
X114573561Y-64768085D01*
X114741815Y-64557102D01*
X114876743Y-64323398D01*
X114975334Y-64072195D01*
X115035383Y-63809103D01*
X115055549Y-63540000D01*
X115035383Y-63270897D01*
X114975334Y-63007805D01*
X114876743Y-62756602D01*
X114741815Y-62522898D01*
X114573561Y-62311915D01*
X114560233Y-62299548D01*
X114375743Y-62128366D01*
X114293575Y-62072345D01*
X114152775Y-61976349D01*
X113909641Y-61859262D01*
X113819785Y-61831545D01*
X113651771Y-61779719D01*
X113384929Y-61739500D01*
X113115071Y-61739500D01*
X112848228Y-61779719D01*
X112590359Y-61859262D01*
X112347228Y-61976347D01*
X112124257Y-62128366D01*
X111926439Y-62311915D01*
X111758184Y-62522899D01*
X111623257Y-62756601D01*
X111524666Y-63007804D01*
X111464616Y-63270899D01*
X111444450Y-63540000D01*
X84906930Y-63540000D01*
X84909552Y-63500000D01*
X84889366Y-63192017D01*
X84881564Y-63152796D01*
X84829152Y-62889302D01*
X84729943Y-62597040D01*
X84671585Y-62478702D01*
X102164848Y-62478702D01*
X102347479Y-62603217D01*
X102590542Y-62720270D01*
X102848339Y-62799791D01*
X103115109Y-62840000D01*
X103384891Y-62840000D01*
X103651660Y-62799791D01*
X103909460Y-62720270D01*
X104152523Y-62603217D01*
X104335150Y-62478702D01*
X103250000Y-61393553D01*
X102164848Y-62478702D01*
X84671585Y-62478702D01*
X84593432Y-62320224D01*
X84421958Y-62063596D01*
X84382326Y-62018404D01*
X84218455Y-61831545D01*
X83986404Y-61628042D01*
X83968961Y-61616387D01*
X83729775Y-61456567D01*
X83452959Y-61320056D01*
X83160697Y-61220847D01*
X82857989Y-61160634D01*
X82550000Y-61140448D01*
X82242010Y-61160634D01*
X81939302Y-61220847D01*
X81647040Y-61320056D01*
X81370224Y-61456567D01*
X81113596Y-61628041D01*
X80881545Y-61831545D01*
X80678041Y-62063596D01*
X80506567Y-62320224D01*
X80370056Y-62597040D01*
X80270847Y-62889302D01*
X80210634Y-63192010D01*
X80190448Y-63499999D01*
X76454548Y-63499999D01*
X76454596Y-63497557D01*
X76457124Y-63433216D01*
X76473099Y-63026602D01*
X76473860Y-63016932D01*
X76528974Y-62551282D01*
X76530496Y-62541676D01*
X76534231Y-62522899D01*
X76621970Y-62081803D01*
X76624241Y-62072345D01*
X76751514Y-61621069D01*
X76754519Y-61611821D01*
X76769192Y-61572049D01*
X76916809Y-61171914D01*
X76920524Y-61162943D01*
X76977202Y-61040000D01*
X101444952Y-61040000D01*
X101465113Y-61309026D01*
X101525146Y-61572049D01*
X101623708Y-61823178D01*
X101758598Y-62056816D01*
X101812295Y-62124150D01*
X102896447Y-61040001D01*
X102896447Y-61040000D01*
X103603553Y-61040000D01*
X104687703Y-62124151D01*
X104687704Y-62124150D01*
X104741400Y-62056818D01*
X104876291Y-61823178D01*
X104974853Y-61572049D01*
X105034886Y-61309026D01*
X105055047Y-61040000D01*
X105034886Y-60770973D01*
X104974853Y-60507950D01*
X104876291Y-60256821D01*
X104741398Y-60023178D01*
X104722914Y-60000000D01*
X135555000Y-60000000D01*
X135555000Y-60127918D01*
X135569571Y-60271210D01*
X135627107Y-60454587D01*
X135720378Y-60622632D01*
X135845568Y-60768461D01*
X135997548Y-60886102D01*
X136170106Y-60970746D01*
X136250000Y-60991432D01*
X136250000Y-60000000D01*
X135555000Y-60000000D01*
X104722914Y-60000000D01*
X104687704Y-59955847D01*
X103603553Y-61040000D01*
X102896447Y-61040000D01*
X101812295Y-59955848D01*
X101758598Y-60023182D01*
X101623708Y-60256821D01*
X101525146Y-60507950D01*
X101465113Y-60770973D01*
X101444952Y-61040000D01*
X76977202Y-61040000D01*
X77116839Y-60737104D01*
X77121250Y-60728451D01*
X77126223Y-60719572D01*
X77180752Y-60622203D01*
X77350355Y-60319356D01*
X77355442Y-60311054D01*
X77358589Y-60306344D01*
X77615940Y-59921189D01*
X77621641Y-59913343D01*
X77867638Y-59601296D01*
X102164848Y-59601296D01*
X103250000Y-60686447D01*
X103250001Y-60686447D01*
X104335150Y-59601296D01*
X104186576Y-59500000D01*
X135555000Y-59500000D01*
X136250000Y-59500000D01*
X136250000Y-58504862D01*
X136249999Y-58504861D01*
X136081681Y-58567199D01*
X135918576Y-58668862D01*
X135779277Y-58801277D01*
X135669482Y-58959024D01*
X135593690Y-59135641D01*
X135555000Y-59323905D01*
X135555000Y-59500000D01*
X104186576Y-59500000D01*
X104152519Y-59476780D01*
X103909460Y-59359729D01*
X103651660Y-59280208D01*
X103384891Y-59240000D01*
X103115109Y-59240000D01*
X102848339Y-59280208D01*
X102590542Y-59359729D01*
X102347476Y-59476783D01*
X102164848Y-59601296D01*
X77867638Y-59601296D01*
X77911933Y-59545108D01*
X77918238Y-59537726D01*
X78236529Y-59193402D01*
X78243408Y-59186524D01*
X78333942Y-59102835D01*
X78587726Y-58868238D01*
X78595108Y-58861933D01*
X78963343Y-58571641D01*
X78971189Y-58565940D01*
X79107291Y-58475000D01*
X136750000Y-58475000D01*
X136750000Y-61025000D01*
X136850000Y-61025000D01*
X136850000Y-60000000D01*
X137350000Y-60000000D01*
X137350000Y-61025000D01*
X137747824Y-61025000D01*
X137807375Y-61018597D01*
X137931666Y-60972240D01*
X137975000Y-60964422D01*
X138018334Y-60972240D01*
X138142624Y-61018597D01*
X138202176Y-61025000D01*
X138750000Y-61025000D01*
X138750000Y-60000000D01*
X139250000Y-60000000D01*
X139250000Y-61025000D01*
X139797824Y-61025000D01*
X139857378Y-61018597D01*
X139956665Y-60981565D01*
X139999999Y-60973746D01*
X140043333Y-60981564D01*
X140142624Y-61018597D01*
X140202176Y-61025000D01*
X140750000Y-61025000D01*
X140750000Y-60000000D01*
X141250000Y-60000000D01*
X141250000Y-61025000D01*
X141797824Y-61025000D01*
X141857375Y-61018597D01*
X141981666Y-60972240D01*
X142025000Y-60964422D01*
X142068334Y-60972240D01*
X142192624Y-61018597D01*
X142252176Y-61025000D01*
X142650000Y-61025000D01*
X142650000Y-60000000D01*
X141250000Y-60000000D01*
X140750000Y-60000000D01*
X139250000Y-60000000D01*
X138750000Y-60000000D01*
X137350000Y-60000000D01*
X136850000Y-60000000D01*
X136850000Y-58475000D01*
X137350000Y-58475000D01*
X137350000Y-59500000D01*
X138750000Y-59500000D01*
X138750000Y-58475000D01*
X139250000Y-58475000D01*
X139250000Y-59500000D01*
X140750000Y-59500000D01*
X140750000Y-58475000D01*
X141250000Y-58475000D01*
X141250000Y-59500000D01*
X142650000Y-59500000D01*
X142650000Y-58475000D01*
X143150000Y-58475000D01*
X143150000Y-61025000D01*
X143250000Y-61025000D01*
X143250000Y-60000000D01*
X143750000Y-60000000D01*
X143750000Y-60995138D01*
X143918318Y-60932800D01*
X144081423Y-60831137D01*
X144220722Y-60698722D01*
X144330517Y-60540975D01*
X144406309Y-60364358D01*
X144429811Y-60250000D01*
X147800001Y-60250000D01*
X147800001Y-60524979D01*
X147810493Y-60627695D01*
X147865642Y-60794122D01*
X147957683Y-60943345D01*
X148081654Y-61067316D01*
X148230877Y-61159357D01*
X148397303Y-61214506D01*
X148500021Y-61225000D01*
X148550000Y-61225000D01*
X148550000Y-61224999D01*
X149050000Y-61224999D01*
X149099979Y-61224999D01*
X149202695Y-61214506D01*
X149369122Y-61159357D01*
X149518345Y-61067316D01*
X149642313Y-60943348D01*
X149644164Y-60940348D01*
X149689271Y-60897164D01*
X149749704Y-60881440D01*
X149810138Y-60897163D01*
X149855246Y-60940345D01*
X149857290Y-60943659D01*
X149981342Y-61067711D01*
X150004570Y-61082038D01*
X150130666Y-61159814D01*
X150242017Y-61196712D01*
X150297202Y-61214999D01*
X150306729Y-61215972D01*
X150399991Y-61225500D01*
X150883480Y-61225499D01*
X150930932Y-61234938D01*
X150971161Y-61261818D01*
X151150681Y-61441337D01*
X151177561Y-61481565D01*
X151187000Y-61529018D01*
X151187000Y-63838332D01*
X151171277Y-63898764D01*
X151128096Y-63943871D01*
X151106342Y-63957288D01*
X150982288Y-64081342D01*
X150890186Y-64230665D01*
X150835000Y-64397202D01*
X150824500Y-64499990D01*
X150824500Y-67500008D01*
X150835000Y-67602796D01*
X150890186Y-67769334D01*
X150982288Y-67918657D01*
X151106342Y-68042711D01*
X151114802Y-68047929D01*
X151255666Y-68134814D01*
X151367016Y-68171712D01*
X151422202Y-68189999D01*
X151432703Y-68191071D01*
X151524991Y-68200500D01*
X152250008Y-68200499D01*
X152352797Y-68189999D01*
X152519334Y-68134814D01*
X152668656Y-68042712D01*
X152792712Y-67918656D01*
X152884814Y-67769334D01*
X152939999Y-67602797D01*
X152950500Y-67500009D01*
X152950500Y-66825977D01*
X152968383Y-66761827D01*
X153016875Y-66716180D01*
X153081986Y-66702203D01*
X153117606Y-66704358D01*
X153176782Y-66693513D01*
X153184181Y-66692387D01*
X153243872Y-66685140D01*
X153253335Y-66681550D01*
X153274958Y-66675522D01*
X153284932Y-66673695D01*
X153339808Y-66648996D01*
X153346673Y-66646152D01*
X153402930Y-66624818D01*
X153411270Y-66619060D01*
X153430819Y-66608035D01*
X153440057Y-66603878D01*
X153487413Y-66566775D01*
X153493426Y-66562352D01*
X153542929Y-66528183D01*
X153582823Y-66483150D01*
X153587924Y-66477731D01*
X156065656Y-64000000D01*
X169240000Y-64000000D01*
X172590000Y-64000000D01*
X172590000Y-60850000D01*
X173090000Y-60850000D01*
X173090000Y-64000000D01*
X176440000Y-64000000D01*
X176440000Y-63499999D01*
X194490448Y-63499999D01*
X194510634Y-63807989D01*
X194570847Y-64110697D01*
X194670056Y-64402959D01*
X194806567Y-64679775D01*
X194978041Y-64936403D01*
X194984128Y-64943344D01*
X195181545Y-65168455D01*
X195398200Y-65358456D01*
X195413596Y-65371958D01*
X195670224Y-65543432D01*
X195947040Y-65679943D01*
X196239302Y-65779152D01*
X196542010Y-65839365D01*
X196542012Y-65839365D01*
X196542017Y-65839366D01*
X196850000Y-65859552D01*
X197157983Y-65839366D01*
X197157987Y-65839365D01*
X197157989Y-65839365D01*
X197460697Y-65779152D01*
X197752959Y-65679943D01*
X197889172Y-65612770D01*
X198029776Y-65543432D01*
X198286404Y-65371958D01*
X198518455Y-65168455D01*
X198721958Y-64936404D01*
X198893432Y-64679776D01*
X199029942Y-64402961D01*
X199085430Y-64239500D01*
X199129152Y-64110697D01*
X199189365Y-63807989D01*
X199189365Y-63807987D01*
X199189366Y-63807983D01*
X199209552Y-63500000D01*
X199189366Y-63192017D01*
X199181564Y-63152796D01*
X199129152Y-62889302D01*
X199029943Y-62597040D01*
X198893432Y-62320224D01*
X198721958Y-62063596D01*
X198682326Y-62018404D01*
X198518455Y-61831545D01*
X198286404Y-61628042D01*
X198268961Y-61616387D01*
X198029775Y-61456567D01*
X197752959Y-61320056D01*
X197460697Y-61220847D01*
X197157989Y-61160634D01*
X196893997Y-61143331D01*
X196850000Y-61140448D01*
X196849999Y-61140448D01*
X196542010Y-61160634D01*
X196239302Y-61220847D01*
X195947040Y-61320056D01*
X195670224Y-61456567D01*
X195413596Y-61628041D01*
X195181545Y-61831545D01*
X194978041Y-62063596D01*
X194806567Y-62320224D01*
X194670056Y-62597040D01*
X194570847Y-62889302D01*
X194510634Y-63192010D01*
X194490448Y-63499999D01*
X176440000Y-63499999D01*
X176440000Y-61302176D01*
X176433597Y-61242624D01*
X176383352Y-61107910D01*
X176297188Y-60992811D01*
X176182089Y-60906647D01*
X176047375Y-60856402D01*
X175987824Y-60850000D01*
X173090000Y-60850000D01*
X172590000Y-60850000D01*
X169692176Y-60850000D01*
X169632624Y-60856402D01*
X169497910Y-60906647D01*
X169382811Y-60992811D01*
X169296647Y-61107910D01*
X169246402Y-61242624D01*
X169240000Y-61302176D01*
X169240000Y-64000000D01*
X156065656Y-64000000D01*
X157328837Y-62736819D01*
X157369066Y-62709939D01*
X157416519Y-62700500D01*
X157606501Y-62700500D01*
X157668501Y-62717113D01*
X157713888Y-62762500D01*
X157730501Y-62824500D01*
X157730501Y-63050009D01*
X157741000Y-63152796D01*
X157796186Y-63319334D01*
X157888288Y-63468657D01*
X158012342Y-63592711D01*
X158065502Y-63625500D01*
X158161666Y-63684814D01*
X158273016Y-63721712D01*
X158328202Y-63739999D01*
X158338702Y-63741071D01*
X158430991Y-63750500D01*
X159831008Y-63750499D01*
X159933797Y-63739999D01*
X160100334Y-63684814D01*
X160249656Y-63592712D01*
X160373712Y-63468656D01*
X160465814Y-63319334D01*
X160520999Y-63152797D01*
X160531500Y-63050009D01*
X160531500Y-62789500D01*
X160548113Y-62727500D01*
X160593500Y-62682113D01*
X160655500Y-62665500D01*
X163545501Y-62665500D01*
X163607501Y-62682113D01*
X163652888Y-62727500D01*
X163669501Y-62789500D01*
X163669501Y-62812870D01*
X163675909Y-62872484D01*
X163682182Y-62889302D01*
X163726204Y-63007331D01*
X163812454Y-63122546D01*
X163927669Y-63208796D01*
X164062517Y-63259091D01*
X164122127Y-63265500D01*
X167217872Y-63265499D01*
X167277483Y-63259091D01*
X167412331Y-63208796D01*
X167527546Y-63122546D01*
X167613796Y-63007331D01*
X167664091Y-62872483D01*
X167670500Y-62812873D01*
X167670499Y-61117128D01*
X167664091Y-61057517D01*
X167613796Y-60922669D01*
X167527546Y-60807454D01*
X167412331Y-60721204D01*
X167277483Y-60670909D01*
X167217873Y-60664500D01*
X167217869Y-60664500D01*
X164122130Y-60664500D01*
X164062515Y-60670909D01*
X163927669Y-60721204D01*
X163812454Y-60807454D01*
X163726204Y-60922668D01*
X163675909Y-61057516D01*
X163669500Y-61117131D01*
X163669500Y-61140500D01*
X163652887Y-61202500D01*
X163607500Y-61247887D01*
X163545500Y-61264500D01*
X160655499Y-61264500D01*
X160593499Y-61247887D01*
X160548112Y-61202500D01*
X160531499Y-61140500D01*
X160531499Y-60949991D01*
X160520999Y-60847203D01*
X160503480Y-60794334D01*
X160465814Y-60680666D01*
X160408593Y-60587895D01*
X160373711Y-60531342D01*
X160249657Y-60407288D01*
X160100334Y-60315186D01*
X159933797Y-60260000D01*
X159831009Y-60249500D01*
X158430991Y-60249500D01*
X158328203Y-60260000D01*
X158161665Y-60315186D01*
X158012342Y-60407288D01*
X157888288Y-60531342D01*
X157796186Y-60680665D01*
X157741000Y-60847202D01*
X157730500Y-60949991D01*
X157730500Y-61175500D01*
X157713887Y-61237500D01*
X157668500Y-61282887D01*
X157606500Y-61299500D01*
X157099910Y-61299500D01*
X157092423Y-61299274D01*
X157032391Y-61295642D01*
X156973242Y-61306481D01*
X156965843Y-61307608D01*
X156906122Y-61314860D01*
X156896641Y-61318456D01*
X156875036Y-61324479D01*
X156865069Y-61326305D01*
X156810234Y-61350984D01*
X156803318Y-61353848D01*
X156747069Y-61375181D01*
X156738725Y-61380941D01*
X156719183Y-61391963D01*
X156709944Y-61396121D01*
X156662594Y-61433216D01*
X156656566Y-61437652D01*
X156607067Y-61471819D01*
X156567183Y-61516838D01*
X156562051Y-61522290D01*
X153162180Y-64922162D01*
X153112817Y-64952412D01*
X153055101Y-64956954D01*
X153001614Y-64934799D01*
X152964014Y-64890776D01*
X152950499Y-64834481D01*
X152950499Y-64499991D01*
X152939999Y-64397203D01*
X152939998Y-64397202D01*
X152884814Y-64230666D01*
X152792712Y-64081344D01*
X152792711Y-64081342D01*
X152668657Y-63957288D01*
X152646904Y-63943871D01*
X152603723Y-63898764D01*
X152588000Y-63838332D01*
X152588000Y-61212421D01*
X152588226Y-61204934D01*
X152588427Y-61201602D01*
X152591858Y-61144894D01*
X152581007Y-61085685D01*
X152579890Y-61078341D01*
X152572640Y-61018628D01*
X152569047Y-61009156D01*
X152563022Y-60987544D01*
X152561195Y-60977569D01*
X152536509Y-60922720D01*
X152533652Y-60915826D01*
X152512318Y-60859570D01*
X152506553Y-60851219D01*
X152495536Y-60831683D01*
X152491378Y-60822444D01*
X152454288Y-60775103D01*
X152449852Y-60769074D01*
X152427800Y-60737126D01*
X152415683Y-60719571D01*
X152370645Y-60679671D01*
X152365207Y-60674551D01*
X151736818Y-60046161D01*
X151709938Y-60005933D01*
X151700499Y-59958480D01*
X151700499Y-59474991D01*
X151689999Y-59372203D01*
X151689959Y-59372082D01*
X151634814Y-59205666D01*
X151542712Y-59056344D01*
X151542711Y-59056342D01*
X151418657Y-58932288D01*
X151269334Y-58840186D01*
X151102797Y-58785000D01*
X151004903Y-58775000D01*
X151000008Y-58774500D01*
X150399991Y-58774500D01*
X150297203Y-58785000D01*
X150130665Y-58840186D01*
X149981342Y-58932288D01*
X149857286Y-59056344D01*
X149855242Y-59059659D01*
X149810135Y-59102837D01*
X149749704Y-59118558D01*
X149689274Y-59102835D01*
X149644168Y-59059656D01*
X149642316Y-59056654D01*
X149518345Y-58932683D01*
X149369122Y-58840642D01*
X149202696Y-58785493D01*
X149099979Y-58775000D01*
X149050000Y-58775000D01*
X149050000Y-61224999D01*
X148550000Y-61224999D01*
X148550000Y-60250000D01*
X147800001Y-60250000D01*
X144429811Y-60250000D01*
X144445000Y-60176095D01*
X144445000Y-60000000D01*
X143750000Y-60000000D01*
X143250000Y-60000000D01*
X143250000Y-59750000D01*
X147800000Y-59750000D01*
X148550000Y-59750000D01*
X148550000Y-58775001D01*
X148500021Y-58775001D01*
X148397304Y-58785493D01*
X148230877Y-58840642D01*
X148081654Y-58932683D01*
X147957683Y-59056654D01*
X147865642Y-59205877D01*
X147810493Y-59372303D01*
X147800000Y-59475021D01*
X147800000Y-59750000D01*
X143250000Y-59750000D01*
X143250000Y-58508567D01*
X143749999Y-58508567D01*
X143750000Y-58508568D01*
X143750000Y-59500000D01*
X144445000Y-59500000D01*
X144445000Y-59372082D01*
X144430428Y-59228789D01*
X144372892Y-59045412D01*
X144279621Y-58877367D01*
X144154431Y-58731538D01*
X144002451Y-58613897D01*
X143829893Y-58529253D01*
X143749999Y-58508567D01*
X143250000Y-58508567D01*
X143250000Y-58475000D01*
X143150000Y-58475000D01*
X142650000Y-58475000D01*
X142252176Y-58475000D01*
X142192624Y-58481402D01*
X142068334Y-58527760D01*
X142025000Y-58535578D01*
X141981666Y-58527760D01*
X141857375Y-58481402D01*
X141797824Y-58475000D01*
X141250000Y-58475000D01*
X140750000Y-58475000D01*
X140202176Y-58475000D01*
X140142622Y-58481402D01*
X140043332Y-58518435D01*
X139999999Y-58526253D01*
X139956666Y-58518435D01*
X139857377Y-58481402D01*
X139797824Y-58475000D01*
X139250000Y-58475000D01*
X138750000Y-58475000D01*
X138202176Y-58475000D01*
X138142624Y-58481402D01*
X138018334Y-58527760D01*
X137975000Y-58535578D01*
X137931666Y-58527760D01*
X137807375Y-58481402D01*
X137747824Y-58475000D01*
X137350000Y-58475000D01*
X136850000Y-58475000D01*
X136750000Y-58475000D01*
X79107291Y-58475000D01*
X79361056Y-58305440D01*
X79369356Y-58300355D01*
X79778451Y-58071250D01*
X79787104Y-58066839D01*
X80212943Y-57870524D01*
X80221914Y-57866809D01*
X80661831Y-57704515D01*
X80671069Y-57701514D01*
X81122355Y-57574238D01*
X81131803Y-57571970D01*
X81591685Y-57480494D01*
X81601282Y-57478974D01*
X82066932Y-57423860D01*
X82076602Y-57423099D01*
X82547556Y-57404596D01*
X82552425Y-57404500D01*
X82594875Y-57404500D01*
X196805125Y-57404500D01*
X196847575Y-57404500D01*
X196852443Y-57404596D01*
G37*
G04 #@! TD.AperFunction*
M02*
