G04 #@! TF.GenerationSoftware,KiCad,Pcbnew,7.0.1-0*
G04 #@! TF.CreationDate,2023-04-17T19:11:43-07:00*
G04 #@! TF.ProjectId,msp-debugger,6d73702d-6465-4627-9567-6765722e6b69,rev?*
G04 #@! TF.SameCoordinates,Original*
G04 #@! TF.FileFunction,Copper,L2,Bot*
G04 #@! TF.FilePolarity,Positive*
%FSLAX46Y46*%
G04 Gerber Fmt 4.6, Leading zero omitted, Abs format (unit mm)*
G04 Created by KiCad (PCBNEW 7.0.1-0) date 2023-04-17 19:11:43*
%MOMM*%
%LPD*%
G01*
G04 APERTURE LIST*
G04 #@! TA.AperFunction,ComponentPad*
%ADD10R,1.508000X1.508000*%
G04 #@! TD*
G04 #@! TA.AperFunction,ComponentPad*
%ADD11C,1.508000*%
G04 #@! TD*
G04 #@! TA.AperFunction,ComponentPad*
%ADD12O,0.890000X1.550000*%
G04 #@! TD*
G04 #@! TA.AperFunction,ComponentPad*
%ADD13O,1.250000X0.950000*%
G04 #@! TD*
G04 #@! TA.AperFunction,ComponentPad*
%ADD14C,2.600000*%
G04 #@! TD*
G04 #@! TA.AperFunction,ComponentPad*
%ADD15R,1.500000X1.500000*%
G04 #@! TD*
G04 #@! TA.AperFunction,ComponentPad*
%ADD16C,1.500000*%
G04 #@! TD*
G04 #@! TA.AperFunction,ComponentPad*
%ADD17R,1.200000X1.200000*%
G04 #@! TD*
G04 #@! TA.AperFunction,ComponentPad*
%ADD18C,1.200000*%
G04 #@! TD*
G04 #@! TA.AperFunction,ViaPad*
%ADD19C,0.800000*%
G04 #@! TD*
G04 #@! TA.AperFunction,ViaPad*
%ADD20C,0.711200*%
G04 #@! TD*
G04 #@! TA.AperFunction,Conductor*
%ADD21C,0.400000*%
G04 #@! TD*
G04 APERTURE END LIST*
D10*
X187250000Y-80750000D03*
D11*
X187250000Y-85250000D03*
X193750000Y-80750000D03*
X193750000Y-85250000D03*
D10*
X114000000Y-116000000D03*
D11*
X114000000Y-120500000D03*
X120500000Y-116000000D03*
X120500000Y-120500000D03*
D10*
X102110000Y-116000000D03*
D11*
X102110000Y-120500000D03*
X108610000Y-116000000D03*
X108610000Y-120500000D03*
D12*
X143500000Y-59750000D03*
D13*
X142500000Y-62450000D03*
X137500000Y-62450000D03*
D12*
X136500000Y-59750000D03*
D10*
X85500000Y-116000000D03*
D11*
X85500000Y-120500000D03*
X92000000Y-116000000D03*
X92000000Y-120500000D03*
D14*
X103250000Y-61040000D03*
X113250000Y-63540000D03*
X103250000Y-66040000D03*
D15*
X102342500Y-80010000D03*
D16*
X102342500Y-82550000D03*
X102342500Y-85090000D03*
X102342500Y-87630000D03*
X102342500Y-90170000D03*
X102342500Y-92710000D03*
X102342500Y-95250000D03*
X102342500Y-97790000D03*
X177342500Y-80010000D03*
X177342500Y-82550000D03*
X177342500Y-85090000D03*
X177342500Y-87630000D03*
X177342500Y-90170000D03*
X177342500Y-92710000D03*
X177342500Y-95250000D03*
X177342500Y-97790000D03*
D17*
X85090000Y-78290000D03*
D18*
X85090000Y-80830000D03*
X85090000Y-83370000D03*
X85090000Y-85910000D03*
X85090000Y-88450000D03*
X85090000Y-90990000D03*
X85090000Y-93530000D03*
X85090000Y-96070000D03*
X85090000Y-98610000D03*
X85090000Y-101150000D03*
X92710000Y-101150000D03*
X92710000Y-98610000D03*
X92710000Y-96070000D03*
X92710000Y-93530000D03*
X92710000Y-90990000D03*
X92710000Y-88450000D03*
X92710000Y-85910000D03*
X92710000Y-83370000D03*
X92710000Y-80830000D03*
X92710000Y-78290000D03*
D10*
X167000000Y-116000000D03*
D11*
X167000000Y-120500000D03*
X173500000Y-116000000D03*
X173500000Y-120500000D03*
D10*
X187250000Y-91730000D03*
D11*
X187250000Y-96230000D03*
X193750000Y-91730000D03*
X193750000Y-96230000D03*
D19*
X163750000Y-69500000D03*
X151750000Y-131500000D03*
X119500000Y-69500000D03*
D20*
X167640000Y-132080000D03*
X127000000Y-81280000D03*
X127000000Y-60960000D03*
X157480000Y-81280000D03*
X187960000Y-71120000D03*
X121920000Y-132080000D03*
X157480000Y-71120000D03*
X147320000Y-71120000D03*
X198120000Y-91440000D03*
X198120000Y-71120000D03*
X198120000Y-81280000D03*
X157480000Y-132080000D03*
X81280000Y-71120000D03*
X116840000Y-60960000D03*
X106680000Y-71120000D03*
X198120000Y-101600000D03*
X127000000Y-71120000D03*
X177800000Y-60960000D03*
X187960000Y-132080000D03*
X81280000Y-81280000D03*
X81280000Y-101600000D03*
X198120000Y-121920000D03*
X142240000Y-132080000D03*
X198120000Y-111760000D03*
X167640000Y-101600000D03*
X81280000Y-111760000D03*
X91440000Y-60960000D03*
X96520000Y-71120000D03*
X91440000Y-132080000D03*
X187960000Y-111760000D03*
X147320000Y-101600000D03*
X101600000Y-132080000D03*
X147320000Y-91440000D03*
X111760000Y-132080000D03*
X177800000Y-121920000D03*
X81280000Y-121920000D03*
X137160000Y-81280000D03*
X187960000Y-121920000D03*
X157480000Y-121920000D03*
X177800000Y-132080000D03*
X137160000Y-91440000D03*
X116840000Y-81280000D03*
X177800000Y-101600000D03*
X81280000Y-91440000D03*
X137160000Y-71120000D03*
X187960000Y-60960000D03*
X187960000Y-101600000D03*
D21*
X98250000Y-71040000D02*
X98250000Y-88617500D01*
X98250000Y-88617500D02*
X102342500Y-92710000D01*
X99250000Y-95802500D02*
X99250000Y-113140000D01*
X151750000Y-131500000D02*
X163750000Y-119500000D01*
X102110000Y-116000000D02*
X104860000Y-113250000D01*
X102342500Y-92710000D02*
X99250000Y-95802500D01*
X111250000Y-113250000D02*
X114000000Y-116000000D01*
X103250000Y-66040000D02*
X98250000Y-71040000D01*
X119500000Y-69500000D02*
X163750000Y-69500000D01*
X99250000Y-113140000D02*
X102110000Y-116000000D01*
X104860000Y-113250000D02*
X111250000Y-113250000D01*
X163750000Y-119500000D02*
X163750000Y-69500000D01*
X104910000Y-85090000D02*
X113250000Y-76750000D01*
X113250000Y-76750000D02*
X113250000Y-63540000D01*
X102342500Y-85090000D02*
X104910000Y-85090000D01*
G04 #@! TA.AperFunction,Conductor*
G36*
X196852443Y-57404596D02*
G01*
X197323395Y-57423099D01*
X197333069Y-57423860D01*
X197798713Y-57478974D01*
X197808318Y-57480495D01*
X198268190Y-57571969D01*
X198277650Y-57574240D01*
X198728922Y-57701512D01*
X198738175Y-57704518D01*
X199178076Y-57866805D01*
X199187065Y-57870528D01*
X199612884Y-58066835D01*
X199621548Y-58071250D01*
X200030643Y-58300355D01*
X200038945Y-58305442D01*
X200315863Y-58490472D01*
X200337397Y-58504861D01*
X200428794Y-58565930D01*
X200436671Y-58571653D01*
X200804880Y-58861925D01*
X200812284Y-58868248D01*
X201156591Y-59186524D01*
X201163475Y-59193408D01*
X201481751Y-59537715D01*
X201488074Y-59545119D01*
X201778346Y-59913328D01*
X201784069Y-59921205D01*
X202044557Y-60311054D01*
X202049644Y-60319356D01*
X202278749Y-60728451D01*
X202283170Y-60737126D01*
X202479469Y-61162931D01*
X202483195Y-61171927D01*
X202645480Y-61611821D01*
X202648488Y-61621080D01*
X202775758Y-62072345D01*
X202778031Y-62081813D01*
X202869503Y-62541676D01*
X202871026Y-62551292D01*
X202926137Y-63016914D01*
X202926901Y-63026621D01*
X202945404Y-63497557D01*
X202945500Y-63502425D01*
X202945500Y-133347575D01*
X202945404Y-133352443D01*
X202926901Y-133823378D01*
X202926137Y-133833085D01*
X202871026Y-134298707D01*
X202869503Y-134308323D01*
X202778031Y-134768186D01*
X202775758Y-134777654D01*
X202648488Y-135228919D01*
X202645480Y-135238178D01*
X202483195Y-135678072D01*
X202479469Y-135687068D01*
X202283170Y-136112873D01*
X202278749Y-136121548D01*
X202049644Y-136530643D01*
X202044557Y-136538945D01*
X201784069Y-136928794D01*
X201778346Y-136936671D01*
X201488074Y-137304880D01*
X201481751Y-137312284D01*
X201163475Y-137656591D01*
X201156591Y-137663475D01*
X200812284Y-137981751D01*
X200804880Y-137988074D01*
X200436671Y-138278346D01*
X200428794Y-138284069D01*
X200038945Y-138544557D01*
X200030643Y-138549644D01*
X199621548Y-138778749D01*
X199612873Y-138783170D01*
X199187068Y-138979469D01*
X199178072Y-138983195D01*
X198738178Y-139145480D01*
X198728919Y-139148488D01*
X198277654Y-139275758D01*
X198268186Y-139278031D01*
X197808323Y-139369503D01*
X197798707Y-139371026D01*
X197333085Y-139426137D01*
X197323378Y-139426901D01*
X196852443Y-139445404D01*
X196847575Y-139445500D01*
X82552425Y-139445500D01*
X82547557Y-139445404D01*
X82076621Y-139426901D01*
X82066914Y-139426137D01*
X81601292Y-139371026D01*
X81591676Y-139369503D01*
X81131813Y-139278031D01*
X81122345Y-139275758D01*
X80671080Y-139148488D01*
X80661821Y-139145480D01*
X80221927Y-138983195D01*
X80212931Y-138979469D01*
X79787126Y-138783170D01*
X79778451Y-138778749D01*
X79369356Y-138549644D01*
X79361054Y-138544557D01*
X78971205Y-138284069D01*
X78963328Y-138278346D01*
X78595119Y-137988074D01*
X78587715Y-137981751D01*
X78243408Y-137663475D01*
X78236524Y-137656591D01*
X77918248Y-137312284D01*
X77911925Y-137304880D01*
X77621653Y-136936671D01*
X77615930Y-136928794D01*
X77355442Y-136538945D01*
X77350355Y-136530643D01*
X77121250Y-136121548D01*
X77116835Y-136112884D01*
X76920528Y-135687065D01*
X76916804Y-135678072D01*
X76862156Y-135529943D01*
X76754518Y-135238175D01*
X76751511Y-135228919D01*
X76721002Y-135120744D01*
X76624240Y-134777650D01*
X76621968Y-134768186D01*
X76584279Y-134578712D01*
X76530495Y-134308318D01*
X76528973Y-134298707D01*
X76523559Y-134252961D01*
X76473860Y-133833069D01*
X76473099Y-133823395D01*
X76454596Y-133352443D01*
X76454548Y-133350000D01*
X80190448Y-133350000D01*
X80210634Y-133657989D01*
X80270847Y-133960697D01*
X80370056Y-134252959D01*
X80506567Y-134529775D01*
X80506568Y-134529776D01*
X80678042Y-134786404D01*
X80881545Y-135018455D01*
X81113595Y-135221957D01*
X81113596Y-135221958D01*
X81370224Y-135393432D01*
X81647040Y-135529943D01*
X81939302Y-135629152D01*
X82242010Y-135689365D01*
X82242012Y-135689365D01*
X82242017Y-135689366D01*
X82550000Y-135709552D01*
X82857983Y-135689366D01*
X82857987Y-135689365D01*
X82857989Y-135689365D01*
X83160697Y-135629152D01*
X83452959Y-135529943D01*
X83460446Y-135526250D01*
X83729776Y-135393432D01*
X83986404Y-135221958D01*
X84218455Y-135018455D01*
X84421958Y-134786404D01*
X84593432Y-134529776D01*
X84729942Y-134252961D01*
X84829152Y-133960697D01*
X84889366Y-133657983D01*
X84909552Y-133350000D01*
X194490448Y-133350000D01*
X194510634Y-133657989D01*
X194570847Y-133960697D01*
X194670056Y-134252959D01*
X194806567Y-134529775D01*
X194806568Y-134529776D01*
X194978042Y-134786404D01*
X195181545Y-135018455D01*
X195413595Y-135221957D01*
X195413596Y-135221958D01*
X195670224Y-135393432D01*
X195947040Y-135529943D01*
X196239302Y-135629152D01*
X196542010Y-135689365D01*
X196542012Y-135689365D01*
X196542017Y-135689366D01*
X196850000Y-135709552D01*
X197157983Y-135689366D01*
X197157987Y-135689365D01*
X197157989Y-135689365D01*
X197460697Y-135629152D01*
X197752959Y-135529943D01*
X197760446Y-135526250D01*
X198029776Y-135393432D01*
X198286404Y-135221958D01*
X198518455Y-135018455D01*
X198721958Y-134786404D01*
X198893432Y-134529776D01*
X199029942Y-134252961D01*
X199129152Y-133960697D01*
X199189366Y-133657983D01*
X199209552Y-133350000D01*
X199189366Y-133042017D01*
X199147205Y-132830063D01*
X199129152Y-132739302D01*
X199029943Y-132447040D01*
X198893432Y-132170224D01*
X198721958Y-131913596D01*
X198682220Y-131868284D01*
X198518455Y-131681545D01*
X198286404Y-131478042D01*
X198037522Y-131311744D01*
X198029775Y-131306567D01*
X197752959Y-131170056D01*
X197460697Y-131070847D01*
X197157989Y-131010634D01*
X196850000Y-130990448D01*
X196542010Y-131010634D01*
X196239302Y-131070847D01*
X195947040Y-131170056D01*
X195670224Y-131306567D01*
X195413596Y-131478041D01*
X195181545Y-131681545D01*
X194978041Y-131913596D01*
X194806567Y-132170224D01*
X194670056Y-132447040D01*
X194570847Y-132739302D01*
X194510634Y-133042010D01*
X194490448Y-133350000D01*
X84909552Y-133350000D01*
X84889366Y-133042017D01*
X84847205Y-132830063D01*
X84829152Y-132739302D01*
X84729943Y-132447040D01*
X84593432Y-132170224D01*
X84421958Y-131913596D01*
X84382220Y-131868284D01*
X84218455Y-131681545D01*
X83986404Y-131478042D01*
X83737522Y-131311744D01*
X83729775Y-131306567D01*
X83452959Y-131170056D01*
X83160697Y-131070847D01*
X82857989Y-131010634D01*
X82550000Y-130990448D01*
X82242010Y-131010634D01*
X81939302Y-131070847D01*
X81647040Y-131170056D01*
X81370224Y-131306567D01*
X81113596Y-131478041D01*
X80881545Y-131681545D01*
X80678041Y-131913596D01*
X80506567Y-132170224D01*
X80370056Y-132447040D01*
X80270847Y-132739302D01*
X80210634Y-133042010D01*
X80190448Y-133350000D01*
X76454548Y-133350000D01*
X76454500Y-133347575D01*
X76454500Y-120500000D01*
X84240707Y-120500000D01*
X84259838Y-120718671D01*
X84259839Y-120718674D01*
X84316653Y-120930703D01*
X84409421Y-121129646D01*
X84535326Y-121309457D01*
X84690543Y-121464674D01*
X84870354Y-121590579D01*
X85069297Y-121683347D01*
X85281326Y-121740161D01*
X85500000Y-121759292D01*
X85718674Y-121740161D01*
X85930703Y-121683347D01*
X86129646Y-121590579D01*
X86309457Y-121464674D01*
X86464674Y-121309457D01*
X86590579Y-121129646D01*
X86683347Y-120930703D01*
X86740161Y-120718674D01*
X86759292Y-120500000D01*
X90740707Y-120500000D01*
X90759838Y-120718671D01*
X90759839Y-120718674D01*
X90816653Y-120930703D01*
X90909421Y-121129646D01*
X91035326Y-121309457D01*
X91190543Y-121464674D01*
X91370354Y-121590579D01*
X91569297Y-121683347D01*
X91781326Y-121740161D01*
X92000000Y-121759292D01*
X92218674Y-121740161D01*
X92430703Y-121683347D01*
X92629646Y-121590579D01*
X92809457Y-121464674D01*
X92964674Y-121309457D01*
X93090579Y-121129646D01*
X93183347Y-120930703D01*
X93240161Y-120718674D01*
X93259292Y-120500000D01*
X100850707Y-120500000D01*
X100869838Y-120718671D01*
X100869839Y-120718674D01*
X100926653Y-120930703D01*
X101019421Y-121129646D01*
X101145326Y-121309457D01*
X101300543Y-121464674D01*
X101480354Y-121590579D01*
X101679297Y-121683347D01*
X101891326Y-121740161D01*
X102110000Y-121759292D01*
X102328674Y-121740161D01*
X102540703Y-121683347D01*
X102739646Y-121590579D01*
X102919457Y-121464674D01*
X103074674Y-121309457D01*
X103200579Y-121129646D01*
X103293347Y-120930703D01*
X103350161Y-120718674D01*
X103369292Y-120500000D01*
X107350707Y-120500000D01*
X107369838Y-120718671D01*
X107369839Y-120718674D01*
X107426653Y-120930703D01*
X107519421Y-121129646D01*
X107645326Y-121309457D01*
X107800543Y-121464674D01*
X107980354Y-121590579D01*
X108179297Y-121683347D01*
X108391326Y-121740161D01*
X108610000Y-121759292D01*
X108828674Y-121740161D01*
X109040703Y-121683347D01*
X109239646Y-121590579D01*
X109419457Y-121464674D01*
X109574674Y-121309457D01*
X109700579Y-121129646D01*
X109793347Y-120930703D01*
X109850161Y-120718674D01*
X109869292Y-120500000D01*
X112740707Y-120500000D01*
X112759838Y-120718671D01*
X112759839Y-120718674D01*
X112816653Y-120930703D01*
X112909421Y-121129646D01*
X113035326Y-121309457D01*
X113190543Y-121464674D01*
X113370354Y-121590579D01*
X113569297Y-121683347D01*
X113781326Y-121740161D01*
X114000000Y-121759292D01*
X114218674Y-121740161D01*
X114430703Y-121683347D01*
X114629646Y-121590579D01*
X114809457Y-121464674D01*
X114964674Y-121309457D01*
X115090579Y-121129646D01*
X115183347Y-120930703D01*
X115240161Y-120718674D01*
X115259292Y-120500000D01*
X119240707Y-120500000D01*
X119259838Y-120718671D01*
X119259839Y-120718674D01*
X119316653Y-120930703D01*
X119409421Y-121129646D01*
X119535326Y-121309457D01*
X119690543Y-121464674D01*
X119870354Y-121590579D01*
X120069297Y-121683347D01*
X120281326Y-121740161D01*
X120500000Y-121759292D01*
X120718674Y-121740161D01*
X120930703Y-121683347D01*
X121129646Y-121590579D01*
X121309457Y-121464674D01*
X121464674Y-121309457D01*
X121590579Y-121129646D01*
X121683347Y-120930703D01*
X121740161Y-120718674D01*
X121759292Y-120500000D01*
X121740161Y-120281326D01*
X121683347Y-120069297D01*
X121590579Y-119870354D01*
X121464674Y-119690543D01*
X121309457Y-119535326D01*
X121129646Y-119409421D01*
X121037921Y-119366649D01*
X120930704Y-119316653D01*
X120718671Y-119259838D01*
X120500000Y-119240707D01*
X120281328Y-119259838D01*
X120069295Y-119316653D01*
X119870356Y-119409420D01*
X119870354Y-119409421D01*
X119690543Y-119535326D01*
X119690539Y-119535329D01*
X119535329Y-119690539D01*
X119535326Y-119690542D01*
X119535326Y-119690543D01*
X119426794Y-119845544D01*
X119409420Y-119870356D01*
X119316653Y-120069295D01*
X119259838Y-120281328D01*
X119240707Y-120500000D01*
X115259292Y-120500000D01*
X115240161Y-120281326D01*
X115183347Y-120069297D01*
X115090579Y-119870354D01*
X114964674Y-119690543D01*
X114809457Y-119535326D01*
X114629646Y-119409421D01*
X114537921Y-119366649D01*
X114430704Y-119316653D01*
X114218671Y-119259838D01*
X114000000Y-119240707D01*
X113781328Y-119259838D01*
X113569295Y-119316653D01*
X113370356Y-119409420D01*
X113370354Y-119409421D01*
X113190543Y-119535326D01*
X113190539Y-119535329D01*
X113035329Y-119690539D01*
X113035326Y-119690542D01*
X113035326Y-119690543D01*
X112926794Y-119845544D01*
X112909420Y-119870356D01*
X112816653Y-120069295D01*
X112759838Y-120281328D01*
X112740707Y-120500000D01*
X109869292Y-120500000D01*
X109850161Y-120281326D01*
X109793347Y-120069297D01*
X109700579Y-119870354D01*
X109574674Y-119690543D01*
X109419457Y-119535326D01*
X109239646Y-119409421D01*
X109147921Y-119366649D01*
X109040704Y-119316653D01*
X108828671Y-119259838D01*
X108610000Y-119240707D01*
X108391328Y-119259838D01*
X108179295Y-119316653D01*
X107980356Y-119409420D01*
X107980354Y-119409421D01*
X107800543Y-119535326D01*
X107800539Y-119535329D01*
X107645329Y-119690539D01*
X107645326Y-119690542D01*
X107645326Y-119690543D01*
X107536794Y-119845544D01*
X107519420Y-119870356D01*
X107426653Y-120069295D01*
X107369838Y-120281328D01*
X107350707Y-120500000D01*
X103369292Y-120500000D01*
X103350161Y-120281326D01*
X103293347Y-120069297D01*
X103200579Y-119870354D01*
X103074674Y-119690543D01*
X102919457Y-119535326D01*
X102739646Y-119409421D01*
X102647921Y-119366649D01*
X102540704Y-119316653D01*
X102328671Y-119259838D01*
X102110000Y-119240707D01*
X101891328Y-119259838D01*
X101679295Y-119316653D01*
X101480356Y-119409420D01*
X101480354Y-119409421D01*
X101300543Y-119535326D01*
X101300539Y-119535329D01*
X101145329Y-119690539D01*
X101145326Y-119690542D01*
X101145326Y-119690543D01*
X101036794Y-119845544D01*
X101019420Y-119870356D01*
X100926653Y-120069295D01*
X100869838Y-120281328D01*
X100850707Y-120500000D01*
X93259292Y-120500000D01*
X93240161Y-120281326D01*
X93183347Y-120069297D01*
X93090579Y-119870354D01*
X92964674Y-119690543D01*
X92809457Y-119535326D01*
X92629646Y-119409421D01*
X92537921Y-119366649D01*
X92430704Y-119316653D01*
X92218671Y-119259838D01*
X92000000Y-119240707D01*
X91781328Y-119259838D01*
X91569295Y-119316653D01*
X91370356Y-119409420D01*
X91370354Y-119409421D01*
X91190543Y-119535326D01*
X91190539Y-119535329D01*
X91035329Y-119690539D01*
X91035326Y-119690542D01*
X91035326Y-119690543D01*
X90926794Y-119845544D01*
X90909420Y-119870356D01*
X90816653Y-120069295D01*
X90759838Y-120281328D01*
X90740707Y-120500000D01*
X86759292Y-120500000D01*
X86740161Y-120281326D01*
X86683347Y-120069297D01*
X86590579Y-119870354D01*
X86464674Y-119690543D01*
X86309457Y-119535326D01*
X86129646Y-119409421D01*
X86037921Y-119366649D01*
X85930704Y-119316653D01*
X85718671Y-119259838D01*
X85500000Y-119240707D01*
X85281328Y-119259838D01*
X85069295Y-119316653D01*
X84870356Y-119409420D01*
X84870354Y-119409421D01*
X84690543Y-119535326D01*
X84690539Y-119535329D01*
X84535329Y-119690539D01*
X84535326Y-119690542D01*
X84535326Y-119690543D01*
X84426794Y-119845544D01*
X84409420Y-119870356D01*
X84316653Y-120069295D01*
X84259838Y-120281328D01*
X84240707Y-120500000D01*
X76454500Y-120500000D01*
X76454500Y-116250000D01*
X84246000Y-116250000D01*
X84246000Y-116801824D01*
X84252402Y-116861375D01*
X84302647Y-116996089D01*
X84388811Y-117111188D01*
X84503910Y-117197352D01*
X84638624Y-117247597D01*
X84698176Y-117254000D01*
X85250000Y-117254000D01*
X85250000Y-116250000D01*
X85750000Y-116250000D01*
X85750000Y-117254000D01*
X86301824Y-117254000D01*
X86361375Y-117247597D01*
X86496089Y-117197352D01*
X86611188Y-117111188D01*
X86697352Y-116996089D01*
X86747597Y-116861375D01*
X86754000Y-116801824D01*
X86754000Y-116250000D01*
X85750000Y-116250000D01*
X85250000Y-116250000D01*
X84246000Y-116250000D01*
X76454500Y-116250000D01*
X76454500Y-116000000D01*
X90740707Y-116000000D01*
X90759838Y-116218671D01*
X90759839Y-116218674D01*
X90816653Y-116430703D01*
X90909421Y-116629646D01*
X91035326Y-116809457D01*
X91190543Y-116964674D01*
X91370354Y-117090579D01*
X91569297Y-117183347D01*
X91781326Y-117240161D01*
X92000000Y-117259292D01*
X92218674Y-117240161D01*
X92430703Y-117183347D01*
X92629646Y-117090579D01*
X92809457Y-116964674D01*
X92964674Y-116809457D01*
X93090579Y-116629646D01*
X93183347Y-116430703D01*
X93240161Y-116218674D01*
X93259292Y-116000000D01*
X93240161Y-115781326D01*
X93183347Y-115569297D01*
X93090579Y-115370354D01*
X92964674Y-115190543D01*
X92809457Y-115035326D01*
X92629646Y-114909421D01*
X92537921Y-114866649D01*
X92430704Y-114816653D01*
X92218671Y-114759838D01*
X92000000Y-114740707D01*
X91781328Y-114759838D01*
X91569295Y-114816653D01*
X91370356Y-114909420D01*
X91370354Y-114909421D01*
X91235754Y-115003669D01*
X91190539Y-115035329D01*
X91035329Y-115190539D01*
X91035326Y-115190542D01*
X91035326Y-115190543D01*
X91029982Y-115198176D01*
X90909420Y-115370356D01*
X90816653Y-115569295D01*
X90759838Y-115781328D01*
X90740707Y-116000000D01*
X76454500Y-116000000D01*
X76454500Y-115750000D01*
X84246000Y-115750000D01*
X85250000Y-115750000D01*
X85250000Y-114746000D01*
X85750000Y-114746000D01*
X85750000Y-115750000D01*
X86754000Y-115750000D01*
X86754000Y-115198176D01*
X86747597Y-115138624D01*
X86697352Y-115003910D01*
X86611188Y-114888811D01*
X86496089Y-114802647D01*
X86361375Y-114752402D01*
X86301824Y-114746000D01*
X85750000Y-114746000D01*
X85250000Y-114746000D01*
X84698176Y-114746000D01*
X84638624Y-114752402D01*
X84503910Y-114802647D01*
X84388811Y-114888811D01*
X84302647Y-115003910D01*
X84252402Y-115138624D01*
X84246000Y-115198176D01*
X84246000Y-115750000D01*
X76454500Y-115750000D01*
X76454500Y-101149999D01*
X83984785Y-101149999D01*
X84003602Y-101353083D01*
X84059418Y-101549251D01*
X84150324Y-101731818D01*
X84273236Y-101894580D01*
X84423958Y-102031981D01*
X84597361Y-102139347D01*
X84597363Y-102139348D01*
X84787544Y-102213024D01*
X84988024Y-102250500D01*
X85191974Y-102250500D01*
X85191976Y-102250500D01*
X85392456Y-102213024D01*
X85582637Y-102139348D01*
X85756041Y-102031981D01*
X85906764Y-101894579D01*
X86029673Y-101731821D01*
X86029673Y-101731819D01*
X86029675Y-101731818D01*
X86075313Y-101640161D01*
X86120582Y-101549250D01*
X86176397Y-101353083D01*
X86195215Y-101150000D01*
X86195215Y-101149999D01*
X91604785Y-101149999D01*
X91623602Y-101353083D01*
X91679418Y-101549251D01*
X91770324Y-101731818D01*
X91893236Y-101894580D01*
X92043958Y-102031981D01*
X92217361Y-102139347D01*
X92217363Y-102139348D01*
X92407544Y-102213024D01*
X92608024Y-102250500D01*
X92811974Y-102250500D01*
X92811976Y-102250500D01*
X93012456Y-102213024D01*
X93202637Y-102139348D01*
X93376041Y-102031981D01*
X93526764Y-101894579D01*
X93649673Y-101731821D01*
X93649673Y-101731819D01*
X93649675Y-101731818D01*
X93695313Y-101640161D01*
X93740582Y-101549250D01*
X93796397Y-101353083D01*
X93815215Y-101150000D01*
X93796397Y-100946917D01*
X93740582Y-100750750D01*
X93740209Y-100750001D01*
X93649675Y-100568181D01*
X93526763Y-100405419D01*
X93376041Y-100268018D01*
X93202638Y-100160652D01*
X93012457Y-100086976D01*
X92945629Y-100074483D01*
X92811976Y-100049500D01*
X92608024Y-100049500D01*
X92507783Y-100068238D01*
X92407542Y-100086976D01*
X92217361Y-100160652D01*
X92043958Y-100268018D01*
X91893236Y-100405419D01*
X91770324Y-100568181D01*
X91679418Y-100750748D01*
X91623602Y-100946916D01*
X91604785Y-101149999D01*
X86195215Y-101149999D01*
X86176397Y-100946917D01*
X86120582Y-100750750D01*
X86120209Y-100750001D01*
X86029675Y-100568181D01*
X85906763Y-100405419D01*
X85756041Y-100268018D01*
X85582638Y-100160652D01*
X85392457Y-100086976D01*
X85325629Y-100074483D01*
X85191976Y-100049500D01*
X84988024Y-100049500D01*
X84887783Y-100068238D01*
X84787542Y-100086976D01*
X84597361Y-100160652D01*
X84423958Y-100268018D01*
X84273236Y-100405419D01*
X84150324Y-100568181D01*
X84059418Y-100750748D01*
X84003602Y-100946916D01*
X83984785Y-101149999D01*
X76454500Y-101149999D01*
X76454500Y-98610000D01*
X83984785Y-98610000D01*
X84003602Y-98813083D01*
X84059418Y-99009251D01*
X84150324Y-99191818D01*
X84273236Y-99354580D01*
X84423958Y-99491981D01*
X84597361Y-99599347D01*
X84597363Y-99599348D01*
X84787544Y-99673024D01*
X84988024Y-99710500D01*
X85191974Y-99710500D01*
X85191976Y-99710500D01*
X85392456Y-99673024D01*
X85582637Y-99599348D01*
X85756041Y-99491981D01*
X85906764Y-99354579D01*
X86029673Y-99191821D01*
X86029673Y-99191819D01*
X86029675Y-99191818D01*
X86075313Y-99100161D01*
X86120582Y-99009250D01*
X86176397Y-98813083D01*
X86195215Y-98610000D01*
X91604785Y-98610000D01*
X91623602Y-98813083D01*
X91679418Y-99009251D01*
X91770324Y-99191818D01*
X91893236Y-99354580D01*
X92043958Y-99491981D01*
X92217361Y-99599347D01*
X92217363Y-99599348D01*
X92407544Y-99673024D01*
X92608024Y-99710500D01*
X92811974Y-99710500D01*
X92811976Y-99710500D01*
X93012456Y-99673024D01*
X93202637Y-99599348D01*
X93376041Y-99491981D01*
X93526764Y-99354579D01*
X93649673Y-99191821D01*
X93649673Y-99191819D01*
X93649675Y-99191818D01*
X93695313Y-99100161D01*
X93740582Y-99009250D01*
X93796397Y-98813083D01*
X93815215Y-98610000D01*
X93796397Y-98406917D01*
X93740582Y-98210750D01*
X93707122Y-98143553D01*
X93649675Y-98028181D01*
X93526763Y-97865419D01*
X93376041Y-97728018D01*
X93202638Y-97620652D01*
X93012457Y-97546976D01*
X92945629Y-97534484D01*
X92811976Y-97509500D01*
X92608024Y-97509500D01*
X92507783Y-97528238D01*
X92407542Y-97546976D01*
X92217361Y-97620652D01*
X92043958Y-97728018D01*
X91893236Y-97865419D01*
X91770324Y-98028181D01*
X91679418Y-98210748D01*
X91623602Y-98406916D01*
X91604785Y-98610000D01*
X86195215Y-98610000D01*
X86176397Y-98406917D01*
X86120582Y-98210750D01*
X86087122Y-98143553D01*
X86029675Y-98028181D01*
X85906763Y-97865419D01*
X85756041Y-97728018D01*
X85582638Y-97620652D01*
X85392457Y-97546976D01*
X85325629Y-97534484D01*
X85191976Y-97509500D01*
X84988024Y-97509500D01*
X84887783Y-97528238D01*
X84787542Y-97546976D01*
X84597361Y-97620652D01*
X84423958Y-97728018D01*
X84273236Y-97865419D01*
X84150324Y-98028181D01*
X84059418Y-98210748D01*
X84003602Y-98406916D01*
X83984785Y-98610000D01*
X76454500Y-98610000D01*
X76454500Y-96070000D01*
X83984785Y-96070000D01*
X84003602Y-96273083D01*
X84059418Y-96469251D01*
X84150324Y-96651818D01*
X84273236Y-96814580D01*
X84423958Y-96951981D01*
X84597361Y-97059347D01*
X84597363Y-97059348D01*
X84787544Y-97133024D01*
X84988024Y-97170500D01*
X85191974Y-97170500D01*
X85191976Y-97170500D01*
X85392456Y-97133024D01*
X85582637Y-97059348D01*
X85756041Y-96951981D01*
X85906764Y-96814579D01*
X86029673Y-96651821D01*
X86029673Y-96651819D01*
X86029675Y-96651818D01*
X86078485Y-96553793D01*
X86120582Y-96469250D01*
X86176397Y-96273083D01*
X86195215Y-96070000D01*
X91604785Y-96070000D01*
X91623602Y-96273083D01*
X91679418Y-96469251D01*
X91770324Y-96651818D01*
X91893236Y-96814580D01*
X92043958Y-96951981D01*
X92217361Y-97059347D01*
X92217363Y-97059348D01*
X92407544Y-97133024D01*
X92608024Y-97170500D01*
X92811974Y-97170500D01*
X92811976Y-97170500D01*
X93012456Y-97133024D01*
X93202637Y-97059348D01*
X93376041Y-96951981D01*
X93526764Y-96814579D01*
X93649673Y-96651821D01*
X93649673Y-96651819D01*
X93649675Y-96651818D01*
X93698485Y-96553793D01*
X93740582Y-96469250D01*
X93796397Y-96273083D01*
X93815215Y-96070000D01*
X93796397Y-95866917D01*
X93740582Y-95670750D01*
X93717377Y-95624148D01*
X93649675Y-95488181D01*
X93526763Y-95325419D01*
X93376041Y-95188018D01*
X93202638Y-95080652D01*
X93012457Y-95006976D01*
X92945629Y-94994483D01*
X92811976Y-94969500D01*
X92608024Y-94969500D01*
X92507784Y-94988237D01*
X92407542Y-95006976D01*
X92217361Y-95080652D01*
X92043958Y-95188018D01*
X91893236Y-95325419D01*
X91770324Y-95488181D01*
X91679418Y-95670748D01*
X91623602Y-95866916D01*
X91604785Y-96070000D01*
X86195215Y-96070000D01*
X86176397Y-95866917D01*
X86120582Y-95670750D01*
X86097377Y-95624148D01*
X86029675Y-95488181D01*
X85906763Y-95325419D01*
X85756041Y-95188018D01*
X85582638Y-95080652D01*
X85392457Y-95006976D01*
X85325629Y-94994483D01*
X85191976Y-94969500D01*
X84988024Y-94969500D01*
X84887784Y-94988237D01*
X84787542Y-95006976D01*
X84597361Y-95080652D01*
X84423958Y-95188018D01*
X84273236Y-95325419D01*
X84150324Y-95488181D01*
X84059418Y-95670748D01*
X84003602Y-95866916D01*
X83984785Y-96070000D01*
X76454500Y-96070000D01*
X76454500Y-93529999D01*
X83984785Y-93529999D01*
X84003602Y-93733083D01*
X84059418Y-93929251D01*
X84150324Y-94111818D01*
X84273236Y-94274580D01*
X84423958Y-94411981D01*
X84597361Y-94519347D01*
X84597363Y-94519348D01*
X84787544Y-94593024D01*
X84988024Y-94630500D01*
X85191974Y-94630500D01*
X85191976Y-94630500D01*
X85392456Y-94593024D01*
X85582637Y-94519348D01*
X85756041Y-94411981D01*
X85906764Y-94274579D01*
X86029673Y-94111821D01*
X86029673Y-94111819D01*
X86029675Y-94111818D01*
X86078485Y-94013793D01*
X86120582Y-93929250D01*
X86176397Y-93733083D01*
X86195215Y-93530000D01*
X86195215Y-93529999D01*
X91604785Y-93529999D01*
X91623602Y-93733083D01*
X91679418Y-93929251D01*
X91770324Y-94111818D01*
X91893236Y-94274580D01*
X92043958Y-94411981D01*
X92217361Y-94519347D01*
X92217363Y-94519348D01*
X92407544Y-94593024D01*
X92608024Y-94630500D01*
X92811974Y-94630500D01*
X92811976Y-94630500D01*
X93012456Y-94593024D01*
X93202637Y-94519348D01*
X93376041Y-94411981D01*
X93526764Y-94274579D01*
X93649673Y-94111821D01*
X93649673Y-94111819D01*
X93649675Y-94111818D01*
X93698485Y-94013793D01*
X93740582Y-93929250D01*
X93796397Y-93733083D01*
X93815215Y-93530000D01*
X93796397Y-93326917D01*
X93740582Y-93130750D01*
X93740209Y-93130001D01*
X93649675Y-92948181D01*
X93526763Y-92785419D01*
X93376041Y-92648018D01*
X93202638Y-92540652D01*
X93012457Y-92466976D01*
X92945629Y-92454484D01*
X92811976Y-92429500D01*
X92608024Y-92429500D01*
X92507783Y-92448238D01*
X92407542Y-92466976D01*
X92217361Y-92540652D01*
X92043958Y-92648018D01*
X91893236Y-92785419D01*
X91770324Y-92948181D01*
X91679418Y-93130748D01*
X91623602Y-93326916D01*
X91604785Y-93529999D01*
X86195215Y-93529999D01*
X86176397Y-93326917D01*
X86120582Y-93130750D01*
X86120209Y-93130001D01*
X86029675Y-92948181D01*
X85906763Y-92785419D01*
X85756041Y-92648018D01*
X85582638Y-92540652D01*
X85392457Y-92466976D01*
X85325629Y-92454484D01*
X85191976Y-92429500D01*
X84988024Y-92429500D01*
X84887783Y-92448238D01*
X84787542Y-92466976D01*
X84597361Y-92540652D01*
X84423958Y-92648018D01*
X84273236Y-92785419D01*
X84150324Y-92948181D01*
X84059418Y-93130748D01*
X84003602Y-93326916D01*
X83984785Y-93529999D01*
X76454500Y-93529999D01*
X76454500Y-90989999D01*
X83984785Y-90989999D01*
X84003602Y-91193083D01*
X84059418Y-91389251D01*
X84150324Y-91571818D01*
X84273236Y-91734580D01*
X84423958Y-91871981D01*
X84597361Y-91979347D01*
X84597363Y-91979348D01*
X84787544Y-92053024D01*
X84988024Y-92090500D01*
X85191974Y-92090500D01*
X85191976Y-92090500D01*
X85392456Y-92053024D01*
X85582637Y-91979348D01*
X85756041Y-91871981D01*
X85906764Y-91734579D01*
X86029673Y-91571821D01*
X86029673Y-91571819D01*
X86029675Y-91571818D01*
X86078485Y-91473793D01*
X86120582Y-91389250D01*
X86176397Y-91193083D01*
X86195215Y-90990000D01*
X86195215Y-90989999D01*
X91604785Y-90989999D01*
X91623602Y-91193083D01*
X91679418Y-91389251D01*
X91770324Y-91571818D01*
X91893236Y-91734580D01*
X92043958Y-91871981D01*
X92217361Y-91979347D01*
X92217363Y-91979348D01*
X92407544Y-92053024D01*
X92608024Y-92090500D01*
X92811974Y-92090500D01*
X92811976Y-92090500D01*
X93012456Y-92053024D01*
X93202637Y-91979348D01*
X93376041Y-91871981D01*
X93526764Y-91734579D01*
X93649673Y-91571821D01*
X93649673Y-91571819D01*
X93649675Y-91571818D01*
X93698485Y-91473793D01*
X93740582Y-91389250D01*
X93796397Y-91193083D01*
X93815215Y-90990000D01*
X93796397Y-90786917D01*
X93781246Y-90733669D01*
X93754430Y-90639420D01*
X93740582Y-90590750D01*
X93740209Y-90590001D01*
X93649675Y-90408181D01*
X93526763Y-90245419D01*
X93376041Y-90108018D01*
X93202638Y-90000652D01*
X93012457Y-89926976D01*
X92945629Y-89914483D01*
X92811976Y-89889500D01*
X92608024Y-89889500D01*
X92507784Y-89908237D01*
X92407542Y-89926976D01*
X92217361Y-90000652D01*
X92043958Y-90108018D01*
X91893236Y-90245419D01*
X91770324Y-90408181D01*
X91679418Y-90590748D01*
X91623602Y-90786916D01*
X91604785Y-90989999D01*
X86195215Y-90989999D01*
X86176397Y-90786917D01*
X86161246Y-90733669D01*
X86134430Y-90639420D01*
X86120582Y-90590750D01*
X86120209Y-90590001D01*
X86029675Y-90408181D01*
X85906763Y-90245419D01*
X85756041Y-90108018D01*
X85582638Y-90000652D01*
X85392457Y-89926976D01*
X85325629Y-89914483D01*
X85191976Y-89889500D01*
X84988024Y-89889500D01*
X84887784Y-89908237D01*
X84787542Y-89926976D01*
X84597361Y-90000652D01*
X84423958Y-90108018D01*
X84273236Y-90245419D01*
X84150324Y-90408181D01*
X84059418Y-90590748D01*
X84003602Y-90786916D01*
X83984785Y-90989999D01*
X76454500Y-90989999D01*
X76454500Y-88450000D01*
X83984785Y-88450000D01*
X84003602Y-88653083D01*
X84059418Y-88849251D01*
X84150324Y-89031818D01*
X84273236Y-89194580D01*
X84423958Y-89331981D01*
X84597361Y-89439347D01*
X84597363Y-89439348D01*
X84787544Y-89513024D01*
X84988024Y-89550500D01*
X85191974Y-89550500D01*
X85191976Y-89550500D01*
X85392456Y-89513024D01*
X85582637Y-89439348D01*
X85756041Y-89331981D01*
X85906764Y-89194579D01*
X86029673Y-89031821D01*
X86029673Y-89031819D01*
X86029675Y-89031818D01*
X86078485Y-88933793D01*
X86120582Y-88849250D01*
X86176397Y-88653083D01*
X86195215Y-88450000D01*
X91604785Y-88450000D01*
X91623602Y-88653083D01*
X91679418Y-88849251D01*
X91770324Y-89031818D01*
X91893236Y-89194580D01*
X92043958Y-89331981D01*
X92217361Y-89439347D01*
X92217363Y-89439348D01*
X92407544Y-89513024D01*
X92608024Y-89550500D01*
X92811974Y-89550500D01*
X92811976Y-89550500D01*
X93012456Y-89513024D01*
X93202637Y-89439348D01*
X93376041Y-89331981D01*
X93526764Y-89194579D01*
X93649673Y-89031821D01*
X93649673Y-89031819D01*
X93649675Y-89031818D01*
X93698485Y-88933793D01*
X93740582Y-88849250D01*
X93794398Y-88660107D01*
X97545641Y-88660107D01*
X97556483Y-88719271D01*
X97557610Y-88726672D01*
X97564860Y-88786373D01*
X97568450Y-88795839D01*
X97574475Y-88817452D01*
X97576303Y-88827429D01*
X97600991Y-88882283D01*
X97603856Y-88889201D01*
X97625180Y-88945426D01*
X97625182Y-88945430D01*
X97630941Y-88953773D01*
X97641961Y-88973313D01*
X97646120Y-88982554D01*
X97683216Y-89029905D01*
X97687651Y-89035932D01*
X97721817Y-89085429D01*
X97766847Y-89125322D01*
X97772283Y-89130440D01*
X101067624Y-92425781D01*
X101096465Y-92471051D01*
X101103471Y-92524269D01*
X101087222Y-92709999D01*
X101103471Y-92895729D01*
X101096465Y-92948947D01*
X101067624Y-92994217D01*
X98772290Y-95289551D01*
X98766838Y-95294683D01*
X98721816Y-95334570D01*
X98687649Y-95384068D01*
X98683213Y-95390097D01*
X98646121Y-95437442D01*
X98641961Y-95446686D01*
X98630941Y-95466225D01*
X98625182Y-95474569D01*
X98603853Y-95530805D01*
X98600989Y-95537719D01*
X98576303Y-95592570D01*
X98574475Y-95602547D01*
X98568454Y-95624148D01*
X98564859Y-95633628D01*
X98557609Y-95693327D01*
X98556483Y-95700726D01*
X98545641Y-95759891D01*
X98549274Y-95819934D01*
X98549500Y-95827421D01*
X98549500Y-113115079D01*
X98549274Y-113122566D01*
X98545641Y-113182607D01*
X98556483Y-113241771D01*
X98557610Y-113249172D01*
X98564860Y-113308873D01*
X98568450Y-113318339D01*
X98574475Y-113339952D01*
X98576303Y-113349929D01*
X98600991Y-113404783D01*
X98603856Y-113411701D01*
X98625180Y-113467926D01*
X98625182Y-113467930D01*
X98630941Y-113476273D01*
X98641961Y-113495813D01*
X98646120Y-113505054D01*
X98683216Y-113552405D01*
X98687651Y-113558432D01*
X98721817Y-113607929D01*
X98766847Y-113647822D01*
X98772283Y-113652940D01*
X100819181Y-115699838D01*
X100846061Y-115740066D01*
X100855500Y-115787519D01*
X100855500Y-116801869D01*
X100861897Y-116861375D01*
X100861909Y-116861483D01*
X100912204Y-116996331D01*
X100998454Y-117111546D01*
X101113669Y-117197796D01*
X101248517Y-117248091D01*
X101308127Y-117254500D01*
X102911872Y-117254499D01*
X102971483Y-117248091D01*
X103106331Y-117197796D01*
X103221546Y-117111546D01*
X103307796Y-116996331D01*
X103358091Y-116861483D01*
X103364500Y-116801873D01*
X103364499Y-116000000D01*
X107350707Y-116000000D01*
X107369838Y-116218671D01*
X107369839Y-116218674D01*
X107426653Y-116430703D01*
X107519421Y-116629646D01*
X107645326Y-116809457D01*
X107800543Y-116964674D01*
X107980354Y-117090579D01*
X108179297Y-117183347D01*
X108391326Y-117240161D01*
X108610000Y-117259292D01*
X108828674Y-117240161D01*
X109040703Y-117183347D01*
X109239646Y-117090579D01*
X109419457Y-116964674D01*
X109574674Y-116809457D01*
X109700579Y-116629646D01*
X109793347Y-116430703D01*
X109850161Y-116218674D01*
X109869292Y-116000000D01*
X109850161Y-115781326D01*
X109793347Y-115569297D01*
X109700579Y-115370354D01*
X109574674Y-115190543D01*
X109419457Y-115035326D01*
X109239646Y-114909421D01*
X109147921Y-114866649D01*
X109040704Y-114816653D01*
X108828671Y-114759838D01*
X108610000Y-114740707D01*
X108391328Y-114759838D01*
X108179295Y-114816653D01*
X107980356Y-114909420D01*
X107980354Y-114909421D01*
X107845754Y-115003669D01*
X107800539Y-115035329D01*
X107645329Y-115190539D01*
X107645326Y-115190542D01*
X107645326Y-115190543D01*
X107639982Y-115198176D01*
X107519420Y-115370356D01*
X107426653Y-115569295D01*
X107369838Y-115781328D01*
X107350707Y-116000000D01*
X103364499Y-116000000D01*
X103364499Y-115787517D01*
X103373938Y-115740065D01*
X103400815Y-115699840D01*
X105113837Y-113986819D01*
X105154066Y-113959939D01*
X105201519Y-113950500D01*
X110908481Y-113950500D01*
X110955934Y-113959939D01*
X110996162Y-113986819D01*
X112709181Y-115699838D01*
X112736061Y-115740066D01*
X112745500Y-115787519D01*
X112745500Y-116801869D01*
X112751897Y-116861375D01*
X112751909Y-116861483D01*
X112802204Y-116996331D01*
X112888454Y-117111546D01*
X113003669Y-117197796D01*
X113138517Y-117248091D01*
X113198127Y-117254500D01*
X114801872Y-117254499D01*
X114861483Y-117248091D01*
X114996331Y-117197796D01*
X115111546Y-117111546D01*
X115197796Y-116996331D01*
X115248091Y-116861483D01*
X115254500Y-116801873D01*
X115254499Y-116000000D01*
X119240707Y-116000000D01*
X119259838Y-116218671D01*
X119259839Y-116218674D01*
X119316653Y-116430703D01*
X119409421Y-116629646D01*
X119535326Y-116809457D01*
X119690543Y-116964674D01*
X119870354Y-117090579D01*
X120069297Y-117183347D01*
X120281326Y-117240161D01*
X120500000Y-117259292D01*
X120718674Y-117240161D01*
X120930703Y-117183347D01*
X121129646Y-117090579D01*
X121309457Y-116964674D01*
X121464674Y-116809457D01*
X121590579Y-116629646D01*
X121683347Y-116430703D01*
X121740161Y-116218674D01*
X121759292Y-116000000D01*
X121740161Y-115781326D01*
X121683347Y-115569297D01*
X121590579Y-115370354D01*
X121464674Y-115190543D01*
X121309457Y-115035326D01*
X121129646Y-114909421D01*
X121037921Y-114866649D01*
X120930704Y-114816653D01*
X120718671Y-114759838D01*
X120500000Y-114740707D01*
X120281328Y-114759838D01*
X120069295Y-114816653D01*
X119870356Y-114909420D01*
X119870354Y-114909421D01*
X119735754Y-115003669D01*
X119690539Y-115035329D01*
X119535329Y-115190539D01*
X119535326Y-115190542D01*
X119535326Y-115190543D01*
X119529982Y-115198176D01*
X119409420Y-115370356D01*
X119316653Y-115569295D01*
X119259838Y-115781328D01*
X119240707Y-116000000D01*
X115254499Y-116000000D01*
X115254499Y-115198128D01*
X115248091Y-115138517D01*
X115197796Y-115003669D01*
X115111546Y-114888454D01*
X114996331Y-114802204D01*
X114861483Y-114751909D01*
X114801873Y-114745500D01*
X114801869Y-114745500D01*
X113787519Y-114745500D01*
X113740066Y-114736061D01*
X113699838Y-114709181D01*
X111762940Y-112772283D01*
X111757822Y-112766847D01*
X111717929Y-112721817D01*
X111668432Y-112687651D01*
X111662405Y-112683216D01*
X111615054Y-112646120D01*
X111605813Y-112641961D01*
X111586273Y-112630941D01*
X111577930Y-112625182D01*
X111577927Y-112625181D01*
X111577926Y-112625180D01*
X111521701Y-112603856D01*
X111514783Y-112600991D01*
X111459929Y-112576303D01*
X111449952Y-112574475D01*
X111428339Y-112568450D01*
X111418873Y-112564860D01*
X111359172Y-112557610D01*
X111351771Y-112556483D01*
X111292607Y-112545641D01*
X111232566Y-112549274D01*
X111225079Y-112549500D01*
X104884910Y-112549500D01*
X104877423Y-112549274D01*
X104817391Y-112545642D01*
X104758242Y-112556481D01*
X104750843Y-112557608D01*
X104691122Y-112564860D01*
X104681641Y-112568456D01*
X104660036Y-112574479D01*
X104650069Y-112576305D01*
X104595234Y-112600984D01*
X104588318Y-112603848D01*
X104532069Y-112625181D01*
X104523725Y-112630941D01*
X104504183Y-112641963D01*
X104494944Y-112646121D01*
X104447594Y-112683216D01*
X104441566Y-112687652D01*
X104392067Y-112721819D01*
X104352183Y-112766838D01*
X104347051Y-112772290D01*
X102410161Y-114709181D01*
X102369933Y-114736061D01*
X102322480Y-114745500D01*
X101897519Y-114745500D01*
X101850066Y-114736061D01*
X101809838Y-114709181D01*
X99986819Y-112886162D01*
X99959939Y-112845934D01*
X99950500Y-112798481D01*
X99950500Y-104900000D01*
X101006917Y-104900000D01*
X101027207Y-105131917D01*
X101027207Y-105131920D01*
X101027208Y-105131921D01*
X101087463Y-105356796D01*
X101185852Y-105567791D01*
X101319385Y-105758496D01*
X101484004Y-105923115D01*
X101674709Y-106056648D01*
X101885704Y-106155037D01*
X102110579Y-106215292D01*
X102214878Y-106224416D01*
X102284409Y-106230500D01*
X102284411Y-106230500D01*
X102400589Y-106230500D01*
X102400591Y-106230500D01*
X102458533Y-106225430D01*
X102574421Y-106215292D01*
X102799296Y-106155037D01*
X103010291Y-106056648D01*
X103200996Y-105923115D01*
X103365615Y-105758496D01*
X103499148Y-105567791D01*
X103597537Y-105356796D01*
X103657792Y-105131921D01*
X103678082Y-104900000D01*
X103657792Y-104668079D01*
X103597537Y-104443204D01*
X103499148Y-104232209D01*
X103365615Y-104041504D01*
X103200996Y-103876885D01*
X103010291Y-103743352D01*
X102913007Y-103697987D01*
X102799297Y-103644963D01*
X102574417Y-103584707D01*
X102400591Y-103569500D01*
X102400589Y-103569500D01*
X102284411Y-103569500D01*
X102284409Y-103569500D01*
X102110582Y-103584707D01*
X101885702Y-103644963D01*
X101674711Y-103743351D01*
X101674709Y-103743352D01*
X101484004Y-103876885D01*
X101484000Y-103876888D01*
X101319388Y-104041500D01*
X101185851Y-104232211D01*
X101087463Y-104443202D01*
X101027207Y-104668082D01*
X101006917Y-104900000D01*
X99950500Y-104900000D01*
X99950500Y-96144019D01*
X99959939Y-96096566D01*
X99986819Y-96056338D01*
X100429534Y-95613623D01*
X100875532Y-95167623D01*
X100936374Y-95134244D01*
X101005624Y-95138783D01*
X101061589Y-95179819D01*
X101086741Y-95244498D01*
X101106292Y-95467974D01*
X101162925Y-95679331D01*
X101212761Y-95786205D01*
X101255398Y-95877639D01*
X101380902Y-96056877D01*
X101535623Y-96211598D01*
X101714861Y-96337102D01*
X101813737Y-96383208D01*
X101866082Y-96407618D01*
X101918258Y-96453375D01*
X101937677Y-96520000D01*
X101918258Y-96586625D01*
X101866082Y-96632382D01*
X101714861Y-96702898D01*
X101535622Y-96828402D01*
X101380902Y-96983122D01*
X101255398Y-97162361D01*
X101162925Y-97360668D01*
X101106292Y-97572025D01*
X101087222Y-97790000D01*
X101106292Y-98007974D01*
X101162879Y-98219161D01*
X101162925Y-98219330D01*
X101255398Y-98417639D01*
X101380902Y-98596877D01*
X101535623Y-98751598D01*
X101714861Y-98877102D01*
X101913170Y-98969575D01*
X102124523Y-99026207D01*
X102342500Y-99045277D01*
X102560477Y-99026207D01*
X102771830Y-98969575D01*
X102970139Y-98877102D01*
X103149377Y-98751598D01*
X103304098Y-98596877D01*
X103429602Y-98417639D01*
X103522075Y-98219330D01*
X103578707Y-98007977D01*
X103597777Y-97790000D01*
X103578707Y-97572023D01*
X103522075Y-97360670D01*
X103429602Y-97162362D01*
X103304098Y-96983123D01*
X103149377Y-96828402D01*
X102970139Y-96702898D01*
X102818917Y-96632382D01*
X102766741Y-96586625D01*
X102747322Y-96520000D01*
X102766741Y-96453375D01*
X102818917Y-96407618D01*
X102821824Y-96406262D01*
X102970139Y-96337102D01*
X103149377Y-96211598D01*
X103304098Y-96056877D01*
X103429602Y-95877639D01*
X103522075Y-95679330D01*
X103578707Y-95467977D01*
X103597777Y-95250000D01*
X103578707Y-95032023D01*
X103522075Y-94820670D01*
X103429602Y-94622362D01*
X103304098Y-94443123D01*
X103149377Y-94288402D01*
X102970139Y-94162898D01*
X102818917Y-94092382D01*
X102766741Y-94046625D01*
X102747322Y-93980000D01*
X102766741Y-93913375D01*
X102818917Y-93867618D01*
X102821824Y-93866262D01*
X102970139Y-93797102D01*
X103149377Y-93671598D01*
X103304098Y-93516877D01*
X103429602Y-93337639D01*
X103522075Y-93139330D01*
X103578707Y-92927977D01*
X103597777Y-92710000D01*
X103578707Y-92492023D01*
X103522075Y-92280670D01*
X103429602Y-92082362D01*
X103304098Y-91903123D01*
X103149377Y-91748402D01*
X102970139Y-91622898D01*
X102927842Y-91603174D01*
X102818917Y-91552381D01*
X102766741Y-91506624D01*
X102747322Y-91439998D01*
X102766742Y-91373373D01*
X102818916Y-91327618D01*
X102970139Y-91257102D01*
X103149377Y-91131598D01*
X103304098Y-90976877D01*
X103429602Y-90797639D01*
X103522075Y-90599330D01*
X103578707Y-90387977D01*
X103597777Y-90170000D01*
X103578707Y-89952023D01*
X103522075Y-89740670D01*
X103429602Y-89542362D01*
X103304098Y-89363123D01*
X103149377Y-89208402D01*
X102970139Y-89082898D01*
X102818917Y-89012382D01*
X102766741Y-88966625D01*
X102747322Y-88900000D01*
X102766741Y-88833375D01*
X102818917Y-88787618D01*
X102821824Y-88786262D01*
X102970139Y-88717102D01*
X103149377Y-88591598D01*
X103304098Y-88436877D01*
X103429602Y-88257639D01*
X103522075Y-88059330D01*
X103578707Y-87847977D01*
X103597777Y-87630000D01*
X103578707Y-87412023D01*
X103522075Y-87200670D01*
X103429602Y-87002362D01*
X103304098Y-86823123D01*
X103149377Y-86668402D01*
X102970139Y-86542898D01*
X102898071Y-86509292D01*
X102818917Y-86472381D01*
X102766741Y-86426624D01*
X102747322Y-86359998D01*
X102766742Y-86293373D01*
X102818916Y-86247618D01*
X102970139Y-86177102D01*
X103149377Y-86051598D01*
X103304098Y-85896877D01*
X103341561Y-85843374D01*
X103385877Y-85804511D01*
X103443134Y-85790500D01*
X104885079Y-85790500D01*
X104892566Y-85790726D01*
X104895706Y-85790915D01*
X104952606Y-85794358D01*
X105011782Y-85783513D01*
X105019181Y-85782387D01*
X105078872Y-85775140D01*
X105088335Y-85771550D01*
X105109958Y-85765522D01*
X105119932Y-85763695D01*
X105174808Y-85738996D01*
X105181673Y-85736152D01*
X105237930Y-85714818D01*
X105246270Y-85709060D01*
X105265819Y-85698035D01*
X105275057Y-85693878D01*
X105322413Y-85656775D01*
X105328420Y-85652355D01*
X105377929Y-85618183D01*
X105417823Y-85573150D01*
X105422924Y-85567731D01*
X113727731Y-77262924D01*
X113733150Y-77257823D01*
X113778183Y-77217929D01*
X113812351Y-77168426D01*
X113816763Y-77162428D01*
X113853878Y-77115057D01*
X113858034Y-77105820D01*
X113869062Y-77086267D01*
X113874818Y-77077930D01*
X113896153Y-77021671D01*
X113898997Y-77014803D01*
X113923694Y-76959932D01*
X113925519Y-76949970D01*
X113931545Y-76928348D01*
X113935140Y-76918872D01*
X113942389Y-76859165D01*
X113943516Y-76851762D01*
X113954357Y-76792606D01*
X113950726Y-76732577D01*
X113950500Y-76725090D01*
X113950500Y-69500000D01*
X118594540Y-69500000D01*
X118614326Y-69688257D01*
X118672820Y-69868284D01*
X118767466Y-70032216D01*
X118894129Y-70172889D01*
X119047269Y-70284151D01*
X119220197Y-70361144D01*
X119405352Y-70400500D01*
X119405354Y-70400500D01*
X119594646Y-70400500D01*
X119594648Y-70400500D01*
X119718084Y-70374262D01*
X119779803Y-70361144D01*
X119952730Y-70284151D01*
X120035271Y-70224181D01*
X120069838Y-70206569D01*
X120108156Y-70200500D01*
X162925500Y-70200500D01*
X162987500Y-70217113D01*
X163032887Y-70262500D01*
X163049500Y-70324500D01*
X163049500Y-119158481D01*
X163040061Y-119205934D01*
X163013181Y-119246162D01*
X151687027Y-130572315D01*
X151658514Y-130593607D01*
X151625127Y-130605924D01*
X151470197Y-130638855D01*
X151297269Y-130715848D01*
X151144129Y-130827110D01*
X151017466Y-130967783D01*
X150922820Y-131131715D01*
X150864326Y-131311742D01*
X150844540Y-131500000D01*
X150864326Y-131688257D01*
X150922820Y-131868284D01*
X151017466Y-132032216D01*
X151144129Y-132172889D01*
X151297269Y-132284151D01*
X151470197Y-132361144D01*
X151655352Y-132400500D01*
X151655354Y-132400500D01*
X151844646Y-132400500D01*
X151844648Y-132400500D01*
X151968084Y-132374262D01*
X152029803Y-132361144D01*
X152202730Y-132284151D01*
X152355871Y-132172888D01*
X152482533Y-132032216D01*
X152577179Y-131868284D01*
X152635674Y-131688256D01*
X152640864Y-131638866D01*
X152652263Y-131598450D01*
X152676500Y-131564155D01*
X163740656Y-120499999D01*
X165740707Y-120499999D01*
X165759838Y-120718671D01*
X165759839Y-120718674D01*
X165816653Y-120930703D01*
X165909421Y-121129646D01*
X166035326Y-121309457D01*
X166190543Y-121464674D01*
X166370354Y-121590579D01*
X166569297Y-121683347D01*
X166781326Y-121740161D01*
X167000000Y-121759292D01*
X167218674Y-121740161D01*
X167430703Y-121683347D01*
X167629646Y-121590579D01*
X167809457Y-121464674D01*
X167964674Y-121309457D01*
X168090579Y-121129646D01*
X168183347Y-120930703D01*
X168240161Y-120718674D01*
X168259292Y-120500000D01*
X168259292Y-120499999D01*
X172240707Y-120499999D01*
X172259838Y-120718671D01*
X172259839Y-120718674D01*
X172316653Y-120930703D01*
X172409421Y-121129646D01*
X172535326Y-121309457D01*
X172690543Y-121464674D01*
X172870354Y-121590579D01*
X173069297Y-121683347D01*
X173281326Y-121740161D01*
X173500000Y-121759292D01*
X173718674Y-121740161D01*
X173930703Y-121683347D01*
X174129646Y-121590579D01*
X174309457Y-121464674D01*
X174464674Y-121309457D01*
X174590579Y-121129646D01*
X174683347Y-120930703D01*
X174740161Y-120718674D01*
X174759292Y-120500000D01*
X174740161Y-120281326D01*
X174683347Y-120069297D01*
X174590579Y-119870354D01*
X174464674Y-119690543D01*
X174309457Y-119535326D01*
X174129646Y-119409421D01*
X174037921Y-119366649D01*
X173930704Y-119316653D01*
X173718671Y-119259838D01*
X173500000Y-119240707D01*
X173281328Y-119259838D01*
X173069295Y-119316653D01*
X172870356Y-119409420D01*
X172870354Y-119409421D01*
X172690543Y-119535326D01*
X172690539Y-119535329D01*
X172535329Y-119690539D01*
X172535326Y-119690542D01*
X172535326Y-119690543D01*
X172426794Y-119845544D01*
X172409420Y-119870356D01*
X172316653Y-120069295D01*
X172259838Y-120281328D01*
X172240707Y-120499999D01*
X168259292Y-120499999D01*
X168240161Y-120281326D01*
X168183347Y-120069297D01*
X168090579Y-119870354D01*
X167964674Y-119690543D01*
X167809457Y-119535326D01*
X167629646Y-119409421D01*
X167537921Y-119366649D01*
X167430704Y-119316653D01*
X167218671Y-119259838D01*
X167000000Y-119240707D01*
X166781328Y-119259838D01*
X166569295Y-119316653D01*
X166370356Y-119409420D01*
X166370354Y-119409421D01*
X166190543Y-119535326D01*
X166190539Y-119535329D01*
X166035329Y-119690539D01*
X166035326Y-119690542D01*
X166035326Y-119690543D01*
X165926794Y-119845544D01*
X165909420Y-119870356D01*
X165816653Y-120069295D01*
X165759838Y-120281328D01*
X165740707Y-120499999D01*
X163740656Y-120499999D01*
X164227731Y-120012924D01*
X164233150Y-120007823D01*
X164278183Y-119967929D01*
X164312377Y-119918389D01*
X164316770Y-119912419D01*
X164353878Y-119865056D01*
X164358035Y-119855818D01*
X164369061Y-119836268D01*
X164374818Y-119827930D01*
X164396152Y-119771674D01*
X164398994Y-119764811D01*
X164423695Y-119709931D01*
X164425522Y-119699956D01*
X164431549Y-119678339D01*
X164435140Y-119668872D01*
X164442387Y-119609179D01*
X164443514Y-119601777D01*
X164454358Y-119542606D01*
X164450726Y-119482566D01*
X164450500Y-119475079D01*
X164450500Y-116250000D01*
X165746000Y-116250000D01*
X165746000Y-116801824D01*
X165752402Y-116861375D01*
X165802647Y-116996089D01*
X165888811Y-117111188D01*
X166003910Y-117197352D01*
X166138624Y-117247597D01*
X166198176Y-117254000D01*
X166750000Y-117254000D01*
X166750000Y-116250000D01*
X167250000Y-116250000D01*
X167250000Y-117254000D01*
X167801824Y-117254000D01*
X167861375Y-117247597D01*
X167996089Y-117197352D01*
X168111188Y-117111188D01*
X168197352Y-116996089D01*
X168247597Y-116861375D01*
X168254000Y-116801824D01*
X168254000Y-116250000D01*
X167250000Y-116250000D01*
X166750000Y-116250000D01*
X165746000Y-116250000D01*
X164450500Y-116250000D01*
X164450500Y-116000000D01*
X172240707Y-116000000D01*
X172259838Y-116218671D01*
X172259839Y-116218674D01*
X172316653Y-116430703D01*
X172409421Y-116629646D01*
X172535326Y-116809457D01*
X172690543Y-116964674D01*
X172870354Y-117090579D01*
X173069297Y-117183347D01*
X173281326Y-117240161D01*
X173500000Y-117259292D01*
X173718674Y-117240161D01*
X173930703Y-117183347D01*
X174129646Y-117090579D01*
X174309457Y-116964674D01*
X174464674Y-116809457D01*
X174590579Y-116629646D01*
X174683347Y-116430703D01*
X174740161Y-116218674D01*
X174759292Y-116000000D01*
X174740161Y-115781326D01*
X174683347Y-115569297D01*
X174590579Y-115370354D01*
X174464674Y-115190543D01*
X174309457Y-115035326D01*
X174129646Y-114909421D01*
X174037921Y-114866649D01*
X173930704Y-114816653D01*
X173718671Y-114759838D01*
X173500000Y-114740707D01*
X173281328Y-114759838D01*
X173069295Y-114816653D01*
X172870356Y-114909420D01*
X172870354Y-114909421D01*
X172735754Y-115003669D01*
X172690539Y-115035329D01*
X172535329Y-115190539D01*
X172535326Y-115190542D01*
X172535326Y-115190543D01*
X172529982Y-115198176D01*
X172409420Y-115370356D01*
X172316653Y-115569295D01*
X172259838Y-115781328D01*
X172240707Y-116000000D01*
X164450500Y-116000000D01*
X164450500Y-115750000D01*
X165746000Y-115750000D01*
X166750000Y-115750000D01*
X166750000Y-114746000D01*
X167250000Y-114746000D01*
X167250000Y-115750000D01*
X168254000Y-115750000D01*
X168254000Y-115198176D01*
X168247597Y-115138624D01*
X168197352Y-115003910D01*
X168111188Y-114888811D01*
X167996089Y-114802647D01*
X167861375Y-114752402D01*
X167801824Y-114746000D01*
X167250000Y-114746000D01*
X166750000Y-114746000D01*
X166198176Y-114746000D01*
X166138624Y-114752402D01*
X166003910Y-114802647D01*
X165888811Y-114888811D01*
X165802647Y-115003910D01*
X165752402Y-115138624D01*
X165746000Y-115198176D01*
X165746000Y-115750000D01*
X164450500Y-115750000D01*
X164450500Y-98833124D01*
X176652926Y-98833124D01*
X176652927Y-98833125D01*
X176715110Y-98876666D01*
X176913340Y-98969102D01*
X177124613Y-99025712D01*
X177342500Y-99044775D01*
X177560386Y-99025712D01*
X177771659Y-98969102D01*
X177969885Y-98876667D01*
X178032072Y-98833124D01*
X177342501Y-98143553D01*
X177342500Y-98143553D01*
X176652926Y-98833124D01*
X164450500Y-98833124D01*
X164450500Y-97789999D01*
X176087724Y-97789999D01*
X176106787Y-98007886D01*
X176163398Y-98219161D01*
X176255831Y-98417386D01*
X176299373Y-98479571D01*
X176299375Y-98479572D01*
X176988947Y-97790001D01*
X176988947Y-97790000D01*
X177696053Y-97790000D01*
X178385624Y-98479572D01*
X178429167Y-98417385D01*
X178521602Y-98219159D01*
X178578212Y-98007886D01*
X178597275Y-97789999D01*
X178578212Y-97572113D01*
X178521602Y-97360840D01*
X178429167Y-97162615D01*
X178385623Y-97100428D01*
X177696053Y-97790000D01*
X176988947Y-97790000D01*
X176299375Y-97100427D01*
X176299374Y-97100428D01*
X176255833Y-97162611D01*
X176163397Y-97360840D01*
X176106787Y-97572113D01*
X176087724Y-97789999D01*
X164450500Y-97789999D01*
X164450500Y-95249999D01*
X176087222Y-95249999D01*
X176106292Y-95467974D01*
X176162925Y-95679331D01*
X176212761Y-95786205D01*
X176255398Y-95877639D01*
X176380902Y-96056877D01*
X176535623Y-96211598D01*
X176714861Y-96337102D01*
X176866083Y-96407618D01*
X176866675Y-96407894D01*
X176918851Y-96453651D01*
X176938270Y-96520276D01*
X176918851Y-96586901D01*
X176866675Y-96632658D01*
X176715112Y-96703333D01*
X176652928Y-96746874D01*
X176652927Y-96746875D01*
X177342500Y-97436447D01*
X177342501Y-97436447D01*
X178032072Y-96746875D01*
X178032071Y-96746873D01*
X177969886Y-96703331D01*
X177818325Y-96632658D01*
X177766149Y-96586901D01*
X177746729Y-96520276D01*
X177766148Y-96453651D01*
X177818322Y-96407895D01*
X177970139Y-96337102D01*
X178123096Y-96230000D01*
X185990707Y-96230000D01*
X186009838Y-96448671D01*
X186066653Y-96660704D01*
X186106834Y-96746873D01*
X186159421Y-96859646D01*
X186285326Y-97039457D01*
X186440543Y-97194674D01*
X186620354Y-97320579D01*
X186819297Y-97413347D01*
X187031326Y-97470161D01*
X187250000Y-97489292D01*
X187468674Y-97470161D01*
X187680703Y-97413347D01*
X187879646Y-97320579D01*
X188059457Y-97194674D01*
X188214674Y-97039457D01*
X188340579Y-96859646D01*
X188433347Y-96660703D01*
X188490161Y-96448674D01*
X188509292Y-96230000D01*
X192490707Y-96230000D01*
X192509838Y-96448671D01*
X192566653Y-96660704D01*
X192606834Y-96746873D01*
X192659421Y-96859646D01*
X192785326Y-97039457D01*
X192940543Y-97194674D01*
X193120354Y-97320579D01*
X193319297Y-97413347D01*
X193531326Y-97470161D01*
X193750000Y-97489292D01*
X193968674Y-97470161D01*
X194180703Y-97413347D01*
X194379646Y-97320579D01*
X194559457Y-97194674D01*
X194714674Y-97039457D01*
X194840579Y-96859646D01*
X194933347Y-96660703D01*
X194990161Y-96448674D01*
X195009292Y-96230000D01*
X194990161Y-96011326D01*
X194933347Y-95799297D01*
X194840579Y-95600354D01*
X194714674Y-95420543D01*
X194559457Y-95265326D01*
X194379646Y-95139421D01*
X194253615Y-95080652D01*
X194180704Y-95046653D01*
X193968671Y-94989838D01*
X193750000Y-94970707D01*
X193531328Y-94989838D01*
X193319295Y-95046653D01*
X193131456Y-95134244D01*
X193120354Y-95139421D01*
X192962431Y-95250000D01*
X192940539Y-95265329D01*
X192785329Y-95420539D01*
X192785326Y-95420542D01*
X192785326Y-95420543D01*
X192664872Y-95592570D01*
X192659420Y-95600356D01*
X192566653Y-95799295D01*
X192509838Y-96011328D01*
X192490707Y-96230000D01*
X188509292Y-96230000D01*
X188490161Y-96011326D01*
X188433347Y-95799297D01*
X188340579Y-95600354D01*
X188214674Y-95420543D01*
X188059457Y-95265326D01*
X187879646Y-95139421D01*
X187753615Y-95080652D01*
X187680704Y-95046653D01*
X187468671Y-94989838D01*
X187250000Y-94970707D01*
X187031328Y-94989838D01*
X186819295Y-95046653D01*
X186631456Y-95134244D01*
X186620354Y-95139421D01*
X186462431Y-95250000D01*
X186440539Y-95265329D01*
X186285329Y-95420539D01*
X186285326Y-95420542D01*
X186285326Y-95420543D01*
X186164872Y-95592570D01*
X186159420Y-95600356D01*
X186066653Y-95799295D01*
X186009838Y-96011328D01*
X185990707Y-96230000D01*
X178123096Y-96230000D01*
X178149377Y-96211598D01*
X178304098Y-96056877D01*
X178429602Y-95877639D01*
X178522075Y-95679330D01*
X178578707Y-95467977D01*
X178597777Y-95250000D01*
X178578707Y-95032023D01*
X178522075Y-94820670D01*
X178429602Y-94622362D01*
X178304098Y-94443123D01*
X178149377Y-94288402D01*
X177970139Y-94162898D01*
X177818917Y-94092382D01*
X177766741Y-94046625D01*
X177747322Y-93980000D01*
X177766741Y-93913375D01*
X177818917Y-93867618D01*
X177821824Y-93866262D01*
X177970139Y-93797102D01*
X178149377Y-93671598D01*
X178304098Y-93516877D01*
X178429602Y-93337639D01*
X178522075Y-93139330D01*
X178578707Y-92927977D01*
X178597777Y-92710000D01*
X178582193Y-92531869D01*
X185995500Y-92531869D01*
X186001909Y-92591484D01*
X186027056Y-92658906D01*
X186052204Y-92726331D01*
X186138454Y-92841546D01*
X186253669Y-92927796D01*
X186388517Y-92978091D01*
X186448127Y-92984500D01*
X188051872Y-92984499D01*
X188111483Y-92978091D01*
X188246331Y-92927796D01*
X188361546Y-92841546D01*
X188447796Y-92726331D01*
X188498091Y-92591483D01*
X188504500Y-92531873D01*
X188504499Y-91730000D01*
X192490707Y-91730000D01*
X192509838Y-91948671D01*
X192537799Y-92053023D01*
X192566653Y-92160703D01*
X192659421Y-92359646D01*
X192785326Y-92539457D01*
X192940543Y-92694674D01*
X193120354Y-92820579D01*
X193319297Y-92913347D01*
X193531326Y-92970161D01*
X193750000Y-92989292D01*
X193968674Y-92970161D01*
X194180703Y-92913347D01*
X194379646Y-92820579D01*
X194559457Y-92694674D01*
X194714674Y-92539457D01*
X194840579Y-92359646D01*
X194933347Y-92160703D01*
X194990161Y-91948674D01*
X195009292Y-91730000D01*
X194990161Y-91511326D01*
X194933347Y-91299297D01*
X194840579Y-91100354D01*
X194714674Y-90920543D01*
X194559457Y-90765326D01*
X194379646Y-90639421D01*
X194275266Y-90590748D01*
X194180704Y-90546653D01*
X193968671Y-90489838D01*
X193750000Y-90470707D01*
X193531328Y-90489838D01*
X193319295Y-90546653D01*
X193165318Y-90618454D01*
X193120354Y-90639421D01*
X192985754Y-90733669D01*
X192940539Y-90765329D01*
X192785329Y-90920539D01*
X192785326Y-90920542D01*
X192785326Y-90920543D01*
X192736693Y-90989999D01*
X192659420Y-91100356D01*
X192566653Y-91299295D01*
X192509838Y-91511328D01*
X192490707Y-91730000D01*
X188504499Y-91730000D01*
X188504499Y-90928128D01*
X188498091Y-90868517D01*
X188447796Y-90733669D01*
X188361546Y-90618454D01*
X188246331Y-90532204D01*
X188111483Y-90481909D01*
X188051873Y-90475500D01*
X188051869Y-90475500D01*
X186448130Y-90475500D01*
X186388515Y-90481909D01*
X186253669Y-90532204D01*
X186138454Y-90618454D01*
X186052204Y-90733668D01*
X186001909Y-90868515D01*
X186001909Y-90868517D01*
X185996316Y-90920543D01*
X185995500Y-90928130D01*
X185995500Y-92531869D01*
X178582193Y-92531869D01*
X178578707Y-92492023D01*
X178522075Y-92280670D01*
X178429602Y-92082362D01*
X178304098Y-91903123D01*
X178149377Y-91748402D01*
X177970139Y-91622898D01*
X177927842Y-91603174D01*
X177818917Y-91552381D01*
X177766741Y-91506624D01*
X177747322Y-91439998D01*
X177766742Y-91373373D01*
X177818916Y-91327618D01*
X177970139Y-91257102D01*
X178149377Y-91131598D01*
X178304098Y-90976877D01*
X178429602Y-90797639D01*
X178522075Y-90599330D01*
X178578707Y-90387977D01*
X178597777Y-90170000D01*
X178578707Y-89952023D01*
X178522075Y-89740670D01*
X178429602Y-89542362D01*
X178304098Y-89363123D01*
X178149377Y-89208402D01*
X177970139Y-89082898D01*
X177818917Y-89012382D01*
X177766741Y-88966625D01*
X177747322Y-88900000D01*
X177766741Y-88833375D01*
X177818917Y-88787618D01*
X177821824Y-88786262D01*
X177970139Y-88717102D01*
X178149377Y-88591598D01*
X178304098Y-88436877D01*
X178429602Y-88257639D01*
X178522075Y-88059330D01*
X178578707Y-87847977D01*
X178597777Y-87630000D01*
X178578707Y-87412023D01*
X178522075Y-87200670D01*
X178429602Y-87002362D01*
X178304098Y-86823123D01*
X178149377Y-86668402D01*
X177970139Y-86542898D01*
X177898071Y-86509292D01*
X177818917Y-86472381D01*
X177766741Y-86426624D01*
X177747322Y-86359998D01*
X177766742Y-86293373D01*
X177818916Y-86247618D01*
X177970139Y-86177102D01*
X178149377Y-86051598D01*
X178304098Y-85896877D01*
X178429602Y-85717639D01*
X178522075Y-85519330D01*
X178578707Y-85307977D01*
X178583779Y-85250000D01*
X185990707Y-85250000D01*
X186009838Y-85468671D01*
X186066653Y-85680704D01*
X186109016Y-85771552D01*
X186159421Y-85879646D01*
X186285326Y-86059457D01*
X186440543Y-86214674D01*
X186620354Y-86340579D01*
X186819297Y-86433347D01*
X187031326Y-86490161D01*
X187250000Y-86509292D01*
X187468674Y-86490161D01*
X187680703Y-86433347D01*
X187879646Y-86340579D01*
X188059457Y-86214674D01*
X188214674Y-86059457D01*
X188340579Y-85879646D01*
X188433347Y-85680703D01*
X188490161Y-85468674D01*
X188509292Y-85250000D01*
X192490707Y-85250000D01*
X192509838Y-85468671D01*
X192566653Y-85680704D01*
X192609016Y-85771552D01*
X192659421Y-85879646D01*
X192785326Y-86059457D01*
X192940543Y-86214674D01*
X193120354Y-86340579D01*
X193319297Y-86433347D01*
X193531326Y-86490161D01*
X193750000Y-86509292D01*
X193968674Y-86490161D01*
X194180703Y-86433347D01*
X194379646Y-86340579D01*
X194559457Y-86214674D01*
X194714674Y-86059457D01*
X194840579Y-85879646D01*
X194933347Y-85680703D01*
X194990161Y-85468674D01*
X195009292Y-85250000D01*
X194990161Y-85031326D01*
X194933347Y-84819297D01*
X194840579Y-84620354D01*
X194714674Y-84440543D01*
X194559457Y-84285326D01*
X194379646Y-84159421D01*
X194287921Y-84116649D01*
X194180704Y-84066653D01*
X193968671Y-84009838D01*
X193750000Y-83990707D01*
X193531328Y-84009838D01*
X193319295Y-84066653D01*
X193186868Y-84128405D01*
X193120354Y-84159421D01*
X192988165Y-84251981D01*
X192940539Y-84285329D01*
X192785329Y-84440539D01*
X192659420Y-84620356D01*
X192566653Y-84819295D01*
X192509838Y-85031328D01*
X192490707Y-85250000D01*
X188509292Y-85250000D01*
X188490161Y-85031326D01*
X188433347Y-84819297D01*
X188340579Y-84620354D01*
X188214674Y-84440543D01*
X188059457Y-84285326D01*
X187879646Y-84159421D01*
X187787921Y-84116649D01*
X187680704Y-84066653D01*
X187468671Y-84009838D01*
X187250000Y-83990707D01*
X187031328Y-84009838D01*
X186819295Y-84066653D01*
X186686868Y-84128405D01*
X186620354Y-84159421D01*
X186488165Y-84251981D01*
X186440539Y-84285329D01*
X186285329Y-84440539D01*
X186159420Y-84620356D01*
X186066653Y-84819295D01*
X186009838Y-85031328D01*
X185990707Y-85250000D01*
X178583779Y-85250000D01*
X178597777Y-85090000D01*
X178578707Y-84872023D01*
X178522075Y-84660670D01*
X178429602Y-84462362D01*
X178304098Y-84283123D01*
X178149377Y-84128402D01*
X177970139Y-84002898D01*
X177818917Y-83932382D01*
X177766741Y-83886625D01*
X177747322Y-83820000D01*
X177766741Y-83753375D01*
X177818917Y-83707618D01*
X177821824Y-83706262D01*
X177970139Y-83637102D01*
X178149377Y-83511598D01*
X178304098Y-83356877D01*
X178429602Y-83177639D01*
X178522075Y-82979330D01*
X178578707Y-82767977D01*
X178597777Y-82550000D01*
X178578707Y-82332023D01*
X178522075Y-82120670D01*
X178429602Y-81922362D01*
X178304098Y-81743123D01*
X178149377Y-81588402D01*
X178097203Y-81551869D01*
X185995500Y-81551869D01*
X185997942Y-81574580D01*
X186001909Y-81611483D01*
X186052204Y-81746331D01*
X186138454Y-81861546D01*
X186253669Y-81947796D01*
X186388517Y-81998091D01*
X186448127Y-82004500D01*
X188051872Y-82004499D01*
X188111483Y-81998091D01*
X188246331Y-81947796D01*
X188361546Y-81861546D01*
X188447796Y-81746331D01*
X188498091Y-81611483D01*
X188504500Y-81551873D01*
X188504499Y-80750000D01*
X192490707Y-80750000D01*
X192509838Y-80968671D01*
X192566653Y-81180704D01*
X192606090Y-81265277D01*
X192659421Y-81379646D01*
X192785326Y-81559457D01*
X192940543Y-81714674D01*
X193120354Y-81840579D01*
X193319297Y-81933347D01*
X193531326Y-81990161D01*
X193750000Y-82009292D01*
X193968674Y-81990161D01*
X194180703Y-81933347D01*
X194379646Y-81840579D01*
X194559457Y-81714674D01*
X194714674Y-81559457D01*
X194840579Y-81379646D01*
X194933347Y-81180703D01*
X194990161Y-80968674D01*
X195009292Y-80750000D01*
X194990161Y-80531326D01*
X194933347Y-80319297D01*
X194840579Y-80120354D01*
X194714674Y-79940543D01*
X194559457Y-79785326D01*
X194379646Y-79659421D01*
X194210763Y-79580670D01*
X194180704Y-79566653D01*
X193968671Y-79509838D01*
X193750000Y-79490707D01*
X193531328Y-79509838D01*
X193319295Y-79566653D01*
X193165318Y-79638454D01*
X193120354Y-79659421D01*
X192966750Y-79766976D01*
X192940539Y-79785329D01*
X192785329Y-79940539D01*
X192785326Y-79940542D01*
X192785326Y-79940543D01*
X192683882Y-80085421D01*
X192659420Y-80120356D01*
X192566653Y-80319295D01*
X192509838Y-80531328D01*
X192490707Y-80750000D01*
X188504499Y-80750000D01*
X188504499Y-79948128D01*
X188498091Y-79888517D01*
X188447796Y-79753669D01*
X188361546Y-79638454D01*
X188246331Y-79552204D01*
X188111483Y-79501909D01*
X188051873Y-79495500D01*
X188051869Y-79495500D01*
X186448130Y-79495500D01*
X186388515Y-79501909D01*
X186253669Y-79552204D01*
X186138454Y-79638454D01*
X186052204Y-79753668D01*
X186001909Y-79888515D01*
X186001909Y-79888517D01*
X185996316Y-79940543D01*
X185995500Y-79948130D01*
X185995500Y-81551869D01*
X178097203Y-81551869D01*
X177970139Y-81462898D01*
X177818917Y-81392382D01*
X177766741Y-81346625D01*
X177747322Y-81280000D01*
X177766741Y-81213375D01*
X177818917Y-81167618D01*
X177821824Y-81166262D01*
X177970139Y-81097102D01*
X178149377Y-80971598D01*
X178304098Y-80816877D01*
X178429602Y-80637639D01*
X178522075Y-80439330D01*
X178578707Y-80227977D01*
X178597777Y-80010000D01*
X178578707Y-79792023D01*
X178522075Y-79580670D01*
X178429602Y-79382362D01*
X178304098Y-79203123D01*
X178149377Y-79048402D01*
X177970139Y-78922898D01*
X177860027Y-78871552D01*
X177771831Y-78830425D01*
X177560474Y-78773792D01*
X177342500Y-78754722D01*
X177124525Y-78773792D01*
X176913168Y-78830425D01*
X176714861Y-78922898D01*
X176535622Y-79048402D01*
X176380902Y-79203122D01*
X176255398Y-79382361D01*
X176162925Y-79580668D01*
X176106292Y-79792025D01*
X176087222Y-80010000D01*
X176106292Y-80227974D01*
X176130761Y-80319295D01*
X176162925Y-80439330D01*
X176255398Y-80637639D01*
X176380902Y-80816877D01*
X176535623Y-80971598D01*
X176714861Y-81097102D01*
X176813737Y-81143208D01*
X176866082Y-81167618D01*
X176918258Y-81213375D01*
X176937677Y-81280000D01*
X176918258Y-81346625D01*
X176866082Y-81392382D01*
X176714861Y-81462898D01*
X176535622Y-81588402D01*
X176380902Y-81743122D01*
X176255398Y-81922361D01*
X176162925Y-82120668D01*
X176106292Y-82332025D01*
X176087222Y-82549999D01*
X176106292Y-82767974D01*
X176111706Y-82788181D01*
X176162925Y-82979330D01*
X176255398Y-83177639D01*
X176380902Y-83356877D01*
X176535623Y-83511598D01*
X176714861Y-83637102D01*
X176813737Y-83683208D01*
X176866082Y-83707618D01*
X176918258Y-83753375D01*
X176937677Y-83820000D01*
X176918258Y-83886625D01*
X176866082Y-83932382D01*
X176714861Y-84002898D01*
X176535622Y-84128402D01*
X176380902Y-84283122D01*
X176255398Y-84462361D01*
X176162925Y-84660668D01*
X176106292Y-84872025D01*
X176087222Y-85089999D01*
X176106292Y-85307974D01*
X176149351Y-85468674D01*
X176162925Y-85519330D01*
X176255398Y-85717639D01*
X176380902Y-85896877D01*
X176535623Y-86051598D01*
X176714861Y-86177102D01*
X176813737Y-86223208D01*
X176866082Y-86247618D01*
X176918258Y-86293375D01*
X176937677Y-86360000D01*
X176918258Y-86426625D01*
X176866082Y-86472382D01*
X176714861Y-86542898D01*
X176535622Y-86668402D01*
X176380902Y-86823122D01*
X176255398Y-87002361D01*
X176162925Y-87200668D01*
X176106292Y-87412025D01*
X176087222Y-87630000D01*
X176106292Y-87847974D01*
X176111706Y-87868181D01*
X176162925Y-88059330D01*
X176255398Y-88257639D01*
X176380902Y-88436877D01*
X176535623Y-88591598D01*
X176714861Y-88717102D01*
X176813737Y-88763208D01*
X176866082Y-88787618D01*
X176918258Y-88833375D01*
X176937677Y-88900000D01*
X176918258Y-88966625D01*
X176866082Y-89012382D01*
X176714861Y-89082898D01*
X176535622Y-89208402D01*
X176380902Y-89363122D01*
X176255398Y-89542361D01*
X176162925Y-89740668D01*
X176106292Y-89952025D01*
X176087222Y-90169999D01*
X176106292Y-90387974D01*
X176162925Y-90599331D01*
X176212761Y-90706205D01*
X176255398Y-90797639D01*
X176380902Y-90976877D01*
X176535623Y-91131598D01*
X176714861Y-91257102D01*
X176813737Y-91303208D01*
X176866082Y-91327618D01*
X176918258Y-91373375D01*
X176937677Y-91440000D01*
X176918258Y-91506625D01*
X176866082Y-91552382D01*
X176714861Y-91622898D01*
X176535622Y-91748402D01*
X176380902Y-91903122D01*
X176255398Y-92082361D01*
X176162925Y-92280668D01*
X176106292Y-92492025D01*
X176087222Y-92710000D01*
X176106292Y-92927974D01*
X176111706Y-92948181D01*
X176162925Y-93139330D01*
X176255398Y-93337639D01*
X176380902Y-93516877D01*
X176535623Y-93671598D01*
X176714861Y-93797102D01*
X176813737Y-93843208D01*
X176866082Y-93867618D01*
X176918258Y-93913375D01*
X176937677Y-93980000D01*
X176918258Y-94046625D01*
X176866082Y-94092382D01*
X176714861Y-94162898D01*
X176535622Y-94288402D01*
X176380902Y-94443122D01*
X176255398Y-94622361D01*
X176162925Y-94820668D01*
X176106292Y-95032025D01*
X176087222Y-95249999D01*
X164450500Y-95249999D01*
X164450500Y-72899999D01*
X176006917Y-72899999D01*
X176027207Y-73131917D01*
X176027207Y-73131920D01*
X176027208Y-73131921D01*
X176087463Y-73356796D01*
X176185852Y-73567791D01*
X176319385Y-73758496D01*
X176484004Y-73923115D01*
X176674709Y-74056648D01*
X176885704Y-74155037D01*
X177110579Y-74215292D01*
X177214878Y-74224416D01*
X177284409Y-74230500D01*
X177284411Y-74230500D01*
X177400589Y-74230500D01*
X177400591Y-74230500D01*
X177458532Y-74225430D01*
X177574421Y-74215292D01*
X177799296Y-74155037D01*
X178010291Y-74056648D01*
X178200996Y-73923115D01*
X178365615Y-73758496D01*
X178499148Y-73567791D01*
X178597537Y-73356796D01*
X178657792Y-73131921D01*
X178678082Y-72900000D01*
X178657792Y-72668079D01*
X178597537Y-72443204D01*
X178499148Y-72232209D01*
X178365615Y-72041504D01*
X178200996Y-71876885D01*
X178010291Y-71743352D01*
X177913007Y-71697987D01*
X177799297Y-71644963D01*
X177574417Y-71584707D01*
X177400591Y-71569500D01*
X177400589Y-71569500D01*
X177284411Y-71569500D01*
X177284409Y-71569500D01*
X177110582Y-71584707D01*
X176885702Y-71644963D01*
X176674711Y-71743351D01*
X176674709Y-71743352D01*
X176484004Y-71876885D01*
X176484000Y-71876888D01*
X176319388Y-72041500D01*
X176185851Y-72232211D01*
X176087463Y-72443202D01*
X176027207Y-72668082D01*
X176006917Y-72899999D01*
X164450500Y-72899999D01*
X164450500Y-70115392D01*
X164458736Y-70070955D01*
X164482350Y-70032420D01*
X164482533Y-70032216D01*
X164577179Y-69868284D01*
X164577179Y-69868283D01*
X164635674Y-69688256D01*
X164655460Y-69500000D01*
X164635674Y-69311744D01*
X164577179Y-69131716D01*
X164577179Y-69131715D01*
X164482533Y-68967783D01*
X164355870Y-68827110D01*
X164202730Y-68715848D01*
X164029802Y-68638855D01*
X163844648Y-68599500D01*
X163844646Y-68599500D01*
X163655354Y-68599500D01*
X163655352Y-68599500D01*
X163470197Y-68638855D01*
X163297272Y-68715847D01*
X163214730Y-68775818D01*
X163180162Y-68793431D01*
X163141844Y-68799500D01*
X120108156Y-68799500D01*
X120069838Y-68793431D01*
X120035270Y-68775818D01*
X119952727Y-68715847D01*
X119779802Y-68638855D01*
X119594648Y-68599500D01*
X119594646Y-68599500D01*
X119405354Y-68599500D01*
X119405352Y-68599500D01*
X119220197Y-68638855D01*
X119047269Y-68715848D01*
X118894129Y-68827110D01*
X118767466Y-68967783D01*
X118672820Y-69131715D01*
X118614326Y-69311742D01*
X118594540Y-69500000D01*
X113950500Y-69500000D01*
X113950500Y-65278975D01*
X113969506Y-65213003D01*
X114020699Y-65167255D01*
X114152775Y-65103651D01*
X114375741Y-64951635D01*
X114573561Y-64768085D01*
X114741815Y-64557102D01*
X114876743Y-64323398D01*
X114975334Y-64072195D01*
X115035383Y-63809103D01*
X115055549Y-63540000D01*
X115052551Y-63499999D01*
X194490448Y-63499999D01*
X194510634Y-63807989D01*
X194570847Y-64110697D01*
X194670056Y-64402959D01*
X194806567Y-64679775D01*
X194894860Y-64811915D01*
X194978042Y-64936404D01*
X195181545Y-65168455D01*
X195413595Y-65371957D01*
X195413596Y-65371958D01*
X195670224Y-65543432D01*
X195947040Y-65679943D01*
X196239302Y-65779152D01*
X196542010Y-65839365D01*
X196542012Y-65839365D01*
X196542017Y-65839366D01*
X196850000Y-65859552D01*
X197157983Y-65839366D01*
X197157987Y-65839365D01*
X197157989Y-65839365D01*
X197460697Y-65779152D01*
X197752959Y-65679943D01*
X197760446Y-65676250D01*
X198029776Y-65543432D01*
X198286404Y-65371958D01*
X198518455Y-65168455D01*
X198721958Y-64936404D01*
X198893432Y-64679776D01*
X199029942Y-64402961D01*
X199085430Y-64239500D01*
X199129152Y-64110697D01*
X199189365Y-63807989D01*
X199189365Y-63807987D01*
X199189366Y-63807983D01*
X199209552Y-63500000D01*
X199189366Y-63192017D01*
X199156466Y-63026621D01*
X199129152Y-62889302D01*
X199029943Y-62597040D01*
X198893432Y-62320224D01*
X198721958Y-62063596D01*
X198682326Y-62018404D01*
X198518455Y-61831545D01*
X198286404Y-61628042D01*
X198268961Y-61616387D01*
X198029775Y-61456567D01*
X197752959Y-61320056D01*
X197460697Y-61220847D01*
X197157989Y-61160634D01*
X196893997Y-61143331D01*
X196850000Y-61140448D01*
X196849999Y-61140448D01*
X196542010Y-61160634D01*
X196239302Y-61220847D01*
X195947040Y-61320056D01*
X195670224Y-61456567D01*
X195413596Y-61628041D01*
X195181545Y-61831545D01*
X194978041Y-62063596D01*
X194806567Y-62320224D01*
X194670056Y-62597040D01*
X194570847Y-62889302D01*
X194510634Y-63192010D01*
X194490448Y-63499999D01*
X115052551Y-63499999D01*
X115035383Y-63270897D01*
X114975334Y-63007805D01*
X114876743Y-62756602D01*
X114844064Y-62700000D01*
X136402869Y-62700000D01*
X136470123Y-62881595D01*
X136575019Y-63049883D01*
X136711635Y-63193602D01*
X136874389Y-63306883D01*
X137056614Y-63385081D01*
X137250000Y-63424824D01*
X137250000Y-62700000D01*
X137750000Y-62700000D01*
X137750000Y-63419858D01*
X137847278Y-63409966D01*
X138036480Y-63350603D01*
X138209859Y-63254371D01*
X138360317Y-63125207D01*
X138481693Y-62968402D01*
X138569022Y-62790369D01*
X138592420Y-62700000D01*
X141402869Y-62700000D01*
X141470123Y-62881595D01*
X141575019Y-63049883D01*
X141711635Y-63193602D01*
X141874389Y-63306883D01*
X142056614Y-63385081D01*
X142250000Y-63424824D01*
X142250000Y-62700000D01*
X142750000Y-62700000D01*
X142750000Y-63419858D01*
X142847278Y-63409966D01*
X143036480Y-63350603D01*
X143209859Y-63254371D01*
X143360317Y-63125207D01*
X143481693Y-62968402D01*
X143569022Y-62790369D01*
X143592420Y-62700000D01*
X142750000Y-62700000D01*
X142250000Y-62700000D01*
X141402869Y-62700000D01*
X138592420Y-62700000D01*
X137750000Y-62700000D01*
X137250000Y-62700000D01*
X136402869Y-62700000D01*
X114844064Y-62700000D01*
X114741815Y-62522898D01*
X114573561Y-62311915D01*
X114573560Y-62311914D01*
X114452945Y-62199999D01*
X136407579Y-62199999D01*
X136407580Y-62200000D01*
X137250000Y-62200000D01*
X137250000Y-61480142D01*
X137249999Y-61480141D01*
X137152721Y-61490033D01*
X136963519Y-61549396D01*
X136790140Y-61645628D01*
X136639682Y-61774792D01*
X136518306Y-61931597D01*
X136430977Y-62109630D01*
X136407579Y-62199999D01*
X114452945Y-62199999D01*
X114375743Y-62128366D01*
X114293575Y-62072345D01*
X114152775Y-61976349D01*
X113909641Y-61859262D01*
X113819785Y-61831545D01*
X113651771Y-61779719D01*
X113384929Y-61739500D01*
X113115071Y-61739500D01*
X112848228Y-61779719D01*
X112590359Y-61859262D01*
X112347228Y-61976347D01*
X112124257Y-62128366D01*
X111926439Y-62311915D01*
X111758184Y-62522899D01*
X111623257Y-62756601D01*
X111524666Y-63007804D01*
X111464616Y-63270899D01*
X111444450Y-63540000D01*
X111464616Y-63809100D01*
X111464617Y-63809103D01*
X111524666Y-64072195D01*
X111623257Y-64323398D01*
X111758185Y-64557102D01*
X111926439Y-64768085D01*
X112124259Y-64951635D01*
X112347226Y-65103651D01*
X112347229Y-65103652D01*
X112347230Y-65103653D01*
X112479301Y-65167255D01*
X112530494Y-65213003D01*
X112549500Y-65278975D01*
X112549500Y-76408481D01*
X112540061Y-76455934D01*
X112513181Y-76496162D01*
X104656162Y-84353181D01*
X104615934Y-84380061D01*
X104568481Y-84389500D01*
X103443134Y-84389500D01*
X103385877Y-84375489D01*
X103341561Y-84336625D01*
X103304098Y-84283123D01*
X103149377Y-84128402D01*
X102970139Y-84002898D01*
X102818917Y-83932382D01*
X102766741Y-83886625D01*
X102747322Y-83820000D01*
X102766741Y-83753375D01*
X102818917Y-83707618D01*
X102821824Y-83706262D01*
X102970139Y-83637102D01*
X103149377Y-83511598D01*
X103304098Y-83356877D01*
X103429602Y-83177639D01*
X103522075Y-82979330D01*
X103578707Y-82767977D01*
X103597777Y-82550000D01*
X103578707Y-82332023D01*
X103522075Y-82120670D01*
X103429602Y-81922362D01*
X103304098Y-81743123D01*
X103149377Y-81588402D01*
X103002522Y-81485573D01*
X102962197Y-81438358D01*
X102949818Y-81377510D01*
X102968490Y-81318290D01*
X103013532Y-81275547D01*
X103073648Y-81260000D01*
X103140324Y-81260000D01*
X103199875Y-81253597D01*
X103334589Y-81203352D01*
X103449688Y-81117188D01*
X103535852Y-81002089D01*
X103586097Y-80867375D01*
X103592500Y-80807824D01*
X103592500Y-80260000D01*
X101092500Y-80260000D01*
X101092500Y-80807824D01*
X101098902Y-80867375D01*
X101149147Y-81002089D01*
X101235311Y-81117188D01*
X101350410Y-81203352D01*
X101485124Y-81253597D01*
X101544676Y-81260000D01*
X101611353Y-81260000D01*
X101671469Y-81275547D01*
X101716511Y-81318290D01*
X101735183Y-81377510D01*
X101722803Y-81438358D01*
X101682476Y-81485575D01*
X101535622Y-81588402D01*
X101380902Y-81743122D01*
X101255398Y-81922361D01*
X101162925Y-82120668D01*
X101106292Y-82332025D01*
X101087222Y-82550000D01*
X101106292Y-82767974D01*
X101111706Y-82788181D01*
X101162925Y-82979330D01*
X101255398Y-83177639D01*
X101380902Y-83356877D01*
X101535623Y-83511598D01*
X101714861Y-83637102D01*
X101813737Y-83683208D01*
X101866082Y-83707618D01*
X101918258Y-83753375D01*
X101937677Y-83820000D01*
X101918258Y-83886625D01*
X101866082Y-83932382D01*
X101714861Y-84002898D01*
X101535622Y-84128402D01*
X101380902Y-84283122D01*
X101255398Y-84462361D01*
X101162925Y-84660668D01*
X101106292Y-84872025D01*
X101087222Y-85089999D01*
X101106292Y-85307974D01*
X101149351Y-85468674D01*
X101162925Y-85519330D01*
X101255398Y-85717639D01*
X101380902Y-85896877D01*
X101535623Y-86051598D01*
X101714861Y-86177102D01*
X101813737Y-86223208D01*
X101866082Y-86247618D01*
X101918258Y-86293375D01*
X101937677Y-86360000D01*
X101918258Y-86426625D01*
X101866082Y-86472382D01*
X101714861Y-86542898D01*
X101535622Y-86668402D01*
X101380902Y-86823122D01*
X101255398Y-87002361D01*
X101162925Y-87200668D01*
X101106292Y-87412025D01*
X101087222Y-87630000D01*
X101106292Y-87847974D01*
X101111706Y-87868181D01*
X101162925Y-88059330D01*
X101255398Y-88257639D01*
X101380902Y-88436877D01*
X101535623Y-88591598D01*
X101714861Y-88717102D01*
X101813737Y-88763208D01*
X101866082Y-88787618D01*
X101918258Y-88833375D01*
X101937677Y-88900000D01*
X101918258Y-88966625D01*
X101866082Y-89012382D01*
X101714861Y-89082898D01*
X101535622Y-89208402D01*
X101380902Y-89363122D01*
X101255398Y-89542361D01*
X101162925Y-89740668D01*
X101106292Y-89952025D01*
X101086741Y-90175501D01*
X101061589Y-90240180D01*
X101005624Y-90281216D01*
X100936375Y-90285755D01*
X100875532Y-90252375D01*
X98986819Y-88363662D01*
X98959939Y-88323434D01*
X98950500Y-88275981D01*
X98950500Y-79760000D01*
X101092500Y-79760000D01*
X102092500Y-79760000D01*
X102092500Y-78760000D01*
X102592500Y-78760000D01*
X102592500Y-79760000D01*
X103592500Y-79760000D01*
X103592500Y-79212176D01*
X103586097Y-79152624D01*
X103535852Y-79017910D01*
X103449688Y-78902811D01*
X103334589Y-78816647D01*
X103199875Y-78766402D01*
X103140324Y-78760000D01*
X102592500Y-78760000D01*
X102092500Y-78760000D01*
X101544676Y-78760000D01*
X101485124Y-78766402D01*
X101350410Y-78816647D01*
X101235311Y-78902811D01*
X101149147Y-79017910D01*
X101098902Y-79152624D01*
X101092500Y-79212176D01*
X101092500Y-79760000D01*
X98950500Y-79760000D01*
X98950500Y-71381519D01*
X98959939Y-71334066D01*
X98986819Y-71293838D01*
X99753606Y-70527051D01*
X102514262Y-67766393D01*
X102572093Y-67733722D01*
X102638490Y-67735585D01*
X102738375Y-67766395D01*
X102848228Y-67800280D01*
X103115071Y-67840500D01*
X103384929Y-67840500D01*
X103651772Y-67800280D01*
X103909641Y-67720738D01*
X104152775Y-67603651D01*
X104375741Y-67451635D01*
X104573561Y-67268085D01*
X104741815Y-67057102D01*
X104876743Y-66823398D01*
X104975334Y-66572195D01*
X105035383Y-66309103D01*
X105055549Y-66040000D01*
X105035383Y-65770897D01*
X104975334Y-65507805D01*
X104876743Y-65256602D01*
X104741815Y-65022898D01*
X104573561Y-64811915D01*
X104573560Y-64811914D01*
X104375743Y-64628366D01*
X104318205Y-64589137D01*
X104152775Y-64476349D01*
X103909641Y-64359262D01*
X103793373Y-64323398D01*
X103651771Y-64279719D01*
X103384929Y-64239500D01*
X103115071Y-64239500D01*
X102848228Y-64279719D01*
X102590359Y-64359262D01*
X102347228Y-64476347D01*
X102124257Y-64628366D01*
X101926439Y-64811915D01*
X101758184Y-65022899D01*
X101623257Y-65256601D01*
X101524666Y-65507804D01*
X101464616Y-65770899D01*
X101444450Y-66040000D01*
X101464616Y-66309100D01*
X101464617Y-66309103D01*
X101524666Y-66572195D01*
X101552075Y-66642031D01*
X101560636Y-66688879D01*
X101550909Y-66735499D01*
X101524327Y-66775014D01*
X97772290Y-70527051D01*
X97766838Y-70532183D01*
X97721816Y-70572070D01*
X97687649Y-70621568D01*
X97683213Y-70627597D01*
X97646121Y-70674942D01*
X97641961Y-70684186D01*
X97630941Y-70703725D01*
X97625182Y-70712069D01*
X97603853Y-70768305D01*
X97600989Y-70775219D01*
X97576303Y-70830070D01*
X97574475Y-70840047D01*
X97568454Y-70861648D01*
X97564859Y-70871128D01*
X97557609Y-70930827D01*
X97556483Y-70938226D01*
X97545641Y-70997391D01*
X97549274Y-71057434D01*
X97549500Y-71064921D01*
X97549500Y-88592579D01*
X97549274Y-88600066D01*
X97545641Y-88660107D01*
X93794398Y-88660107D01*
X93796397Y-88653083D01*
X93815215Y-88450000D01*
X93796397Y-88246917D01*
X93740582Y-88050750D01*
X93740209Y-88050001D01*
X93649675Y-87868181D01*
X93526763Y-87705419D01*
X93376041Y-87568018D01*
X93202638Y-87460652D01*
X93012457Y-87386976D01*
X92945629Y-87374484D01*
X92811976Y-87349500D01*
X92608024Y-87349500D01*
X92507783Y-87368238D01*
X92407542Y-87386976D01*
X92217361Y-87460652D01*
X92043958Y-87568018D01*
X91893236Y-87705419D01*
X91770324Y-87868181D01*
X91679418Y-88050748D01*
X91623602Y-88246916D01*
X91604785Y-88450000D01*
X86195215Y-88450000D01*
X86176397Y-88246917D01*
X86120582Y-88050750D01*
X86120209Y-88050001D01*
X86029675Y-87868181D01*
X85906763Y-87705419D01*
X85756041Y-87568018D01*
X85582638Y-87460652D01*
X85392457Y-87386976D01*
X85325629Y-87374484D01*
X85191976Y-87349500D01*
X84988024Y-87349500D01*
X84887783Y-87368238D01*
X84787542Y-87386976D01*
X84597361Y-87460652D01*
X84423958Y-87568018D01*
X84273236Y-87705419D01*
X84150324Y-87868181D01*
X84059418Y-88050748D01*
X84003602Y-88246916D01*
X83984785Y-88450000D01*
X76454500Y-88450000D01*
X76454500Y-85910000D01*
X83984785Y-85910000D01*
X84003602Y-86113083D01*
X84059418Y-86309251D01*
X84150324Y-86491818D01*
X84273236Y-86654580D01*
X84423958Y-86791981D01*
X84597361Y-86899347D01*
X84597363Y-86899348D01*
X84787544Y-86973024D01*
X84988024Y-87010500D01*
X85191974Y-87010500D01*
X85191976Y-87010500D01*
X85392456Y-86973024D01*
X85582637Y-86899348D01*
X85756041Y-86791981D01*
X85906764Y-86654579D01*
X86029673Y-86491821D01*
X86029673Y-86491819D01*
X86029675Y-86491818D01*
X86078485Y-86393793D01*
X86120582Y-86309250D01*
X86176397Y-86113083D01*
X86195215Y-85910000D01*
X91604785Y-85910000D01*
X91623602Y-86113083D01*
X91679418Y-86309251D01*
X91770324Y-86491818D01*
X91893236Y-86654580D01*
X92043958Y-86791981D01*
X92217361Y-86899347D01*
X92217363Y-86899348D01*
X92407544Y-86973024D01*
X92608024Y-87010500D01*
X92811974Y-87010500D01*
X92811976Y-87010500D01*
X93012456Y-86973024D01*
X93202637Y-86899348D01*
X93376041Y-86791981D01*
X93526764Y-86654579D01*
X93649673Y-86491821D01*
X93649673Y-86491819D01*
X93649675Y-86491818D01*
X93698485Y-86393793D01*
X93740582Y-86309250D01*
X93796397Y-86113083D01*
X93815215Y-85910000D01*
X93796397Y-85706917D01*
X93793869Y-85698033D01*
X93771150Y-85618183D01*
X93740582Y-85510750D01*
X93719631Y-85468674D01*
X93649675Y-85328181D01*
X93526763Y-85165419D01*
X93376041Y-85028018D01*
X93202638Y-84920652D01*
X93012457Y-84846976D01*
X92945629Y-84834484D01*
X92811976Y-84809500D01*
X92608024Y-84809500D01*
X92507784Y-84828237D01*
X92407542Y-84846976D01*
X92217361Y-84920652D01*
X92043958Y-85028018D01*
X91893236Y-85165419D01*
X91770324Y-85328181D01*
X91679418Y-85510748D01*
X91623602Y-85706916D01*
X91604785Y-85910000D01*
X86195215Y-85910000D01*
X86176397Y-85706917D01*
X86173869Y-85698033D01*
X86151150Y-85618183D01*
X86120582Y-85510750D01*
X86099631Y-85468674D01*
X86029675Y-85328181D01*
X85906763Y-85165419D01*
X85756041Y-85028018D01*
X85582638Y-84920652D01*
X85392457Y-84846976D01*
X85325629Y-84834484D01*
X85191976Y-84809500D01*
X84988024Y-84809500D01*
X84887784Y-84828237D01*
X84787542Y-84846976D01*
X84597361Y-84920652D01*
X84423958Y-85028018D01*
X84273236Y-85165419D01*
X84150324Y-85328181D01*
X84059418Y-85510748D01*
X84003602Y-85706916D01*
X83984785Y-85910000D01*
X76454500Y-85910000D01*
X76454500Y-83370000D01*
X83984785Y-83370000D01*
X84003602Y-83573083D01*
X84059418Y-83769251D01*
X84150324Y-83951818D01*
X84273236Y-84114580D01*
X84423958Y-84251981D01*
X84560662Y-84336624D01*
X84597363Y-84359348D01*
X84787544Y-84433024D01*
X84988024Y-84470500D01*
X85191974Y-84470500D01*
X85191976Y-84470500D01*
X85392456Y-84433024D01*
X85582637Y-84359348D01*
X85756041Y-84251981D01*
X85906764Y-84114579D01*
X86029673Y-83951821D01*
X86029673Y-83951819D01*
X86029675Y-83951818D01*
X86078485Y-83853793D01*
X86120582Y-83769250D01*
X86176397Y-83573083D01*
X86195215Y-83370000D01*
X91604785Y-83370000D01*
X91623602Y-83573083D01*
X91679418Y-83769251D01*
X91770324Y-83951818D01*
X91893236Y-84114580D01*
X92043958Y-84251981D01*
X92180662Y-84336624D01*
X92217363Y-84359348D01*
X92407544Y-84433024D01*
X92608024Y-84470500D01*
X92811974Y-84470500D01*
X92811976Y-84470500D01*
X93012456Y-84433024D01*
X93202637Y-84359348D01*
X93376041Y-84251981D01*
X93526764Y-84114579D01*
X93649673Y-83951821D01*
X93649673Y-83951819D01*
X93649675Y-83951818D01*
X93698485Y-83853793D01*
X93740582Y-83769250D01*
X93796397Y-83573083D01*
X93815215Y-83370000D01*
X93796397Y-83166917D01*
X93740582Y-82970750D01*
X93740209Y-82970001D01*
X93649675Y-82788181D01*
X93526763Y-82625419D01*
X93376041Y-82488018D01*
X93202638Y-82380652D01*
X93012457Y-82306976D01*
X92945629Y-82294483D01*
X92811976Y-82269500D01*
X92608024Y-82269500D01*
X92507784Y-82288237D01*
X92407542Y-82306976D01*
X92217361Y-82380652D01*
X92043958Y-82488018D01*
X91893236Y-82625419D01*
X91770324Y-82788181D01*
X91679418Y-82970748D01*
X91623602Y-83166916D01*
X91604785Y-83370000D01*
X86195215Y-83370000D01*
X86176397Y-83166917D01*
X86120582Y-82970750D01*
X86120209Y-82970001D01*
X86029675Y-82788181D01*
X85906763Y-82625419D01*
X85756041Y-82488018D01*
X85582638Y-82380652D01*
X85392457Y-82306976D01*
X85325629Y-82294483D01*
X85191976Y-82269500D01*
X84988024Y-82269500D01*
X84887784Y-82288237D01*
X84787542Y-82306976D01*
X84597361Y-82380652D01*
X84423958Y-82488018D01*
X84273236Y-82625419D01*
X84150324Y-82788181D01*
X84059418Y-82970748D01*
X84003602Y-83166916D01*
X83984785Y-83370000D01*
X76454500Y-83370000D01*
X76454500Y-80829999D01*
X83984785Y-80829999D01*
X84003602Y-81033083D01*
X84059418Y-81229251D01*
X84150324Y-81411818D01*
X84273236Y-81574580D01*
X84423958Y-81711981D01*
X84597361Y-81819347D01*
X84597363Y-81819348D01*
X84787544Y-81893024D01*
X84988024Y-81930500D01*
X85191974Y-81930500D01*
X85191976Y-81930500D01*
X85392456Y-81893024D01*
X85582637Y-81819348D01*
X85756041Y-81711981D01*
X85906764Y-81574579D01*
X86029673Y-81411821D01*
X86029673Y-81411819D01*
X86029675Y-81411818D01*
X86078485Y-81313793D01*
X86120582Y-81229250D01*
X86176397Y-81033083D01*
X86195215Y-80830000D01*
X86195215Y-80829999D01*
X91604785Y-80829999D01*
X91623602Y-81033083D01*
X91679418Y-81229251D01*
X91770324Y-81411818D01*
X91893236Y-81574580D01*
X92043958Y-81711981D01*
X92217361Y-81819347D01*
X92217363Y-81819348D01*
X92407544Y-81893024D01*
X92608024Y-81930500D01*
X92811974Y-81930500D01*
X92811976Y-81930500D01*
X93012456Y-81893024D01*
X93202637Y-81819348D01*
X93376041Y-81711981D01*
X93526764Y-81574579D01*
X93649673Y-81411821D01*
X93649673Y-81411819D01*
X93649675Y-81411818D01*
X93698485Y-81313793D01*
X93740582Y-81229250D01*
X93796397Y-81033083D01*
X93815215Y-80830000D01*
X93796397Y-80626917D01*
X93740582Y-80430750D01*
X93740209Y-80430001D01*
X93649675Y-80248181D01*
X93526763Y-80085419D01*
X93376041Y-79948018D01*
X93202638Y-79840652D01*
X93012457Y-79766976D01*
X92941264Y-79753668D01*
X92811976Y-79729500D01*
X92608024Y-79729500D01*
X92507784Y-79748237D01*
X92407542Y-79766976D01*
X92217361Y-79840652D01*
X92043958Y-79948018D01*
X91893236Y-80085419D01*
X91770324Y-80248181D01*
X91679418Y-80430748D01*
X91623602Y-80626916D01*
X91604785Y-80829999D01*
X86195215Y-80829999D01*
X86176397Y-80626917D01*
X86120582Y-80430750D01*
X86120209Y-80430001D01*
X86029675Y-80248181D01*
X85906763Y-80085419D01*
X85756041Y-79948018D01*
X85582638Y-79840652D01*
X85392457Y-79766976D01*
X85321264Y-79753668D01*
X85191976Y-79729500D01*
X84988024Y-79729500D01*
X84887784Y-79748237D01*
X84787542Y-79766976D01*
X84597361Y-79840652D01*
X84423958Y-79948018D01*
X84273236Y-80085419D01*
X84150324Y-80248181D01*
X84059418Y-80430748D01*
X84003602Y-80626916D01*
X83984785Y-80829999D01*
X76454500Y-80829999D01*
X76454500Y-78937869D01*
X83989500Y-78937869D01*
X83995909Y-78997484D01*
X84014902Y-79048405D01*
X84046204Y-79132331D01*
X84132454Y-79247546D01*
X84247669Y-79333796D01*
X84382517Y-79384091D01*
X84442127Y-79390500D01*
X85737872Y-79390499D01*
X85797483Y-79384091D01*
X85932331Y-79333796D01*
X86047546Y-79247546D01*
X86064993Y-79224240D01*
X92129310Y-79224240D01*
X92217588Y-79278899D01*
X92407679Y-79352540D01*
X92608072Y-79390000D01*
X92811928Y-79390000D01*
X93012320Y-79352540D01*
X93202411Y-79278899D01*
X93290688Y-79224240D01*
X92710001Y-78643553D01*
X92710000Y-78643553D01*
X92129310Y-79224240D01*
X86064993Y-79224240D01*
X86133796Y-79132331D01*
X86184091Y-78997483D01*
X86190500Y-78937873D01*
X86190499Y-78290000D01*
X91605287Y-78290000D01*
X91624096Y-78492992D01*
X91679885Y-78689068D01*
X91770751Y-78871552D01*
X91772532Y-78873912D01*
X91772533Y-78873913D01*
X92356447Y-78290001D01*
X93063553Y-78290001D01*
X93647465Y-78873912D01*
X93649247Y-78871553D01*
X93740115Y-78689066D01*
X93795903Y-78492992D01*
X93814712Y-78290000D01*
X93795903Y-78087007D01*
X93740114Y-77890931D01*
X93649248Y-77708448D01*
X93647465Y-77706086D01*
X93647465Y-77706085D01*
X93063553Y-78290000D01*
X93063553Y-78290001D01*
X92356447Y-78290001D01*
X92356447Y-78290000D01*
X91772533Y-77706085D01*
X91770753Y-77708444D01*
X91679884Y-77890933D01*
X91624096Y-78087007D01*
X91605287Y-78290000D01*
X86190499Y-78290000D01*
X86190499Y-77642128D01*
X86184091Y-77582517D01*
X86133796Y-77447669D01*
X86064991Y-77355758D01*
X92129310Y-77355758D01*
X92710000Y-77936447D01*
X92710001Y-77936447D01*
X93290688Y-77355758D01*
X93290687Y-77355757D01*
X93202414Y-77301101D01*
X93012320Y-77227459D01*
X92811928Y-77190000D01*
X92608072Y-77190000D01*
X92407679Y-77227459D01*
X92217589Y-77301100D01*
X92129310Y-77355758D01*
X86064991Y-77355758D01*
X86047546Y-77332454D01*
X85932331Y-77246204D01*
X85797483Y-77195909D01*
X85737873Y-77189500D01*
X85737869Y-77189500D01*
X84442130Y-77189500D01*
X84382515Y-77195909D01*
X84247669Y-77246204D01*
X84132454Y-77332454D01*
X84046204Y-77447668D01*
X83995909Y-77582516D01*
X83989500Y-77642130D01*
X83989500Y-78937869D01*
X76454500Y-78937869D01*
X76454500Y-63502425D01*
X76454548Y-63499999D01*
X80190448Y-63499999D01*
X80210634Y-63807989D01*
X80270847Y-64110697D01*
X80370056Y-64402959D01*
X80506567Y-64679775D01*
X80594860Y-64811915D01*
X80678042Y-64936404D01*
X80881545Y-65168455D01*
X81113595Y-65371957D01*
X81113596Y-65371958D01*
X81370224Y-65543432D01*
X81647040Y-65679943D01*
X81939302Y-65779152D01*
X82242010Y-65839365D01*
X82242012Y-65839365D01*
X82242017Y-65839366D01*
X82550000Y-65859552D01*
X82857983Y-65839366D01*
X82857987Y-65839365D01*
X82857989Y-65839365D01*
X83160697Y-65779152D01*
X83452959Y-65679943D01*
X83460446Y-65676250D01*
X83729776Y-65543432D01*
X83986404Y-65371958D01*
X84218455Y-65168455D01*
X84421958Y-64936404D01*
X84593432Y-64679776D01*
X84729942Y-64402961D01*
X84785430Y-64239500D01*
X84829152Y-64110697D01*
X84889365Y-63807989D01*
X84889365Y-63807987D01*
X84889366Y-63807983D01*
X84909552Y-63500000D01*
X84889366Y-63192017D01*
X84856466Y-63026621D01*
X84829152Y-62889302D01*
X84729943Y-62597040D01*
X84671585Y-62478702D01*
X102164848Y-62478702D01*
X102347479Y-62603217D01*
X102590542Y-62720270D01*
X102848339Y-62799791D01*
X103115109Y-62840000D01*
X103384891Y-62840000D01*
X103651660Y-62799791D01*
X103909460Y-62720270D01*
X104152523Y-62603217D01*
X104335150Y-62478702D01*
X103250000Y-61393553D01*
X102164848Y-62478702D01*
X84671585Y-62478702D01*
X84593432Y-62320224D01*
X84421958Y-62063596D01*
X84382326Y-62018404D01*
X84218455Y-61831545D01*
X83986404Y-61628042D01*
X83968961Y-61616387D01*
X83729775Y-61456567D01*
X83452959Y-61320056D01*
X83160697Y-61220847D01*
X82857989Y-61160634D01*
X82550000Y-61140448D01*
X82242010Y-61160634D01*
X81939302Y-61220847D01*
X81647040Y-61320056D01*
X81370224Y-61456567D01*
X81113596Y-61628041D01*
X80881545Y-61831545D01*
X80678041Y-62063596D01*
X80506567Y-62320224D01*
X80370056Y-62597040D01*
X80270847Y-62889302D01*
X80210634Y-63192010D01*
X80190448Y-63499999D01*
X76454548Y-63499999D01*
X76454596Y-63497557D01*
X76459015Y-63385081D01*
X76473099Y-63026602D01*
X76473860Y-63016932D01*
X76528974Y-62551282D01*
X76530496Y-62541676D01*
X76534231Y-62522899D01*
X76621970Y-62081803D01*
X76624241Y-62072345D01*
X76751514Y-61621069D01*
X76754519Y-61611821D01*
X76777549Y-61549396D01*
X76916809Y-61171914D01*
X76920524Y-61162943D01*
X76977202Y-61040000D01*
X101444952Y-61040000D01*
X101465113Y-61309026D01*
X101525146Y-61572049D01*
X101623708Y-61823178D01*
X101758598Y-62056816D01*
X101812295Y-62124150D01*
X102896447Y-61040001D01*
X102896447Y-61040000D01*
X103603553Y-61040000D01*
X104687703Y-62124151D01*
X104687704Y-62124150D01*
X104741400Y-62056818D01*
X104876291Y-61823178D01*
X104974853Y-61572049D01*
X104996964Y-61475175D01*
X137750000Y-61475175D01*
X137750000Y-62200000D01*
X138597130Y-62200000D01*
X138597130Y-62199999D01*
X141407579Y-62199999D01*
X141407580Y-62200000D01*
X142250000Y-62200000D01*
X142250000Y-61480142D01*
X142249999Y-61480141D01*
X142152721Y-61490033D01*
X141963519Y-61549396D01*
X141790140Y-61645628D01*
X141639682Y-61774792D01*
X141518306Y-61931597D01*
X141430977Y-62109630D01*
X141407579Y-62199999D01*
X138597130Y-62199999D01*
X138529876Y-62018404D01*
X138424980Y-61850116D01*
X138288364Y-61706397D01*
X138125610Y-61593116D01*
X137943385Y-61514918D01*
X137750000Y-61475175D01*
X142750000Y-61475175D01*
X142750000Y-62200000D01*
X143597130Y-62200000D01*
X143597130Y-62199999D01*
X143529876Y-62018404D01*
X143424980Y-61850116D01*
X143288364Y-61706397D01*
X143125610Y-61593116D01*
X142943385Y-61514918D01*
X142750000Y-61475175D01*
X137750000Y-61475175D01*
X104996964Y-61475175D01*
X105034886Y-61309026D01*
X105055047Y-61040000D01*
X105034886Y-60770973D01*
X104974853Y-60507950D01*
X104876291Y-60256821D01*
X104741398Y-60023178D01*
X104722914Y-60000000D01*
X135555000Y-60000000D01*
X135555000Y-60127918D01*
X135569571Y-60271210D01*
X135627107Y-60454587D01*
X135720378Y-60622632D01*
X135845568Y-60768461D01*
X135997548Y-60886102D01*
X136170106Y-60970746D01*
X136250000Y-60991432D01*
X136250000Y-60000000D01*
X136750000Y-60000000D01*
X136750000Y-60995138D01*
X136918318Y-60932800D01*
X137081423Y-60831137D01*
X137220722Y-60698722D01*
X137330517Y-60540975D01*
X137406309Y-60364358D01*
X137445000Y-60176095D01*
X137445000Y-60000000D01*
X142555000Y-60000000D01*
X142555000Y-60127918D01*
X142569571Y-60271210D01*
X142627107Y-60454587D01*
X142720378Y-60622632D01*
X142845568Y-60768461D01*
X142997548Y-60886102D01*
X143170106Y-60970746D01*
X143250000Y-60991432D01*
X143250000Y-60000000D01*
X143750000Y-60000000D01*
X143750000Y-60995138D01*
X143918318Y-60932800D01*
X144081423Y-60831137D01*
X144220722Y-60698722D01*
X144330517Y-60540975D01*
X144406309Y-60364358D01*
X144445000Y-60176095D01*
X144445000Y-60000000D01*
X143750000Y-60000000D01*
X143250000Y-60000000D01*
X142555000Y-60000000D01*
X137445000Y-60000000D01*
X136750000Y-60000000D01*
X136250000Y-60000000D01*
X135555000Y-60000000D01*
X104722914Y-60000000D01*
X104687704Y-59955847D01*
X103603553Y-61040000D01*
X102896447Y-61040000D01*
X101812295Y-59955848D01*
X101758598Y-60023182D01*
X101623708Y-60256821D01*
X101525146Y-60507950D01*
X101465113Y-60770973D01*
X101444952Y-61040000D01*
X76977202Y-61040000D01*
X77116839Y-60737104D01*
X77121250Y-60728451D01*
X77350355Y-60319356D01*
X77355442Y-60311054D01*
X77391679Y-60256821D01*
X77615940Y-59921189D01*
X77621641Y-59913343D01*
X77867638Y-59601296D01*
X102164848Y-59601296D01*
X103250000Y-60686447D01*
X103250001Y-60686447D01*
X104335150Y-59601296D01*
X104186576Y-59500000D01*
X135555000Y-59500000D01*
X136250000Y-59500000D01*
X136250000Y-58508567D01*
X136749999Y-58508567D01*
X136750000Y-58508568D01*
X136750000Y-59500000D01*
X137445000Y-59500000D01*
X142555000Y-59500000D01*
X143250000Y-59500000D01*
X143250000Y-58508567D01*
X143749999Y-58508567D01*
X143750000Y-58508568D01*
X143750000Y-59500000D01*
X144445000Y-59500000D01*
X144445000Y-59372082D01*
X144430428Y-59228789D01*
X144372892Y-59045412D01*
X144279621Y-58877367D01*
X144154431Y-58731538D01*
X144002451Y-58613897D01*
X143829893Y-58529253D01*
X143749999Y-58508567D01*
X143250000Y-58508567D01*
X143250000Y-58504862D01*
X143249999Y-58504861D01*
X143081681Y-58567199D01*
X142918576Y-58668862D01*
X142779277Y-58801277D01*
X142669482Y-58959024D01*
X142593690Y-59135641D01*
X142555000Y-59323905D01*
X142555000Y-59500000D01*
X137445000Y-59500000D01*
X137445000Y-59372082D01*
X137430428Y-59228789D01*
X137372892Y-59045412D01*
X137279621Y-58877367D01*
X137154431Y-58731538D01*
X137002451Y-58613897D01*
X136829893Y-58529253D01*
X136749999Y-58508567D01*
X136250000Y-58508567D01*
X136250000Y-58504862D01*
X136249999Y-58504861D01*
X136081681Y-58567199D01*
X135918576Y-58668862D01*
X135779277Y-58801277D01*
X135669482Y-58959024D01*
X135593690Y-59135641D01*
X135555000Y-59323905D01*
X135555000Y-59500000D01*
X104186576Y-59500000D01*
X104152519Y-59476780D01*
X103909460Y-59359729D01*
X103651660Y-59280208D01*
X103384891Y-59240000D01*
X103115109Y-59240000D01*
X102848339Y-59280208D01*
X102590542Y-59359729D01*
X102347476Y-59476783D01*
X102164848Y-59601296D01*
X77867638Y-59601296D01*
X77911933Y-59545108D01*
X77918238Y-59537726D01*
X78236529Y-59193402D01*
X78243408Y-59186524D01*
X78298453Y-59135641D01*
X78587726Y-58868238D01*
X78595108Y-58861933D01*
X78963343Y-58571641D01*
X78971189Y-58565940D01*
X79361056Y-58305440D01*
X79369356Y-58300355D01*
X79778451Y-58071250D01*
X79787104Y-58066839D01*
X80212943Y-57870524D01*
X80221914Y-57866809D01*
X80661831Y-57704515D01*
X80671069Y-57701514D01*
X81122355Y-57574238D01*
X81131803Y-57571970D01*
X81591685Y-57480494D01*
X81601282Y-57478974D01*
X82066932Y-57423860D01*
X82076602Y-57423099D01*
X82547556Y-57404596D01*
X82552425Y-57404500D01*
X82594875Y-57404500D01*
X196805125Y-57404500D01*
X196847575Y-57404500D01*
X196852443Y-57404596D01*
G37*
G04 #@! TD.AperFunction*
M02*
