G04 #@! TF.GenerationSoftware,KiCad,Pcbnew,(7.0.0)*
G04 #@! TF.CreationDate,2023-04-17T23:01:26-07:00*
G04 #@! TF.ProjectId,msp-debugger,6d73702d-6465-4627-9567-6765722e6b69,rev?*
G04 #@! TF.SameCoordinates,Original*
G04 #@! TF.FileFunction,Legend,Top*
G04 #@! TF.FilePolarity,Positive*
%FSLAX46Y46*%
G04 Gerber Fmt 4.6, Leading zero omitted, Abs format (unit mm)*
G04 Created by KiCad (PCBNEW (7.0.0)) date 2023-04-17 23:01:26*
%MOMM*%
%LPD*%
G01*
G04 APERTURE LIST*
G04 Aperture macros list*
%AMRoundRect*
0 Rectangle with rounded corners*
0 $1 Rounding radius*
0 $2 $3 $4 $5 $6 $7 $8 $9 X,Y pos of 4 corners*
0 Add a 4 corners polygon primitive as box body*
4,1,4,$2,$3,$4,$5,$6,$7,$8,$9,$2,$3,0*
0 Add four circle primitives for the rounded corners*
1,1,$1+$1,$2,$3*
1,1,$1+$1,$4,$5*
1,1,$1+$1,$6,$7*
1,1,$1+$1,$8,$9*
0 Add four rect primitives between the rounded corners*
20,1,$1+$1,$2,$3,$4,$5,0*
20,1,$1+$1,$4,$5,$6,$7,0*
20,1,$1+$1,$6,$7,$8,$9,0*
20,1,$1+$1,$8,$9,$2,$3,0*%
G04 Aperture macros list end*
%ADD10C,0.150000*%
%ADD11C,0.100000*%
%ADD12C,0.120000*%
%ADD13C,0.127000*%
%ADD14C,0.200000*%
%ADD15RoundRect,0.250000X0.450000X-0.262500X0.450000X0.262500X-0.450000X0.262500X-0.450000X-0.262500X0*%
%ADD16R,1.508000X1.508000*%
%ADD17C,1.508000*%
%ADD18R,1.500000X1.500000*%
%ADD19R,0.400000X1.350000*%
%ADD20O,0.890000X1.550000*%
%ADD21R,1.200000X1.550000*%
%ADD22O,1.250000X0.950000*%
%ADD23R,1.500000X1.550000*%
%ADD24RoundRect,0.250000X0.250000X0.475000X-0.250000X0.475000X-0.250000X-0.475000X0.250000X-0.475000X0*%
%ADD25R,1.500000X0.900000*%
%ADD26R,0.900000X1.500000*%
%ADD27R,0.900000X0.900000*%
%ADD28RoundRect,0.250000X0.475000X-0.250000X0.475000X0.250000X-0.475000X0.250000X-0.475000X-0.250000X0*%
%ADD29RoundRect,0.250000X-0.250000X-0.475000X0.250000X-0.475000X0.250000X0.475000X-0.250000X0.475000X0*%
%ADD30C,2.600000*%
%ADD31RoundRect,0.250000X-0.650000X1.000000X-0.650000X-1.000000X0.650000X-1.000000X0.650000X1.000000X0*%
%ADD32R,3.000000X1.600000*%
%ADD33R,6.200000X5.800000*%
%ADD34C,2.000000*%
%ADD35C,1.500000*%
%ADD36R,1.200000X1.200000*%
%ADD37C,1.200000*%
%ADD38RoundRect,0.250000X-0.312500X-1.450000X0.312500X-1.450000X0.312500X1.450000X-0.312500X1.450000X0*%
G04 APERTURE END LIST*
D10*
X109347000Y-128651000D02*
X117348000Y-136271000D01*
X102997000Y-127889000D02*
X104140000Y-136017000D01*
X120396000Y-127508000D02*
X105410000Y-126619000D01*
X109347000Y-128651000D02*
X117348000Y-136271000D01*
X105410000Y-126619000D02*
X105664000Y-123698000D01*
X104140000Y-136017000D02*
X109347000Y-128651000D01*
X105664000Y-123698000D02*
X101219000Y-127000000D01*
X101854000Y-129413000D02*
X102997000Y-127889000D01*
X117348000Y-136271000D02*
X120396000Y-127508000D01*
X101219000Y-127000000D02*
X101854000Y-129413000D01*
X154773333Y-132701380D02*
X154440000Y-132225190D01*
X154201905Y-132701380D02*
X154201905Y-131701380D01*
X154201905Y-131701380D02*
X154582857Y-131701380D01*
X154582857Y-131701380D02*
X154678095Y-131749000D01*
X154678095Y-131749000D02*
X154725714Y-131796619D01*
X154725714Y-131796619D02*
X154773333Y-131891857D01*
X154773333Y-131891857D02*
X154773333Y-132034714D01*
X154773333Y-132034714D02*
X154725714Y-132129952D01*
X154725714Y-132129952D02*
X154678095Y-132177571D01*
X154678095Y-132177571D02*
X154582857Y-132225190D01*
X154582857Y-132225190D02*
X154201905Y-132225190D01*
X155725714Y-132701380D02*
X155154286Y-132701380D01*
X155440000Y-132701380D02*
X155440000Y-131701380D01*
X155440000Y-131701380D02*
X155344762Y-131844238D01*
X155344762Y-131844238D02*
X155249524Y-131939476D01*
X155249524Y-131939476D02*
X155154286Y-131987095D01*
X189238095Y-77922380D02*
X189238095Y-78731904D01*
X189238095Y-78731904D02*
X189285714Y-78827142D01*
X189285714Y-78827142D02*
X189333333Y-78874761D01*
X189333333Y-78874761D02*
X189428571Y-78922380D01*
X189428571Y-78922380D02*
X189619047Y-78922380D01*
X189619047Y-78922380D02*
X189714285Y-78874761D01*
X189714285Y-78874761D02*
X189761904Y-78827142D01*
X189761904Y-78827142D02*
X189809523Y-78731904D01*
X189809523Y-78731904D02*
X189809523Y-77922380D01*
X190285714Y-78922380D02*
X190285714Y-77922380D01*
X190285714Y-77922380D02*
X190666666Y-77922380D01*
X190666666Y-77922380D02*
X190761904Y-77970000D01*
X190761904Y-77970000D02*
X190809523Y-78017619D01*
X190809523Y-78017619D02*
X190857142Y-78112857D01*
X190857142Y-78112857D02*
X190857142Y-78255714D01*
X190857142Y-78255714D02*
X190809523Y-78350952D01*
X190809523Y-78350952D02*
X190761904Y-78398571D01*
X190761904Y-78398571D02*
X190666666Y-78446190D01*
X190666666Y-78446190D02*
X190285714Y-78446190D01*
X191809523Y-78922380D02*
X191238095Y-78922380D01*
X191523809Y-78922380D02*
X191523809Y-77922380D01*
X191523809Y-77922380D02*
X191428571Y-78065238D01*
X191428571Y-78065238D02*
X191333333Y-78160476D01*
X191333333Y-78160476D02*
X191238095Y-78208095D01*
X167394095Y-123068380D02*
X167965523Y-123068380D01*
X167679809Y-124068380D02*
X167679809Y-123068380D01*
X168298857Y-124068380D02*
X168298857Y-123068380D01*
X168298857Y-123068380D02*
X168679809Y-123068380D01*
X168679809Y-123068380D02*
X168775047Y-123116000D01*
X168775047Y-123116000D02*
X168822666Y-123163619D01*
X168822666Y-123163619D02*
X168870285Y-123258857D01*
X168870285Y-123258857D02*
X168870285Y-123401714D01*
X168870285Y-123401714D02*
X168822666Y-123496952D01*
X168822666Y-123496952D02*
X168775047Y-123544571D01*
X168775047Y-123544571D02*
X168679809Y-123592190D01*
X168679809Y-123592190D02*
X168298857Y-123592190D01*
X169822666Y-124068380D02*
X169251238Y-124068380D01*
X169536952Y-124068380D02*
X169536952Y-123068380D01*
X169536952Y-123068380D02*
X169441714Y-123211238D01*
X169441714Y-123211238D02*
X169346476Y-123306476D01*
X169346476Y-123306476D02*
X169251238Y-123354095D01*
X114800380Y-114172380D02*
X114467047Y-113696190D01*
X114228952Y-114172380D02*
X114228952Y-113172380D01*
X114228952Y-113172380D02*
X114609904Y-113172380D01*
X114609904Y-113172380D02*
X114705142Y-113220000D01*
X114705142Y-113220000D02*
X114752761Y-113267619D01*
X114752761Y-113267619D02*
X114800380Y-113362857D01*
X114800380Y-113362857D02*
X114800380Y-113505714D01*
X114800380Y-113505714D02*
X114752761Y-113600952D01*
X114752761Y-113600952D02*
X114705142Y-113648571D01*
X114705142Y-113648571D02*
X114609904Y-113696190D01*
X114609904Y-113696190D02*
X114228952Y-113696190D01*
X115228952Y-113648571D02*
X115562285Y-113648571D01*
X115705142Y-114172380D02*
X115228952Y-114172380D01*
X115228952Y-114172380D02*
X115228952Y-113172380D01*
X115228952Y-113172380D02*
X115705142Y-113172380D01*
X115990857Y-113172380D02*
X116562285Y-113172380D01*
X116276571Y-114172380D02*
X116276571Y-113172380D01*
X116895619Y-113172380D02*
X116895619Y-113981904D01*
X116895619Y-113981904D02*
X116943238Y-114077142D01*
X116943238Y-114077142D02*
X116990857Y-114124761D01*
X116990857Y-114124761D02*
X117086095Y-114172380D01*
X117086095Y-114172380D02*
X117276571Y-114172380D01*
X117276571Y-114172380D02*
X117371809Y-114124761D01*
X117371809Y-114124761D02*
X117419428Y-114077142D01*
X117419428Y-114077142D02*
X117467047Y-113981904D01*
X117467047Y-113981904D02*
X117467047Y-113172380D01*
X118514666Y-114172380D02*
X118181333Y-113696190D01*
X117943238Y-114172380D02*
X117943238Y-113172380D01*
X117943238Y-113172380D02*
X118324190Y-113172380D01*
X118324190Y-113172380D02*
X118419428Y-113220000D01*
X118419428Y-113220000D02*
X118467047Y-113267619D01*
X118467047Y-113267619D02*
X118514666Y-113362857D01*
X118514666Y-113362857D02*
X118514666Y-113505714D01*
X118514666Y-113505714D02*
X118467047Y-113600952D01*
X118467047Y-113600952D02*
X118419428Y-113648571D01*
X118419428Y-113648571D02*
X118324190Y-113696190D01*
X118324190Y-113696190D02*
X117943238Y-113696190D01*
X118943238Y-114172380D02*
X118943238Y-113172380D01*
X118943238Y-113172380D02*
X119514666Y-114172380D01*
X119514666Y-114172380D02*
X119514666Y-113172380D01*
X120514666Y-114172380D02*
X119943238Y-114172380D01*
X120228952Y-114172380D02*
X120228952Y-113172380D01*
X120228952Y-113172380D02*
X120133714Y-113315238D01*
X120133714Y-113315238D02*
X120038476Y-113410476D01*
X120038476Y-113410476D02*
X119943238Y-113458095D01*
X103814762Y-114111761D02*
X103957619Y-114159380D01*
X103957619Y-114159380D02*
X104195714Y-114159380D01*
X104195714Y-114159380D02*
X104290952Y-114111761D01*
X104290952Y-114111761D02*
X104338571Y-114064142D01*
X104338571Y-114064142D02*
X104386190Y-113968904D01*
X104386190Y-113968904D02*
X104386190Y-113873666D01*
X104386190Y-113873666D02*
X104338571Y-113778428D01*
X104338571Y-113778428D02*
X104290952Y-113730809D01*
X104290952Y-113730809D02*
X104195714Y-113683190D01*
X104195714Y-113683190D02*
X104005238Y-113635571D01*
X104005238Y-113635571D02*
X103910000Y-113587952D01*
X103910000Y-113587952D02*
X103862381Y-113540333D01*
X103862381Y-113540333D02*
X103814762Y-113445095D01*
X103814762Y-113445095D02*
X103814762Y-113349857D01*
X103814762Y-113349857D02*
X103862381Y-113254619D01*
X103862381Y-113254619D02*
X103910000Y-113207000D01*
X103910000Y-113207000D02*
X104005238Y-113159380D01*
X104005238Y-113159380D02*
X104243333Y-113159380D01*
X104243333Y-113159380D02*
X104386190Y-113207000D01*
X104814762Y-113635571D02*
X105148095Y-113635571D01*
X105290952Y-114159380D02*
X104814762Y-114159380D01*
X104814762Y-114159380D02*
X104814762Y-113159380D01*
X104814762Y-113159380D02*
X105290952Y-113159380D01*
X105576667Y-113159380D02*
X106148095Y-113159380D01*
X105862381Y-114159380D02*
X105862381Y-113159380D01*
X107005238Y-114159380D02*
X106433810Y-114159380D01*
X106719524Y-114159380D02*
X106719524Y-113159380D01*
X106719524Y-113159380D02*
X106624286Y-113302238D01*
X106624286Y-113302238D02*
X106529048Y-113397476D01*
X106529048Y-113397476D02*
X106433810Y-113445095D01*
X139666666Y-63917380D02*
X139666666Y-64631666D01*
X139666666Y-64631666D02*
X139619047Y-64774523D01*
X139619047Y-64774523D02*
X139523809Y-64869761D01*
X139523809Y-64869761D02*
X139380952Y-64917380D01*
X139380952Y-64917380D02*
X139285714Y-64917380D01*
X140666666Y-64917380D02*
X140095238Y-64917380D01*
X140380952Y-64917380D02*
X140380952Y-63917380D01*
X140380952Y-63917380D02*
X140285714Y-64060238D01*
X140285714Y-64060238D02*
X140190476Y-64155476D01*
X140190476Y-64155476D02*
X140095238Y-64203095D01*
X149583333Y-58692142D02*
X149535714Y-58739761D01*
X149535714Y-58739761D02*
X149392857Y-58787380D01*
X149392857Y-58787380D02*
X149297619Y-58787380D01*
X149297619Y-58787380D02*
X149154762Y-58739761D01*
X149154762Y-58739761D02*
X149059524Y-58644523D01*
X149059524Y-58644523D02*
X149011905Y-58549285D01*
X149011905Y-58549285D02*
X148964286Y-58358809D01*
X148964286Y-58358809D02*
X148964286Y-58215952D01*
X148964286Y-58215952D02*
X149011905Y-58025476D01*
X149011905Y-58025476D02*
X149059524Y-57930238D01*
X149059524Y-57930238D02*
X149154762Y-57835000D01*
X149154762Y-57835000D02*
X149297619Y-57787380D01*
X149297619Y-57787380D02*
X149392857Y-57787380D01*
X149392857Y-57787380D02*
X149535714Y-57835000D01*
X149535714Y-57835000D02*
X149583333Y-57882619D01*
X150440476Y-58120714D02*
X150440476Y-58787380D01*
X150202381Y-57739761D02*
X149964286Y-58454047D01*
X149964286Y-58454047D02*
X150583333Y-58454047D01*
X139008095Y-138305380D02*
X139008095Y-139114904D01*
X139008095Y-139114904D02*
X139055714Y-139210142D01*
X139055714Y-139210142D02*
X139103333Y-139257761D01*
X139103333Y-139257761D02*
X139198571Y-139305380D01*
X139198571Y-139305380D02*
X139389047Y-139305380D01*
X139389047Y-139305380D02*
X139484285Y-139257761D01*
X139484285Y-139257761D02*
X139531904Y-139210142D01*
X139531904Y-139210142D02*
X139579523Y-139114904D01*
X139579523Y-139114904D02*
X139579523Y-138305380D01*
X140579523Y-139305380D02*
X140008095Y-139305380D01*
X140293809Y-139305380D02*
X140293809Y-138305380D01*
X140293809Y-138305380D02*
X140198571Y-138448238D01*
X140198571Y-138448238D02*
X140103333Y-138543476D01*
X140103333Y-138543476D02*
X140008095Y-138591095D01*
X135089047Y-134931666D02*
X135565237Y-134931666D01*
X134993809Y-135217380D02*
X135327142Y-134217380D01*
X135327142Y-134217380D02*
X135660475Y-135217380D01*
X135993809Y-134550714D02*
X135993809Y-135217380D01*
X135993809Y-134645952D02*
X136041428Y-134598333D01*
X136041428Y-134598333D02*
X136136666Y-134550714D01*
X136136666Y-134550714D02*
X136279523Y-134550714D01*
X136279523Y-134550714D02*
X136374761Y-134598333D01*
X136374761Y-134598333D02*
X136422380Y-134693571D01*
X136422380Y-134693571D02*
X136422380Y-135217380D01*
X136755714Y-134550714D02*
X137136666Y-134550714D01*
X136898571Y-134217380D02*
X136898571Y-135074523D01*
X136898571Y-135074523D02*
X136946190Y-135169761D01*
X136946190Y-135169761D02*
X137041428Y-135217380D01*
X137041428Y-135217380D02*
X137136666Y-135217380D01*
X137850952Y-135169761D02*
X137755714Y-135217380D01*
X137755714Y-135217380D02*
X137565238Y-135217380D01*
X137565238Y-135217380D02*
X137470000Y-135169761D01*
X137470000Y-135169761D02*
X137422381Y-135074523D01*
X137422381Y-135074523D02*
X137422381Y-134693571D01*
X137422381Y-134693571D02*
X137470000Y-134598333D01*
X137470000Y-134598333D02*
X137565238Y-134550714D01*
X137565238Y-134550714D02*
X137755714Y-134550714D01*
X137755714Y-134550714D02*
X137850952Y-134598333D01*
X137850952Y-134598333D02*
X137898571Y-134693571D01*
X137898571Y-134693571D02*
X137898571Y-134788809D01*
X137898571Y-134788809D02*
X137422381Y-134884047D01*
X138327143Y-134550714D02*
X138327143Y-135217380D01*
X138327143Y-134645952D02*
X138374762Y-134598333D01*
X138374762Y-134598333D02*
X138470000Y-134550714D01*
X138470000Y-134550714D02*
X138612857Y-134550714D01*
X138612857Y-134550714D02*
X138708095Y-134598333D01*
X138708095Y-134598333D02*
X138755714Y-134693571D01*
X138755714Y-134693571D02*
X138755714Y-135217380D01*
X139231905Y-134550714D02*
X139231905Y-135217380D01*
X139231905Y-134645952D02*
X139279524Y-134598333D01*
X139279524Y-134598333D02*
X139374762Y-134550714D01*
X139374762Y-134550714D02*
X139517619Y-134550714D01*
X139517619Y-134550714D02*
X139612857Y-134598333D01*
X139612857Y-134598333D02*
X139660476Y-134693571D01*
X139660476Y-134693571D02*
X139660476Y-135217380D01*
X140565238Y-135217380D02*
X140565238Y-134693571D01*
X140565238Y-134693571D02*
X140517619Y-134598333D01*
X140517619Y-134598333D02*
X140422381Y-134550714D01*
X140422381Y-134550714D02*
X140231905Y-134550714D01*
X140231905Y-134550714D02*
X140136667Y-134598333D01*
X140565238Y-135169761D02*
X140470000Y-135217380D01*
X140470000Y-135217380D02*
X140231905Y-135217380D01*
X140231905Y-135217380D02*
X140136667Y-135169761D01*
X140136667Y-135169761D02*
X140089048Y-135074523D01*
X140089048Y-135074523D02*
X140089048Y-134979285D01*
X140089048Y-134979285D02*
X140136667Y-134884047D01*
X140136667Y-134884047D02*
X140231905Y-134836428D01*
X140231905Y-134836428D02*
X140470000Y-134836428D01*
X140470000Y-134836428D02*
X140565238Y-134788809D01*
X141593810Y-134931666D02*
X142070000Y-134931666D01*
X141498572Y-135217380D02*
X141831905Y-134217380D01*
X141831905Y-134217380D02*
X142165238Y-135217380D01*
X142498572Y-135217380D02*
X142498572Y-134550714D01*
X142498572Y-134741190D02*
X142546191Y-134645952D01*
X142546191Y-134645952D02*
X142593810Y-134598333D01*
X142593810Y-134598333D02*
X142689048Y-134550714D01*
X142689048Y-134550714D02*
X142784286Y-134550714D01*
X143498572Y-135169761D02*
X143403334Y-135217380D01*
X143403334Y-135217380D02*
X143212858Y-135217380D01*
X143212858Y-135217380D02*
X143117620Y-135169761D01*
X143117620Y-135169761D02*
X143070001Y-135074523D01*
X143070001Y-135074523D02*
X143070001Y-134693571D01*
X143070001Y-134693571D02*
X143117620Y-134598333D01*
X143117620Y-134598333D02*
X143212858Y-134550714D01*
X143212858Y-134550714D02*
X143403334Y-134550714D01*
X143403334Y-134550714D02*
X143498572Y-134598333D01*
X143498572Y-134598333D02*
X143546191Y-134693571D01*
X143546191Y-134693571D02*
X143546191Y-134788809D01*
X143546191Y-134788809D02*
X143070001Y-134884047D01*
X144403334Y-135217380D02*
X144403334Y-134693571D01*
X144403334Y-134693571D02*
X144355715Y-134598333D01*
X144355715Y-134598333D02*
X144260477Y-134550714D01*
X144260477Y-134550714D02*
X144070001Y-134550714D01*
X144070001Y-134550714D02*
X143974763Y-134598333D01*
X144403334Y-135169761D02*
X144308096Y-135217380D01*
X144308096Y-135217380D02*
X144070001Y-135217380D01*
X144070001Y-135217380D02*
X143974763Y-135169761D01*
X143974763Y-135169761D02*
X143927144Y-135074523D01*
X143927144Y-135074523D02*
X143927144Y-134979285D01*
X143927144Y-134979285D02*
X143974763Y-134884047D01*
X143974763Y-134884047D02*
X144070001Y-134836428D01*
X144070001Y-134836428D02*
X144308096Y-134836428D01*
X144308096Y-134836428D02*
X144403334Y-134788809D01*
X154773333Y-126256142D02*
X154725714Y-126303761D01*
X154725714Y-126303761D02*
X154582857Y-126351380D01*
X154582857Y-126351380D02*
X154487619Y-126351380D01*
X154487619Y-126351380D02*
X154344762Y-126303761D01*
X154344762Y-126303761D02*
X154249524Y-126208523D01*
X154249524Y-126208523D02*
X154201905Y-126113285D01*
X154201905Y-126113285D02*
X154154286Y-125922809D01*
X154154286Y-125922809D02*
X154154286Y-125779952D01*
X154154286Y-125779952D02*
X154201905Y-125589476D01*
X154201905Y-125589476D02*
X154249524Y-125494238D01*
X154249524Y-125494238D02*
X154344762Y-125399000D01*
X154344762Y-125399000D02*
X154487619Y-125351380D01*
X154487619Y-125351380D02*
X154582857Y-125351380D01*
X154582857Y-125351380D02*
X154725714Y-125399000D01*
X154725714Y-125399000D02*
X154773333Y-125446619D01*
X155678095Y-125351380D02*
X155201905Y-125351380D01*
X155201905Y-125351380D02*
X155154286Y-125827571D01*
X155154286Y-125827571D02*
X155201905Y-125779952D01*
X155201905Y-125779952D02*
X155297143Y-125732333D01*
X155297143Y-125732333D02*
X155535238Y-125732333D01*
X155535238Y-125732333D02*
X155630476Y-125779952D01*
X155630476Y-125779952D02*
X155678095Y-125827571D01*
X155678095Y-125827571D02*
X155725714Y-125922809D01*
X155725714Y-125922809D02*
X155725714Y-126160904D01*
X155725714Y-126160904D02*
X155678095Y-126256142D01*
X155678095Y-126256142D02*
X155630476Y-126303761D01*
X155630476Y-126303761D02*
X155535238Y-126351380D01*
X155535238Y-126351380D02*
X155297143Y-126351380D01*
X155297143Y-126351380D02*
X155201905Y-126303761D01*
X155201905Y-126303761D02*
X155154286Y-126256142D01*
X120283333Y-65342142D02*
X120235714Y-65389761D01*
X120235714Y-65389761D02*
X120092857Y-65437380D01*
X120092857Y-65437380D02*
X119997619Y-65437380D01*
X119997619Y-65437380D02*
X119854762Y-65389761D01*
X119854762Y-65389761D02*
X119759524Y-65294523D01*
X119759524Y-65294523D02*
X119711905Y-65199285D01*
X119711905Y-65199285D02*
X119664286Y-65008809D01*
X119664286Y-65008809D02*
X119664286Y-64865952D01*
X119664286Y-64865952D02*
X119711905Y-64675476D01*
X119711905Y-64675476D02*
X119759524Y-64580238D01*
X119759524Y-64580238D02*
X119854762Y-64485000D01*
X119854762Y-64485000D02*
X119997619Y-64437380D01*
X119997619Y-64437380D02*
X120092857Y-64437380D01*
X120092857Y-64437380D02*
X120235714Y-64485000D01*
X120235714Y-64485000D02*
X120283333Y-64532619D01*
X120664286Y-64532619D02*
X120711905Y-64485000D01*
X120711905Y-64485000D02*
X120807143Y-64437380D01*
X120807143Y-64437380D02*
X121045238Y-64437380D01*
X121045238Y-64437380D02*
X121140476Y-64485000D01*
X121140476Y-64485000D02*
X121188095Y-64532619D01*
X121188095Y-64532619D02*
X121235714Y-64627857D01*
X121235714Y-64627857D02*
X121235714Y-64723095D01*
X121235714Y-64723095D02*
X121188095Y-64865952D01*
X121188095Y-64865952D02*
X120616667Y-65437380D01*
X120616667Y-65437380D02*
X121235714Y-65437380D01*
X94369095Y-114559380D02*
X94940523Y-114559380D01*
X94654809Y-115559380D02*
X94654809Y-114559380D01*
X95273857Y-115559380D02*
X95273857Y-114559380D01*
X95273857Y-114559380D02*
X95654809Y-114559380D01*
X95654809Y-114559380D02*
X95750047Y-114607000D01*
X95750047Y-114607000D02*
X95797666Y-114654619D01*
X95797666Y-114654619D02*
X95845285Y-114749857D01*
X95845285Y-114749857D02*
X95845285Y-114892714D01*
X95845285Y-114892714D02*
X95797666Y-114987952D01*
X95797666Y-114987952D02*
X95750047Y-115035571D01*
X95750047Y-115035571D02*
X95654809Y-115083190D01*
X95654809Y-115083190D02*
X95273857Y-115083190D01*
X96226238Y-114654619D02*
X96273857Y-114607000D01*
X96273857Y-114607000D02*
X96369095Y-114559380D01*
X96369095Y-114559380D02*
X96607190Y-114559380D01*
X96607190Y-114559380D02*
X96702428Y-114607000D01*
X96702428Y-114607000D02*
X96750047Y-114654619D01*
X96750047Y-114654619D02*
X96797666Y-114749857D01*
X96797666Y-114749857D02*
X96797666Y-114845095D01*
X96797666Y-114845095D02*
X96750047Y-114987952D01*
X96750047Y-114987952D02*
X96178619Y-115559380D01*
X96178619Y-115559380D02*
X96797666Y-115559380D01*
X83074571Y-113635571D02*
X83407904Y-113635571D01*
X83550761Y-114159380D02*
X83074571Y-114159380D01*
X83074571Y-114159380D02*
X83074571Y-113159380D01*
X83074571Y-113159380D02*
X83550761Y-113159380D01*
X83931714Y-114111761D02*
X84074571Y-114159380D01*
X84074571Y-114159380D02*
X84312666Y-114159380D01*
X84312666Y-114159380D02*
X84407904Y-114111761D01*
X84407904Y-114111761D02*
X84455523Y-114064142D01*
X84455523Y-114064142D02*
X84503142Y-113968904D01*
X84503142Y-113968904D02*
X84503142Y-113873666D01*
X84503142Y-113873666D02*
X84455523Y-113778428D01*
X84455523Y-113778428D02*
X84407904Y-113730809D01*
X84407904Y-113730809D02*
X84312666Y-113683190D01*
X84312666Y-113683190D02*
X84122190Y-113635571D01*
X84122190Y-113635571D02*
X84026952Y-113587952D01*
X84026952Y-113587952D02*
X83979333Y-113540333D01*
X83979333Y-113540333D02*
X83931714Y-113445095D01*
X83931714Y-113445095D02*
X83931714Y-113349857D01*
X83931714Y-113349857D02*
X83979333Y-113254619D01*
X83979333Y-113254619D02*
X84026952Y-113207000D01*
X84026952Y-113207000D02*
X84122190Y-113159380D01*
X84122190Y-113159380D02*
X84360285Y-113159380D01*
X84360285Y-113159380D02*
X84503142Y-113207000D01*
X84931714Y-114159380D02*
X84931714Y-113159380D01*
X84931714Y-113159380D02*
X85312666Y-113159380D01*
X85312666Y-113159380D02*
X85407904Y-113207000D01*
X85407904Y-113207000D02*
X85455523Y-113254619D01*
X85455523Y-113254619D02*
X85503142Y-113349857D01*
X85503142Y-113349857D02*
X85503142Y-113492714D01*
X85503142Y-113492714D02*
X85455523Y-113587952D01*
X85455523Y-113587952D02*
X85407904Y-113635571D01*
X85407904Y-113635571D02*
X85312666Y-113683190D01*
X85312666Y-113683190D02*
X84931714Y-113683190D01*
X85693619Y-114254619D02*
X86455523Y-114254619D01*
X86693619Y-114159380D02*
X86693619Y-113159380D01*
X86693619Y-113159380D02*
X87074571Y-113159380D01*
X87074571Y-113159380D02*
X87169809Y-113207000D01*
X87169809Y-113207000D02*
X87217428Y-113254619D01*
X87217428Y-113254619D02*
X87265047Y-113349857D01*
X87265047Y-113349857D02*
X87265047Y-113492714D01*
X87265047Y-113492714D02*
X87217428Y-113587952D01*
X87217428Y-113587952D02*
X87169809Y-113635571D01*
X87169809Y-113635571D02*
X87074571Y-113683190D01*
X87074571Y-113683190D02*
X86693619Y-113683190D01*
X88265047Y-114159380D02*
X87931714Y-113683190D01*
X87693619Y-114159380D02*
X87693619Y-113159380D01*
X87693619Y-113159380D02*
X88074571Y-113159380D01*
X88074571Y-113159380D02*
X88169809Y-113207000D01*
X88169809Y-113207000D02*
X88217428Y-113254619D01*
X88217428Y-113254619D02*
X88265047Y-113349857D01*
X88265047Y-113349857D02*
X88265047Y-113492714D01*
X88265047Y-113492714D02*
X88217428Y-113587952D01*
X88217428Y-113587952D02*
X88169809Y-113635571D01*
X88169809Y-113635571D02*
X88074571Y-113683190D01*
X88074571Y-113683190D02*
X87693619Y-113683190D01*
X88884095Y-113159380D02*
X89074571Y-113159380D01*
X89074571Y-113159380D02*
X89169809Y-113207000D01*
X89169809Y-113207000D02*
X89265047Y-113302238D01*
X89265047Y-113302238D02*
X89312666Y-113492714D01*
X89312666Y-113492714D02*
X89312666Y-113826047D01*
X89312666Y-113826047D02*
X89265047Y-114016523D01*
X89265047Y-114016523D02*
X89169809Y-114111761D01*
X89169809Y-114111761D02*
X89074571Y-114159380D01*
X89074571Y-114159380D02*
X88884095Y-114159380D01*
X88884095Y-114159380D02*
X88788857Y-114111761D01*
X88788857Y-114111761D02*
X88693619Y-114016523D01*
X88693619Y-114016523D02*
X88646000Y-113826047D01*
X88646000Y-113826047D02*
X88646000Y-113492714D01*
X88646000Y-113492714D02*
X88693619Y-113302238D01*
X88693619Y-113302238D02*
X88788857Y-113207000D01*
X88788857Y-113207000D02*
X88884095Y-113159380D01*
X90265047Y-113207000D02*
X90169809Y-113159380D01*
X90169809Y-113159380D02*
X90026952Y-113159380D01*
X90026952Y-113159380D02*
X89884095Y-113207000D01*
X89884095Y-113207000D02*
X89788857Y-113302238D01*
X89788857Y-113302238D02*
X89741238Y-113397476D01*
X89741238Y-113397476D02*
X89693619Y-113587952D01*
X89693619Y-113587952D02*
X89693619Y-113730809D01*
X89693619Y-113730809D02*
X89741238Y-113921285D01*
X89741238Y-113921285D02*
X89788857Y-114016523D01*
X89788857Y-114016523D02*
X89884095Y-114111761D01*
X89884095Y-114111761D02*
X90026952Y-114159380D01*
X90026952Y-114159380D02*
X90122190Y-114159380D01*
X90122190Y-114159380D02*
X90265047Y-114111761D01*
X90265047Y-114111761D02*
X90312666Y-114064142D01*
X90312666Y-114064142D02*
X90312666Y-113730809D01*
X90312666Y-113730809D02*
X90122190Y-113730809D01*
X91312666Y-114159380D02*
X90979333Y-113683190D01*
X90741238Y-114159380D02*
X90741238Y-113159380D01*
X90741238Y-113159380D02*
X91122190Y-113159380D01*
X91122190Y-113159380D02*
X91217428Y-113207000D01*
X91217428Y-113207000D02*
X91265047Y-113254619D01*
X91265047Y-113254619D02*
X91312666Y-113349857D01*
X91312666Y-113349857D02*
X91312666Y-113492714D01*
X91312666Y-113492714D02*
X91265047Y-113587952D01*
X91265047Y-113587952D02*
X91217428Y-113635571D01*
X91217428Y-113635571D02*
X91122190Y-113683190D01*
X91122190Y-113683190D02*
X90741238Y-113683190D01*
X91693619Y-113873666D02*
X92169809Y-113873666D01*
X91598381Y-114159380D02*
X91931714Y-113159380D01*
X91931714Y-113159380D02*
X92265047Y-114159380D01*
X92598381Y-114159380D02*
X92598381Y-113159380D01*
X92598381Y-113159380D02*
X92931714Y-113873666D01*
X92931714Y-113873666D02*
X93265047Y-113159380D01*
X93265047Y-113159380D02*
X93265047Y-114159380D01*
X94265047Y-114159380D02*
X93693619Y-114159380D01*
X93979333Y-114159380D02*
X93979333Y-113159380D01*
X93979333Y-113159380D02*
X93884095Y-113302238D01*
X93884095Y-113302238D02*
X93788857Y-113397476D01*
X93788857Y-113397476D02*
X93693619Y-113445095D01*
D11*
X115990761Y-63907380D02*
X115657428Y-63431190D01*
X115419333Y-63907380D02*
X115419333Y-62907380D01*
X115419333Y-62907380D02*
X115800285Y-62907380D01*
X115800285Y-62907380D02*
X115895523Y-62955000D01*
X115895523Y-62955000D02*
X115943142Y-63002619D01*
X115943142Y-63002619D02*
X115990761Y-63097857D01*
X115990761Y-63097857D02*
X115990761Y-63240714D01*
X115990761Y-63240714D02*
X115943142Y-63335952D01*
X115943142Y-63335952D02*
X115895523Y-63383571D01*
X115895523Y-63383571D02*
X115800285Y-63431190D01*
X115800285Y-63431190D02*
X115419333Y-63431190D01*
X116276476Y-62907380D02*
X116609809Y-63907380D01*
X116609809Y-63907380D02*
X116943142Y-62907380D01*
X117800285Y-63907380D02*
X117228857Y-63907380D01*
X117514571Y-63907380D02*
X117514571Y-62907380D01*
X117514571Y-62907380D02*
X117419333Y-63050238D01*
X117419333Y-63050238D02*
X117324095Y-63145476D01*
X117324095Y-63145476D02*
X117228857Y-63193095D01*
D10*
X120283333Y-59842142D02*
X120235714Y-59889761D01*
X120235714Y-59889761D02*
X120092857Y-59937380D01*
X120092857Y-59937380D02*
X119997619Y-59937380D01*
X119997619Y-59937380D02*
X119854762Y-59889761D01*
X119854762Y-59889761D02*
X119759524Y-59794523D01*
X119759524Y-59794523D02*
X119711905Y-59699285D01*
X119711905Y-59699285D02*
X119664286Y-59508809D01*
X119664286Y-59508809D02*
X119664286Y-59365952D01*
X119664286Y-59365952D02*
X119711905Y-59175476D01*
X119711905Y-59175476D02*
X119759524Y-59080238D01*
X119759524Y-59080238D02*
X119854762Y-58985000D01*
X119854762Y-58985000D02*
X119997619Y-58937380D01*
X119997619Y-58937380D02*
X120092857Y-58937380D01*
X120092857Y-58937380D02*
X120235714Y-58985000D01*
X120235714Y-58985000D02*
X120283333Y-59032619D01*
X121235714Y-59937380D02*
X120664286Y-59937380D01*
X120950000Y-59937380D02*
X120950000Y-58937380D01*
X120950000Y-58937380D02*
X120854762Y-59080238D01*
X120854762Y-59080238D02*
X120759524Y-59175476D01*
X120759524Y-59175476D02*
X120664286Y-59223095D01*
X125583333Y-62592142D02*
X125535714Y-62639761D01*
X125535714Y-62639761D02*
X125392857Y-62687380D01*
X125392857Y-62687380D02*
X125297619Y-62687380D01*
X125297619Y-62687380D02*
X125154762Y-62639761D01*
X125154762Y-62639761D02*
X125059524Y-62544523D01*
X125059524Y-62544523D02*
X125011905Y-62449285D01*
X125011905Y-62449285D02*
X124964286Y-62258809D01*
X124964286Y-62258809D02*
X124964286Y-62115952D01*
X124964286Y-62115952D02*
X125011905Y-61925476D01*
X125011905Y-61925476D02*
X125059524Y-61830238D01*
X125059524Y-61830238D02*
X125154762Y-61735000D01*
X125154762Y-61735000D02*
X125297619Y-61687380D01*
X125297619Y-61687380D02*
X125392857Y-61687380D01*
X125392857Y-61687380D02*
X125535714Y-61735000D01*
X125535714Y-61735000D02*
X125583333Y-61782619D01*
X125916667Y-61687380D02*
X126535714Y-61687380D01*
X126535714Y-61687380D02*
X126202381Y-62068333D01*
X126202381Y-62068333D02*
X126345238Y-62068333D01*
X126345238Y-62068333D02*
X126440476Y-62115952D01*
X126440476Y-62115952D02*
X126488095Y-62163571D01*
X126488095Y-62163571D02*
X126535714Y-62258809D01*
X126535714Y-62258809D02*
X126535714Y-62496904D01*
X126535714Y-62496904D02*
X126488095Y-62592142D01*
X126488095Y-62592142D02*
X126440476Y-62639761D01*
X126440476Y-62639761D02*
X126345238Y-62687380D01*
X126345238Y-62687380D02*
X126059524Y-62687380D01*
X126059524Y-62687380D02*
X125964286Y-62639761D01*
X125964286Y-62639761D02*
X125916667Y-62592142D01*
X161313905Y-64375380D02*
X161313905Y-63375380D01*
X161313905Y-63375380D02*
X161552000Y-63375380D01*
X161552000Y-63375380D02*
X161694857Y-63423000D01*
X161694857Y-63423000D02*
X161790095Y-63518238D01*
X161790095Y-63518238D02*
X161837714Y-63613476D01*
X161837714Y-63613476D02*
X161885333Y-63803952D01*
X161885333Y-63803952D02*
X161885333Y-63946809D01*
X161885333Y-63946809D02*
X161837714Y-64137285D01*
X161837714Y-64137285D02*
X161790095Y-64232523D01*
X161790095Y-64232523D02*
X161694857Y-64327761D01*
X161694857Y-64327761D02*
X161552000Y-64375380D01*
X161552000Y-64375380D02*
X161313905Y-64375380D01*
X162837714Y-64375380D02*
X162266286Y-64375380D01*
X162552000Y-64375380D02*
X162552000Y-63375380D01*
X162552000Y-63375380D02*
X162456762Y-63518238D01*
X162456762Y-63518238D02*
X162361524Y-63613476D01*
X162361524Y-63613476D02*
X162266286Y-63661095D01*
X168988095Y-58803380D02*
X168988095Y-59612904D01*
X168988095Y-59612904D02*
X169035714Y-59708142D01*
X169035714Y-59708142D02*
X169083333Y-59755761D01*
X169083333Y-59755761D02*
X169178571Y-59803380D01*
X169178571Y-59803380D02*
X169369047Y-59803380D01*
X169369047Y-59803380D02*
X169464285Y-59755761D01*
X169464285Y-59755761D02*
X169511904Y-59708142D01*
X169511904Y-59708142D02*
X169559523Y-59612904D01*
X169559523Y-59612904D02*
X169559523Y-58803380D01*
X169940476Y-58803380D02*
X170559523Y-58803380D01*
X170559523Y-58803380D02*
X170226190Y-59184333D01*
X170226190Y-59184333D02*
X170369047Y-59184333D01*
X170369047Y-59184333D02*
X170464285Y-59231952D01*
X170464285Y-59231952D02*
X170511904Y-59279571D01*
X170511904Y-59279571D02*
X170559523Y-59374809D01*
X170559523Y-59374809D02*
X170559523Y-59612904D01*
X170559523Y-59612904D02*
X170511904Y-59708142D01*
X170511904Y-59708142D02*
X170464285Y-59755761D01*
X170464285Y-59755761D02*
X170369047Y-59803380D01*
X170369047Y-59803380D02*
X170083333Y-59803380D01*
X170083333Y-59803380D02*
X169988095Y-59755761D01*
X169988095Y-59755761D02*
X169940476Y-59708142D01*
X139080595Y-69377380D02*
X139080595Y-70186904D01*
X139080595Y-70186904D02*
X139128214Y-70282142D01*
X139128214Y-70282142D02*
X139175833Y-70329761D01*
X139175833Y-70329761D02*
X139271071Y-70377380D01*
X139271071Y-70377380D02*
X139461547Y-70377380D01*
X139461547Y-70377380D02*
X139556785Y-70329761D01*
X139556785Y-70329761D02*
X139604404Y-70282142D01*
X139604404Y-70282142D02*
X139652023Y-70186904D01*
X139652023Y-70186904D02*
X139652023Y-69377380D01*
X140080595Y-69472619D02*
X140128214Y-69425000D01*
X140128214Y-69425000D02*
X140223452Y-69377380D01*
X140223452Y-69377380D02*
X140461547Y-69377380D01*
X140461547Y-69377380D02*
X140556785Y-69425000D01*
X140556785Y-69425000D02*
X140604404Y-69472619D01*
X140604404Y-69472619D02*
X140652023Y-69567857D01*
X140652023Y-69567857D02*
X140652023Y-69663095D01*
X140652023Y-69663095D02*
X140604404Y-69805952D01*
X140604404Y-69805952D02*
X140032976Y-70377380D01*
X140032976Y-70377380D02*
X140652023Y-70377380D01*
X88633333Y-126952142D02*
X88585714Y-126999761D01*
X88585714Y-126999761D02*
X88442857Y-127047380D01*
X88442857Y-127047380D02*
X88347619Y-127047380D01*
X88347619Y-127047380D02*
X88204762Y-126999761D01*
X88204762Y-126999761D02*
X88109524Y-126904523D01*
X88109524Y-126904523D02*
X88061905Y-126809285D01*
X88061905Y-126809285D02*
X88014286Y-126618809D01*
X88014286Y-126618809D02*
X88014286Y-126475952D01*
X88014286Y-126475952D02*
X88061905Y-126285476D01*
X88061905Y-126285476D02*
X88109524Y-126190238D01*
X88109524Y-126190238D02*
X88204762Y-126095000D01*
X88204762Y-126095000D02*
X88347619Y-126047380D01*
X88347619Y-126047380D02*
X88442857Y-126047380D01*
X88442857Y-126047380D02*
X88585714Y-126095000D01*
X88585714Y-126095000D02*
X88633333Y-126142619D01*
X89490476Y-126047380D02*
X89300000Y-126047380D01*
X89300000Y-126047380D02*
X89204762Y-126095000D01*
X89204762Y-126095000D02*
X89157143Y-126142619D01*
X89157143Y-126142619D02*
X89061905Y-126285476D01*
X89061905Y-126285476D02*
X89014286Y-126475952D01*
X89014286Y-126475952D02*
X89014286Y-126856904D01*
X89014286Y-126856904D02*
X89061905Y-126952142D01*
X89061905Y-126952142D02*
X89109524Y-126999761D01*
X89109524Y-126999761D02*
X89204762Y-127047380D01*
X89204762Y-127047380D02*
X89395238Y-127047380D01*
X89395238Y-127047380D02*
X89490476Y-126999761D01*
X89490476Y-126999761D02*
X89538095Y-126952142D01*
X89538095Y-126952142D02*
X89585714Y-126856904D01*
X89585714Y-126856904D02*
X89585714Y-126618809D01*
X89585714Y-126618809D02*
X89538095Y-126523571D01*
X89538095Y-126523571D02*
X89490476Y-126475952D01*
X89490476Y-126475952D02*
X89395238Y-126428333D01*
X89395238Y-126428333D02*
X89204762Y-126428333D01*
X89204762Y-126428333D02*
X89109524Y-126475952D01*
X89109524Y-126475952D02*
X89061905Y-126523571D01*
X89061905Y-126523571D02*
X89014286Y-126618809D01*
X165370476Y-113635571D02*
X165703809Y-113635571D01*
X165846666Y-114159380D02*
X165370476Y-114159380D01*
X165370476Y-114159380D02*
X165370476Y-113159380D01*
X165370476Y-113159380D02*
X165846666Y-113159380D01*
X166227619Y-114111761D02*
X166370476Y-114159380D01*
X166370476Y-114159380D02*
X166608571Y-114159380D01*
X166608571Y-114159380D02*
X166703809Y-114111761D01*
X166703809Y-114111761D02*
X166751428Y-114064142D01*
X166751428Y-114064142D02*
X166799047Y-113968904D01*
X166799047Y-113968904D02*
X166799047Y-113873666D01*
X166799047Y-113873666D02*
X166751428Y-113778428D01*
X166751428Y-113778428D02*
X166703809Y-113730809D01*
X166703809Y-113730809D02*
X166608571Y-113683190D01*
X166608571Y-113683190D02*
X166418095Y-113635571D01*
X166418095Y-113635571D02*
X166322857Y-113587952D01*
X166322857Y-113587952D02*
X166275238Y-113540333D01*
X166275238Y-113540333D02*
X166227619Y-113445095D01*
X166227619Y-113445095D02*
X166227619Y-113349857D01*
X166227619Y-113349857D02*
X166275238Y-113254619D01*
X166275238Y-113254619D02*
X166322857Y-113207000D01*
X166322857Y-113207000D02*
X166418095Y-113159380D01*
X166418095Y-113159380D02*
X166656190Y-113159380D01*
X166656190Y-113159380D02*
X166799047Y-113207000D01*
X167227619Y-114159380D02*
X167227619Y-113159380D01*
X167227619Y-113159380D02*
X167608571Y-113159380D01*
X167608571Y-113159380D02*
X167703809Y-113207000D01*
X167703809Y-113207000D02*
X167751428Y-113254619D01*
X167751428Y-113254619D02*
X167799047Y-113349857D01*
X167799047Y-113349857D02*
X167799047Y-113492714D01*
X167799047Y-113492714D02*
X167751428Y-113587952D01*
X167751428Y-113587952D02*
X167703809Y-113635571D01*
X167703809Y-113635571D02*
X167608571Y-113683190D01*
X167608571Y-113683190D02*
X167227619Y-113683190D01*
X167989524Y-114254619D02*
X168751428Y-114254619D01*
X168989524Y-113635571D02*
X169322857Y-113635571D01*
X169465714Y-114159380D02*
X168989524Y-114159380D01*
X168989524Y-114159380D02*
X168989524Y-113159380D01*
X168989524Y-113159380D02*
X169465714Y-113159380D01*
X169894286Y-114159380D02*
X169894286Y-113159380D01*
X169894286Y-113159380D02*
X170465714Y-114159380D01*
X170465714Y-114159380D02*
X170465714Y-113159380D01*
X170894286Y-113873666D02*
X171370476Y-113873666D01*
X170799048Y-114159380D02*
X171132381Y-113159380D01*
X171132381Y-113159380D02*
X171465714Y-114159380D01*
X172132381Y-113635571D02*
X172275238Y-113683190D01*
X172275238Y-113683190D02*
X172322857Y-113730809D01*
X172322857Y-113730809D02*
X172370476Y-113826047D01*
X172370476Y-113826047D02*
X172370476Y-113968904D01*
X172370476Y-113968904D02*
X172322857Y-114064142D01*
X172322857Y-114064142D02*
X172275238Y-114111761D01*
X172275238Y-114111761D02*
X172180000Y-114159380D01*
X172180000Y-114159380D02*
X171799048Y-114159380D01*
X171799048Y-114159380D02*
X171799048Y-113159380D01*
X171799048Y-113159380D02*
X172132381Y-113159380D01*
X172132381Y-113159380D02*
X172227619Y-113207000D01*
X172227619Y-113207000D02*
X172275238Y-113254619D01*
X172275238Y-113254619D02*
X172322857Y-113349857D01*
X172322857Y-113349857D02*
X172322857Y-113445095D01*
X172322857Y-113445095D02*
X172275238Y-113540333D01*
X172275238Y-113540333D02*
X172227619Y-113587952D01*
X172227619Y-113587952D02*
X172132381Y-113635571D01*
X172132381Y-113635571D02*
X171799048Y-113635571D01*
X173275238Y-114159380D02*
X172799048Y-114159380D01*
X172799048Y-114159380D02*
X172799048Y-113159380D01*
X173608572Y-113635571D02*
X173941905Y-113635571D01*
X174084762Y-114159380D02*
X173608572Y-114159380D01*
X173608572Y-114159380D02*
X173608572Y-113159380D01*
X173608572Y-113159380D02*
X174084762Y-113159380D01*
X175037143Y-114159380D02*
X174465715Y-114159380D01*
X174751429Y-114159380D02*
X174751429Y-113159380D01*
X174751429Y-113159380D02*
X174656191Y-113302238D01*
X174656191Y-113302238D02*
X174560953Y-113397476D01*
X174560953Y-113397476D02*
X174465715Y-113445095D01*
X149416666Y-63343571D02*
X149083333Y-63343571D01*
X149083333Y-63867380D02*
X149083333Y-62867380D01*
X149083333Y-62867380D02*
X149559523Y-62867380D01*
X150464285Y-63867380D02*
X149892857Y-63867380D01*
X150178571Y-63867380D02*
X150178571Y-62867380D01*
X150178571Y-62867380D02*
X150083333Y-63010238D01*
X150083333Y-63010238D02*
X149988095Y-63105476D01*
X149988095Y-63105476D02*
X149892857Y-63153095D01*
X188142857Y-89902380D02*
X188142857Y-88902380D01*
X188142857Y-88902380D02*
X188380952Y-88902380D01*
X188380952Y-88902380D02*
X188523809Y-88950000D01*
X188523809Y-88950000D02*
X188619047Y-89045238D01*
X188619047Y-89045238D02*
X188666666Y-89140476D01*
X188666666Y-89140476D02*
X188714285Y-89330952D01*
X188714285Y-89330952D02*
X188714285Y-89473809D01*
X188714285Y-89473809D02*
X188666666Y-89664285D01*
X188666666Y-89664285D02*
X188619047Y-89759523D01*
X188619047Y-89759523D02*
X188523809Y-89854761D01*
X188523809Y-89854761D02*
X188380952Y-89902380D01*
X188380952Y-89902380D02*
X188142857Y-89902380D01*
X189333333Y-88902380D02*
X189523809Y-88902380D01*
X189523809Y-88902380D02*
X189619047Y-88950000D01*
X189619047Y-88950000D02*
X189714285Y-89045238D01*
X189714285Y-89045238D02*
X189761904Y-89235714D01*
X189761904Y-89235714D02*
X189761904Y-89569047D01*
X189761904Y-89569047D02*
X189714285Y-89759523D01*
X189714285Y-89759523D02*
X189619047Y-89854761D01*
X189619047Y-89854761D02*
X189523809Y-89902380D01*
X189523809Y-89902380D02*
X189333333Y-89902380D01*
X189333333Y-89902380D02*
X189238095Y-89854761D01*
X189238095Y-89854761D02*
X189142857Y-89759523D01*
X189142857Y-89759523D02*
X189095238Y-89569047D01*
X189095238Y-89569047D02*
X189095238Y-89235714D01*
X189095238Y-89235714D02*
X189142857Y-89045238D01*
X189142857Y-89045238D02*
X189238095Y-88950000D01*
X189238095Y-88950000D02*
X189333333Y-88902380D01*
X190095238Y-88902380D02*
X190333333Y-89902380D01*
X190333333Y-89902380D02*
X190523809Y-89188095D01*
X190523809Y-89188095D02*
X190714285Y-89902380D01*
X190714285Y-89902380D02*
X190952381Y-88902380D01*
X191333333Y-89902380D02*
X191333333Y-88902380D01*
X191333333Y-88902380D02*
X191904761Y-89902380D01*
X191904761Y-89902380D02*
X191904761Y-88902380D01*
X192904761Y-89902380D02*
X192333333Y-89902380D01*
X192619047Y-89902380D02*
X192619047Y-88902380D01*
X192619047Y-88902380D02*
X192523809Y-89045238D01*
X192523809Y-89045238D02*
X192428571Y-89140476D01*
X192428571Y-89140476D02*
X192333333Y-89188095D01*
D12*
X154135000Y-134847064D02*
X154135000Y-134392936D01*
X155605000Y-134847064D02*
X155605000Y-134392936D01*
D13*
X187400000Y-81900000D02*
X187400000Y-84100000D01*
X188400000Y-79900000D02*
X192600000Y-79900000D01*
X192600000Y-86100000D02*
X188400000Y-86100000D01*
X193600000Y-84100000D02*
X193600000Y-81900000D01*
D14*
X186000000Y-80460000D02*
G75*
G03*
X186000000Y-80460000I-100000J0D01*
G01*
D12*
X167706000Y-124399000D02*
X169606000Y-124399000D01*
X167706000Y-126299000D02*
X167706000Y-124399000D01*
X169606000Y-124399000D02*
X169606000Y-126299000D01*
X169606000Y-126299000D02*
X167706000Y-126299000D01*
D13*
X114150000Y-117150000D02*
X114150000Y-119350000D01*
X115150000Y-115150000D02*
X119350000Y-115150000D01*
X119350000Y-121350000D02*
X115150000Y-121350000D01*
X120350000Y-119350000D02*
X120350000Y-117150000D01*
D14*
X112750000Y-115710000D02*
G75*
G03*
X112750000Y-115710000I-100000J0D01*
G01*
D13*
X102260000Y-117150000D02*
X102260000Y-119350000D01*
X103260000Y-115150000D02*
X107460000Y-115150000D01*
X107460000Y-121350000D02*
X103260000Y-121350000D01*
X108460000Y-119350000D02*
X108460000Y-117150000D01*
D14*
X100860000Y-115710000D02*
G75*
G03*
X100860000Y-115710000I-100000J0D01*
G01*
D12*
X143760000Y-62710000D02*
X143340000Y-62710000D01*
X143760000Y-60730000D02*
X143760000Y-62710000D01*
X143760000Y-58360000D02*
X143760000Y-58760000D01*
X141760000Y-62940000D02*
X141760000Y-63390000D01*
X141310000Y-63390000D02*
X141760000Y-63390000D01*
X136240000Y-62710000D02*
X136660000Y-62710000D01*
X136240000Y-60730000D02*
X136240000Y-62710000D01*
X136240000Y-58760000D02*
X136240000Y-58360000D01*
X150011252Y-60735000D02*
X149488748Y-60735000D01*
X150011252Y-59265000D02*
X149488748Y-59265000D01*
X148770000Y-137850000D02*
X148770000Y-131100000D01*
X148770000Y-137850000D02*
X130770000Y-137850000D01*
X148770000Y-113100000D02*
X148770000Y-112350000D01*
X148770000Y-112350000D02*
X147770000Y-112350000D01*
X130770000Y-137850000D02*
X130770000Y-131100000D01*
X130770000Y-131910000D02*
X148770000Y-131910000D01*
X130770000Y-113100000D02*
X130770000Y-112350000D01*
X130770000Y-112350000D02*
X131770000Y-112350000D01*
X154135000Y-128531252D02*
X154135000Y-128008748D01*
X155605000Y-128531252D02*
X155605000Y-128008748D01*
X120188748Y-66015000D02*
X120711252Y-66015000D01*
X120188748Y-67485000D02*
X120711252Y-67485000D01*
X94681000Y-115890000D02*
X96581000Y-115890000D01*
X94681000Y-117790000D02*
X94681000Y-115890000D01*
X96581000Y-115890000D02*
X96581000Y-117790000D01*
X96581000Y-117790000D02*
X94681000Y-117790000D01*
D13*
X85650000Y-117150000D02*
X85650000Y-119350000D01*
X86650000Y-115150000D02*
X90850000Y-115150000D01*
X90850000Y-121350000D02*
X86650000Y-121350000D01*
X91850000Y-119350000D02*
X91850000Y-117150000D01*
D14*
X84250000Y-115710000D02*
G75*
G03*
X84250000Y-115710000I-100000J0D01*
G01*
D12*
X114350000Y-63540000D02*
G75*
G03*
X114350000Y-63540000I-5594794J0D01*
G01*
X120188748Y-60515000D02*
X120711252Y-60515000D01*
X120188748Y-61985000D02*
X120711252Y-61985000D01*
X125488748Y-63265000D02*
X126011252Y-63265000D01*
X125488748Y-64735000D02*
X126011252Y-64735000D01*
X160781000Y-60490000D02*
X157481000Y-60490000D01*
X160781000Y-60490000D02*
X160781000Y-66000000D01*
X157481000Y-60490000D02*
X157481000Y-66000000D01*
D11*
X166840000Y-67720000D02*
X166840000Y-67420000D01*
X166880000Y-61090000D02*
X166380000Y-61090000D01*
X167180000Y-60780000D02*
X166880000Y-61090000D01*
X167240000Y-67720000D02*
X166840000Y-67720000D01*
X167560000Y-60780000D02*
X167180000Y-60780000D01*
X172960000Y-67720000D02*
X173260000Y-67720000D01*
X173260000Y-60780000D02*
X172960000Y-60780000D01*
X173260000Y-61080000D02*
X173260000Y-60780000D01*
X173260000Y-67720000D02*
X173260000Y-67320000D01*
D12*
X99842500Y-78010000D02*
X99842500Y-82010000D01*
X100222500Y-70780000D02*
X179462500Y-70780000D01*
X100222500Y-107020000D02*
X100222500Y-70780000D01*
X104342500Y-107020000D02*
X104342500Y-70780000D01*
X170342500Y-70780000D02*
X170342500Y-107020000D01*
X179462500Y-70780000D02*
X179462500Y-107020000D01*
X179462500Y-107020000D02*
X100222500Y-107020000D01*
X94100000Y-76620000D02*
X83700000Y-76620000D01*
X83700000Y-76620000D02*
X83700000Y-102820000D01*
X83700000Y-102820000D02*
X94100000Y-102820000D01*
X94100000Y-102820000D02*
X94100000Y-76620000D01*
X87500000Y-76620000D02*
G75*
G03*
X90300000Y-76620000I1400000J0D01*
G01*
X89061252Y-125735000D02*
X88538748Y-125735000D01*
X89061252Y-124265000D02*
X88538748Y-124265000D01*
D13*
X167150000Y-117150000D02*
X167150000Y-119350000D01*
X168150000Y-115150000D02*
X172350000Y-115150000D01*
X172350000Y-121350000D02*
X168150000Y-121350000D01*
X173350000Y-119350000D02*
X173350000Y-117150000D01*
D14*
X165750000Y-115710000D02*
G75*
G03*
X165750000Y-115710000I-100000J0D01*
G01*
D12*
X148363748Y-64290000D02*
X151136252Y-64290000D01*
X148363748Y-67710000D02*
X151136252Y-67710000D01*
D13*
X187400000Y-92880000D02*
X187400000Y-95080000D01*
X188400000Y-90880000D02*
X192600000Y-90880000D01*
X192600000Y-97080000D02*
X188400000Y-97080000D01*
X193600000Y-95080000D02*
X193600000Y-92880000D01*
D14*
X186000000Y-91440000D02*
G75*
G03*
X186000000Y-91440000I-100000J0D01*
G01*
%LPC*%
D15*
X154870000Y-135532500D03*
X154870000Y-133707500D03*
D16*
X187249999Y-80749999D03*
D17*
X187250000Y-85250000D03*
X193750000Y-80750000D03*
X193750000Y-85250000D03*
D18*
X168655999Y-125348999D03*
D16*
X113999999Y-115999999D03*
D17*
X114000000Y-120500000D03*
X120500000Y-116000000D03*
X120500000Y-120500000D03*
D16*
X102109999Y-115999999D03*
D17*
X102110000Y-120500000D03*
X108610000Y-116000000D03*
X108610000Y-120500000D03*
D19*
X141299999Y-62449999D03*
X140649999Y-62449999D03*
X139999999Y-62449999D03*
X139349999Y-62449999D03*
X138699999Y-62449999D03*
D20*
X143499999Y-59749999D03*
D21*
X142899999Y-59749999D03*
D22*
X142499999Y-62449999D03*
D23*
X140999999Y-59749999D03*
X138999999Y-59749999D03*
D22*
X137499999Y-62449999D03*
D21*
X137099999Y-59749999D03*
D20*
X136499999Y-59749999D03*
D24*
X150700000Y-60000000D03*
X148800000Y-60000000D03*
D25*
X148519999Y-130359999D03*
X148519999Y-129089999D03*
X148519999Y-127819999D03*
X148519999Y-126549999D03*
X148519999Y-125279999D03*
X148519999Y-124009999D03*
X148519999Y-122739999D03*
X148519999Y-121469999D03*
X148519999Y-120199999D03*
X148519999Y-118929999D03*
X148519999Y-117659999D03*
X148519999Y-116389999D03*
X148519999Y-115119999D03*
X148519999Y-113849999D03*
D26*
X146754999Y-112599999D03*
X145484999Y-112599999D03*
X144214999Y-112599999D03*
X142944999Y-112599999D03*
X141674999Y-112599999D03*
X140404999Y-112599999D03*
X139134999Y-112599999D03*
X137864999Y-112599999D03*
X136594999Y-112599999D03*
X135324999Y-112599999D03*
X134054999Y-112599999D03*
X132784999Y-112599999D03*
D25*
X131019999Y-113849999D03*
X131019999Y-115119999D03*
X131019999Y-116389999D03*
X131019999Y-117659999D03*
X131019999Y-118929999D03*
X131019999Y-120199999D03*
X131019999Y-121469999D03*
X131019999Y-122739999D03*
X131019999Y-124009999D03*
X131019999Y-125279999D03*
X131019999Y-126549999D03*
X131019999Y-127819999D03*
X131019999Y-129089999D03*
X131019999Y-130359999D03*
D27*
X142669999Y-124039999D03*
X142669999Y-122639999D03*
X142669999Y-121239999D03*
X141269999Y-124039999D03*
X141269999Y-122639999D03*
X141269999Y-121239999D03*
X139869999Y-124039999D03*
X139869999Y-122639999D03*
X139869999Y-121239999D03*
D28*
X154870000Y-129220000D03*
X154870000Y-127320000D03*
D29*
X119500000Y-66750000D03*
X121400000Y-66750000D03*
D18*
X95630999Y-116839999D03*
D16*
X85499999Y-115999999D03*
D17*
X85500000Y-120500000D03*
X92000000Y-116000000D03*
X92000000Y-120500000D03*
D30*
X103250000Y-61040000D03*
X113250000Y-63540000D03*
X103250000Y-66040000D03*
D29*
X119500000Y-61250000D03*
X121400000Y-61250000D03*
X124800000Y-64000000D03*
X126700000Y-64000000D03*
D31*
X159131000Y-62000000D03*
X159131000Y-66000000D03*
D32*
X165669999Y-61964999D03*
X165669999Y-66534999D03*
D33*
X172839999Y-64249999D03*
D34*
X102342500Y-104900000D03*
X177342500Y-72900000D03*
D18*
X102342499Y-80009999D03*
D35*
X102342500Y-82550000D03*
X102342500Y-85090000D03*
X102342500Y-87630000D03*
X102342500Y-90170000D03*
X102342500Y-92710000D03*
X102342500Y-95250000D03*
X102342500Y-97790000D03*
X177342500Y-80010000D03*
X177342500Y-82550000D03*
X177342500Y-85090000D03*
X177342500Y-87630000D03*
X177342500Y-90170000D03*
X177342500Y-92710000D03*
X177342500Y-95250000D03*
X177342500Y-97790000D03*
D36*
X85089999Y-78289999D03*
D37*
X85090000Y-80830000D03*
X85090000Y-83370000D03*
X85090000Y-85910000D03*
X85090000Y-88450000D03*
X85090000Y-90990000D03*
X85090000Y-93530000D03*
X85090000Y-96070000D03*
X85090000Y-98610000D03*
X85090000Y-101150000D03*
X92710000Y-101150000D03*
X92710000Y-98610000D03*
X92710000Y-96070000D03*
X92710000Y-93530000D03*
X92710000Y-90990000D03*
X92710000Y-88450000D03*
X92710000Y-85910000D03*
X92710000Y-83370000D03*
X92710000Y-80830000D03*
X92710000Y-78290000D03*
D24*
X89750000Y-125000000D03*
X87850000Y-125000000D03*
D16*
X166999999Y-115999999D03*
D17*
X167000000Y-120500000D03*
X173500000Y-116000000D03*
X173500000Y-120500000D03*
D38*
X147612500Y-66000000D03*
X151887500Y-66000000D03*
D16*
X187249999Y-91729999D03*
D17*
X187250000Y-96230000D03*
X193750000Y-91730000D03*
X193750000Y-96230000D03*
M02*
