G04 #@! TF.GenerationSoftware,KiCad,Pcbnew,(7.0.0)*
G04 #@! TF.CreationDate,2023-04-17T23:01:26-07:00*
G04 #@! TF.ProjectId,msp-debugger,6d73702d-6465-4627-9567-6765722e6b69,rev?*
G04 #@! TF.SameCoordinates,Original*
G04 #@! TF.FileFunction,Legend,Bot*
G04 #@! TF.FilePolarity,Positive*
%FSLAX46Y46*%
G04 Gerber Fmt 4.6, Leading zero omitted, Abs format (unit mm)*
G04 Created by KiCad (PCBNEW (7.0.0)) date 2023-04-17 23:01:26*
%MOMM*%
%LPD*%
G01*
G04 APERTURE LIST*
%ADD10R,1.508000X1.508000*%
%ADD11C,1.508000*%
%ADD12O,0.890000X1.550000*%
%ADD13O,1.250000X0.950000*%
%ADD14C,2.600000*%
%ADD15C,2.000000*%
%ADD16R,1.500000X1.500000*%
%ADD17C,1.500000*%
%ADD18R,1.200000X1.200000*%
%ADD19C,1.200000*%
G04 APERTURE END LIST*
%LPC*%
D10*
X187249999Y-80749999D03*
D11*
X187250000Y-85250000D03*
X193750000Y-80750000D03*
X193750000Y-85250000D03*
D10*
X113999999Y-115999999D03*
D11*
X114000000Y-120500000D03*
X120500000Y-116000000D03*
X120500000Y-120500000D03*
D10*
X102109999Y-115999999D03*
D11*
X102110000Y-120500000D03*
X108610000Y-116000000D03*
X108610000Y-120500000D03*
D12*
X143499999Y-59749999D03*
D13*
X142499999Y-62449999D03*
X137499999Y-62449999D03*
D12*
X136499999Y-59749999D03*
D10*
X85499999Y-115999999D03*
D11*
X85500000Y-120500000D03*
X92000000Y-116000000D03*
X92000000Y-120500000D03*
D14*
X103250000Y-61040000D03*
X113250000Y-63540000D03*
X103250000Y-66040000D03*
D15*
X102342500Y-104900000D03*
X177342500Y-72900000D03*
D16*
X102342499Y-80009999D03*
D17*
X102342500Y-82550000D03*
X102342500Y-85090000D03*
X102342500Y-87630000D03*
X102342500Y-90170000D03*
X102342500Y-92710000D03*
X102342500Y-95250000D03*
X102342500Y-97790000D03*
X177342500Y-80010000D03*
X177342500Y-82550000D03*
X177342500Y-85090000D03*
X177342500Y-87630000D03*
X177342500Y-90170000D03*
X177342500Y-92710000D03*
X177342500Y-95250000D03*
X177342500Y-97790000D03*
D18*
X85089999Y-78289999D03*
D19*
X85090000Y-80830000D03*
X85090000Y-83370000D03*
X85090000Y-85910000D03*
X85090000Y-88450000D03*
X85090000Y-90990000D03*
X85090000Y-93530000D03*
X85090000Y-96070000D03*
X85090000Y-98610000D03*
X85090000Y-101150000D03*
X92710000Y-101150000D03*
X92710000Y-98610000D03*
X92710000Y-96070000D03*
X92710000Y-93530000D03*
X92710000Y-90990000D03*
X92710000Y-88450000D03*
X92710000Y-85910000D03*
X92710000Y-83370000D03*
X92710000Y-80830000D03*
X92710000Y-78290000D03*
D10*
X166999999Y-115999999D03*
D11*
X167000000Y-120500000D03*
X173500000Y-116000000D03*
X173500000Y-120500000D03*
D10*
X187249999Y-91729999D03*
D11*
X187250000Y-96230000D03*
X193750000Y-91730000D03*
X193750000Y-96230000D03*
M02*
