M48
; DRILL file {KiCad (7.0.0)} date Thu Jun 27 16:40:04 2024
; FORMAT={-:-/ absolute / metric / decimal}
; #@! TF.CreationDate,2024-06-27T16:40:04-07:00
; #@! TF.GenerationSoftware,Kicad,Pcbnew,(7.0.0)
; #@! TF.FileFunction,Plated,1,2,PTH
FMAT,2
METRIC
; #@! TA.AperFunction,Plated,PTH,ViaDrill
T1C0.305
; #@! TA.AperFunction,Plated,PTH,ComponentDrill
T2C0.700
; #@! TA.AperFunction,Plated,PTH,ComponentDrill
T3C0.714
; #@! TA.AperFunction,Plated,PTH,ComponentDrill
T4C0.800
; #@! TA.AperFunction,Plated,PTH,ComponentDrill
T5C1.000
%
G90
G05
T1
X107.696Y-86.36
X107.95Y-78.232
X107.95Y-93.218
X108.458Y-110.744
X109.22Y-101.6
X114.046Y-118.11
X114.3Y-106.68
X116.078Y-103.886
X116.332Y-71.882
X116.586Y-79.502
X116.84Y-96.266
X118.854Y-83.802
X119.888Y-114.808
X120.396Y-90.17
X120.65Y-94.488
X120.65Y-99.06
X120.65Y-107.696
X120.904Y-91.694
X120.904Y-103.378
X120.904Y-111.506
X121.158Y-116.332
X124.2Y-89.148
X124.206Y-113.538
X124.46Y-84.074
X125.493Y-92.393
X125.593Y-112.393
X125.693Y-95.393
X125.693Y-100.293
X125.693Y-109.093
X125.693Y-118.693
X125.73Y-98.298
X125.73Y-106.426
X125.793Y-103.593
X125.793Y-116.193
X126.492Y-76.454
X128.27Y-87.884
X129.09Y-85.074
X129.522Y-97.01
X129.794Y-105.156
X130.03Y-94.216
X130.03Y-103.36
X130.538Y-89.148
X130.556Y-110.744
X132.371Y-78.757
X132.842Y-71.374
X133.078Y-92.946
X134.094Y-92.946
X137.414Y-93.472
X137.904Y-88.415
X138.176Y-80.264
X138.938Y-97.028
X139.192Y-106.172
X139.192Y-115.57
X139.7Y-71.374
X144.526Y-75.692
X145.034Y-71.628
X146.304Y-115.316
X148.082Y-102.108
X148.336Y-107.696
X148.808Y-88.356
X150.114Y-89.662
X152.908Y-75.438
X153.162Y-115.316
X156.21Y-87.63
X159.99Y-76.274
X160.528Y-71.882
X161.89Y-79.574
X164.49Y-86.36
X164.592Y-115.316
X166.681Y-81.083
X167.132Y-71.882
X169.69Y-76.874
X172.212Y-76.962
X172.974Y-82.042
X176.276Y-82.55
X176.53Y-115.316
X177.292Y-72.136
X178.054Y-93.726
X178.054Y-105.156
X182.88Y-72.136
X183.642Y-118.11
X184.15Y-80.518
X184.404Y-91.948
X184.404Y-104.648
X188.468Y-111.252
X188.976Y-80.518
T2
X152.382Y-94.47
X152.382Y-102.09
X154.922Y-94.47
X154.922Y-102.09
X157.462Y-94.47
X157.462Y-102.09
X160.002Y-94.47
X160.002Y-102.09
X162.542Y-94.47
X162.542Y-102.09
X165.082Y-94.47
X165.082Y-102.09
X167.622Y-94.47
X167.622Y-102.09
X170.162Y-94.47
X170.162Y-102.09
X172.702Y-94.47
X172.702Y-102.09
X175.242Y-94.47
X175.242Y-102.09
T3
X118.872Y-75.474
X121.412Y-72.934
X123.952Y-75.474
T4
X135.374Y-94.47
X135.374Y-97.01
X135.374Y-99.55
X135.374Y-102.09
X135.374Y-104.63
X135.374Y-107.17
X135.374Y-109.71
X135.374Y-112.25
X135.374Y-114.79
X135.374Y-117.33
X142.994Y-94.47
X142.994Y-97.01
X142.994Y-99.55
X142.994Y-102.09
X142.994Y-104.63
X142.994Y-107.17
X142.994Y-109.71
X142.994Y-112.25
X142.994Y-114.79
X142.994Y-117.33
T5
X111.215Y-83.737
X111.215Y-86.277
X111.215Y-88.817
X111.215Y-91.357
X111.215Y-93.897
X111.215Y-96.437
X111.215Y-98.977
X111.215Y-101.517
X111.215Y-104.057
X113.755Y-83.737
X113.755Y-86.277
X113.755Y-88.817
X113.755Y-91.357
X113.755Y-93.897
X113.755Y-96.437
X113.755Y-98.977
X113.755Y-101.517
X113.755Y-104.057
X131.3Y-75.674
X132.062Y-82.786
X132.062Y-85.326
X133.84Y-75.674
X134.602Y-82.786
X134.602Y-85.326
X136.38Y-75.674
X137.142Y-82.786
X137.142Y-85.326
X138.92Y-75.674
X141.46Y-75.674
X143.746Y-82.786
X143.746Y-85.326
X146.286Y-82.786
X146.286Y-85.326
X148.826Y-82.786
X148.826Y-85.326
X149.54Y-73.224
X149.54Y-77.724
X149.894Y-113.048
X149.894Y-117.548
X152.355Y-89.224
X152.37Y-107.474
X154.895Y-89.224
X154.91Y-107.474
X156.04Y-73.224
X156.04Y-77.724
X156.394Y-113.048
X156.394Y-117.548
X157.435Y-89.224
X157.45Y-107.474
X159.975Y-89.224
X159.99Y-107.474
X161.324Y-113.048
X161.324Y-117.548
X162.515Y-89.224
X162.53Y-107.474
X165.055Y-89.224
X165.07Y-107.474
X167.595Y-89.224
X167.61Y-107.474
X167.824Y-113.048
X167.824Y-117.548
X170.135Y-89.224
X170.15Y-107.474
X172.675Y-89.224
X172.69Y-107.474
X173.21Y-113.084
X173.21Y-117.584
X175.215Y-89.224
X175.23Y-107.474
X179.71Y-113.084
X179.71Y-117.584
X180.882Y-102.634
X180.882Y-107.134
X180.934Y-89.934
X180.934Y-94.434
X187.382Y-102.634
X187.382Y-107.134
X187.434Y-89.934
X187.434Y-94.434
T0
M30
