G04 #@! TF.GenerationSoftware,KiCad,Pcbnew,(7.0.0)*
G04 #@! TF.CreationDate,2024-06-27T16:39:17-07:00*
G04 #@! TF.ProjectId,msp-debugger,6d73702d-6465-4627-9567-6765722e6b69,rev?*
G04 #@! TF.SameCoordinates,Original*
G04 #@! TF.FileFunction,Soldermask,Bot*
G04 #@! TF.FilePolarity,Negative*
%FSLAX46Y46*%
G04 Gerber Fmt 4.6, Leading zero omitted, Abs format (unit mm)*
G04 Created by KiCad (PCBNEW (7.0.0)) date 2024-06-27 16:39:17*
%MOMM*%
%LPD*%
G01*
G04 APERTURE LIST*
G04 Aperture macros list*
%AMRoundRect*
0 Rectangle with rounded corners*
0 $1 Rounding radius*
0 $2 $3 $4 $5 $6 $7 $8 $9 X,Y pos of 4 corners*
0 Add a 4 corners polygon primitive as box body*
4,1,4,$2,$3,$4,$5,$6,$7,$8,$9,$2,$3,0*
0 Add four circle primitives for the rounded corners*
1,1,$1+$1,$2,$3*
1,1,$1+$1,$4,$5*
1,1,$1+$1,$6,$7*
1,1,$1+$1,$8,$9*
0 Add four rect primitives between the rounded corners*
20,1,$1+$1,$2,$3,$4,$5,0*
20,1,$1+$1,$4,$5,$6,$7,0*
20,1,$1+$1,$6,$7,$8,$9,0*
20,1,$1+$1,$8,$9,$2,$3,0*%
G04 Aperture macros list end*
%ADD10R,1.700000X1.700000*%
%ADD11O,1.700000X1.700000*%
%ADD12R,1.508000X1.508000*%
%ADD13C,1.508000*%
%ADD14R,1.200000X1.200000*%
%ADD15C,1.200000*%
%ADD16RoundRect,0.102000X-0.611000X-0.611000X0.611000X-0.611000X0.611000X0.611000X-0.611000X0.611000X0*%
%ADD17C,1.426000*%
%ADD18R,1.600000X1.600000*%
%ADD19O,1.600000X1.600000*%
G04 APERTURE END LIST*
D10*
X148825999Y-82785999D03*
D11*
X148825999Y-85325999D03*
X146285999Y-82785999D03*
X146285999Y-85325999D03*
X143745999Y-82785999D03*
X143745999Y-85325999D03*
D12*
X161323999Y-113047999D03*
D13*
X161324000Y-117548000D03*
X167824000Y-113048000D03*
X167824000Y-117548000D03*
D10*
X131299999Y-75673999D03*
D11*
X133839999Y-75673999D03*
X136379999Y-75673999D03*
X138919999Y-75673999D03*
X141459999Y-75673999D03*
D14*
X152381999Y-102089999D03*
D15*
X154922000Y-102090000D03*
X157462000Y-102090000D03*
X160002000Y-102090000D03*
X162542000Y-102090000D03*
X165082000Y-102090000D03*
X167622000Y-102090000D03*
X170162000Y-102090000D03*
X172702000Y-102090000D03*
X175242000Y-102090000D03*
X175242000Y-94470000D03*
X172702000Y-94470000D03*
X170162000Y-94470000D03*
X167622000Y-94470000D03*
X165082000Y-94470000D03*
X162542000Y-94470000D03*
X160002000Y-94470000D03*
X157462000Y-94470000D03*
X154922000Y-94470000D03*
X152382000Y-94470000D03*
D10*
X175214999Y-89223999D03*
D11*
X172674999Y-89223999D03*
X170134999Y-89223999D03*
X167594999Y-89223999D03*
X165054999Y-89223999D03*
X162514999Y-89223999D03*
X159974999Y-89223999D03*
X157434999Y-89223999D03*
X154894999Y-89223999D03*
X152354999Y-89223999D03*
D16*
X118872000Y-75474000D03*
D17*
X121412000Y-72934000D03*
X123952000Y-75474000D03*
D10*
X152369999Y-107473999D03*
D11*
X154909999Y-107473999D03*
X157449999Y-107473999D03*
X159989999Y-107473999D03*
X162529999Y-107473999D03*
X165069999Y-107473999D03*
X167609999Y-107473999D03*
X170149999Y-107473999D03*
X172689999Y-107473999D03*
X175229999Y-107473999D03*
D10*
X137141999Y-82785999D03*
D11*
X134601999Y-82785999D03*
X132061999Y-82785999D03*
X132061999Y-85325999D03*
X134601999Y-85325999D03*
X137141999Y-85325999D03*
D10*
X111214999Y-83736999D03*
D11*
X113754999Y-83736999D03*
X111214999Y-86276999D03*
X113754999Y-86276999D03*
X111214999Y-88816999D03*
X113754999Y-88816999D03*
X111214999Y-91356999D03*
X113754999Y-91356999D03*
X111214999Y-93896999D03*
X113754999Y-93896999D03*
X111214999Y-96436999D03*
X113754999Y-96436999D03*
X111214999Y-98976999D03*
X113754999Y-98976999D03*
X111214999Y-101516999D03*
X113754999Y-101516999D03*
X111214999Y-104056999D03*
X113754999Y-104056999D03*
D12*
X180881999Y-102633999D03*
D13*
X180882000Y-107134000D03*
X187382000Y-102634000D03*
X187382000Y-107134000D03*
D12*
X180933999Y-89933999D03*
D13*
X180934000Y-94434000D03*
X187434000Y-89934000D03*
X187434000Y-94434000D03*
D12*
X173209999Y-113083999D03*
D13*
X173210000Y-117584000D03*
X179710000Y-113084000D03*
X179710000Y-117584000D03*
D18*
X135373999Y-94469999D03*
D19*
X135373999Y-97009999D03*
X135373999Y-99549999D03*
X135373999Y-102089999D03*
X135373999Y-104629999D03*
X135373999Y-107169999D03*
X135373999Y-109709999D03*
X135373999Y-112249999D03*
X135373999Y-114789999D03*
X135373999Y-117329999D03*
X142993999Y-117329999D03*
X142993999Y-114789999D03*
X142993999Y-112249999D03*
X142993999Y-109709999D03*
X142993999Y-107169999D03*
X142993999Y-104629999D03*
X142993999Y-102089999D03*
X142993999Y-99549999D03*
X142993999Y-97009999D03*
X142993999Y-94469999D03*
D12*
X156039999Y-77723999D03*
D13*
X156040000Y-73224000D03*
X149540000Y-77724000D03*
X149540000Y-73224000D03*
D12*
X156393999Y-117547999D03*
D13*
X156394000Y-113048000D03*
X149894000Y-117548000D03*
X149894000Y-113048000D03*
M02*
