G04 #@! TF.GenerationSoftware,KiCad,Pcbnew,(7.0.0)*
G04 #@! TF.CreationDate,2024-06-27T16:39:17-07:00*
G04 #@! TF.ProjectId,msp-debugger,6d73702d-6465-4627-9567-6765722e6b69,rev?*
G04 #@! TF.SameCoordinates,Original*
G04 #@! TF.FileFunction,Soldermask,Top*
G04 #@! TF.FilePolarity,Negative*
%FSLAX46Y46*%
G04 Gerber Fmt 4.6, Leading zero omitted, Abs format (unit mm)*
G04 Created by KiCad (PCBNEW (7.0.0)) date 2024-06-27 16:39:17*
%MOMM*%
%LPD*%
G01*
G04 APERTURE LIST*
G04 Aperture macros list*
%AMRoundRect*
0 Rectangle with rounded corners*
0 $1 Rounding radius*
0 $2 $3 $4 $5 $6 $7 $8 $9 X,Y pos of 4 corners*
0 Add a 4 corners polygon primitive as box body*
4,1,4,$2,$3,$4,$5,$6,$7,$8,$9,$2,$3,0*
0 Add four circle primitives for the rounded corners*
1,1,$1+$1,$2,$3*
1,1,$1+$1,$4,$5*
1,1,$1+$1,$6,$7*
1,1,$1+$1,$8,$9*
0 Add four rect primitives between the rounded corners*
20,1,$1+$1,$2,$3,$4,$5,0*
20,1,$1+$1,$4,$5,$6,$7,0*
20,1,$1+$1,$6,$7,$8,$9,0*
20,1,$1+$1,$8,$9,$2,$3,0*%
G04 Aperture macros list end*
%ADD10RoundRect,0.250000X0.250000X0.475000X-0.250000X0.475000X-0.250000X-0.475000X0.250000X-0.475000X0*%
%ADD11R,1.460500X0.355600*%
%ADD12R,1.700000X1.700000*%
%ADD13O,1.700000X1.700000*%
%ADD14R,1.508000X1.508000*%
%ADD15C,1.508000*%
%ADD16R,1.200000X1.200000*%
%ADD17C,1.200000*%
%ADD18RoundRect,0.250000X-0.475000X0.250000X-0.475000X-0.250000X0.475000X-0.250000X0.475000X0.250000X0*%
%ADD19RoundRect,0.102000X-0.611000X-0.611000X0.611000X-0.611000X0.611000X0.611000X-0.611000X0.611000X0*%
%ADD20C,1.426000*%
%ADD21RoundRect,0.250000X0.475000X-0.250000X0.475000X0.250000X-0.475000X0.250000X-0.475000X-0.250000X0*%
%ADD22R,1.981200X0.558800*%
%ADD23R,3.000000X1.600000*%
%ADD24R,6.200000X5.800000*%
%ADD25RoundRect,0.250000X-1.000000X-0.650000X1.000000X-0.650000X1.000000X0.650000X-1.000000X0.650000X0*%
%ADD26RoundRect,0.250000X-0.250000X-0.475000X0.250000X-0.475000X0.250000X0.475000X-0.250000X0.475000X0*%
%ADD27R,1.600000X1.600000*%
%ADD28O,1.600000X1.600000*%
%ADD29RoundRect,0.250000X-0.312500X-1.450000X0.312500X-1.450000X0.312500X1.450000X-0.312500X1.450000X0*%
G04 APERTURE END LIST*
D10*
X128712000Y-71628000D03*
X126812000Y-71628000D03*
D11*
X127214149Y-86396499D03*
X127214149Y-85761499D03*
X127214149Y-85126499D03*
X127214149Y-84491499D03*
X127214149Y-83856499D03*
X127214149Y-83221499D03*
X127214149Y-82586499D03*
X127214149Y-81951499D03*
X121765849Y-81951499D03*
X121765849Y-82586499D03*
X121765849Y-83221499D03*
X121765849Y-83856499D03*
X121765849Y-84491499D03*
X121765849Y-85126499D03*
X121765849Y-85761499D03*
X121765849Y-86396499D03*
D12*
X148825999Y-82785999D03*
D13*
X148825999Y-85325999D03*
X146285999Y-82785999D03*
X146285999Y-85325999D03*
X143745999Y-82785999D03*
X143745999Y-85325999D03*
D14*
X161323999Y-113047999D03*
D15*
X161324000Y-117548000D03*
X167824000Y-113048000D03*
X167824000Y-117548000D03*
D12*
X131299999Y-75673999D03*
D13*
X133839999Y-75673999D03*
X136379999Y-75673999D03*
X138919999Y-75673999D03*
X141459999Y-75673999D03*
D16*
X152381999Y-102089999D03*
D17*
X154922000Y-102090000D03*
X157462000Y-102090000D03*
X160002000Y-102090000D03*
X162542000Y-102090000D03*
X165082000Y-102090000D03*
X167622000Y-102090000D03*
X170162000Y-102090000D03*
X172702000Y-102090000D03*
X175242000Y-102090000D03*
X175242000Y-94470000D03*
X172702000Y-94470000D03*
X170162000Y-94470000D03*
X167622000Y-94470000D03*
X165082000Y-94470000D03*
X162542000Y-94470000D03*
X160002000Y-94470000D03*
X157462000Y-94470000D03*
X154922000Y-94470000D03*
X152382000Y-94470000D03*
D18*
X118381000Y-99363000D03*
X118381000Y-101263000D03*
X118381000Y-107813000D03*
X118381000Y-109713000D03*
D12*
X175214999Y-89223999D03*
D13*
X172674999Y-89223999D03*
X170134999Y-89223999D03*
X167594999Y-89223999D03*
X165054999Y-89223999D03*
X162514999Y-89223999D03*
X159974999Y-89223999D03*
X157434999Y-89223999D03*
X154894999Y-89223999D03*
X152354999Y-89223999D03*
D19*
X118872000Y-75474000D03*
D20*
X121412000Y-72934000D03*
X123952000Y-75474000D03*
D21*
X118327000Y-113779000D03*
X118327000Y-111879000D03*
D18*
X188036000Y-83680000D03*
X188036000Y-85580000D03*
D21*
X180162000Y-85646000D03*
X180162000Y-83746000D03*
D12*
X152369999Y-107473999D03*
D13*
X154909999Y-107473999D03*
X157449999Y-107473999D03*
X159989999Y-107473999D03*
X162529999Y-107473999D03*
X165069999Y-107473999D03*
X167609999Y-107473999D03*
X170149999Y-107473999D03*
X172689999Y-107473999D03*
X175229999Y-107473999D03*
D22*
X123305399Y-106886999D03*
X123305399Y-108156999D03*
X123305399Y-109426999D03*
X123305399Y-110696999D03*
X128232999Y-110696999D03*
X128232999Y-109426999D03*
X128232999Y-108156999D03*
X128232999Y-106886999D03*
D12*
X137141999Y-82785999D03*
D13*
X134601999Y-82785999D03*
X132061999Y-82785999D03*
X132061999Y-85325999D03*
X134601999Y-85325999D03*
X137141999Y-85325999D03*
D21*
X118381000Y-97263000D03*
X118381000Y-95363000D03*
D22*
X123229199Y-90479999D03*
X123229199Y-91749999D03*
X123229199Y-93019999D03*
X123229199Y-94289999D03*
X128156799Y-94289999D03*
X128156799Y-93019999D03*
X128156799Y-91749999D03*
X128156799Y-90479999D03*
D23*
X170289999Y-74903999D03*
X170289999Y-79473999D03*
D24*
X177459999Y-77188999D03*
D21*
X118381000Y-88763000D03*
X118381000Y-86863000D03*
D12*
X111214999Y-83736999D03*
D13*
X113754999Y-83736999D03*
X111214999Y-86276999D03*
X113754999Y-86276999D03*
X111214999Y-88816999D03*
X113754999Y-88816999D03*
X111214999Y-91356999D03*
X113754999Y-91356999D03*
X111214999Y-93896999D03*
X113754999Y-93896999D03*
X111214999Y-96436999D03*
X113754999Y-96436999D03*
X111214999Y-98976999D03*
X113754999Y-98976999D03*
X111214999Y-101516999D03*
X113754999Y-101516999D03*
X111214999Y-104056999D03*
X113754999Y-104056999D03*
D18*
X118381000Y-91163000D03*
X118381000Y-93063000D03*
D14*
X180881999Y-102633999D03*
D15*
X180882000Y-107134000D03*
X187382000Y-102634000D03*
X187382000Y-107134000D03*
D25*
X168290000Y-84474000D03*
X172290000Y-84474000D03*
D22*
X123285199Y-98279999D03*
X123285199Y-99549999D03*
X123285199Y-100819999D03*
X123285199Y-102089999D03*
X128212799Y-102089999D03*
X128212799Y-100819999D03*
X128212799Y-99549999D03*
X128212799Y-98279999D03*
D26*
X163390000Y-79474000D03*
X165290000Y-79474000D03*
D14*
X180933999Y-89933999D03*
D15*
X180934000Y-94434000D03*
X187434000Y-89934000D03*
X187434000Y-94434000D03*
D14*
X173209999Y-113083999D03*
D15*
X173210000Y-117584000D03*
X179710000Y-113084000D03*
X179710000Y-117584000D03*
D10*
X165290000Y-74474000D03*
X163390000Y-74474000D03*
D18*
X118327000Y-116380000D03*
X118327000Y-118280000D03*
D27*
X135373999Y-94469999D03*
D28*
X135373999Y-97009999D03*
X135373999Y-99549999D03*
X135373999Y-102089999D03*
X135373999Y-104629999D03*
X135373999Y-107169999D03*
X135373999Y-109709999D03*
X135373999Y-112249999D03*
X135373999Y-114789999D03*
X135373999Y-117329999D03*
X142993999Y-117329999D03*
X142993999Y-114789999D03*
X142993999Y-112249999D03*
X142993999Y-109709999D03*
X142993999Y-107169999D03*
X142993999Y-104629999D03*
X142993999Y-102089999D03*
X142993999Y-99549999D03*
X142993999Y-97009999D03*
X142993999Y-94469999D03*
D22*
X123229199Y-114887999D03*
X123229199Y-116157999D03*
X123229199Y-117427999D03*
X123229199Y-118697999D03*
X128156799Y-118697999D03*
X128156799Y-117427999D03*
X128156799Y-116157999D03*
X128156799Y-114887999D03*
D21*
X183972000Y-85646000D03*
X183972000Y-83746000D03*
D29*
X158390500Y-83820000D03*
X162665500Y-83820000D03*
D21*
X118381000Y-105563000D03*
X118381000Y-103663000D03*
D14*
X156039999Y-77723999D03*
D15*
X156040000Y-73224000D03*
X149540000Y-77724000D03*
X149540000Y-73224000D03*
D14*
X156393999Y-117547999D03*
D15*
X156394000Y-113048000D03*
X149894000Y-117548000D03*
X149894000Y-113048000D03*
M02*
